<?xml version="1.0"?>
<svg xmlns:rdf="http://www.w3.org/1999/02/22-rdf-syntax-ns#" xmlns="http://www.w3.org/2000/svg" xmlns:cc="http://creativecommons.org/ns#" xmlns:xlink="http://www.w3.org/1999/xlink" xmlns:dc="http://purl.org/dc/elements/1.1/" xmlns:svg="http://www.w3.org/2000/svg" id="svg2" viewBox="0 0 744.09 1052.4" version="1.1">
  <g id="layer2">
    <path id="path3865" stroke="#000" stroke-width="1px" fill="#dea47e" d="m347.86 510.22 10 52.143 18.571-10.714l-6.43-42.14z"/>
    <g id="g3786" transform="matrix(.78831 0 0 .78831 71.962 112.22)" fill="#dea47e">
      <g id="layer2-8">
        <path id="path2997" stroke="#000" stroke-width="1px" d="m277.43 284.38c-32.718 40.287-30.214 92.874-11.429 141.43-6.2348-18.689-29.178-24.93-28.918-1.4286-0.88642 12.233-0.44607 25.431 7.7346 26.306l21.183 2.2654c-3.784 21.66-27.762 48.77 54.949 68.153 31.229 7.3185 65.685 8.9128 92.194-2.4387 31.467-13.475 67.558-25.395 57.143-65.714l21.429-4.2857c10.577-2.1153 12.85-59.582-10.949-38.857-13.438-2.7326-7.8352 13.63-11.908 18.857 19.836-49.662 39.093-111.09 1.4286-152.86-47.54-52.73-129.36-69.6-192.85 8.57z"/>
      </g>
    </g>
    <path id="path3909" stroke="#000" stroke-width="1px" fill="#fca" d="m294.64 799.51 1.4286 33.929 91.429-2.1429 0.35714-28.214z"/>
    <g id="g3942-8-8" stroke="#b3b3b3" stroke-width="2" fill="#fff" transform="matrix(.62268 0 0 .62268 126.69 168.07)">
      <path id="path3850-2-2" transform="matrix(.93795 0 0 .97183 -28.494 7.6672)" d="m426.43 386.29c0 34.123-22.865 61.786-51.071 61.786s-51.071-27.662-51.071-61.786c0-34.123 22.865-61.786 51.071-61.786 27.698 0 50.347 26.71 51.055 60.208"/>
      <path id="path3850-1-4-4" transform="matrix(.78598 0 0 .92262 122.12 21.385)" d="m426.43 386.29c0 34.123-22.865 61.786-51.071 61.786s-51.071-27.662-51.071-61.786c0-34.123 22.865-61.786 51.071-61.786 27.698 0 50.347 26.71 51.055 60.208"/>
    </g>
    <path id="path3871-5-5" stroke="#b3b3b3" stroke-width="2" transform="matrix(.62268 0 0 .62268 134.16 162.16)" d="m340.71 413.79a11.071 17.857 0 1 1 -0.54118 -5.5147l-10.53 5.5147z"/>
    <path id="path3871-7-1-1" stroke="#b3b3b3" stroke-width="2" transform="matrix(.62268 0 0 .62268 181.29 161.67)" d="m340.71 413.79a11.071 17.857 0 1 1 -0.54118 -5.5147l-10.53 5.5147z"/>
    <path id="path3853" stroke="#a7941f" stroke-width="4" fill="none" d="m360.71 445.22c22.342-6.575 32.404 19.716 4.2857 15.714"/>
    <path id="path3855" stroke="#a7941f" stroke-width="4" fill="none" d="m413.57 462.36c-3.8831 15.025-13.024 21.638-26.429 21.429"/>
    <path id="path3857" stroke="#a7941f" stroke-width="4" fill="none" d="m405 458.08c9.5167 1.5512 17.624 3.8072 12.143 12.857"/>
    <path id="path3859" stroke="#000" stroke-width="1px" fill="#424242" d="m325.71 342.36 7.1428 14.286c-9.5238-2.6053-19.048 1.9073-28.571 10.714 4.6525-9.5785 2.7776-22.421 21.429-25z"/>
    <path id="path3861" stroke="#000" stroke-width="1px" fill="#424242" d="m372.86 353.08 12.857-12.857c13.135 4.5697 18.987 15.209 20.714 29.286-9.0392-9.0616-18.887-16.775-33.571-16.429z"/>
    <path id="path3863" stroke="#000" stroke-width="1px" fill="#424242" d="m280 441.65c21.645-21.851 14.931-41.236-7.1429-59.286 10.905-4.5969 21.967-9.1097 5-28.571 22.953-0.69909 33.921-12.185 37.857-30 36.173 21.355 56.048 14.559 71.429 0 8.808 9.172 17.487 18.796 30 15 4.6222 10.769 4.1177 24.334 28.571 24.286-17.378 10.136-43.665 19-10 36.429-10.041 28.871 1.7306 32.166 5.7143 40 11.157-8.4962 19.932-9.0682 23.571 0.71428 18.553-11.816 32.151-27.171 24.286-57.857 27.927-33.333 15.03-48.916 0-63.571 15.341-27.432 1.0335-40.041-21.429-48.571-25.131-45.008-61.127-41.119-101.43-17.857-83.243-39.678-100.45 9.3864-125 48.571-23.657 16.474-39.888 35.177-7.1429 68.571-14.585 17.11-14.462 31.462 1.4286 42.857-1.0954 49.405 23.506 34.568 44.286 29.286z"/>
    <path id="path3879-3" stroke="#000" stroke-width="1px" fill="#dea47e" d="m352.38 581.71c3.4317 18.516 0.44581 27.142-8.3765 62.611l9.2401 5.1462c1.1574 5.8533-0.58035 9.7998-5.2133 11.839l11.004 9.0685c0.52101 11.019-0.17308 21.656-8.6234 29.859l-9.2078 3.0991c-9.5224-1.8615-18.706-4.8038-26.531-12.071-4.6183-10.258-2.2516-21.639 1.4477-33.235 7.3253-16.245 12.835-34.14 9.79-59.813l5.4783-17.732z"/>
    <path id="path3901" stroke="#000" stroke-width="1px" fill="#dea47e" d="m393.57 753.43v42.143h20.714l0.35715-45.357z"/>
    <path id="path3903" stroke="#000" stroke-width="1px" fill="#dea47e" d="m359.64 745.93-1.0714 48.929 26.786 0.71429-1.7857-49.286z"/>
    <path id="path3899" stroke="#000" stroke-width="1px" fill="#738d44" d="m323.21 688.43 8.2143 64.643c10.539 4.9553 24.714 3.5474 37.143 0l-3.9286-26.786 3.5714 28.214c22.976 15.857 45.952 8.039 68.929 7.1429l-2.8572-65.714z"/>
    <path id="path3871" stroke="#000" stroke-width="1px" fill="#e7933d" d="m373.57 535.22 23.571 2.1429c20.54 8.1369 32.232 32.495 41.429 61.429-12.786 7.7611-28.643 9.3803-47.143 5.7143l-4.2857-44.286 5 45 23.571 0.71429c1.3248 31.3 5.6115 64.395 16.429 90-41.975 16.682-81.592 16.861-117.86-6.4286 17.71-41.172 26.638-84.101 35-127.14l-7.8571 39.286c-9.2827 3.151-17.425-2.445-19.286-8.5714 4.5073-20.977 6.8938-40.671 18.929-50.357 10.826-0.384 30.232 10.857 32.5-7.5z"/>
    <path id="path3879" stroke="#000" stroke-width="1px" fill="#dea47e" d="m425.71 594.86c8.819 16.638 12.439 48.874 14.643 85.357l10.357 2.1429c2.8571 5.2381 2.381 9.5238-1.4286 12.857l13.22 5.36c7.5868 3.0757 4.6538 28.206 0.71429 31.071l-7.8572 5.7143c-7.8469 5.7068-20.422 2.8847-28.929-3.5714-8.9609-6.8006-8.6284-19.972-8.5714-32.143l-8.5714-60-3.9286-43.929z"/>
    <path id="path3873" stroke="#000" stroke-width="1px" fill="#738d44" d="m350.71 544.15c6.8121 15.494 16.083 12.286 25.714 4.2857l-1.7857-13.214c-3.5314 8.322-7.2521 12.783-23.929 8.9286z"/>
    <path id="path3875" stroke="#000" stroke-width="1px" fill="#738d44" d="m325 582.01-3.2143 11.071c5.7918 10.1 12.571 9.3371 19.286 9.2857l2.5-11.429c-7.5818 2.1255-13.846-0.5793-18.571-8.9286z"/>
    <path id="path3877" stroke="#000" stroke-width="1px" fill="#738d44" d="m391.43 592.36 1.07 12.15c16.914 3.0046 32.598 2.3193 45.714-6.0714l-5-14.286c-12.955 8.0903-26.926 10.599-41.786 8.2143z"/>
    <path id="path3911" stroke="#000" stroke-width="1.0101px" fill="#fca" d="m466.41 802.36 0.72877 30-79.071-1.0714 0.72876-28.929z"/>
    <path id="path3905" stroke="#000" stroke-width="1px" fill="#e7933d" d="m388.57 783.79c-12.048 3.2318-24.485 9.0847-32.857-12.5l-1.0714 15c-26.659-12.489-48.358-14.315-56.071 13.929l47.857 1.4286c19.708 16.388 27.79 10.975 40.714 14.643z"/>
    <path id="path3907" stroke="#000" stroke-width="1px" fill="#e7933d" d="m389.29 784.15c14.112 10.658 21.996 3.6208 28.571-7.1428l4.2857 6.7857c40.275-3.3101 36.31 9.2613 41.429 18.571l-49.286-0.35714c-6.3829 6.9505-14.017 12.65-26.071 13.929z"/>
  </g>
  <metadata>
    <rdf:RDF>
      <cc:Work>
        <dc:format>image/svg+xml</dc:format>
        <dc:type rdf:resource="http://purl.org/dc/dcmitype/StillImage"/>
        <cc:license rdf:resource="http://creativecommons.org/licenses/publicdomain/"/>
        <dc:publisher>
          <cc:Agent rdf:about="http://openclipart.org/">
            <dc:title>Openclipart</dc:title>
          </cc:Agent>
        </dc:publisher>
        <dc:title>bobby</dc:title>
        <dc:date>2012-08-18T07:47:54</dc:date>
        <dc:description>school days</dc:description>
        <dc:source>http://openclipart.org/detail/171798/bobby-by-sammo241-171798</dc:source>
        <dc:creator>
          <cc:Agent>
            <dc:title>sammo241</dc:title>
          </cc:Agent>
        </dc:creator>
        <dc:subject>
          <rdf:Bag>
            <rdf:li>boy</rdf:li>
            <rdf:li>cartoon</rdf:li>
            <rdf:li>clip art</rdf:li>
            <rdf:li>clipart</rdf:li>
            <rdf:li>school</rdf:li>
          </rdf:Bag>
        </dc:subject>
      </cc:Work>
      <cc:License rdf:about="http://creativecommons.org/licenses/publicdomain/">
        <cc:permits rdf:resource="http://creativecommons.org/ns#Reproduction"/>
        <cc:permits rdf:resource="http://creativecommons.org/ns#Distribution"/>
        <cc:permits rdf:resource="http://creativecommons.org/ns#DerivativeWorks"/>
      </cc:License>
    </rdf:RDF>
  </metadata>
</svg>
