<svg xmlns="http://www.w3.org/2000/svg" width="364.4" height="565">
  <g stroke-width="3" fill="red" stroke-linejoin="round" stroke="#000">
    <path id="backblack" fill="#000" stroke="none" d="m179.6 0.4722c-8.74-0.003-19.43 3.272-36.87 8.627-1.5-0.2-3.2-1.399-4.5-0.2988-2.29 1.394-1.61 4.573-3.38 6.377-1.99-2.397-3.59-5.581-6.88-6.379-1.1-0.5669-2.28-0.8304-3.46-0.8516-1.97-0.045-3.95 0.5874-5.58 1.652v3.178c-3.29-1.695-6.47-3.584-9.86-4.979-0.25-0.022-0.55-0.046-0.86-0.062-0.21-0.012-0.42-0.021-0.63-0.012-0.22 0.01-0.42 0.042-0.62 0.092-0.59 0.1522-1.03 0.5247-0.93 1.385 1.79 1.994 4.19 3.294 5.79 5.481-1.49-0.497-3.07-1.089-4.55-1.583v0.02s0-0.01-0.1-0.02c1.1 1.401 2.4 2.7 3.5 4-18.1 6.1-33.4 19.5-57.4 40.5v2.601c-9.6 12.1-13.4 26.5-13.8 40.3-0.4 1.5-1 3-1 4.6 1.4 6.1 4.599 11.6 6.199 17.6 0.152-0.1 0.365-0.24 0.571-0.39l0.01 0.1 0.237-0.26c0.229-0.18 0.453-0.36 0.628-0.49l0.05 0.29 0.324 0.44 5.08 12.05c-5.326-4.73-9.006-6.94-15.87-7.14h-2.332c-3 2.4-2.501 6.5-2.201 9.9 0.2 4 3.102 6.9 5.602 9.7 12.69 13.19 29.77 13.5 31.99 9.01l1.541-0.34c-0.27 0.32-0.309 0.89-0.119 1.73 1.67 1.85 3.64 3.41 5.59 5l-1.102 0.18h-1.349c-14.2 0.58-36.5 24.43-44.25 27.92 0.1 1.6 0.501 3.2 1.101 4.7l5.399 2.1c-2.4 6.1-10.3 26.7-8.5 32.9-0.326 1.34-0.366 2.59-0.219 3.78h0.01c0.795 6.08 6.96 10.47 10.71 15.15 2.466 1.73 4.667 3.78 6.896 5.77l-11.91 2.77c-3.287 0.47-9.701 2.04-22.75 3.78l-5.947 1.43h0.03l-2.174 1.98-0.598 0.14c0.03 0.1 0.06 0.2 0.08 0.3h-0.134c-0.615 0-1.108 0.46-1.108 1.47 0.8 8.9 4.602 17.2 6.102 26 11 67.2 11 47.6 17.4 79.6 1.3 5.9 14.5 96.6 17 104.1 2.4 1.8 4.703 4.1 7.803 4.7 1.591-0.16 2.974-1.4 2.926-2.86 0.435-0.14 0.91-0.34 1.386-0.55l5.319-0.33c1.83 12.62 3.756 25.2 7.066 37.54 4.199 14.9 2.101 40.58 10.69 46.49l0.02 0.1c8.152-1.08 8.786-3.31 10.14-5.44 0.772-0.4 2.459-1.28 2.459-1.28h0.04l-0.05-0.41c-0.02-3.59-1.157-11.89-2.1-18.53l-7.422-65.45c0.723 1.03 1.439 2.04 2.131 2.95-0.01 4.83 5.081 6.33 8.785 4.73 1.23-0.54 1.602-3.93 1.202-4.33 0.3-9.6-2.3-14.9-6-41.9 2.2-0.6 4.3-0.4 6.5 0 0.7-0.6 2.199-1.6 2.199-1.6l-1.385-20.89c0.114-2.34 0.231-4.68 0.328-7.01 0.739 0.56 1.773 1.3 2.678 1.6 0.1 1 7.299 63.6 16.2 76.3 12.2 18.3-10.8 24.1-0.9 40l3.4-0.9c19.8-6.76 26.44-9.13 28.42-10.7 0.78-0.41 1.47-0.85 2.06-1.32 0.1 0.12 0.26 0.3 0.76 1.08 0.4-0.5 1.2-1.73 1.5-2.23-7.6-14-2.74-12.73-11.34-17.83-0.7-4.9-2.3-9.7-3.4-14.5-6.93-20.36-9.82-56.61-10.97-77.21l5.19-0.7c0.46 0.85 1.24 1.44 2.38 1.01 5.6-1.2 11.3-1.3 16.9-1.8 3.9-0.1 7.4-2.2 11.3-2.4 1.5 21.9-7.1 21.2 2.9 26.7 4.6-1.5 5.7-7.1 8.2-10.7 0.13 0.31 0.26 0.66 0.39 0.99 6.74 25.46 6.44 49.87 5.65 74.2-0.1 0.49-0.16 0.91-0.24 1.21 3.84 5.33 7.45 11.29 12.09 15.75 2.55 2.46 4.54 3.88 7.04 4.29 0.25 0.15 0.51 0.29 0.75 0.4 0.51-0.14 1.02-0.29 1.53-0.43 5.74-1.06 29.2-7.55 28.9-8.3l-3.11-10.99-6.93-3.74c-3.17-2.19-5.71-4.43-7.15-6.77l-0.1-0.1-0.1-0.15c-0.27-0.46-0.5-0.93-0.68-1.4l-3-6.22-0.79-1.54c-1-2.4-3.3-0.5-5-0.3 2.08-4.62 2.01-18.84 1.3-22.5-2.57-11.74-3.94-32.79-8.22-53.64h1.82c10-1.1 1.4-1.9 17.1-2.1-5.24 17.3-4.91 39.94-7.41 48.99-0.29 1.06-0.7 4.92 0.25 6.09l-2.23 12.63 3.45 4.45v2.39c2.36 0.49 4.08 0.45 7.3-2.59l2.79 0.14c0.5-0.9 1.1-1.8 1.6-2.6 0 0 7.81-35.25 13.66-71.56 0.57-3.51 0.67-7.09 1.19-10.59-0.97-0.38 0.35-5.68-0.75-7.08-2.7-3.6-4.2-7.8-6.7-11.5-4-4.5-7-9.7-10.2-14.7 4.49-1.36 36.37-10.69 57.44-16.4v2.3c-1.85 5.12 1.33 29.33 3.25 49.33l1.28 19.46c0 4.12-0.13 9.81 0.27 10.41 2.9 1.3 6.1 0 9.2 0.2 1.7-0.1 3.4 0.2 5.1-0.3 0.75-0.62 1.42-1.33 2.01-2.12 0.74-0.99 1.32-4.77 1.1-5.55-2.54-9.24 0.25-19.08-1.04-28.49-1.3-8.1-1.9-45.3 0.6-51.1 2.8-0.9 5.6-1.5 8.4-2.2 0.4 0.2 21.14-4.96 22.07-5.13 5.24-0.93 10.62-0.39 15.63 1.73-0.3 24.5-3.3 176.7-3.3 176.7-0.1 17.5-1.2 24.7 5.5 28.2 3.65 0.47 8.35 1.19 10.4-2.41 0.24-0.18 0.47-0.37 0.69-0.57 0.37 0.24 0.75 0.55 1.16 0.82 1.1-1.21 2.24-1.79 3.26-4.64 1.5-13.86 4.05-54.48 2.58-74.59 0.7-3.88 6.35-150.7 6.4-152.2h0.1l0.1-2.82-7.63-4.81c-25.12-24.06-25.98-22.96-55.77-45.6-4.3-3.1-8.8-6.1-12.4-10l-1.42-0.72c-5.8-3.6-11.3-7.9-17.7-10.4-4.41 0.27-8.73 1.3-13.02 2.4l-6.76 0.89c-1.32-2.54-10.28-19.27-17.32-26.69 0.4-0.6 1.29-1.59 1.69-2.09l-3.32-9.38-0.3-2.24c-1.15-1.5-2.52-2.78-4.03-3.88-4.17-3.01-9.44-4.55-14.5-5.14-0.1-0.11-0.16-0.21-0.26-0.32 29.38-33.57 12.09-40.67 16.88-52.74 0.6-2.3 2.9-3.8 3-6.2l2.9-7.799 8.77-10.5c0-0.02 0.1-0.05 0.1-0.07v0.04c7.6-6.3-3.4-24.4-4.5-29.7-3.4-7.9-8.2-15.09-14-21.39 0.28-0.319 0.55-0.657 0.81-0.992v-0.02c0.47-0.596 0.94-1.194 1.44-1.76-1.2-3.2-4.2-5.197-6.4-7.697-19.51-17.75-28.13-24.76-40.9-24.76zm76.76 85.83c-2.88 0.188-5.55 1.087-8 2.467-3.2 1.139-5.72 3.624-7.84 6.713-6.97 8.33-10.66 20-10.16 24.82l1.58 2.56c0.7 3.35 1.93 6.91 4.61 7.5l0.21 0.34c5.8 1.2 30.8-33 19.6-44.4zm-56.01 114c4.76 2.38 11.7 11.39 15.46 17.97l-2.15 0.28c-0.3-0.48-0.67-1.04-0.9-1.42l-9.21 1.97c-7 1.4-14 3.5-21.3 3.6 1.4-5.6 4.1-10.8 7.2-15.5 1.2-2.3 4-1.9 6.2-2.3l3.15 0.31c0.95-1.44 1.55-3.07 1.55-4.91zm-140.9 19.91c1.302 1 2.602 1.9 4.102 2.7 0.9-0.8 1.9-1.5 2.8-2.2 0.1 6.5-0.597 12.9-0.1 19.4-9.704-4.9-8.703-9.4-6.803-19.9z"/>
    <path id="chairlegs1" fill="#645787" d="m154.9 387.5c2.72 3.6 4.98 8.79 2.24 19.13-0.5 6.42 0 16.13 6.63 7.47 6.54-8.67 7.09-20.67 9.61-31.57zm-62.17 7.38c0.08 11.5-1.6 21.46-0.22 35.05l-8.443 0.38c-0.175-12.07 1.124-22.17 1.738-33.19z"/>
    <path id="chairlegs2" fill="#645787" d="m74.35 464.1c3.281 4.26 7.11 10.72 9.833 12.76 2.181 0.55 4.515 1.02 5.559-0.99l-0.983-12.44-1.676-8.59-3.008-21.29c-0.579-8.97 0.313-17.45 0.707-26.09l0.737-3.64 3.674-3.87 4.987 0.19 32.41-4.35 19.76-2.33 17.45-4.03 31.27-2.73 16.87-1.3c-5.88 13.24-5.77 27.23-7.23 41.02l-5.04 28.61 4.6 5.94 8.06-4.41c0.6-1.62 2.2-3.8 2.88-6.51 3.5-13.89 8.03-41.48 13.08-75.96l0.23-4.41-19.45-29.93-141 46.8z"/>
    <path id="shorts" fill="#ff1e1e" d="m94.14 382c7.996-3.42 15.72-8.81 25.49-4.23l10.48-1.84c2.41-4.35 4.91-8.56 8.13-11.49l9.19 7.9c3.02-1.24 5.79-2.55 7.99-3.99 3.09-8.68 7.08-12.75 17.68-14.48l7.55 8.42c4.55-5.18 12.44-8.3 8.6-18.97l-99.1 33.25z"/>
    <path id="desklegs1" fill="#a05a2c" d="m7.401 287.9c1.657 16.48 4.928 34.57 9.994 54.45 7.196 23.37 11.04 43.68 11.84 60.23l4.455 26.2c9.261 49.41 10.49 52.93 20 48.39l-20.66-126.1c-7.846-21.52-16.74-42.33-25.63-63.15zm262.2 35.37c1.31 18.85 2.06 36.91 3.38 55.03 3.63 25.32 1.68 19.66 2.62 28.08l12.01-0.64c1.83-1.55 2.67-5.2 2.54-7.97-0.4-3.37-1.4-43.94-1.45-49.66 0-3.85 0.48-7.83 0.34-11.72-0.21-5.82 0-11.93-0.11-17.93z"/>
    <path id="deskrest" fill="#a05a2c" d="m39.84 371.5 35.86 189.9c9.592-1.27 8.769-4.14 10.97-6.55l-21.15-164.7c27.72-10.56 242.9-87.06 273.9-81.11l0.1 0.58c4.65 36.25-2.19 168.6-3.37 193.5-0.33 19.85 20.17 18.04 17.47 0.91l5.22-222.1-73.17-58.42-19.24-11.95-54.46 7.14-79.98 15.66-130.8 30.48c3.041 11.31 7.398 23.93 11.95 36.76z"/>
    <path id="book" fill="#c8beb7" d="m101 287.4c-1.469 2.66 7.92 27.04 12.43 41.66l25.6-7.95c9.21 3.28 27.22-2.23 42.01-4.53 2.15 2.14 5.51 4.38 7.74 5.01 5.24-0.99 6.3-3.12 9.12-4.96l72.27 1.16c-0.71-23.6-1.27-47.29-7.36-67.9-10.44-2.42-69.15-11.17-77.57-0.46l-1.61 8.05-8.05-5.06c-8.4-8.96-18.06-10.19-27.39-7.14l-22.56 7.37-29 19.79z"/>
    <path id="skin" fill="#fca" d="m46.2 121.9 25.87 35.3 17.18 14.8 12.41 7.63c-0.55 0.77 15.86 11.23 17.18 11.93 25.67 13.59 44.7 7.6 68.73-9.54 10.23-6.17 18.69-14.3 26.72-22.91 4.29-5.42 8.62-10.8 10.98-17.66 2.53-6.6 3.09-13.43 1.43-20.52-1.23-4.34-1.58-8.88 4.17-16.14 4.75-9.96 3.45-12.46 4.42-17.75l-193.8 9.18zm190.9 8.52c2.61 0 5.18-3.02 8.19-6.9 4.74-6.08 9.32-15.05 11.66-21.6 1.04-2.63 2.33-5.804 1.2-8.393 0.19-5.747-4.23-6.625-7.73-5.328-9.41 1.474-13.59 13.93-17.45 22.64-1.22 2.76-2.08 5.94-1.6 8.93 0.63 3.98 1.71 10.42 5.73 10.65zm-168.9 25.58-2.199-6.4-2.003-2.4-9.651-9.45-6.66-6.53c-3.132-1.18-6.304-2.28-9.793-2.75-1.629-0.21-3.776-1.37-5.124-0.18-1.373 1.21-1.095 3.7-1.066 5.6 0.04 2.86 1.865 8.39 1.865 8.39 12.29 11.42 24.11 18.55 34.63 13.72zm125.6 36.03c9.44 6.47 17.71 15.87 25.69 26.01-6.69 21.35-14.84 42.41-22.7 63.53l-8.37 2.25c-8.09 2.02-18.87 1.59-21.78 8.34l-10.5 17.67 5.44 4.42 10.81 0.23 4.61 2.99 7.82-12.88 6.22-6.22 5.52-0.46c32.76-18.4 41.97-45.8 50.91-75.95 1.05-3.99-0.27-7.55-1.66-11.05-7.51-13.02-14.45-23.72-19.75-27.67l3.42-4.79-22.1-11.73zm-152.9-5.98c-0.192 0.77-10.82 31.11-10.82 31.11-2.323 8.26-3.394 16.63 4.22 25.7 17.18 15.91 35.76 27.12 56.01 32.8h5.319l3.468 6.55 7.863 2.7 6.86-5.4-2.54-1.38c-3.99-0.86-8.5-1.99-9.94-1.47l-0.39-1.08c3.47 0.86 6.93 2.6 10.4 2.53l2.59 1.32 2.58-1.99 9.67-4.8c0.48-0.4 0.44-1.33 0.31-2.34-1.49-3.06-4.32-2.1-6.76-2.3l-6.22 1.78-3.44-1-3.64-4.68 3.97 1.02 9.81-0.56 3.27-0.95s4.45 2.14 6.52 1.34c0.81-0.31 1.42-1.25 1.54-2.11 0.22-1.62-0.75-3.29-1.73-4.6-1.82-2.45-4.35-4.71-7.29-5.57-5.05-1.47-15.72 1.35-15.72 1.35-5.43 3.94-9.432 3.6-13.24 2.68l-33.95-18.41c-4.918-2.57-3.092-11.5-0.959-20.72l17.45-9.39zm53.21 195.9c1.279 18.04 3.39 34.58 7.496 52.16 3.2 26.14 9.69 45.72 19.12 59.41l13.73-2.04c-1.25-7.07-3.23-15.68-5.37-21.75-3.14-12.65-4.44-26.3-7.1-39.65l-2.78-38.06c0.69-6.02 2.02-6.93 0.39-14.3-6.39-4.06-15.41-1.29-25.49 4.23zm61.28-13.65 2.13 4.78c10.9 25.51 19.28 54.16 18.4 93.71l19.06 7.6c1.12-7.38 2.35-17.35 2.15-28.74-2.67-14.8-3.54-21.34-4.45-33.09-1.64-16.8-9.2-40.32-12.06-50.32l-7.55-8.42c-8.68 1.01-15.06 5.16-17.68 14.48z"/>
    <path id="shirt" stroke-width="2.5" fill="#00f" d="m30.37 191.9c3.124-1.49 31.09 9.5 31.69 28.16l4.453-4.92 2.871 0.59 0.539 1.83c-2.596 1.84-2.682 16.46-3.326 24.56l11.08 5.11 103.1-22.84c2.37-9.81 5.87-17.38 10.49-23.2l5.86 1.25c1.49-7.45 12.5-23.76 23.02-25.47 1.61-0.37 8.36-1.27 11.75 7.92l-1.75-9.27c-1.31-6.37-13.25-7.8-20.71-11.31-15.25 17.39-34.78 28.94-49.14 33.75-19.05 1.98-28.98 3.77-48.11-8.37-13.57-9.66-12.92-10.89-25.64-18.87l-7.611-7.59c-14.27 1.63-20.03 6.1-26.53 10.08-7.783 4.9-14.86 11.93-22.05 18.59z"/>
    <path id="pen" stroke-width="2.5" fill="#6162a1" d="m116.3 277.5c3.52 5.21 5.89 10.66 8.62 16.03l1.35 0.36 0.24-1.29c-0.94-6.74-1.86-13.47-1.63-19.54zm-15.05-49.91c5.24 12.76 8.22 28.06 11.2 42.51l10.73-2.22-6.33-22.53c1.93-2.46 0.71-3.51-0.26-5.26-1.08-6.63-6.37-17.53-11.69-24.95-3.51 4.33-5.159 7.46-3.65 12.45z"/>
    <path id="penclip" fill="none" d="m120.5 239.2-5.76-15.05c-3.96-8.68-6.95-9.2-7.43-7.99-0.69 0.1 0.52-0.79 0 0.1l-0.45 1.9-1.88-3-5.059 4.23c-0.184 1.13 0.709 4.73 1.019 7.15"/>
    <path id="eyewhites" stroke-width="2" fill="#f9f9f9" d="m204.4 123.8c-6.66-0.1-13.31 2.67-19.66 5.04a0.7306 0.7306 0 0 1 -0.1 0c-2.25 0.69-3.86 2.19-5.39 3.98-1.53 1.78-2.95 3.84-4.84 5.47-0.48 0.38-0.68 0.75-0.75 1.17-0.1 0.41 0 0.89 0.19 1.41 0.4 1.04 1.32 2.17 2.11 2.92l-0.1-0.1c2.66 1.91 4.15 4.79 6.52 6.17 13.26 1.47 19.53-6.44 24.24-9.59a0.7306 0.7306 0 0 1 0.1 0c3.1-1.69 4.1-5.5 4.99-8.97-0.57-2.58-1.5-5.01-2.99-7.01-1.43-0.32-2.88-0.5-4.33-0.53zm-69.23 12.8c-7.03 0-14.06 1.77-19.92 5.56a0.7306 0.7306 0 0 1 -0.1 0c-3.17 1.63-4.96 4.81-6.14 8.13 1.16 3.07 3.42 5.2 6.21 6.74 2.84 1.57 6.21 2.5 9.35 3.14 5.83-0.4 11.62-1.2 16.4-3.29 4.73-2.07 8.45-5.38 10.46-10.89-1.06-2.81-1.96-5.66-4.09-7.42-3.89-1.3-8.04-1.98-12.2-2.01z"/>
    <path id="eyeballs" stroke-width="1.5" fill="#522402" d="m194.6 135.6c-1.59 0.1-3.27 0.84-4.82 1.92-1.56 1.08-2.97 2.49-3.92 4.01a0.7905 0.7905 0 0 0 0 0.82c0.68 1.17 1.28 2.36 1.98 3.67a0.7905 0.7905 0 0 0 0.97 0.37c3.59-1.29 7.87-2.74 9.74-6.7a0.7905 0.7905 0 0 0 0.1 -0.45c-0.16-1.24-0.63-2.21-1.37-2.84-0.73-0.62-1.68-0.86-2.64-0.8zm-62.85 10.22c-2.4 0-4.98 0.58-6.93 1.64-0.97 0.54-1.8 1.19-2.34 2.02s-0.75 1.87-0.44 2.9a0.7905 0.7905 0 0 0 0 0.1c0.97 2.16 2.61 3.99 3.88 5.74a0.7905 0.7905 0 0 0 0.69 0.33c1.46-0.1 3.17-0.1 4.84-0.44 1.66-0.35 3.31-1.1 4.45-2.69 1.19-1.55 1.88-2.9 2.15-4.12 0.28-1.23 0.1-2.35-0.48-3.2-1.15-1.71-3.46-2.27-5.86-2.27z"/>
    <path id="tongue" stroke-width="1.5" fill="#ff1e1e" d="m140.3 184.1a0.7706 0.7706 0 0 0 -0.37 0.11c-2.99 1.76-4.36 5.12-4.68 8.38a0.7706 0.7706 0 0 0 0.66 0.84c2.15 0.31 4.37 0.41 6.47 0.51a0.7706 0.7706 0 0 0 0.48 -0.14c2.35-1.64 4.58-3.63 5.86-6.41a0.7706 0.7706 0 0 0 -0.41 -1.04c-2.5-1-5.08-2.04-7.93-2.25a0.7706 0.7706 0 0 0 -0.1 0z"/>
    <path id="hair" fill="#522402" d="m45.28 122.4 26.97-29.44c-0.7 12.17-4.437 25.35-1.047 36.16 6.482-10.61 6.866-18.09 10.05-29.64-2.16 9.95-4.767 19.87-1.482 30.32l6.785-12.56 0.785 11.17 4.954 6.87 5.669-4.61 6.164 2.4c27.02-1.32 46.28-11.43 68.27-16.41 9.07 1.07 15.97 1.9 22.59-2.33 1-0.64 1.68-1.44 2.78-1.86 7.43-2.82 13.36-2.11 20.23-6.24 8.13-4.87 17.15-14.73 25.35-19.67 1.15-8.564-2.2-19.02-5.43-28.07l-15.23-22.54 1.74-3.44-24.77-24.29c-4.61-2.952-9.54-5.377-15.43-6.21-14.71 0.1178-29.89 4.911-45.07 8.853-4.51 1.2-2.72 9.195-4.9 6.125-6.55-9.252-10.54-7.339-15.28-4.029-1.23 0.508-3.81-0.17-4.97 0-0.68 1.776-4.56 6.372-8.16 7.37-5.26 1.453-7.887 4.878-19.45 11.77-30.47 22.81-36.94 28.35-41.29 48.11-0.434 1.969-3.912 8.955-3.838 17.34 0.07 7.964 2.442 16.49 4.011 24.83z"/>
    <path id="shoes" fill="#522402" d="m176.9 458.3 6.05 8.62c3 4.27 6.45 3.67 12.72 0.61l3.19-1.39c6.21 13.32 13.26 16.78 20.27 20.71 0.11 2.72 1.23 5.66 3.19 8.79-9.06 4.39-18.97 7.08-28.84 9.87-2.65-1.23-6.08-4.2-10.58-9.54-11.16-12.49-6.14-22.08-6-37.67zm-58.97 29.04c0.39 3.33-2.91 9.32-5.67 15.72-2.08 4.81-2.92 8.83-0.71 11.52l0.26 3.79 10.2-3.46c8.31-2.7 19.78-4.46 23.36-8.57l-4.43-9.37c-1.93-4.23-6.21-6.82-8.78-8.22-8.15 1.46-11.57 0.38-14.23-1.41z"/>
    <path id="ink-top" stroke="none" fill="#000" d="m207 286.8c-0.22 1.12-2.21 4.88-2.19 4.68l8.42-7.42c-2.21 0.72-4.04 2.83-6.23 2.74zm-30.53 6.4c-3.5 1.21-9.09 13.62-13.64 18.58l0.38 3.31 2.93-2.54c0-4.21 8.74-12.39 10.33-19.35zm6.71 4.24-10.56 16.42-4.7-0.54 1.07-0.77c1.79 0.43 2.8-1.48 4.01-2.78l6.79-10.48c1.65-1.78 2.55-1.89 3.39-1.85zm3.47-158.2c-1.67 1.55-2.74 3.46-1.73 6.61l1.07 3.23c-3.44-0.41-5.33-2.77-7.82-4.57l2.92 4.6 5.16 0.83 3.05 0.13 8.34-3.63-1.73 0.27c-0.74 0.37-2.47 1.39-6.8 1.05l2.6-1.52 0.15-1.4s-3.33 1.16-3.35 1.07c0-0.1-2.02-3.89-2.02-3.89l0.3-0.71 0.36-2.39zm4.15 163.6h3.06l0.2 9.2 6.9 5.56-4.76 1.25c-3.01-2.37-5.56-5.85-5.4-16.01zm31.22 6.08c-5.06 0.13-10.01 1.3-14.81 3.85-2.02 2.71-6.01 2.28-9.73 2.26l-4.53 0.93c-4.06-1.48-8.06-3.11-12.28-4.25l-1.74 2.75c3.41 0.61 7.05 1.71 10.96 3.5l23.18-2.53c3.97-7.15 17.66-3.58 23.84-0.13l1.24 1.82 30.15-0.49-26.33-3.86c-6.77-2.49-13.45-4.03-19.95-3.85zm-62.77 2.98c-2.47 0.75-5.08 1.77-7.85 3.13l-36.77 12.39-3.59 1.73c13.37-3.52 27.04-5.52 40.09-10.65 3.64-1.2 7.54-2.62 11.86-3.57l-3.74-3.03zm23.13-35.27c0.77 0.28 1.55 0.4 2.32 0.34-0.68-2.3-0.8-4.78-1.1-7.21-0.29-5.07-1.28-9.99-4.26-12.27-0.55 0.53-1.82 1.02-0.94 3.66 2.09 5.03 2.95 9.99 3.98 15.48zm73.74-29.46 10.13 1.62 1.37 14.75 0.14 7.59-2.92-7.11c-1.27-6.74-3.14-15.56-8.72-16.85zm-194.2-79.22c1.763 3.12 5.324 0.89 6.925-1.49 1.839-0.1 2.787-1.43 5.29 0.1 0.857-0.88 0.658-1.8-0.204-2.75zm149.4-4.04c3.69 4.14 3.14 5.96 4.56 8.86-3.04-1.25-4.63-4.69-6.79-7.27zm-94.61 213.6 1.82 4.49 6.59-3.64c1.08-0.2 2.15-0.4 4.07-0.1 1.7 0.46 2.18-0.1 3.1-0.22 0.35-4.53 2.84-8.19 5.73-11.36 1.06 1.55 3.47 3.5 5.62 4.35l3.69 3.19 5.17-2.55c1.2 1.28 2.18 3 4.19 2.65l0.81-5.27 1.93-6.16c4.77-5.89 8.36-6.06 12.15-7.22l10.5 10.19 4.6-7.17-3.47 0.92-7.29-6.73s-17.25 4.37-17.31 4.63c-0.1 0.27-5.35 9.85-4.89 9.77-1.23 1.78-3.93 2.42-6.39 3.25-3.95-2.81-7.36-5.76-12.52-5.4l-6.15 9.45zm0.1-0.89c1.18 4.65 1.64 6.9 1.01 14.92l1.01 8.05 1.88-12.32-0.77-8.88zm-21.4 27.41-2.886-22.31 3.663-2.22 1.776 24.64zm44.53-221.4c-2.03 0.1-5.09 0.79-11.18 2.79v1.8c2.8-0.2 5.4-1.6 8.2-2.3l12.7 3.1c2.8-1.1 5.9-0.9 8.9-1.3 2 1.2 4.6 2.9 6.4 0.3-1.7-0.7-3.4-1.6-5.2-2.2-15.88 0.62-15.36-2.35-19.82-2.19zm26.72-54.31c-0.4 0.2-1.3 0.7-1.7 0.9 3.69 6.6 6.7 21.2 10.9 27.8 0.6 4.2 0.4 8.6 2.5 12.4-0.6 0.7-1.2 1.5-1.8 2.3-10.7-4.3-7.8-0.6-12.8-0.7-1.8-1.4-3.5-3-5.5-4.1-0.4 1-0.4 2.2 0.8 2.7 2.1 1.1 3.8 4.5 6.5 2.8 3.2-1.5 7-1.3 9.7 1.1 1.4-0.1 2.8-0.1 4.2-0.1 0.4-0.5 1.2-1.6 1.5-2.1-1-2.4-2.4-4.6-2.6-7.1-0.4-3.1 0-6.4-1.6-9.2-5.1-9.4-5.7-17.1-10.1-26.7zm-59.09-120.6c-0.86 0.046-1.63 0.3516-1.51 1.477 1.8 2 4.2 3.3 5.8 5.5-1.5-0.5-3.1-1.102-4.6-1.602 1.1 1.4 2.4 2.7 3.5 4-0.64 0.215-1.27 0.46-1.9 0.693l2.27 2.627s0.1 0 0.13-0.02c0.7 0.8 1.5 1.6 2.2 2.5 2-2.2 4.6-3.105 7.2-1.305 1-0.8 1.9-1.499 2.8-2.299-3.3-1.6-7.5-2.5-9.4-6 4.7 1.4 8.8 4.2 13.2 6.5 1-0.3 2.5-2.5 0.9-3-2.4-1.2-4.8-2.601-6.6-4.701 5.3-5.099 11.4 5.505 13.9 7.905 2.16-2.16 2.05-5.195 3.26-7.793l-1.16-2.836c-1.47 1.57-1.11 4.243-2.7 5.83-2-2.4-3.6-5.601-6.9-6.401-2.9-1.5-6.4-0.9012-9 0.7988v3.201c-3.3-1.7-6.5-3.6-9.9-5-0.41-0.037-0.97-0.1038-1.49-0.076zm104.8 17.87c-0.6 0.6-2.4 1.905-1.1 2.805 2.5 2.4 14.4 9.101 21.2 22.8-0.7 0.5-2.2 1.394-2.9 1.894 17.6 19 13.6 30.7 13.6 33.7 7.6-6.3-3.4-24.4-4.5-29.7-3.4-7.9-8.2-15.09-14-21.39 0.28-0.319 0.55-0.657 0.81-0.992l-1.9-1.534c0 0.08 0.1 0.148 0.1 0.225-4.1-2.1-7.3-5.605-11.3-7.805zm-26.67 44.2c-6.1 0.5 4.5 14.3 5.6 28.3 1.2 5.481 0.31 10.97-0.29 16.45l4.27-0.2c-2.26-5.49 0.12-11.57-1.58-17.15-0.8-6.8-3-13.3-5.4-19.8-1.1-2.4-0.6-5.6-2.6-7.6zm-13.56 12.08c-1.03 0.06-1.57 1.049-1.04 1.924 7.5 11.1 6.8 26.6 5.9 32.3-0.1 1.6 1.7 1.3 2.8 1.6 0 0.1 0.1 0.12 0.1 0.2l0.1-1.42c-0.94-3.36 0.13-6.72-0.17-10.18-0.76-20.14-5.39-24.55-7.66-24.42zm49.26 5.124c-0.6 0.8-2.2 1.6-1.4 2.8 1.3 3.7 4.1 7.1 3.2 11.2 0.2 2.1 3.5 1.2 3.1-0.8-0.7-4.595-1.6-9.7-4.9-13.2zm-6.11 0.841c-0.42 0-0.89 0.208-1.39 0.758 0.1 4.438 1.07 8.684 2.06 12.92l0.16 0.1-0.22 3.18c0.5 1.1 1.2 2.4 1.9 3.5 0.5-0.6 1.5-1.7 2-2.2-0.8-1.5-1.7-3.1-1-4.7-1.2-3.3-0.8-6.8-1.2-10.1-0.15-1.35-1.03-3.431-2.31-3.459zm-42.97 27.94c-7.01 0-24.84 9.07-47.75 12.32-6.1 1.1-12.3 0.3-18.5 0.6-0.24 0.48-0.46 0.96-0.66 1.45l-1.59 4.32c2.09 0.14 4.21-0.13 6.25-0.87 3.3-1.4 7.2 0.7 10.1-1.5 2.4-2 5.6-1.4 8.4-2 14.49-2.98 28.29-8.51 42.67-12.01l3.56-1.57c-0.54-0.51-1.37-0.74-2.48-0.74zm14.71 382.4 3.46-0.98c1.98-9.32 14.9-15.3 23.12-10.17l4.13 0.71-4.85-5.22-3.71-0.35c-13.36 0.48-20.29 6.17-22.15 16.01zm163.2-225 7.27 6.65 3.47 4.32 3.27 0.74l0.1-2.82zm7.27 6.65-2.95 0.67c-11.53 1.51-23.96 6.77-36.5 12.5l-0.1 2.2c6.04-1.54 14.97-6.18 20.33-8.11 7.24-2.62 12.09-3.93 15.37-4.39 2.05-0.19 2.97-1.51 3.85-2.87zm-64.35 19.76-23.15 5.29 0.35 2.32c4.94-0.65 19.1-4.54 22.8-7.61zm-63 17.44-16.8 5.12c-9.84 3.46-21.44 5.75-32.75 8.23l-21.59 6.73c-2.51 0.69-4.93 1.28-7.45 1.79l-3.34 0.1c-1.43 0.15-2.78 0.44-2.78 2.69 4.01 1.17 10.55-1.05 14.24-2.1l20.62-6.71c4.26-1.27 7.89-2.07 11.47-2.84l6.13-1.4c9.42-2.19 18.66-4.95 27.74-8.16l10.65-3.16zm-134.7 39.72-54.57 13.08-1.42-0.73 21.82 108.1-0.154-2.31-2.315-15.96c-1.428-10.88-4.276-21.24-6.775-31.72l-3.692-19.5-4.347-35.06 46.18-12.88c2.899-1.02 5.057-1.91 5.278-2.99zm-20.09 31.49-10.49 1.98c-2.86 0.87-2.303 22.9 0.433 42.32 3.628 36.48 15.74 87.53 19.87 122.2h3.274l-9.942-87.69-4.513-44.21c-0.77-13.51-2.808-29.3 1.365-34.58zm45.27 99.05-0.66-1.51c-0.51-1.16-1-1.24-1.75-1.62-0.94-0.48-1.75-1.43-2.29-2.21v3.34zm44.94-98.19c2.49 2.1 1.89 3.33 1.92 6.05z"/>
  </g>
</svg>
