<?xml version="1.0" encoding="UTF-8" standalone="no"?>
<!-- Created with Inkscape (http://www.inkscape.org/) -->

<svg
   xmlns:dc="http://purl.org/dc/elements/1.1/"
   xmlns:cc="http://creativecommons.org/ns#"
   xmlns:rdf="http://www.w3.org/1999/02/22-rdf-syntax-ns#"
   xmlns:svg="http://www.w3.org/2000/svg"
   xmlns="http://www.w3.org/2000/svg"
   xmlns:sodipodi="http://sodipodi.sourceforge.net/DTD/sodipodi-0.dtd"
   xmlns:inkscape="http://www.inkscape.org/namespaces/inkscape"
   width="297mm"
   height="210mm"
   viewBox="0 0 1052.3622 744.09448"
   id="svg2"
   version="1.1"
   inkscape:version="0.91 r13725"
   sodipodi:docname="Cute whale colored.svg">
  <defs
     id="defs4">
    <inkscape:path-effect
       effect="skeletal"
       id="path-effect4266"
       is_visible="true"
       pattern="M 0,5 C 0,2.24 2.24,0 5,0 7.76,0 10,2.24 10,5 10,7.76 7.76,10 5,10 2.24,10 0,7.76 0,5 Z"
       copytype="single_stretched"
       prop_scale="1"
       scale_y_rel="false"
       spacing="0"
       normal_offset="0"
       tang_offset="0"
       prop_units="false"
       vertical_pattern="false"
       fuse_tolerance="0" />
    <inkscape:path-effect
       fuse_tolerance="0"
       vertical_pattern="false"
       prop_units="false"
       tang_offset="0"
       normal_offset="0"
       spacing="0"
       scale_y_rel="false"
       prop_scale="1"
       copytype="single_stretched"
       pattern="M 0,5 C 0,2.24 2.24,0 5,0 7.76,0 10,2.24 10,5 10,7.76 7.76,10 5,10 2.24,10 0,7.76 0,5 Z"
       is_visible="true"
       id="path-effect4262"
       effect="skeletal" />
    <inkscape:path-effect
       fuse_tolerance="0"
       vertical_pattern="false"
       prop_units="false"
       tang_offset="0"
       normal_offset="0"
       spacing="0"
       scale_y_rel="false"
       prop_scale="1"
       copytype="single_stretched"
       pattern="M 0,5 C 0,2.24 2.24,0 5,0 7.76,0 10,2.24 10,5 10,7.76 7.76,10 5,10 2.24,10 0,7.76 0,5 Z"
       is_visible="true"
       id="path-effect4255"
       effect="skeletal" />
    <inkscape:path-effect
       fuse_tolerance="0"
       vertical_pattern="false"
       prop_units="false"
       tang_offset="0"
       normal_offset="0"
       spacing="0"
       scale_y_rel="false"
       prop_scale="1"
       copytype="single_stretched"
       pattern="M 0,5 C 0,2.24 2.24,0 5,0 7.76,0 10,2.24 10,5 10,7.76 7.76,10 5,10 2.24,10 0,7.76 0,5 Z"
       is_visible="true"
       id="path-effect4246"
       effect="skeletal" />
    <inkscape:path-effect
       effect="powerstroke"
       id="path-effect4226"
       is_visible="true"
       offset_points="0,3.8653541"
       sort_points="true"
       interpolator_type="Linear"
       interpolator_beta="0.2"
       start_linecap_type="zerowidth"
       linejoin_type="round"
       miter_limit="4"
       end_linecap_type="zerowidth"
       cusp_linecap_type="round" />
    <inkscape:path-effect
       cusp_linecap_type="round"
       end_linecap_type="zerowidth"
       miter_limit="4"
       linejoin_type="round"
       start_linecap_type="zerowidth"
       interpolator_beta="0.2"
       interpolator_type="Linear"
       sort_points="true"
       offset_points="0,3.8653541"
       is_visible="true"
       id="path-effect4222"
       effect="powerstroke" />
    <inkscape:path-effect
       effect="powerstroke"
       id="path-effect4218"
       is_visible="true"
       offset_points="0,3.8653541"
       sort_points="true"
       interpolator_type="Linear"
       interpolator_beta="0.2"
       start_linecap_type="zerowidth"
       linejoin_type="round"
       miter_limit="4"
       end_linecap_type="zerowidth"
       cusp_linecap_type="round" />
    <inkscape:path-effect
       effect="powerstroke"
       id="path-effect4214"
       is_visible="true"
       offset_points="0.0020540656,-3.5639075"
       sort_points="true"
       interpolator_type="Linear"
       interpolator_beta="0.2"
       start_linecap_type="zerowidth"
       linejoin_type="round"
       miter_limit="4"
       end_linecap_type="zerowidth"
       cusp_linecap_type="round" />
    <inkscape:path-effect
       effect="skeletal"
       id="path-effect4210"
       is_visible="true"
       pattern="M 0,5 C 0,2.24 2.24,0 5,0 7.76,0 10,2.24 10,5 10,7.76 7.76,10 5,10 2.24,10 0,7.76 0,5 Z"
       copytype="single_stretched"
       prop_scale="1"
       scale_y_rel="false"
       spacing="0"
       normal_offset="0"
       tang_offset="0"
       prop_units="false"
       vertical_pattern="false"
       fuse_tolerance="0" />
    <inkscape:path-effect
       effect="skeletal"
       id="path-effect4206"
       is_visible="true"
       pattern="M 0,5 C 0,2.24 2.24,0 5,0 7.76,0 10,2.24 10,5 10,7.76 7.76,10 5,10 2.24,10 0,7.76 0,5 Z"
       copytype="single_stretched"
       prop_scale="1"
       scale_y_rel="false"
       spacing="0"
       normal_offset="0"
       tang_offset="0"
       prop_units="false"
       vertical_pattern="false"
       fuse_tolerance="0" />
    <inkscape:path-effect
       effect="skeletal"
       id="path-effect4202"
       is_visible="true"
       pattern="M 0,5 C 0,2.24 2.24,0 5,0 7.76,0 10,2.24 10,5 10,7.76 7.76,10 5,10 2.24,10 0,7.76 0,5 Z"
       copytype="single_stretched"
       prop_scale="1"
       scale_y_rel="false"
       spacing="0"
       normal_offset="0"
       tang_offset="0"
       prop_units="false"
       vertical_pattern="false"
       fuse_tolerance="0" />
    <inkscape:path-effect
       effect="skeletal"
       id="path-effect4198"
       is_visible="true"
       pattern="m -10,-13.571429 c 0,-2.76 2.24,-5 5,-5 2.76,0 5,2.24 5,5 0,2.76 -2.24,5.0000004 -5,5.0000004 -2.76,0 -5,-2.2400004 -5,-5.0000004 z"
       copytype="single_stretched"
       prop_scale="1"
       scale_y_rel="false"
       spacing="0"
       normal_offset="0"
       tang_offset="0"
       prop_units="false"
       vertical_pattern="false"
       fuse_tolerance="0" />
    <inkscape:path-effect
       effect="skeletal"
       id="path-effect4194"
       is_visible="true"
       pattern="M 0,5 C 0,2.24 2.24,0 5,0 7.76,0 10,2.24 10,5 10,7.76 7.76,10 5,10 2.24,10 0,7.76 0,5 Z"
       copytype="single_stretched"
       prop_scale="1"
       scale_y_rel="false"
       spacing="0"
       normal_offset="0"
       tang_offset="0"
       prop_units="false"
       vertical_pattern="false"
       fuse_tolerance="0" />
    <inkscape:path-effect
       effect="skeletal"
       id="path-effect4190"
       is_visible="true"
       pattern="M 0,5 C 0,2.24 2.24,0 5,0 7.76,0 10,2.24 10,5 10,7.76 7.76,10 5,10 2.24,10 0,7.76 0,5 Z"
       copytype="single_stretched"
       prop_scale="1"
       scale_y_rel="false"
       spacing="0"
       normal_offset="0"
       tang_offset="0"
       prop_units="false"
       vertical_pattern="false"
       fuse_tolerance="0" />
    <inkscape:path-effect
       effect="skeletal"
       id="path-effect4186"
       is_visible="true"
       pattern="M 0,5 C 0,2.24 2.24,0 5,0 7.76,0 10,2.24 10,5 10,7.76 7.76,10 5,10 2.24,10 0,7.76 0,5 Z"
       copytype="single_stretched"
       prop_scale="1"
       scale_y_rel="false"
       spacing="0"
       normal_offset="0"
       tang_offset="0"
       prop_units="false"
       vertical_pattern="false"
       fuse_tolerance="0" />
    <inkscape:path-effect
       effect="skeletal"
       id="path-effect4182"
       is_visible="true"
       pattern="M 0,5 C 0,2.24 2.24,0 5,0 7.76,0 10,2.24 10,5 10,7.76 7.76,10 5,10 2.24,10 0,7.76 0,5 Z"
       copytype="single_stretched"
       prop_scale="1"
       scale_y_rel="false"
       spacing="0"
       normal_offset="0"
       tang_offset="0"
       prop_units="false"
       vertical_pattern="false"
       fuse_tolerance="0" />
    <inkscape:path-effect
       effect="skeletal"
       id="path-effect4178"
       is_visible="true"
       pattern="M 0,5 C 0,2.24 2.24,0 5,0 7.76,0 10,2.24 10,5 10,7.76 7.76,10 5,10 2.24,10 0,7.76 0,5 Z"
       copytype="single_stretched"
       prop_scale="1"
       scale_y_rel="false"
       spacing="0"
       normal_offset="0"
       tang_offset="0"
       prop_units="false"
       vertical_pattern="false"
       fuse_tolerance="0" />
    <inkscape:path-effect
       effect="skeletal"
       id="path-effect4174"
       is_visible="true"
       pattern="M 0,5 C 0,2.24 2.24,0 5,0 7.76,0 10,2.24 10,5 10,7.76 7.76,10 5,10 2.24,10 0,7.76 0,5 Z"
       copytype="single_stretched"
       prop_scale="1"
       scale_y_rel="false"
       spacing="0"
       normal_offset="0"
       tang_offset="0"
       prop_units="false"
       vertical_pattern="false"
       fuse_tolerance="0" />
    <inkscape:path-effect
       effect="skeletal"
       id="path-effect4170"
       is_visible="true"
       pattern="M 0,5 C 0,2.24 2.24,0 5,0 7.76,0 10,2.24 10,5 10,7.76 7.76,10 5,10 2.24,10 0,7.76 0,5 Z"
       copytype="single_stretched"
       prop_scale="1"
       scale_y_rel="false"
       spacing="0"
       normal_offset="0"
       tang_offset="0"
       prop_units="false"
       vertical_pattern="false"
       fuse_tolerance="0" />
    <inkscape:path-effect
       effect="skeletal"
       id="path-effect4166"
       is_visible="true"
       pattern="M 0,5 C 0,2.24 2.24,0 5,0 7.76,0 10,2.24 10,5 10,7.76 7.76,10 5,10 2.24,10 0,7.76 0,5 Z"
       copytype="single_stretched"
       prop_scale="1"
       scale_y_rel="false"
       spacing="0"
       normal_offset="0"
       tang_offset="0"
       prop_units="false"
       vertical_pattern="false"
       fuse_tolerance="0" />
    <inkscape:path-effect
       effect="skeletal"
       id="path-effect4162"
       is_visible="true"
       pattern="M 0,5 C 0,2.24 2.24,0 5,0 7.76,0 10,2.24 10,5 10,7.76 7.76,10 5,10 2.24,10 0,7.76 0,5 Z"
       copytype="single_stretched"
       prop_scale="1"
       scale_y_rel="false"
       spacing="0"
       normal_offset="0"
       tang_offset="0"
       prop_units="false"
       vertical_pattern="false"
       fuse_tolerance="0" />
    <inkscape:path-effect
       effect="skeletal"
       id="path-effect4158"
       is_visible="true"
       pattern="M 0,5 C 0,2.24 2.24,0 5,0 7.76,0 10,2.24 10,5 10,7.76 7.76,10 5,10 2.24,10 0,7.76 0,5 Z"
       copytype="single_stretched"
       prop_scale="1"
       scale_y_rel="false"
       spacing="0"
       normal_offset="0"
       tang_offset="0"
       prop_units="false"
       vertical_pattern="false"
       fuse_tolerance="0" />
    <inkscape:path-effect
       effect="skeletal"
       id="path-effect4154"
       is_visible="true"
       pattern="M 0,5 C 0,2.24 2.24,0 5,0 7.76,0 10,2.24 10,5 10,7.76 7.76,10 5,10 2.24,10 0,7.76 0,5 Z"
       copytype="single_stretched"
       prop_scale="1"
       scale_y_rel="false"
       spacing="0"
       normal_offset="0"
       tang_offset="0"
       prop_units="false"
       vertical_pattern="false"
       fuse_tolerance="0" />
    <inkscape:path-effect
       effect="skeletal"
       id="path-effect4150"
       is_visible="true"
       pattern="M 0,5 C 0,2.24 2.24,0 5,0 7.76,0 10,2.24 10,5 10,7.76 7.76,10 5,10 2.24,10 0,7.76 0,5 Z"
       copytype="single_stretched"
       prop_scale="1"
       scale_y_rel="false"
       spacing="0"
       normal_offset="0"
       tang_offset="0"
       prop_units="false"
       vertical_pattern="false"
       fuse_tolerance="0" />
  </defs>
  <sodipodi:namedview
     id="base"
     pagecolor="#ffffff"
     bordercolor="#666666"
     borderopacity="1.0"
     inkscape:pageopacity="0.0"
     inkscape:pageshadow="2"
     inkscape:zoom="0.5"
     inkscape:cx="332.52925"
     inkscape:cy="289.3524"
     inkscape:document-units="px"
     inkscape:current-layer="layer2"
     showgrid="false"
     inkscape:window-width="1366"
     inkscape:window-height="705"
     inkscape:window-x="-8"
     inkscape:window-y="-8"
     inkscape:window-maximized="1"
     showguides="false" />
  <metadata
     id="metadata7">
    <rdf:RDF>
      <cc:Work
         rdf:about="">
        <dc:format>image/svg+xml</dc:format>
        <dc:type
           rdf:resource="http://purl.org/dc/dcmitype/StillImage" />
        <dc:title />
      </cc:Work>
    </rdf:RDF>
  </metadata>
  <g
     inkscape:groupmode="layer"
     id="layer2"
     inkscape:label="Drawing">
    <g
       id="g4258">
      <g
         id="g4237">
        <path
           id="path4227"
           d="m 667.92383,136.10938 c -9.93884,34.45027 -12.34138,79.25432 14.26172,107.1875 13.4101,16.24129 33.3933,24.08016 50.20312,35.71093 9.34404,9.41489 6.50116,26.86771 -4.83398,33.85938 -11.40968,5.7494 3.11114,10.18771 4.04492,16.59375 -19.5822,-7.8085 -35.55322,-23.37473 -54.99023,-32.03321 -25.13654,-16.3496 -56.05073,-12.19929 -83.88477,-7.34961 2.4347,7.78828 17.37813,15.52703 19.19141,22.73438 -30.9149,-15.42251 -60.01461,-39.36631 -96.24219,-40.60938 -22.60688,-0.60302 -47.44997,0.4395 -67.61719,9.28516 5.56024,7.62191 11.49594,16.84036 14.03906,25.19531 -21.8738,-27.48407 -45.78548,-54.15431 -76.52148,-72.02148 -38.90958,-24.63481 -85.70522,-36.58018 -131.61133,-30.93164 -55.67278,5.17554 -105.16642,46.77419 -120.41016,100.50781 -8.18178,28.32465 -4.19214,58.50498 -3.11718,87.52344 1.03141,7.82238 1.74253,16.33629 4.55859,23.42969 4.40277,0.48488 20.38969,0.35685 8.71484,2.97265 -9.01088,2.62644 -21.12707,6.34365 -24.70703,15.70313 8.37795,13.39042 27.70298,11.72726 41.53711,12.43554 38.13139,0.34318 75.03391,-19.46946 113.09571,-9.73632 44.57303,9.23082 96.89365,9.96435 134.07031,-20.23047 11.631,-11.4627 22.34174,-25.39089 27.86328,-40.71875 -6.5316,-4.39158 -17.95719,-5.25698 -21.48047,-12.75 14.90464,-1.06416 31.27904,3.60832 44.14844,-6.59766 3.68778,-0.7558 10.78287,-7.44236 13.60937,-3.55078 -5.7215,12.47252 -19.73608,17.72807 -31.63672,22.32813 -5.74966,9.31695 -6.6627,21.39385 -14.0625,30.18359 -15.11674,26.7705 -45.59636,38.72536 -73.78906,45.39844 -9.16022,38.8793 -30.16447,81.49195 -70.65625,94.72265 -26.51879,8.7118 -55.12122,-8.82764 -63.91406,-34.26172 -8.55636,-18.48174 -11.2505,-39.2756 -8.90234,-59.26562 -4.55599,-3.9647 -10.96705,2.76398 -8.62891,8.02344 2.40662,32.24812 8.81452,70.78958 38.57031,89.35156 19.85754,11.42684 45.75665,5.67414 64.0625,-6.3125 27.63504,-16.4397 43.03516,-48.08583 56.8125,-74.09375 -0.39718,17.8103 -9.72558,34.05057 -17.41406,49.45703 3.83664,1.9879 9.84093,-2.7452 14.60937,-1.96484 26.06058,-3.96322 48.16724,15.18929 73.29688,19.04687 45.0966,10.61696 91.52288,-1.52896 132.64258,-20.4082 12.59042,-2.46798 17.50368,-8.64487 6.50586,-17.59961 -3.43816,-5.62102 -9.98271,-13.45173 -8.71875,-19.54297 7.26545,8.07437 13.95662,17.55699 22.39257,24.34766 0.0359,4.64972 21.21036,11.12647 23.70118,12.50781 21.73988,7.78568 45.70744,9.57314 68.29687,5.37109 0.65576,-5.40728 -8.08828,-8.28394 -8.94922,-14.04297 -5.85421,-9.77102 -5.65686,-21.39361 -8.03515,-31.94922 -0.75415,-9.60099 -5.02002,-16.70717 -6.29883,-16.5 -0.15097,0.0664 -0.30707,0.14092 -0.45899,0.20899 -10.88198,-11.88911 -30.2959,-16.35271 -42.875,-25.88867 16.88204,1.1445 34.10707,7.71628 47.54297,18.11718 5.61402,8.7027 13.00617,-3.84083 18.62891,-6.20703 36.69096,-28.5547 74.45565,-55.74317 110.92187,-84.51953 15.76766,-13.86484 20.88113,-35.75597 34.41407,-51.07812 28.02368,-7.29121 57.72282,-8.62446 84.63672,-20.36328 18.78766,-6.43956 38.71837,-18.9829 46.34179,-37.86133 1.96566,-4.8475 17.73962,-18.87687 7.70508,-20.85742 -27.35984,-0.45094 -63.78752,0.54272 -90.75,-4.57422 -27.97336,-0.67172 -48.73381,22.39187 -72.50391,33.71875 -3.8075,2.58424 -8.63654,5.09276 -7.85156,-1.81641 -2.60602,-16.97579 -3.44639,-37.57444 -16.97265,-49.84765 -26.4067,-13.59351 -57.0813,-24.1488 -77.44532,-47.23047 -8.45552,-7.25123 -16.04506,-18.49534 -25.14062,-23.20703 z m -401.06445,73.2207 c 0.75537,-0.0515 1.62435,0.14271 2.56445,0.67773 7.6512,2.44172 11.88176,13.51502 3.03125,17.30469 -10.63055,7.20968 -30.7808,6.45912 -34.64063,-7.65234 2.5196,-4.64375 7.63052,-9.20142 12.875,-10.26172 9.10054,-0.0988 -8.28743,11.37597 1.26563,11.92187 4.08726,-0.22953 15.81781,1.53512 14.78906,-5.19531 -4.31051,-1.73318 -3.15805,-6.57183 0.11524,-6.79492 z m 68.82421,79.91601 c 9.68503,-0.25064 20.07483,7.14067 22.01368,16.20703 -11.99874,-3.68995 -24.96022,-8.29893 -37.75782,-4.08984 -5.58676,0.23445 -13.72406,6.48482 -18.28515,2.78516 3.84372,-11.24584 21.90407,-13.99685 32.10547,-14.75 0.6367,-0.0864 1.27816,-0.13564 1.92382,-0.15235 z m 45.5918,18.68164 c 0.4088,0.0619 0.41855,0.83246 -0.15234,2.62305 -0.0135,7.71868 -9.08746,12.97443 -8.61328,20.04297 7.65406,3.34574 11.92909,-8.28719 17.19921,-11.30469 -1.39214,9.22361 -8.05912,16.25243 -11.78906,24.07813 0.90182,6.97734 8.19449,-2.36567 10.19727,-4.53125 6.4399,-8.95322 1.83449,4.90632 -0.27149,8.5 -3.4805,7.31738 -11.83029,14.68221 -11.33203,22.87109 3.64774,4.05056 12.65875,6.2713 14.25781,9.78516 -20.2213,2.57116 -42.46445,-3.53317 -60.39453,9.09961 -4.71018,1.752 -10.04081,6.03958 -14.73047,6.19336 1.80702,-8.79172 17.44479,-13.71333 7.2754,-22.85157 -10.51714,-16.35368 -4.71644,-39.00942 10.6621,-50.08984 2.40992,-6.59756 -11.10846,-3.70771 -11.36328,-8.19141 15.3208,-6.71951 31.85376,2.21822 45.77344,7.61328 2.22354,-1.06197 11.50977,-14.10596 13.28125,-13.83789 z"
           style="opacity:1;fill:#dbe2e3;fill-opacity:1;fill-rule:nonzero;stroke:none;stroke-width:2;stroke-linecap:round;stroke-linejoin:round;stroke-miterlimit:4;stroke-dasharray:none;stroke-opacity:1"
           inkscape:connector-curvature="0"
           sodipodi:nodetypes="ccccccccccccccccccccccccccccccccccccccccccccccccccccccccccccccsccccccssccccscccccccccccccccc" />
        <path
           sodipodi:nodetypes="ccccccccccccccccccccccccccccccccccccccccccccccccccccccccccccccsccccccssccccscccccccccccccccc"
           inkscape:connector-curvature="0"
           id="path4229"
           d="m 669.92383,151.60938 c -4.93884,38.45027 -14.34138,63.75432 12.26172,91.6875 13.4101,16.24129 33.3933,24.08016 50.20312,35.71093 9.34404,9.41489 6.50116,26.86771 -4.83398,33.85938 -11.40968,5.7494 3.11114,10.18771 4.04492,16.59375 -19.5822,-7.8085 -39.55322,-17.37473 -60.99023,-28.03321 -23.13654,-13.3496 -47.05073,-7.19929 -77.88477,-11.34961 2.4347,7.78828 17.37813,15.52703 19.19141,22.73438 -30.9149,-15.42251 -59.01461,-31.36631 -95.24219,-32.60938 -22.60688,-0.60302 -37.44997,-1.5605 -68.61719,1.28516 5.56024,7.62191 11.49594,16.84036 14.03906,25.19531 -21.8738,-27.48407 -45.78548,-54.15431 -76.52148,-72.02148 -38.90958,-24.63481 -79.70522,-22.58018 -125.61133,-21.93164 -52.67278,14.17554 -94.16642,38.77419 -115.41016,92.50781 -8.18178,28.32465 -12.19214,55.50498 -11.11718,84.52344 1.03141,7.82238 -1.25747,18.33629 1.55859,25.42969 4.40277,0.48488 20.38969,0.35685 8.71484,2.97265 -9.01088,2.62644 -14.12707,6.34365 -17.70703,15.70313 8.37795,13.39042 20.70298,11.72726 34.53711,12.43554 38.13139,0.34318 75.03391,-19.46946 113.09571,-9.73632 44.57303,9.23082 96.89365,9.96435 134.07031,-20.23047 11.631,-11.4627 22.34174,-25.39089 27.86328,-40.71875 -6.5316,-4.39158 -17.95719,-5.25698 -21.48047,-12.75 14.90464,-1.06416 31.27904,3.60832 44.14844,-6.59766 3.68778,-0.7558 10.78287,-7.44236 13.60937,-3.55078 -5.7215,12.47252 -19.73608,17.72807 -31.63672,22.32813 -5.74966,9.31695 -6.6627,21.39385 -14.0625,30.18359 -15.11674,26.7705 -45.59636,38.72536 -73.78906,45.39844 -9.16022,38.8793 -30.16447,81.49195 -70.65625,94.72265 -26.51879,8.7118 -55.12122,-8.82764 -63.91406,-34.26172 -8.55636,-18.48174 -11.2505,-39.2756 -8.90234,-59.26562 -4.55599,-3.9647 -10.96705,2.76398 -8.62891,8.02344 2.40662,32.24812 8.81452,70.78958 38.57031,89.35156 19.85754,11.42684 45.75665,5.67414 64.0625,-6.3125 27.63504,-16.4397 43.03516,-48.08583 56.8125,-74.09375 -0.39718,17.8103 -9.72558,34.05057 -17.41406,49.45703 3.83664,1.9879 9.84093,-2.7452 14.60937,-1.96484 26.06058,-3.96322 48.16724,15.18929 73.29688,19.04687 45.0966,10.61696 91.52288,-1.52896 132.64258,-20.4082 12.59042,-2.46798 17.50368,-8.64487 6.50586,-17.59961 -3.43816,-5.62102 -9.98271,-13.45173 -8.71875,-19.54297 7.26545,8.07437 13.95662,17.55699 22.39257,24.34766 0.0359,4.64972 21.21036,11.12647 23.70118,12.50781 21.73988,7.78568 50.20744,10.07314 72.79687,5.87109 0.65576,-5.40728 -12.58828,-8.78394 -13.44922,-14.54297 -5.85421,-9.77102 -5.65686,-21.39361 -8.03515,-31.94922 -0.75415,-9.60099 -5.02002,-16.70717 -6.29883,-16.5 -0.15097,0.0664 -0.30707,0.14092 -0.45899,0.20899 -10.88198,-11.88911 -30.2959,-16.35271 -42.875,-25.88867 16.88204,1.1445 34.10707,7.71628 47.54297,18.11718 5.61402,8.7027 13.00617,-3.84083 18.62891,-6.20703 36.69096,-28.5547 74.45565,-55.74317 110.92187,-84.51953 15.76766,-13.86484 20.88113,-35.75597 34.41407,-51.07812 28.02368,-7.29121 57.72282,-8.62446 84.63672,-20.36328 18.78766,-6.43956 32.71837,-20.9829 40.34179,-39.86133 1.96566,-4.8475 7.73962,-7.87687 -2.29492,-9.85742 -27.35984,-0.45094 -44.78752,-3.45728 -71.75,-8.57422 -27.97336,-0.67172 -51.73381,17.39187 -75.50391,28.71875 -3.8075,2.58424 -8.63654,5.09276 -7.85156,-1.81641 -2.60602,-16.97579 -3.44639,-37.57444 -16.97265,-49.84765 -26.4067,-13.59351 -58.0813,-13.6488 -78.44532,-36.73047 -8.45552,-7.25123 -13.04506,-13.49534 -22.14062,-18.20703 z m -403.06445,57.7207 c 0.75537,-0.0515 1.62435,0.14271 2.56445,0.67773 7.6512,2.44172 11.88176,13.51502 3.03125,17.30469 -10.63055,7.20968 -30.7808,6.45912 -34.64063,-7.65234 2.5196,-4.64375 7.63052,-9.20142 12.875,-10.26172 9.10054,-0.0988 -8.28743,11.37597 1.26563,11.92187 4.08726,-0.22953 15.81781,1.53512 14.78906,-5.19531 -4.31051,-1.73318 -3.15805,-6.57183 0.11524,-6.79492 z m 68.82421,79.91601 c 9.68503,-0.25064 20.07483,7.14067 22.01368,16.20703 -11.99874,-3.68995 -24.96022,-8.29893 -37.75782,-4.08984 -5.58676,0.23445 -13.72406,6.48482 -18.28515,2.78516 3.84372,-11.24584 21.90407,-13.99685 32.10547,-14.75 0.6367,-0.0864 1.27816,-0.13564 1.92382,-0.15235 z m 45.5918,18.68164 c 0.4088,0.0619 0.41855,0.83246 -0.15234,2.62305 -0.0135,7.71868 -9.08746,12.97443 -8.61328,20.04297 7.65406,3.34574 11.92909,-8.28719 17.19921,-11.30469 -1.39214,9.22361 -8.05912,16.25243 -11.78906,24.07813 0.90182,6.97734 8.19449,-2.36567 10.19727,-4.53125 6.4399,-8.95322 1.83449,4.90632 -0.27149,8.5 -3.4805,7.31738 -11.83029,14.68221 -11.33203,22.87109 3.64774,4.05056 12.65875,6.2713 14.25781,9.78516 -20.2213,2.57116 -42.46445,-3.53317 -60.39453,9.09961 -4.71018,1.752 -10.04081,6.03958 -14.73047,6.19336 1.80702,-8.79172 17.44479,-13.71333 7.2754,-22.85157 -10.51714,-16.35368 -4.71644,-39.00942 10.6621,-50.08984 2.40992,-6.59756 -11.10846,-3.70771 -11.36328,-8.19141 15.3208,-6.71951 31.85376,2.21822 45.77344,7.61328 2.22354,-1.06197 11.50977,-14.10596 13.28125,-13.83789 z"
           style="opacity:1;fill:#93a7ac;fill-opacity:1;fill-rule:nonzero;stroke:none;stroke-width:2;stroke-linecap:round;stroke-linejoin:round;stroke-miterlimit:4;stroke-dasharray:none;stroke-opacity:1" />
        <path
           style="opacity:1;fill:#b7c4c8;fill-opacity:1;fill-rule:nonzero;stroke:none;stroke-width:2;stroke-linecap:round;stroke-linejoin:round;stroke-miterlimit:4;stroke-dasharray:none;stroke-opacity:1"
           d="m 669.92383,151.60938 c -4.93884,38.45027 -14.34138,63.75432 12.26172,91.6875 13.4101,16.24129 33.3933,24.08016 50.20312,35.71093 9.34404,9.41489 6.50116,26.86771 -4.83398,33.85938 -11.40968,5.7494 3.11114,10.18771 4.04492,16.59375 -19.5822,-7.8085 -39.55322,-17.37473 -60.99023,-28.03321 -23.13654,-13.3496 -47.05073,-7.19929 -77.88477,-11.34961 2.4347,7.78828 17.37813,15.52703 19.19141,22.73438 -30.9149,-15.42251 -59.01461,-31.36631 -95.24219,-32.60938 -22.60688,-0.60302 -37.44997,-1.5605 -68.61719,1.28516 5.56024,7.62191 11.49594,16.84036 14.03906,25.19531 -21.8738,-27.48407 -45.78548,-54.15431 -76.52148,-72.02148 -38.90958,-24.63481 -79.70522,-22.58018 -125.61133,-21.93164 -52.67278,14.17554 -94.16642,38.77419 -115.41016,92.50781 -8.18178,28.32465 -12.19214,55.50498 -11.11718,84.52344 1.03141,7.82238 -1.25747,18.33629 1.55859,25.42969 4.40277,0.48488 20.38969,0.35685 8.71484,2.97265 -9.01088,2.62644 -19.19647,7.95601 -17.70703,15.70313 2.31014,12.01584 20.70298,11.72726 34.53711,12.43554 38.13139,0.34318 75.03391,-19.46946 113.09571,-9.73632 44.57303,9.23082 96.89365,9.96435 134.07031,-20.23047 11.631,-11.4627 22.34174,-25.39089 27.86328,-40.71875 -6.5316,-4.39158 -17.95719,-5.25698 -21.48047,-12.75 14.90464,-1.06416 31.27904,3.60832 44.14844,-6.59766 3.68778,-0.7558 10.78287,-7.44236 13.60937,-3.55078 -5.7215,12.47252 -14.73608,22.72807 -26.63672,27.32813 -5.74966,9.31695 -6.6627,20.39385 -14.0625,29.18359 -15.11674,26.7705 -43.59636,40.72536 -71.78906,47.39844 -9.16022,39.8793 -35.16447,88.49195 -75.65625,101.72265 -26.51879,8.7118 -73.62122,-16.82764 -74.91406,-47.26172 -8.55636,-18.48174 -11.2505,-40.2756 -8.90234,-60.26562 -4.55599,-3.9647 -1.96705,3.76398 0.37109,9.02344 2.40662,32.24812 3.81452,75.78958 33.57031,94.35156 19.85754,11.42684 50.75665,0.67414 69.0625,-11.3125 27.63504,-16.4397 43.03516,-48.08583 56.8125,-74.09375 -0.39718,17.8103 -9.72558,34.05057 -17.41406,49.45703 3.83664,1.9879 9.84093,-2.7452 14.60937,-1.96484 21.81794,-20.93378 49.58145,3.87558 74.71109,7.73316 45.0966,10.61696 90.10867,2.78475 131.22837,-16.09449 20.17968,-5.79492 17.50368,-1.64487 6.50586,-10.59961 -3.43816,-5.62102 -9.98271,-13.45173 -8.71875,-19.54297 7.26545,8.07437 13.95662,17.55699 22.39257,24.34766 0.0359,4.64972 21.21036,11.12647 23.70118,12.50781 21.73988,7.78568 33.70744,4.57314 56.29687,0.37109 -8.61265,-16.64133 -2.98565,-30.6569 -4.98437,-40.99219 -0.75415,-9.60099 -5.02002,-16.70717 -6.29883,-16.5 -0.15097,0.0664 -0.30707,0.14092 -0.45899,0.20899 -10.88198,-11.88911 -30.2959,-16.35271 -42.875,-25.88867 16.88204,1.1445 34.10707,3.71628 47.54297,14.11718 5.61402,8.7027 10.00617,-4.84083 15.62891,-7.20703 36.69096,-28.5547 73.45565,-53.74317 109.92187,-82.51953 15.76766,-13.86484 24.88113,-32.75597 38.41407,-48.07812 28.02368,-7.29121 57.72282,-8.62446 84.63672,-20.36328 18.78766,-6.43956 32.71837,-20.9829 40.34179,-39.86133 1.96566,-4.8475 7.73962,-7.87687 -2.29492,-9.85742 -27.35984,-0.45094 -44.78752,-3.45728 -71.75,-8.57422 -27.97336,-0.67172 -51.73381,17.39187 -75.50391,28.71875 -3.8075,2.58424 -8.63654,5.09276 -7.85156,-1.81641 -2.60602,-16.97579 -3.44639,-37.57444 -16.97265,-49.84765 -26.4067,-13.59351 -58.0813,-13.6488 -78.44532,-36.73047 -8.45552,-7.25123 -13.04506,-13.49534 -22.14062,-18.20703 z m -403.06445,57.7207 c 0.75537,-0.0515 1.62435,0.14271 2.56445,0.67773 7.6512,2.44172 11.88176,13.51502 3.03125,17.30469 -10.63055,7.20968 -30.7808,6.45912 -34.64063,-7.65234 2.5196,-4.64375 7.63052,-9.20142 12.875,-10.26172 9.10054,-0.0988 -8.28743,11.37597 1.26563,11.92187 4.08726,-0.22953 15.81781,1.53512 14.78906,-5.19531 -4.31051,-1.73318 -3.15805,-6.57183 0.11524,-6.79492 z m 68.82421,79.91601 c 9.68503,-0.25064 20.07483,7.14067 22.01368,16.20703 -11.99874,-3.68995 -24.96022,-8.29893 -37.75782,-4.08984 -5.58676,0.23445 -13.72406,6.48482 -18.28515,2.78516 3.84372,-11.24584 21.90407,-13.99685 32.10547,-14.75 0.6367,-0.0864 1.27816,-0.13564 1.92382,-0.15235 z m 45.5918,18.68164 c 0.4088,0.0619 0.41855,0.83246 -0.15234,2.62305 -0.0135,7.71868 -9.08746,12.97443 -8.61328,20.04297 7.65406,3.34574 11.92909,-8.28719 17.19921,-11.30469 -1.39214,9.22361 -8.05912,16.25243 -11.78906,24.07813 0.90182,6.97734 8.19449,-2.36567 10.19727,-4.53125 6.4399,-8.95322 1.83449,4.90632 -0.27149,8.5 -3.4805,7.31738 -11.83029,14.68221 -11.33203,22.87109 3.64774,4.05056 12.65875,6.2713 14.25781,9.78516 -20.2213,2.57116 -42.46445,-3.53317 -60.39453,9.09961 -4.71018,1.752 -10.04081,6.03958 -14.73047,6.19336 1.80702,-8.79172 17.44479,-13.71333 7.2754,-22.85157 -10.51714,-16.35368 -4.71644,-39.00942 10.6621,-50.08984 2.40992,-6.59756 -11.10846,-3.70771 -11.36328,-8.19141 15.3208,-6.71951 31.85376,2.21822 45.77344,7.61328 2.22354,-1.06197 11.50977,-14.10596 13.28125,-13.83789 z"
           id="path4210"
           inkscape:connector-curvature="0"
           sodipodi:nodetypes="cccccccccccccccccacccccccccccccccccccccccccccccccccccccccccccsccccccssccccscccccccccccccccc" />
        <path
           style="opacity:1;fill:#ffaaaa;fill-opacity:1;fill-rule:nonzero;stroke:none;stroke-width:2;stroke-linecap:round;stroke-linejoin:round;stroke-miterlimit:4;stroke-dasharray:none;stroke-opacity:1"
           d="m 245.35181,443.05766 c -11.22325,0.44807 -22.15049,3.29172 -33.03906,5.8125 -1.07733,7.15042 1.21226,15.19076 1.93001,22.64458 2.97963,22.50242 11.39302,46.1185 30.78873,59.56636 17.07413,11.57148 40.16255,6.22356 55.37003,-5.97312 7.3751,-3.8139 -2.20272,-4.67714 -5.70401,-5.87844 -21.56962,-7.8243 -34.00775,-32.14454 -31.82227,-54.25391 -0.11602,-6.70737 2.51325,-12.98912 3.875,-19.36719 -6.23563,-2.59926 -14.54917,-2.45487 -21.39843,-2.55078 z"
           id="path4217"
           inkscape:connector-curvature="0" />
        <path
           style="opacity:1;fill:#ffaaaa;fill-opacity:1;fill-rule:nonzero;stroke:none;stroke-width:2;stroke-linecap:round;stroke-linejoin:round;stroke-miterlimit:4;stroke-dasharray:none;stroke-opacity:1"
           d="m 272.34985,446.02837 c -3.47851,1.89488 -1.1381,7.55258 -1.93701,10.72655 -0.85444,21.26373 7.18291,43.92316 25.40381,56.15626 3.68809,2.27503 7.37452,5.46865 11.47656,6.36328 19.02231,-18.25081 31.55647,-42.20211 41.11524,-66.48828 1.51255,-4.45319 -4.58033,-1.63984 -6.73333,-1.77329 -9.92301,1.51086 -20.3576,1.19567 -30.05573,2.31821 -3.55963,9.1054 -6.41159,18.71292 -4.60547,28.56641 0.19465,2.06093 0.70377,7.52052 -2.90625,4.67382 -9.25126,-6.00955 -8.04784,-20.19476 -2.54688,-28.46093 1.28859,-1.83141 5.00081,-6.79086 0.28711,-6.59961 -9.84965,-1.63726 -19.73919,-3.57085 -29.49805,-5.48242 z"
           id="path4219"
           inkscape:connector-curvature="0" />
        <path
           style="opacity:1;fill:#6f8a91;fill-opacity:1;fill-rule:nonzero;stroke:none;stroke-width:2;stroke-linecap:round;stroke-linejoin:round;stroke-miterlimit:4;stroke-dasharray:none;stroke-opacity:1"
           d="m 248.17017,442.75102 c -12.04169,0.28333 -23.88888,2.7957 -35.56446,5.57617 -1.70662,9.70104 1.14723,20.26797 2.62562,30.14193 3.82858,22.22132 14.70431,45.84405 35.79235,56.31315 10.4039,4.27571 22.40916,2.65321 33.00196,-0.13672 6.64349,-3.19576 14.28956,-6.15318 19.16406,-11.76953 -2.09054,-3.69654 -8.06933,-3.19073 -11.50088,-5.52403 -21.98923,-10.36213 -32.47369,-37.19579 -27.26279,-60.16933 -0.0733,-3.87698 3.3532,-7.97126 1.84179,-11.61132 -5.33672,-2.91805 -12.15215,-2.6957 -18.09765,-2.82032 z"
           id="path4223"
           inkscape:connector-curvature="0" />
        <path
           style="opacity:1;fill:#dbe2e3;fill-opacity:1;fill-rule:nonzero;stroke:none;stroke-width:2;stroke-linecap:round;stroke-linejoin:round;stroke-miterlimit:4;stroke-dasharray:none;stroke-opacity:1"
           id="path4225"
           sodipodi:type="arc"
           sodipodi:cx="313.48718"
           sodipodi:cy="430.16299"
           sodipodi:rx="26.870058"
           sodipodi:ry="12.020815"
           sodipodi:start="0"
           sodipodi:end="6.2824523"
           sodipodi:open="true"
           d="m 340.35724,430.16299 a 26.870058,12.020815 0 0 1 -26.86513,12.02082 26.870058,12.020815 0 0 1 -26.87498,-12.01641 26.870058,12.020815 0 0 1 26.85528,-12.02522 26.870058,12.020815 0 0 1 26.88482,12.012"
           transform="matrix(0.99423697,-0.10720468,0.10720468,0.99423697,0,0)" />
        <path
           style="fill:#374548;fill-rule:evenodd;stroke:none;stroke-width:1px;stroke-linecap:butt;stroke-linejoin:miter;stroke-opacity:1"
           d="M 668.48633 131.10352 C 661.93724 144.17303 657.26505 157.33973 654.6875 170.36914 C 652.88621 184.55239 653.66731 198.29917 657.0918 210.86328 C 661.21224 225.88104 669.15181 238.56381 678.34375 248.18945 C 692.55027 263.02188 710.04 271.85561 723.53906 277.16797 C 726.71094 278.39506 729.35916 280.67575 731.28906 283.17773 C 733.63333 286.24357 734.93551 289.73104 735.26758 293.02148 C 735.74003 297.47203 734.3625 301.62783 732.60156 304.64844 C 729.95973 309.2096 725.94032 312.39785 723.83594 313.99023 C 722.09978 315.30398 720.94598 316.07342 720.47852 316.48047 C 720.1661 316.18161 719.88933 315.90391 719.56445 315.59766 C 711.43577 307.93487 698.49402 297.19669 682.38086 288.41797 C 677.64228 285.82693 672.51291 283.39965 667.0625 281.37305 C 659.17163 278.43904 651.31029 276.60582 643.54102 275.95898 C 632.09934 275.08137 621.49049 277.01602 613.38086 279.18359 C 597.04802 283.51243 587.04768 287.62816 587.14258 288.38086 C 587.42271 290.60302 598.26663 289.13418 614.92969 286.58789 C 622.78286 285.41137 632.7947 284.29139 642.60742 285.49023 C 649.42298 286.26985 656.36822 288.05383 663.56055 290.75195 C 668.5181 292.61172 673.30488 294.79682 677.81641 297.08008 C 692.96676 304.78065 706.75873 314.46915 715.56055 320.54297 C 724.86084 326.96078 730.5899 330.76227 731.42773 329.80859 C 732.14022 328.9976 728.2885 323.98444 720.73047 316.72461 C 721.36803 316.54089 722.62236 316.02372 724.47656 314.95703 C 726.8587 313.58662 731.24621 310.69224 734.52148 305.85547 C 736.69196 302.6298 738.49791 298.05237 738.2207 292.79297 C 738.00147 288.94233 736.68916 284.821 734.08008 281.13086 C 731.9608 278.10986 728.91797 275.30348 725.01953 273.59961 C 712.02521 267.92972 695.27449 258.87916 682.24609 244.54492 C 673.81565 235.29791 666.62768 223.25892 663.08398 209.2793 C 660.08655 197.54593 659.60844 184.66082 661.48828 171.27734 C 662.26449 159.18638 664.84063 146.98461 668.95508 134.80078 C 679.86251 150.58304 693.85628 165.21729 710.69531 177.20703 C 726.47242 187.5394 744.22092 195.72998 763.40625 201.74023 C 767.60174 203.04287 771.48182 205.66858 774.40039 209.11719 C 777.51379 212.737 779.66868 217.35382 781.23242 222.31445 C 786.0098 234.57445 787.19204 248.07427 786.95117 261.85156 C 794.0811 258.44366 800.56609 254.86998 807.43359 251.38477 C 814.149 246.34165 821.02556 241.38995 828.1875 237.03125 C 835.32607 232.7027 842.76523 228.82804 850.56445 226.41211 C 857.61795 224.26481 865.03082 223.17916 871.86133 224.57617 C 892.20145 228.53635 913.80453 232.16649 935.77148 231.82031 C 943.05502 231.71246 950.57282 231.06728 958.01758 229.2168 C 958.02786 229.21098 958.03855 229.20504 958.04883 229.19922 C 955.79322 233.54178 953.91928 237.93443 952.12891 242.24219 C 950.24457 246.74884 948.41359 251.16552 946.26758 255.25586 C 943.99228 259.59594 941.32312 263.69584 938.16797 267.31055 C 935.50354 270.38613 932.45215 273.17376 929.13477 275.69336 C 927.78233 276.72056 926.38721 277.70168 924.96094 278.63672 C 918.34644 282.97557 911.00557 286.33613 903.43945 289.18164 C 877.52599 298.95244 849.47325 303.12689 822.39258 306.42188 C 817.55508 310.53494 814.1761 315.41735 811.40039 319.98047 C 808.4194 325.38562 805.82589 330.95527 803.18359 336.05469 C 800.1725 341.84217 797.02235 347.356 793.28906 352.2832 C 789.29828 357.54835 784.65939 362.19451 779.37305 365.68555 C 765.68006 374.78363 752.54794 384.54147 739.98438 394.11328 C 725.83979 404.88743 710.90022 416.63191 697.5 427.01367 C 684.79045 436.85679 672.62308 446.13993 660.65625 454.94141 C 659.18268 453.09147 657.56113 451.51305 655.93945 450.16406 C 653.26895 447.92177 650.47863 446.08147 647.80664 444.53516 C 641.20069 440.70823 634.51346 438.05506 629.125 436.19141 C 622.4214 433.86677 616.65233 432.4217 612.70312 431.64648 C 610.46536 431.20704 608.70661 430.96127 607.4707 430.88477 C 606.82765 430.84497 606.32754 430.85254 605.97656 430.90234 C 605.77389 431.0199 605.62855 431.07999 605.53125 431.11719 C 605.47631 431.15899 605.43866 431.17755 605.41406 431.18555 C 605.40166 431.18989 605.39135 431.19145 605.37695 431.18945 L 605.37695 431.19336 L 605.38477 431.19727 C 605.38967 431.20047 605.39725 431.20484 605.40625 431.21484 C 605.42365 431.23392 605.44731 431.26863 605.47461 431.33203 C 605.54075 431.41245 605.63556 431.53676 605.75195 431.74023 C 606.02706 431.95759 606.45151 432.21529 607.01367 432.51367 C 608.09227 433.08616 609.69442 433.81548 611.75 434.71094 C 615.10461 436.17249 621.05174 438.65039 626.98633 441.44922 C 631.95495 443.79675 638.16793 446.89392 643.9043 450.7793 C 646.23215 452.358 648.57957 454.11479 650.66992 456.09961 C 651.88496 457.26594 653.03244 458.4969 653.98828 459.79688 C 637.69118 471.59716 621.65857 482.50964 605.0625 492.58789 C 598.41367 496.62599 591.83117 500.42275 585.2832 503.99805 C 578.67469 499.32296 573.63201 494.28649 569.98828 489.98438 C 563.47563 482.29493 561.07274 476.88283 560.09375 477.29102 C 559.51302 477.53316 560.36677 483.65074 566.16797 492.7832 C 569.00603 497.25098 573.13384 502.4575 578.73242 507.50195 C 571.17897 511.45707 563.65587 515.10971 556.11719 518.42578 C 538.98499 525.95909 522.37724 531.56113 506.03906 535.12305 C 488.06053 539.04231 471.03355 540.3299 455.24414 539.38086 C 435.56204 538.19831 418.12856 533.54086 403.85547 527.87305 C 398.45372 526.00596 392.78258 523.32817 388.06641 521.21094 C 382.57179 518.73004 377.74095 516.74832 372.58398 515.55859 C 366.25674 514.10618 360.43597 514.36031 355.64453 515.49219 C 348.83321 517.12456 343.45982 520.41532 340.69531 522.30469 C 337.62845 524.40071 336.2805 525.76035 336.38086 525.90234 C 336.52781 526.11024 338.12775 525.10285 341.35547 523.39844 C 344.21171 521.89019 349.7717 519.06383 356.1543 517.93945 C 360.65164 517.13223 366.01737 517.17496 371.78711 518.74805 C 376.55933 520.04192 381.0326 522.10505 386.4082 524.73633 C 390.99619 526.99487 396.61164 529.86672 402.24609 532.01172 C 416.70807 538.25 434.52394 543.48281 454.83984 545.11328 C 471.16037 546.42247 488.80896 545.42853 507.41406 541.67383 C 524.30822 538.26475 541.47192 532.76334 559.08008 525.2793 C 567.85035 521.55301 576.59238 517.39378 585.36719 512.83984 C 589.68504 515.94947 594.63439 518.86041 600.28516 521.32227 C 622.00076 529.61718 648.62952 529.95495 678.30664 522.03125 C 680.66149 521.40251 682.98536 520.7355 685.27539 520.03516 C 680.92344 515.59616 677.47853 509.81814 675.21484 503.65625 C 672.66686 498.9144 671.17008 493.43444 670.01758 488.02148 C 669.04169 483.35038 668.00032 476.16563 667.09375 471.44336 C 666.59226 468.54821 665.9415 465.58476 664.87891 462.66992 C 677.31657 453.69851 689.91948 444.24064 703.03906 434.21289 C 716.45663 423.96105 731.63069 412.17852 745.66211 401.60742 C 758.21594 392.15145 771.23577 382.56915 784.68555 373.7168 C 791.03581 369.51216 796.48944 364.14361 801.0293 358.14648 C 805.25323 352.56843 808.71659 346.59945 811.85547 340.56641 C 814.64735 335.22112 817.21602 329.73481 819.99609 324.74414 C 821.88959 320.88173 823.66956 317.28591 826.17578 315.05664 C 852.63614 312.23797 880.55103 308.32414 906.9375 298.53906 C 914.97583 295.54977 922.97244 291.86196 930.42969 287.00781 C 932.0486 285.95346 933.63946 284.83725 935.18945 283.6582 C 938.99134 280.76619 942.53923 277.50836 945.71289 273.86914 C 949.45547 269.55026 952.55994 264.80556 955.12305 259.87891 C 957.52219 255.26418 959.472 250.58721 961.3418 246.07812 C 963.2337 241.54322 965.06684 237.16878 967.23242 233.11328 C 968.4469 227.52577 970.06949 222.23059 972.16602 217.44531 C 967.29735 218.98225 961.55481 219.55182 955.5957 219.60352 C 949.20657 221.24098 942.43105 221.80516 935.5918 221.95508 C 914.84849 222.38843 893.88448 218.88205 873.68164 215.07617 C 864.71151 213.44657 855.74452 214.66496 847.68555 217.28125 C 838.84384 220.11066 830.72813 224.34145 823.24805 228.97266 C 815.70226 233.62831 808.60359 238.78684 801.81445 243.95508 C 797.32048 249.05374 793.25326 254.01008 788.88672 258.61133 C 791.76087 245.60372 792.73444 232.24133 789.74609 219.65234 C 787.94834 213.85555 785.17429 208.2168 781.08789 203.40625 C 777.0697 198.73249 771.80279 195.2622 765.96484 193.46289 C 747.4145 187.80673 730.29721 180.11918 715.11719 170.38477 C 696.54533 159.42042 680.89187 145.84449 668.48633 131.10352 z M 276.4375 191.91016 C 261.91053 191.85417 246.98214 193.45678 232.18164 197.13672 C 230.96205 197.43995 229.74855 197.7565 228.53906 198.08594 C 208.53477 203.5334 190.24854 212.5976 174.87109 224.56055 C 157.95736 237.73963 145.15151 254.11686 136.54688 271.20117 C 125.27555 293.64375 121.13408 316.9414 120.375 336.57812 C 118.61294 382.21838 131.03929 409.6178 133.76953 416.53516 C 132.75023 416.77949 131.70594 417.04427 130.60742 417.36328 C 126.70625 418.47127 121.66934 420.35393 117.38672 424.09961 C 116.01221 425.30483 114.68815 426.83812 113.68164 428.75195 C 112.85925 430.32701 112.35152 432.17734 112.35352 434.1875 C 112.39288 436.12695 112.90209 438.01033 113.81445 439.67969 C 114.84399 441.55351 116.20645 443.14683 117.73828 444.45508 C 121.78791 447.91153 126.66299 450.08079 131.8125 451.56836 C 138.83792 453.66932 146.27537 454.70196 154.2207 455.08984 C 168.42595 455.79373 182.944 454.6539 198.3125 452.02539 C 197.2339 455.76221 193.13096 474.57279 198.83008 503.1543 C 201.03875 514.30543 205.19551 527.51848 213.4082 539.50586 C 219.11028 547.81357 227.11436 555.51984 237.30664 560.51758 C 245.52201 564.48878 254.79503 566.49243 264.28125 566.34766 C 265.04908 566.33596 265.81642 566.31108 266.58008 566.27148 C 277.57348 565.6898 287.91867 562.51509 296.97656 558.06445 C 308.07596 552.6238 317.47469 545.34574 325.13867 537.69727 C 342.30037 520.55372 351.39998 501.4075 355.94727 488.25391 C 360.61116 474.76304 361.07607 466.54719 360.33203 466.35938 C 359.20856 466.0758 356.92922 473.81074 351.02734 486.25 C 345.28021 498.36311 335.43923 516.00746 318.94922 531.27148 C 311.57953 538.10021 302.79969 544.56732 292.75586 549.26953 C 284.56446 553.09374 275.44664 555.8474 266.08008 556.28516 C 265.43428 556.31616 264.78547 556.33475 264.13672 556.34375 C 256.12397 556.45186 248.33357 554.85177 241.56055 551.64062 C 233.11345 547.70635 226.14473 541.21384 220.94336 534.1582 C 213.37166 523.90389 209.02592 511.81519 206.28125 501.43945 C 199.16774 474.39532 200.91536 455.43958 199.25781 451.85938 C 202.8386 451.23417 206.46333 450.53368 210.14453 449.75195 C 208.78783 455.00981 206.89899 467.88951 209.87695 486.33398 C 211.36085 495.56212 214.31968 506.51859 220.22656 517.11914 C 224.40991 524.64098 230.33976 532.15623 238.35938 537.9668 C 245.05079 542.78924 253.1881 546.19335 262.03516 547.19727 C 265.47094 547.56774 268.94251 547.57677 272.40234 547.24609 C 277.91788 546.71893 283.23473 545.34283 288.15234 543.3457 C 298.26205 539.23183 306.75126 532.85888 313.58789 526.05664 C 331.41169 508.28197 340.85592 486.98319 345.68555 473.21875 C 350.28157 460.12006 351.62077 451.63099 351.20508 449.95703 C 357.08544 448.8706 362.7535 447.55175 368.14844 446.10547 C 390.71319 440.13606 407.712 428.6888 418.76562 415.73047 C 428.6139 404.07399 433.65587 391.64994 436.08984 384.05273 C 437.63926 379.21653 438.38634 375.65228 438.64062 373.51953 C 439.79231 373.48951 440.97069 373.40788 442.17578 373.25781 C 443.44064 373.06828 444.70287 372.81583 445.96094 372.5 C 455.49275 370.10707 462.55111 364.6667 466.67773 360.24219 C 470.87711 355.73967 472.33244 352.1551 471.42773 351.23828 C 470.42188 350.21895 467.13314 351.9302 462.23828 354.6582 C 457.50303 357.29725 450.79921 361.16184 443.60352 362.86133 C 442.62596 363.09221 441.65641 363.2789 440.69141 363.42578 C 434.12829 364.65128 427.57511 363.65034 422.89453 362.87695 C 418.11135 362.0866 414.92704 361.48748 414.28516 362.66602 C 413.71401 363.71469 415.75073 366.50134 420.60547 369.20508 C 424.44708 371.34457 430.19254 373.40447 437.05469 373.52734 C 436.12883 375.48326 434.79832 378.61036 432.83594 382.77344 C 429.56346 389.71577 423.65629 401.31906 413.97266 411.42773 C 403.15138 422.83815 387.14057 432.52841 366 437.61914 C 351.8388 440.98458 335.99642 443.54796 319.76367 443.25 C 309.02069 443.07715 298.107 441.5012 286.74219 439.16406 C 281.42155 438.05921 275.72669 436.7705 270.07617 435.72266 C 265.80726 434.93102 261.51405 434.26412 257.14844 433.84766 C 245.31424 432.75107 233.64086 433.90277 222.78711 436.77734 C 197.45056 443.45545 175.70006 447.24769 154.50391 446.85352 C 146.95728 446.70759 140.14855 446.06461 133.79492 444.44141 C 129.09757 443.18793 125.07765 441.76738 122.01953 439.31055 C 120.91062 438.42172 119.98326 437.51404 119.39258 436.52344 C 118.88866 435.68892 118.55471 434.80914 118.50391 433.98828 C 118.41244 433.14099 118.61938 432.19151 118.98242 431.30469 C 119.44153 430.17489 120.27215 429.10012 121.20312 428.11328 C 124.17506 424.96344 128.53024 422.92749 132.0293 421.48242 C 143.95882 416.6375 151.45988 416.92877 151.3418 415.52344 C 151.33166 415.40282 145.18814 413.9064 134.35938 416.39648 C 133.98111 413.28199 132.55599 406.5121 130.89648 396.38867 C 128.7175 383.09639 125.72691 361.23135 127.56641 336.98828 C 128.99461 318.16174 133.52533 296.05209 144.49609 275.29492 C 152.82874 259.48302 165.00292 244.35999 180.82031 232.26367 C 195.20823 221.24141 212.373 212.86113 231.16797 207.73242 C 232.3058 207.42202 233.44955 207.12405 234.59766 206.83789 C 253.16789 202.20935 272.07509 200.99346 290.08789 202.24805 C 312.42381 203.80742 333.34197 209.18027 351.85156 216.56836 C 375.59926 226.04781 395.30523 238.82738 410.7832 251.42969 C 447.68985 281.47372 460.46568 308.43228 462.85742 306.95117 C 462.7553 307.01441 458.67905 296.10686 446.85156 280.09766 C 452.07271 279.26644 464.95151 274.73401 483.29688 272.18555 C 494.67542 270.60092 508.05184 270.00325 522.21289 272.08789 C 525.6914 272.59417 529.20271 273.25929 532.74414 274.08594 C 544.12572 276.74265 554.65601 280.7942 563.9668 285.25 C 578.42089 292.16511 590.76821 300.44874 598.82031 305.88867 C 607.17429 311.53256 612.11405 314.92164 612.85742 314.09375 C 613.51189 313.36487 609.88191 308.51337 602.35352 301.46875 C 594.98681 294.57542 583.25498 285.07069 568.16406 276.98047 C 558.51091 271.80764 547.33931 267.22984 535.01367 264.35547 C 531.1843 263.46245 527.37263 262.76527 523.58594 262.25781 C 508.12408 260.20925 493.77226 261.46647 481.8418 264.05273 C 462.00519 268.36143 449.4759 275.37151 445.58594 278.4043 C 438.40034 268.90545 428.56465 257.76023 415.30273 246.09375 C 399.84853 232.50117 379.80118 218.68961 355.23438 208.33008 C 336.08875 200.25611 314.28714 194.34336 290.81055 192.50391 C 286.07687 192.13227 281.27982 191.92882 276.4375 191.91016 z M 252.89648 208.56445 C 252.17828 208.54883 251.21678 208.70392 250.04883 209.05664 C 247.87536 209.71303 244.25096 211.31936 241.03906 214.85156 C 240.05747 215.8734 239.10842 217.4653 238.65234 219.77148 C 238.40923 221.61967 238.7759 223.51436 239.84766 225.20703 C 240.9526 226.79089 242.24177 227.92933 243.51562 228.60156 C 244.99443 229.45302 246.4937 230.04398 247.9375 230.43359 C 251.03614 231.29327 254.2359 231.62963 257.43945 231.55273 C 257.6327 231.54803 257.82427 231.5412 258.01562 231.5332 C 261.48309 231.4355 264.87297 230.88041 268.07617 229.80469 C 269.53215 229.32367 271.00216 228.66943 272.42773 227.79883 C 273.657 227.0964 274.90495 226.01464 275.99805 224.55859 C 277.06043 223.1299 277.56686 221.33235 277.50586 219.41602 C 277.21887 217.11761 276.35156 215.5131 275.375 214.49609 C 273.7887 212.71486 272.1011 211.6575 270.73828 210.99805 C 266.31633 208.78125 263.31084 208.92296 262.85742 209.80859 C 262.26091 210.97369 264.3509 212.80083 267.08398 215.92188 C 267.89948 216.87509 268.81571 217.94628 269.19531 218.9082 C 269.34246 219.47105 269.45235 219.78204 269.22266 219.61133 C 269.19997 219.34085 269.09132 219.24773 269.07422 219.20312 C 268.95096 219.31744 268.55075 219.44653 267.94336 219.76953 C 267.22266 220.09703 266.35452 220.34537 265.32227 220.60938 C 263.02116 221.18178 260.50406 221.44436 257.70898 221.53906 C 257.55411 221.54206 257.39869 221.54683 257.24414 221.54883 C 254.67693 221.58398 252.38114 221.46765 250.29102 221.0293 C 249.33339 220.81817 248.55764 220.63548 247.96094 220.36719 C 247.48841 220.09732 247.20908 220.06255 247.23828 220.09375 C 247.30608 220.33436 247.24993 220.46299 247.17773 220.65039 C 246.96701 220.63294 247.17463 220.16275 247.4375 219.45117 C 248.5723 217.01744 251.23612 214.31471 252.48047 212.83594 C 253.96944 211.06648 254.70499 209.7987 254.28516 209.09375 C 254.08975 208.76563 253.61469 208.58008 252.89648 208.56445 z M 333.48633 288.82031 C 332.10472 288.80332 330.70951 288.86801 329.30469 289.01367 C 325.99539 289.3568 322.90959 290.12052 320.14453 291.08789 C 306.62644 295.76344 300.12812 303.65463 301.05078 305.18359 C 302.45189 307.5054 311.07574 303.13797 322.875 300.31445 C 325.27815 299.75129 327.83532 299.23786 330.37305 298.95312 C 332.54422 298.70954 334.58294 298.64523 336.5332 298.78711 C 340.33735 299.02119 343.73173 300.00781 346.54492 301.23438 C 352.30283 303.70216 355.65316 306.84965 357.08984 305.6875 C 358.01903 304.93586 357.07781 299.82439 350.67969 294.65625 C 347.45259 292.08478 342.99059 289.88322 337.58203 289.11719 C 336.23513 288.93619 334.86794 288.8373 333.48633 288.82031 z M 382.14258 306.23828 C 379.89745 309.71733 377.97793 312.98551 375.27344 315.83398 C 372.64761 318.59961 369.54981 320.6637 365.14648 322.02148 L 365.25391 322.25 C 360.73347 318.60957 355.73503 316.21558 351.07031 314.75 C 342.84304 312.14613 335.30898 311.82828 330.41797 312.15039 C 325.37616 312.48243 322.526 313.4823 322.5 314.45117 C 322.4718 315.50071 325.27219 316.41545 329.91797 317.63281 C 332.28955 318.25425 335.50362 319.0447 338.99805 320.09766 C 333.22032 322.72035 324.32533 329.48315 319.86133 339.69922 C 317.53276 345.02826 316.39471 351.34773 317.63477 358.49219 C 318.80452 365.23158 322.06296 372.52493 328.16211 380.21289 C 326.23483 381.62959 324.5323 383.06669 323.07812 384.44336 C 317.39995 389.81888 315.28963 394.19062 316.17773 395.08594 C 317.20327 396.11982 321.12032 393.62416 327.32031 390.11914 C 333.45838 386.64913 342.02293 382.12562 351.97266 380.29883 C 352.01316 380.29083 352.05325 380.28339 352.09375 380.27539 C 362.04605 378.30898 371.69403 379.38271 378.70117 380.375 C 385.77539 381.37679 390.34946 382.2846 390.92969 380.94531 C 391.43164 379.78672 387.85892 376.46821 380.57812 373.53125 C 378.77744 372.80488 376.74275 372.10937 374.51562 371.50977 C 375.14145 370.46547 375.81489 369.01572 376.4707 367.13281 C 376.62231 366.69753 376.77367 366.22026 376.92383 365.73047 A 14.879737 17.09889 0 0 0 377.48633 364.65625 A 14.879737 17.09889 0 0 0 377.52734 364.55469 A 14.879737 17.09889 0 0 0 378.11523 363.13867 A 14.879737 17.09889 0 0 0 378.23242 362.76562 A 14.879737 17.09889 0 0 0 378.61719 361.52734 A 14.879737 17.09889 0 0 0 378.69531 361.17773 A 14.879737 17.09889 0 0 0 378.97852 359.87109 A 14.879737 17.09889 0 0 0 379.04492 359.36719 A 14.879737 17.09889 0 0 0 379.18945 358.20703 A 14.879737 17.09889 0 0 0 379.26172 356.56445 L 379.26172 356.55078 A 14.879737 17.09889 0 0 0 379.25195 356.21484 C 384.174 353.10488 387.03498 349.32894 388.84375 345.49609 C 390.66123 341.64477 391.53138 337.51968 392.5 333.73828 C 390.25487 337.21733 388.33535 340.48551 385.63086 343.33398 C 383.7146 345.35226 381.53992 346.99256 378.79688 348.26172 C 378.5812 345.57574 378.06676 342.73201 377.17969 339.86133 C 381.8355 336.80577 384.58891 333.14435 386.34375 329.42578 C 388.16123 325.57446 389.03138 321.44742 390 317.66602 C 387.75487 321.14507 385.83535 324.4152 383.13086 327.26367 C 380.77238 329.74771 378.02482 331.66111 374.30078 333.00977 C 373.28028 331.13267 372.07106 329.29109 370.64062 327.52539 C 374.51157 324.6643 376.9025 321.35228 378.48633 317.99609 C 380.30381 314.14477 381.17396 310.01968 382.14258 306.23828 z M 339.16602 320.15039 C 341.99292 321.00701 344.99355 322.03124 347.90039 323.30078 C 352.74968 325.4391 357.96058 328.43641 361.85742 332.64648 C 362.23303 333.05228 362.59263 333.46681 362.9375 333.88867 C 362.97467 333.93227 363.00611 333.97962 363.04297 334.02344 A 19.344023 22.228975 0 0 0 357.9082 333.20508 A 19.344023 22.228975 0 0 0 338.57422 355.44141 A 19.344023 22.228975 0 0 0 344.86719 371.80469 C 340.92037 373.0126 337.33549 374.59296 334.16016 376.35938 C 327.86289 369.50558 324.40057 363.13723 322.85938 357.36719 C 321.27444 351.43339 321.64286 345.92627 323.20117 340.95898 C 326.27479 331.16146 333.87805 323.78267 339.16602 320.15039 z M 248.28516 443.38086 C 250.91588 443.39555 253.56026 443.52831 256.20703 443.78516 C 259.95828 444.13776 263.73926 444.72452 267.5918 445.43359 C 266.19001 447.56044 264.50197 451.46525 263.32422 457.04688 C 261.41558 466.09241 261.1097 479.30701 266.92578 492.74414 C 267.55558 494.1992 268.24167 495.61488 268.97852 496.99023 C 275.56496 509.20378 285.59509 516.23766 293.62305 519.29883 C 298.63616 521.2104 302.5348 521.57185 304.82031 521.31055 C 298.90402 526.48195 292.08325 531.16348 284.47656 534.11719 C 280.33536 535.72876 275.92169 536.86063 271.43945 537.30273 C 268.62652 537.58018 265.83775 537.58104 263.11523 537.28125 C 256.12467 536.56127 249.4754 533.86615 243.93555 530.06055 C 237.21103 525.47035 231.9177 519.10454 227.91602 512.625 C 222.26958 503.46162 218.96535 493.47068 216.89062 484.92969 C 212.58669 467.15826 212.8142 454.25412 212.0918 449.33008 C 216.39628 448.38974 220.77067 447.35431 225.23438 446.2168 C 232.61859 444.34937 240.39298 443.33679 248.28516 443.38086 z M 270.54688 446.00195 C 275.22261 446.92271 280.09732 447.99211 284.74609 448.92773 C 292.12656 450.42765 299.4335 451.59638 306.71289 452.27539 C 306.05841 452.7272 305.36283 453.28487 304.64258 453.95898 C 301.76879 456.64868 298.30774 461.42498 296.99219 467.99805 C 296.95749 468.17153 296.92583 468.34554 296.89453 468.51953 C 296.22803 472.62742 296.82461 476.51289 298.1543 479.6875 C 301.36002 487.06434 306.49622 488.4651 307.5918 487.51562 C 309.21376 486.10999 307.11432 482.22566 306.57422 477.16016 C 306.31163 475.03683 306.3311 472.67061 306.75781 470.14648 C 306.77431 470.03061 306.79215 469.91328 306.81055 469.79688 C 307.46427 465.66013 309.45302 461.10959 310.56055 457.93164 C 311.32883 455.72713 311.79486 453.90642 311.73242 452.6543 C 314.37599 452.81637 317.01692 452.92001 319.6582 452.93555 C 330.27825 452.97511 340.57644 451.86685 350.30664 450.11523 C 348.76388 452.02675 345.71982 459.65233 340.29492 470.99609 C 334.21693 483.70547 323.85626 503.72112 307.06836 519.28711 C 306.96916 519.37929 306.86343 519.46858 306.76367 519.56055 C 305.62532 518.30626 301.64653 516.65502 296.67188 513.30273 C 290.49559 509.14069 283.07815 502.4232 277.76758 492.30664 C 277.15927 491.15717 276.58702 489.97539 276.05078 488.75977 C 271.14669 477.64251 270.36851 466.21146 270.38281 457.82422 C 270.39189 452.52177 270.68558 448.4225 270.54688 446.00195 z M 657.38281 468.03125 C 657.70104 469.56342 657.97504 471.21416 658.28125 472.97461 C 659.00832 477.69213 659.72876 484.33364 660.72266 489.82812 C 661.77039 495.74203 663.43194 502.09446 666.49609 508.17578 C 669.88008 512.90551 674.92921 516.96145 681.38867 519.40234 C 679.23796 519.80608 677.06185 520.1791 674.86328 520.51758 C 647.12972 524.78736 623.2916 522.38073 603.41992 513.66016 C 599.63997 512.22264 596.16386 510.57341 592.95508 508.80078 C 598.35926 505.8611 603.78165 502.78665 609.24023 499.54688 C 625.59482 489.839 641.40325 479.34567 657.38281 468.03125 z "
           id="path4148" />
        <g
           id="g4274"
           transform="translate(0.00717751,4.2857143e-6)">
          <path
             id="path4258"
             d="m 357.9082,333.20508 a 19.344023,22.228975 0 0 0 -19.33398,22.23633 19.344023,22.228975 0 0 0 6.42187,16.49804 c 1.67544,-0.51273 3.28115,-1.10078 5.08789,-1.46093 0.0491,-0.009 0.0993,-0.0184 0.14844,-0.0274 3.05733,-0.55904 6.03127,-0.82798 8.88672,-0.87109 2.85545,-0.0431 5.59121,0.13931 8.16992,0.48242 1.52102,0.20238 2.85963,0.55265 4.26367,0.85352 -0.13754,-1.18665 -0.20377,-2.69204 -0.22656,-4.6504 -0.0231,-1.98655 -0.0167,-4.59912 -0.16406,-7.49609 -0.14734,-2.89697 -0.44977,-6.07967 -1.08789,-9.20312 -0.53519,-2.62183 -1.33944,-5.39231 -2.5,-8.08203 -0.58028,-1.34488 -1.24836,-2.66956 -2.01758,-3.94532 -0.74166,-1.23004 -1.58824,-2.40613 -2.52539,-3.51953 a 19.344023,22.228975 0 0 0 -5.12305,-0.81445 z"
             style="opacity:1;fill:#0066ff;fill-opacity:1;fill-rule:nonzero;stroke:none;stroke-width:2.36347222;stroke-linecap:round;stroke-linejoin:round;stroke-miterlimit:4;stroke-dasharray:none;stroke-opacity:1"
             inkscape:connector-curvature="0" />
          <path
             id="path4249"
             d="m 364.375,339.46484 a 14.879737,17.09889 0 0 0 -14.87109,17.10547 14.879737,17.09889 0 0 0 5.64453,13.39844 c 1.32027,-0.1151 2.69487,-0.36941 3.9707,-0.38867 2.85545,-0.0431 5.59121,0.13931 8.16992,0.48242 1.52102,0.20238 2.85963,0.55265 4.26367,0.85352 -0.1368,-1.19083 -0.20378,-2.69203 -0.22656,-4.6504 -0.0231,-1.98655 -0.0167,-4.59912 -0.16406,-7.49609 -0.14734,-2.89697 -0.44977,-6.07967 -1.08789,-9.20312 -0.53519,-2.62183 -1.33944,-5.39231 -2.5,-8.08203 -0.26435,-0.61267 -0.61759,-1.19532 -0.91992,-1.79688 a 14.879737,17.09889 0 0 0 -2.2793,-0.22266 z"
             style="opacity:1;fill:#00112b;fill-opacity:1;fill-rule:nonzero;stroke:none;stroke-width:2.36347222;stroke-linecap:round;stroke-linejoin:round;stroke-miterlimit:4;stroke-dasharray:none;stroke-opacity:1"
             inkscape:connector-curvature="0" />
          <path
             style="opacity:1;fill:#ffffff;fill-opacity:1;fill-rule:nonzero;stroke:none;stroke-width:2;stroke-linecap:round;stroke-linejoin:round;stroke-miterlimit:4;stroke-dasharray:none;stroke-opacity:1"
             id="path4242"
             sodipodi:type="arc"
             sodipodi:cx="354.05847"
             sodipodi:cy="343.569"
             sodipodi:rx="7.5761442"
             sodipodi:ry="7.5761442"
             sodipodi:start="0"
             sodipodi:end="6.2824523"
             sodipodi:open="true"
             d="m 361.63462,343.569 a 7.5761442,7.5761442 0 0 1 -7.57476,7.57614 7.5761442,7.5761442 0 0 1 -7.57753,-7.57336 7.5761442,7.5761442 0 0 1 7.57198,-7.57892 7.5761442,7.5761442 0 0 1 7.5803,7.57059" />
        </g>
        <path
           sodipodi:nodetypes="ccccccccc"
           inkscape:connector-curvature="0"
           id="path4231"
           d="m 560.62305,477.78125 c 0,0 13.95662,17.55699 22.39257,24.34766 0.0359,4.64972 21.21036,11.12647 23.70118,12.50781 21.73988,7.78568 33.70744,4.57314 56.29687,0.37109 -8.61265,-16.64133 -2.98565,-30.6569 -4.98437,-40.99219 -0.75415,-9.60099 -5.02002,-16.70717 -6.29883,-16.5 -0.15097,0.0664 -0.30707,0.14092 -0.45899,0.20899 -10.88198,-11.88911 -30.2959,-16.35271 -42.875,-25.88867 -1.50265,12.58452 -23.95321,46.86498 -47.77343,45.94531 z"
           style="opacity:1;fill:#b7c4c8;fill-opacity:1;fill-rule:nonzero;stroke:none;stroke-width:2;stroke-linecap:round;stroke-linejoin:round;stroke-miterlimit:4;stroke-dasharray:none;stroke-opacity:1" />
        <path
           style="opacity:1;fill:#dbe2e3;fill-opacity:1;fill-rule:nonzero;stroke:none;stroke-width:2;stroke-linecap:round;stroke-linejoin:round;stroke-miterlimit:4;stroke-dasharray:none;stroke-opacity:1"
           id="path4233"
           sodipodi:type="arc"
           sodipodi:cx="42.63401"
           sodipodi:cy="326.05435"
           sodipodi:rx="43.840622"
           sodipodi:ry="28.284271"
           sodipodi:start="0"
           sodipodi:end="6.2824523"
           sodipodi:open="true"
           d="M 86.474632,326.05435 A 43.840622,28.284271 0 0 1 42.642044,354.33862 43.840622,28.284271 0 0 1 -1.2066087,326.06472 43.840622,28.284271 0 0 1 42.609909,297.77008 43.840622,28.284271 0 0 1 86.47462,326.03362"
           transform="matrix(0.85022601,-0.52641783,0.52641783,0.85022601,0,0)" />
        <path
           transform="matrix(0.8432779,-0.5374778,0.51541179,0.85694264,0,0)"
           d="M 77.044336,318.44745 A 30.185335,19.727718 0 0 1 46.864533,338.17517 30.185335,19.727718 0 0 1 16.673668,318.45468 30.185335,19.727718 0 0 1 46.842407,298.71973 30.185335,19.727718 0 0 1 77.044328,318.43299"
           sodipodi:open="true"
           sodipodi:end="6.2824523"
           sodipodi:start="0"
           sodipodi:ry="19.727718"
           sodipodi:rx="30.185335"
           sodipodi:cy="318.44745"
           sodipodi:cx="46.859001"
           sodipodi:type="arc"
           id="path4235"
           style="opacity:1;fill:#f5f7f7;fill-opacity:1;fill-rule:nonzero;stroke:none;stroke-width:2;stroke-linecap:round;stroke-linejoin:round;stroke-miterlimit:4;stroke-dasharray:none;stroke-opacity:1" />
      </g>
      <path
         sodipodi:nodetypes="cccc"
         inkscape:connector-curvature="0"
         id="path4254"
         d="m 324.64645,333.86226 c 12.55054,14.2282 27.81602,9.44866 39.52512,1.35355 -6.60124,-6.53621 -14.07099,-12.12427 -23.87868,-15.41421 z"
         style="opacity:0.269;fill:#80b3ff;fill-rule:evenodd;stroke:none;stroke-width:1px;stroke-linecap:butt;stroke-linejoin:miter;stroke-opacity:1" />
      <path
         sodipodi:nodetypes="cscssscc"
         inkscape:connector-curvature="0"
         id="path4256"
         d="m 349,457.59449 c -33.32987,6.10303 -58.61091,-5.7473 -90,-7 -14.74932,-0.58863 -46.5,6 -46.5,6 0,0 -3.77266,-5.75005 -1,-7 10.07309,-4.54106 15.43312,-10.39475 40.96313,-7.17175 6.09024,0.76886 11.39986,2.96423 16.93323,3.58926 44.40972,5.01636 70.0255,6.50195 81.10364,4.08249 z"
         style="opacity:0.29600004;fill:#374548;fill-rule:evenodd;stroke:none;stroke-width:1px;stroke-linecap:butt;stroke-linejoin:miter;stroke-opacity:1" />
    </g>
  </g>
</svg>
