<?xml version="1.0" encoding="utf-8"?>

<!DOCTYPE svg PUBLIC "-//W3C//DTD SVG 1.1//EN" "http://www.w3.org/Graphics/SVG/1.1/DTD/svg11.dtd">
<svg version="1.1" id="Layer_1" xmlns="http://www.w3.org/2000/svg" xmlns:xlink="http://www.w3.org/1999/xlink" x="0px" y="0px"
	 viewBox="0 0 1160.797 1744.117" enable-background="new 0 0 1160.797 1744.117" xml:space="preserve">
<g>
	<path stroke="#000000" stroke-width="0.5" d="M658.104,72.998c15.346-2.278,31.308-0.403,45.656,5.522
		c18.664,7.61,34.436,21.992,43.787,39.843c3.206,6.087,5.674,12.563,7.346,19.236c14.804-3.135,30.272-3.125,45.063,0.098
		c20.57,4.432,39.687,15.2,54.221,30.404c13.325,13.86,22.828,31.376,27.036,50.145c18.18-4.875,38.17-2.705,54.762,6.229
		c12.868,6.835,23.661,17.506,30.641,30.296c7.533,13.653,10.529,29.697,8.643,45.161c13.294,1.93,26.122,6.974,37.168,14.618
		c17.574,12.066,30.519,30.702,35.533,51.438c3.775,15.38,3.324,31.782-1.341,46.918c-3.903,12.749-10.789,24.561-19.906,34.287
		c18.39,9.093,33.83,24.009,43.533,42.087c6.016,11.148,9.851,23.464,11.236,36.058c1.737,15.678-0.257,31.772-5.897,46.512
		c-7.174,18.894-20.289,35.472-37.016,46.81c3.416,6.585,5.146,14.07,4.665,21.494c-0.562,10.664-5.633,20.885-13.46,28.095
		c-7.292,6.805-16.856,11.04-26.755,12.12c1.395,12.201-0.552,24.781-5.721,35.929c-5.488,11.951-14.571,22.205-25.753,29.118
		c-10.403,6.476-22.615,10-34.87,10.072c-11.879,0.135-23.772-2.962-34.067-8.887c-6.771-3.886-12.865-8.954-17.909-14.909
		c-7.962-9.347-13.288-20.912-15.167-33.048c-2.241-14.026,0.129-28.705,6.605-41.343c-11.334-3.429-21.704-9.933-29.744-18.62
		c-5.102-5.481-9.239-11.839-12.282-18.674c-7.38,9.499-17.296,17.022-28.498,21.433c-15.481,6.165-33.272,6.27-48.821,0.261
		c-6.93,5.596-14.913,9.912-23.474,12.408c-12.441,3.67-25.956,3.622-38.367-0.152c-9.415-2.84-18.159-7.827-25.441-14.425
		c-7.851-7.106-13.995-16.091-17.719-26.003c-2.63-6.95-4.042-14.347-4.259-21.775c-11.5,0.007-22.994-2.945-33.008-8.606
		c-11.395-6.371-20.807-16.152-26.85-27.713c-5.576,3.284-11.544,5.894-17.729,7.783c-0.931,0.091-1.09,0.975-1.195,1.74
		c-1.916,11.47-7.888,22.174-16.49,29.974c-7.736,7.055-17.604,11.741-27.977,13.2c-12.262,1.815-25.133-0.877-35.614-7.502
		c-9.841-6.148-17.564-15.62-21.555-26.521c-1.08-2.864-1.815-5.84-2.451-8.826c-0.058,11.483-3.473,22.929-9.77,32.537
		c-6.28,9.655-15.373,17.458-25.888,22.164c-11.419,5.163-24.47,6.574-36.745,4.079c-14.919-2.949-28.485-11.869-37.263-24.267
		c-10.735,11.104-25.699,17.99-41.136,18.792c-3.23,10.681-9.581,20.384-18.085,27.605c-9.212,7.901-20.942,12.78-33.035,13.772
		c3.839,6.429,5.84,13.961,5.484,21.453c-0.335,9.012-4.039,17.814-10.139,24.439c-7.79,8.596-19.395,13.484-30.976,13.217
		c-11.595-0.112-23.041-5.41-30.519-14.286c-4.394-5.149-7.421-11.46-8.623-18.122c-13.217-2.766-25.309-10.454-33.414-21.25
		c-12.238,3.131-25.448,2.41-37.219-2.207c-10.349-4.022-19.537-10.969-26.254-19.808c-7.319-9.567-11.666-21.369-12.279-33.404
		c-0.677-12.16,2.397-24.51,8.785-34.89c6.771-11.121,17.218-19.954,29.324-24.751c-5.847-11.121-7.905-24.158-5.789-36.539
		c1.439-8.653,4.926-16.941,10.031-24.063c-9.239-8.369-16.429-18.996-20.654-30.729c-6.165-16.924-6.056-36.038,0.298-52.894
		c4.939-13.213,13.636-24.988,24.795-33.614c-5.2-12.292-7.445-25.817-6.426-39.129c0.958-13.169,5.115-26.091,12.022-37.344
		c5.654-9.259,13.125-17.398,21.86-23.833c9.689-7.153,20.942-12.177,32.744-14.588c10.173-2.089,20.729-2.251,30.97-0.542
		c-0.867-13.589,1.784-27.401,7.749-39.653c5.146-10.64,12.712-20.099,21.951-27.473c8.711-6.977,18.914-12.089,29.731-14.855
		c13.135-3.385,27.134-3.311,40.239,0.162c2.949-12.035,8.948-23.302,17.272-32.483c8.196-9.07,18.623-16.111,30.123-20.272
		c13.653-4.973,28.762-5.82,42.903-2.492c14.818,3.446,28.471,11.588,38.628,22.906c6.791-12.055,16.602-22.401,28.36-29.707
		c11.802-7.387,25.519-11.68,39.43-12.323c14.297-0.724,28.776,2.349,41.509,8.9c12.956,6.622,24.087,16.754,31.907,29.02
		c2.664-11.023,7.394-21.555,14.053-30.743c6.432-8.927,14.574-16.619,23.857-22.523C634.633,79.065,646.177,74.755,658.104,72.998
		 M640.885,78.262c-10.799,4.052-20.776,10.288-29.121,18.247c-8.335,7.946-15.085,17.563-19.635,28.143
		c-2.285,5.2-3.89,10.657-5.227,16.169c-7.638-12.462-18.579-22.896-31.515-29.724c-10.099-5.386-21.345-8.599-32.767-9.317
		c-14.5-0.968-29.274,1.96-42.213,8.606c-11.135,5.593-20.895,13.843-28.373,23.799c-2.421,3.125-4.404,6.547-6.466,9.906
		c-1.473-0.989-2.427-2.559-3.754-3.721c-11.104-11.047-25.776-18.434-41.275-20.719c-12.919-1.936-26.352-0.437-38.495,4.394
		c-11.087,4.404-21.098,11.521-28.874,20.566c-7.844,9.036-13.41,20.001-16.165,31.64c-13.467-3.7-27.923-3.805-41.414-0.156
		c-11.155,2.962-21.606,8.491-30.398,15.959c-8.829,7.428-15.922,16.876-20.725,27.357c-5.515,12.008-7.814,25.414-6.852,38.58
		c-9.313-1.523-18.867-1.743-28.194-0.21c-13.227,2.099-25.898,7.533-36.579,15.6c-8.186,6.111-15.163,13.799-20.583,22.449
		c-6.686,10.715-10.887,22.98-12.103,35.557c-1.446,14.029,0.836,28.387,6.395,41.339c-10.133,7.864-18.386,18.193-23.495,29.981
		c-7.99,18.139-8.406,39.46-1.093,57.887c4.293,11.118,11.382,21.084,20.235,29.037c-4.767,6.618-8.254,14.192-9.875,22.198
		c-2.759,13.105-0.724,27.158,5.721,38.905c-12.022,4.652-22.52,13.186-29.351,24.135c-6.588,10.39-9.784,22.862-9.08,35.137
		c0.582,11.006,4.286,21.846,10.634,30.861c6.842,9.872,16.741,17.604,27.994,21.816c11.632,4.438,24.619,4.977,36.647,1.838
		c1.683,2.272,3.551,4.408,5.566,6.395c7.634,7.685,17.621,12.871,28.197,15.089c1.462,8.684,6.097,16.748,12.746,22.499
		c9.31,8.145,22.489,11.483,34.575,8.954c11.321-2.238,21.558-9.635,26.972-19.855c3.46-6.351,5-13.731,4.377-20.932
		c-0.477-6.199-2.671-12.167-5.952-17.421c12.763-0.758,25.204-5.911,34.741-14.429c8.098-7.14,14.066-16.616,17.123-26.961
		c9.516-0.576,18.938-3.159,27.239-7.888c5.423-3.016,10.258-6.984,14.622-11.375c3.46,4.767,7.407,9.215,12.059,12.858
		c9.52,7.621,21.44,12.238,33.627,12.885c12.753,0.796,25.732-2.681,36.363-9.777c9.33-6.188,16.886-15.024,21.48-25.242
		c5.214-11.571,6.585-24.815,3.853-37.209c0.748,0.129,1.5,0.257,2.251,0.393c-0.139,3.941-0.037,7.901,0.647,11.795
		c1.777,11.097,7.34,21.538,15.519,29.243c8.728,8.413,20.532,13.528,32.632,14.215c12.306,0.802,24.859-2.969,34.639-10.488
		c8.988-6.781,15.654-16.575,18.664-27.425c0.724-2.248,0.907-4.628,1.557-6.886c0.687-0.396,1.466-0.589,2.221-0.823
		c6.097-1.845,11.856-4.645,17.381-7.79c3.656,6.889,8.267,13.318,14.016,18.62c7.617,7.136,16.927,12.472,26.968,15.349
		c6.263,1.865,12.8,2.583,19.321,2.674c0.244,7.722,1.601,15.441,4.421,22.652c3.991,10.383,10.647,19.74,19.182,26.88
		c7.421,6.277,16.267,10.837,25.655,13.328c11.636,3.06,24.107,2.878,35.638-0.559c8.562-2.488,16.521-6.859,23.41-12.499
		c2.458,0.87,4.922,1.744,7.458,2.38c13.873,3.656,28.918,2.641,42.172-2.857c11.087-4.577,20.888-12.221,28.028-21.863
		c1.334,2.658,2.515,5.393,4.052,7.942c8.46,14.655,22.76,25.8,39.041,30.411c-4.98,9.317-7.688,19.822-7.817,30.384
		c-0.196,12.668,3.301,25.387,10.055,36.119c6.043,9.736,14.662,17.865,24.741,23.322c11.26,6.148,24.338,8.897,37.124,7.837
		c11.646-0.89,23.004-4.99,32.585-11.656c9.499-6.602,17.238-15.708,22.212-26.152c5.434-11.412,7.461-24.382,5.887-36.914
		c3.416-0.569,6.869-1.043,10.156-2.204c10.119-3.199,19.046-10.109,24.514-19.226c3.707-6.165,5.711-13.349,5.691-20.546
		c0.051-6.737-1.781-13.41-4.953-19.331c6.395-4.418,12.404-9.435,17.645-15.184c7.959-8.64,14.391-18.701,18.809-29.588
		c10.251-24.856,9.658-53.936-1.649-78.335c-9.445-20.786-26.386-38.001-46.952-47.893c8.778-9.219,15.624-20.306,19.679-32.388
		c4.563-13.41,5.748-27.936,3.514-41.918c-1.994-12.448-6.734-24.453-13.809-34.887c-6.889-10.193-15.955-18.911-26.416-25.384
		c-10.298-6.456-21.995-10.505-33.993-12.306c0.945-7.407,0.826-14.95-0.43-22.313c-2.085-12.418-7.451-24.256-15.373-34.04
		c-10.061-12.506-24.239-21.673-39.843-25.499c-12.452-3.128-25.695-2.881-38.065,0.521c-0.735-2.783-1.344-5.599-2.231-8.338
		c-3.226-10.539-8.142-20.549-14.442-29.585c-11.561-16.531-27.896-29.69-46.573-37.324c-13.972-5.745-29.182-8.426-44.271-7.83
		c-6.344,0.203-12.628,1.137-18.85,2.339c-2.6-10.691-7.248-20.885-13.687-29.809c-6.338-8.89-14.429-16.507-23.62-22.388
		c-9.936-6.365-21.216-10.6-32.869-12.414C669.644,71.64,654.6,73.116,640.885,78.262 M463.568,553.215
		c-0.311,0.403-0.142,1.127,0.295,1.385C464.448,554.443,464.204,553.039,463.568,553.215z"/>
	<path fill="#201E1E" stroke="#201E1E" stroke-width="0.5" d="M640.885,78.262c13.714-5.146,28.759-6.622,43.228-4.384
		c11.653,1.815,22.933,6.05,32.869,12.414c9.191,5.88,17.282,13.498,23.62,22.388c6.439,8.924,11.087,19.117,13.687,29.809
		c6.222-1.202,12.506-2.136,18.85-2.339c15.089-0.596,30.299,2.085,44.271,7.83c18.677,7.634,35.012,20.793,46.573,37.324
		c6.3,9.036,11.216,19.046,14.442,29.585c0.887,2.739,1.496,5.555,2.231,8.338c12.37-3.402,25.614-3.649,38.065-0.521
		c15.603,3.826,29.781,12.993,39.843,25.499c7.922,9.784,13.288,21.623,15.373,34.04c1.256,7.363,1.375,14.906,0.43,22.313
		c11.998,1.801,23.694,5.85,33.993,12.306c10.461,6.473,19.527,15.19,26.416,25.384c7.076,10.434,11.815,22.438,13.809,34.887
		c2.234,13.982,1.049,28.509-3.514,41.918c-4.056,12.082-10.901,23.17-19.679,32.388c20.566,9.892,37.507,27.107,46.952,47.893
		c11.307,24.399,11.9,53.479,1.649,78.335c-4.418,10.887-10.85,20.949-18.809,29.588c-5.241,5.748-11.25,10.766-17.645,15.184
		c3.172,5.921,5.004,12.594,4.953,19.331c0.02,7.197-1.984,14.381-5.691,20.546c-5.467,9.117-14.395,16.027-24.514,19.226
		c-3.287,1.161-6.74,1.635-10.156,2.204c1.574,12.533-0.454,25.502-5.887,36.914c-4.973,10.444-12.712,19.551-22.212,26.152
		c-9.581,6.666-20.939,10.766-32.585,11.656c-12.787,1.06-25.865-1.689-37.124-7.837c-10.078-5.457-18.698-13.586-24.741-23.322
		c-6.754-10.732-10.251-23.451-10.055-36.119c0.129-10.562,2.837-21.067,7.817-30.384c-16.28-4.611-30.58-15.756-39.041-30.411
		c-1.537-2.549-2.719-5.285-4.052-7.942c-7.14,9.642-16.941,17.286-28.028,21.863c-13.254,5.498-28.299,6.514-42.172,2.857
		c-2.536-0.636-5-1.51-7.458-2.38c-6.889,5.64-14.848,10.011-23.41,12.499c-11.531,3.436-24.003,3.619-35.638,0.559
		c-9.388-2.492-18.234-7.052-25.655-13.328c-8.535-7.14-15.19-16.497-19.182-26.88c-2.82-7.211-4.178-14.93-4.421-22.652
		c-6.52-0.091-13.058-0.809-19.321-2.674c-10.041-2.878-19.351-8.213-26.968-15.349c-5.748-5.302-10.359-11.73-14.016-18.62
		c-5.525,3.145-11.284,5.945-17.381,7.79c-0.755,0.234-1.534,0.427-2.221,0.823c-0.65,2.258-0.833,4.638-1.557,6.886
		c-3.01,10.85-9.675,20.644-18.664,27.425c-9.78,7.519-22.333,11.29-34.639,10.488c-12.099-0.687-23.904-5.803-32.632-14.215
		c-8.179-7.705-13.741-18.146-15.519-29.243c-0.684-3.893-0.785-7.854-0.647-11.795c-0.752-0.135-1.503-0.264-2.251-0.393
		c2.732,12.394,1.361,25.638-3.853,37.209c-4.594,10.217-12.15,19.053-21.48,25.242c-10.63,7.096-23.61,10.573-36.363,9.777
		c-12.187-0.647-24.108-5.264-33.627-12.885c-4.652-3.643-8.599-8.091-12.059-12.858c-4.364,4.391-9.198,8.359-14.622,11.375
		c-8.301,4.729-17.723,7.312-27.239,7.888c-3.057,10.346-9.025,19.822-17.123,26.961c-9.537,8.518-21.978,13.67-34.741,14.429
		c3.28,5.254,5.474,11.223,5.952,17.421c0.623,7.201-0.917,14.581-4.377,20.932c-5.413,10.221-15.651,17.618-26.972,19.855
		c-12.086,2.529-25.265-0.809-34.575-8.954c-6.649-5.752-11.284-13.816-12.746-22.499c-10.576-2.217-20.563-7.404-28.197-15.089
		c-2.014-1.987-3.883-4.123-5.566-6.395c-12.028,3.138-25.015,2.6-36.647-1.838c-11.253-4.211-21.152-11.944-27.994-21.816
		c-6.348-9.015-10.051-19.855-10.634-30.861c-0.704-12.275,2.492-24.747,9.08-35.137c6.832-10.948,17.33-19.483,29.351-24.135
		c-6.446-11.747-8.48-25.8-5.721-38.905c1.622-8.006,5.109-15.58,9.875-22.198c-8.853-7.952-15.942-17.919-20.235-29.037
		c-7.312-18.427-6.896-39.748,1.093-57.887c5.109-11.788,13.362-22.117,23.495-29.981c-5.559-12.953-7.841-27.31-6.395-41.339
		c1.215-12.577,5.417-24.842,12.103-35.557c5.42-8.65,12.397-16.338,20.583-22.449c10.681-8.067,23.353-13.501,36.579-15.6
		c9.327-1.534,18.88-1.314,28.194,0.21c-0.961-13.166,1.337-26.572,6.852-38.58c4.804-10.481,11.896-19.93,20.725-27.357
		c8.792-7.468,19.243-12.997,30.398-15.959c13.491-3.649,27.947-3.545,41.414,0.156c2.756-11.639,8.321-22.604,16.165-31.64
		c7.776-9.046,17.787-16.162,28.874-20.566c12.143-4.831,25.577-6.331,38.495-4.394c15.498,2.285,30.171,9.672,41.275,20.719
		c1.327,1.161,2.282,2.732,3.754,3.721c2.062-3.358,4.046-6.781,6.466-9.906c7.478-9.956,17.238-18.207,28.373-23.799
		c12.939-6.646,27.713-9.574,42.213-8.606c11.422,0.718,22.669,3.93,32.767,9.317c12.936,6.828,23.877,17.262,31.515,29.724
		c1.337-5.511,2.942-10.969,5.227-16.169c4.55-10.579,11.3-20.197,19.635-28.143C620.109,88.55,630.086,82.315,640.885,78.262z"/>
	<path fill="#482922" stroke="#482922" stroke-width="0.5" d="M463.568,553.215c0.636-0.176,0.88,1.229,0.295,1.385
		C463.426,554.342,463.256,553.617,463.568,553.215z"/>
	<path fill="#A45E4D" stroke="#A45E4D" stroke-width="0.5" d="M569.944,563.218c6.185-1.889,12.154-4.499,17.729-7.783
		c6.043,11.561,15.454,21.342,26.85,27.713c10.014,5.66,21.508,8.612,33.008,8.606c0.217,7.428,1.628,14.825,4.259,21.775
		c3.724,9.913,9.868,18.897,17.719,26.003c7.282,6.598,16.027,11.585,25.441,14.425c12.411,3.775,25.925,3.822,38.367,0.152
		c8.562-2.495,16.544-6.811,23.474-12.408c15.549,6.009,33.34,5.904,48.821-0.261c11.202-4.411,21.118-11.934,28.498-21.433
		c3.043,6.835,7.18,13.193,12.282,18.674c8.04,8.687,18.41,15.19,29.744,18.62c-6.476,12.638-8.846,27.317-6.605,41.343
		c1.879,12.137,7.204,23.701,15.167,33.048c-3.297,2.319-7.062,3.978-11.047,4.648c-1.479,7.658-3.077,15.292-4.77,22.906
		c-0.254,1.046-0.399,2.14-0.884,3.118c-12.025,23.63-26.545,46.072-44,66.066c-16.88,19.385-36.552,36.386-58.425,49.918
		c-19.673,12.215-41.058,21.609-63.25,28.19c-0.45-2.39-0.579-4.841-1.242-7.18c-1.605-0.22-3.209,0.159-4.797,0.318
		c-8.802,0.975-17.601,1.957-26.406,2.891c-2.874,0.267-5.728,0.755-8.609,0.884c-12.401-1.537-24.778-3.348-37.206-4.675
		c-0.332,7.096-1.341,14.209-3.616,20.959c-1.784,5.302-4.411,10.366-8.044,14.642c-3.348,3.968-7.553,7.191-12.211,9.476
		c-6.551,3.172-13.836,4.801-21.094,5.004c-1.896-0.813-3.991-0.504-5.985-0.613c-6.625-0.308-13.281-1.588-19.314-4.411
		c-4.875-2.265-9.259-5.576-12.743-9.669c-7.891-9.273-11.047-21.528-12.333-33.39c-8.325,1.456-16.633,2.993-24.933,4.577
		c-3.985,0.701-7.929,1.649-11.93,2.251c-0.372-0.007-0.741-0.01-1.104-0.014c-15.062-3.071-30.005-6.761-44.63-11.514
		c-32.046-10.315-62.728-25.377-89.564-45.808c-13.464-10.231-25.956-21.744-37.192-34.379c1.236-0.024,2.475-0.034,3.714-0.034
		c0.112,0.423,0.223,0.853,0.339,1.293c1.049,0.02,2.099,0.047,3.152,0.078c0.261,0.315,0.525,0.636,0.789,0.972
		c1.192,0.014,2.383,0.03,3.575,0.051c0.051,0.867,0.105,1.743,0.159,2.624c1.09,0.02,2.177,0.051,3.267,0.081
		c0.257,0.308,0.515,0.626,0.779,0.958c2.329,0.017,4.658,0.017,6.991,0.047c0.041,0.877,0.081,1.76,0.125,2.654
		c2.515,0.027,5.034,0.014,7.553,0.078c0.108,0.41,0.22,0.833,0.335,1.259c3.46,0.156,6.923-0.064,10.383,0.142
		c1.507,1.273,3.548,0.928,5.366,0.924c3.944-0.047,7.888,0.007,11.832,0.01c2.085-0.034,4.283,0.332,6.249-0.562
		c1.771-0.768,3.731-0.443,5.603-0.467c3.104-0.014,6.212,0.051,9.32-0.041c0.108-0.44,0.22-0.87,0.335-1.29
		c2.404-0.017,4.807-0.003,7.211-0.058c0.051-0.887,0.102-1.767,0.156-2.644c2.434-0.031,4.865-0.02,7.299-0.041
		c0.264-0.332,0.528-0.657,0.802-0.968c1.083-0.034,2.167-0.061,3.257-0.081c0.044-0.877,0.095-1.747,0.146-2.61
		c1.093-0.027,2.19-0.051,3.287-0.068c0.247-0.342,0.498-0.67,0.755-0.992c1.077-0.024,2.16-0.047,3.243-0.061
		c0.054-0.873,0.112-1.737,0.173-2.593c1.293-0.041,2.59-0.074,3.886-0.108c0.064-0.765,0.132-1.527,0.2-2.278
		c1.185-0.037,2.373-0.068,3.561-0.095c0.034-1.327,0.075-2.651,0.115-3.968c1.198-0.037,2.4-0.068,3.605-0.091
		c0.044-1.212,0.091-2.417,0.139-3.619c1.188-0.044,2.38-0.085,3.572-0.122c0.041-1.209,0.081-2.417,0.125-3.619
		c1.219-0.037,2.441-0.068,3.663-0.095c0.02-2.448-0.013-4.892,0.037-7.333c1.222-0.047,2.448-0.088,3.673-0.125
		c0.037-2.526-0.007-5.051,0.064-7.57c0.41-0.115,0.823-0.22,1.242-0.318c0.041-1.168,0.085-2.333,0.132-3.49
		c0.836-0.054,1.672-0.102,2.515-0.142c-0.125-1.876,0.714-3.555,1.121-5.325c0.146-3.25-0.091-6.513,0.068-9.767
		c0.88-0.047,1.764-0.091,2.651-0.132c0.071-6.862-0.01-13.724,0.007-20.587c-0.017-4.831,0.078-9.665-0.017-14.493
		c-0.887-0.051-1.771-0.098-2.654-0.135c-0.027-2.329-0.024-4.652-0.027-6.974c-0.335-0.274-0.667-0.538-0.992-0.796
		c-0.02-2.441-0.017-4.878-0.051-7.316c-0.873-0.061-1.747-0.115-2.617-0.166c-0.037-1.165-0.074-2.326-0.108-3.484
		c-0.406-0.115-0.806-0.22-1.198-0.315c-0.068-0.447-0.132-0.884-0.19-1.314c5.44,0.521,11.03-1.517,14.855-5.413
		c4.635-4.574,6.679-11.493,5.484-17.868c-1.073-6.246-5.312-11.896-11.121-14.49c-5.735-2.641-12.81-1.994-17.963,1.655
		c-4.953,3.358-7.966,9.093-8.474,15.001c-0.664-1.202-1.263-2.441-1.632-3.761c-1.226-0.047-2.451-0.081-3.677-0.105
		c-0.047-0.86-0.095-1.713-0.139-2.559c-1.476-0.024-3.047-0.041-4.266-0.985c-0.995-0.102-1.991-0.169-2.983-0.227
		c-0.108-0.399-0.21-0.792-0.308-1.175c-1.134-0.058-2.265-0.112-3.396-0.159c-0.108-0.416-0.21-0.829-0.311-1.232
		c-1.161-0.041-2.319-0.078-3.477-0.112c-0.064-0.758-0.129-1.513-0.19-2.261c-2.509-0.051-5.021-0.037-7.529-0.085
		c-0.108-0.43-0.213-0.857-0.315-1.273c-3.622-0.088-7.241,0.034-10.86-0.071c-0.112-0.437-0.22-0.863-0.325-1.283
		c-1.754-0.085-3.507-0.017-5.261-0.02c-1.666,0.074-3.05-1.117-4.706-1.073c-3.734,0.02-7.468,0.058-11.199,0.027
		c-1.76,0-3.605-0.261-5.268,0.474c-2.346,1.036-4.956,0.399-7.428,0.586c-0.118,0.423-0.234,0.853-0.345,1.29
		c-2.38,0.03-4.757,0.017-7.133,0.064c-0.108,0.416-0.21,0.843-0.308,1.273c-3.751,0.142-7.505-0.02-11.253,0.085
		c-0.061,0.752-0.118,1.51-0.173,2.275c-1.171,0.034-2.339,0.074-3.504,0.115c-0.105,0.406-0.207,0.816-0.308,1.236
		c-1.134,0.034-2.268,0.071-3.402,0.112c-0.098,0.413-0.193,0.833-0.284,1.259c-1.273,0.027-2.546,0.058-3.819,0.091
		c-0.064,0.748-0.129,1.503-0.19,2.265c-1.161,0.044-2.322,0.091-3.484,0.142c-0.102,0.393-0.203,0.792-0.301,1.202
		c-1.161,0.041-2.319,0.088-3.477,0.135c-0.064,0.711-0.122,1.429-0.179,2.15c-0.369,0.105-0.735,0.217-1.094,0.335
		c-0.118,0.352-0.234,0.711-0.345,1.077c-0.708,0.054-1.408,0.115-2.109,0.186c-0.071,0.694-0.135,1.395-0.2,2.102
		c-0.359,0.112-0.718,0.23-1.07,0.359c-0.122,0.345-0.237,0.704-0.352,1.066c-0.704,0.064-1.405,0.132-2.102,0.207
		c-0.074,0.758-0.149,1.523-0.217,2.292c-0.582,0.413-1.161,0.829-1.737,1.249c-0.728,0.054-1.452,0.112-2.173,0.179
		c-0.03,1.29-0.058,2.58-0.085,3.876c-0.755,0.047-1.51,0.098-2.261,0.159c-0.034,1.175-0.064,2.353-0.098,3.538
		c-0.765,0.064-1.53,0.135-2.292,0.21c-0.03,1.148-0.058,2.299-0.085,3.45c-0.416,0.105-0.829,0.217-1.242,0.335
		c-0.041,1.158-0.081,2.316-0.122,3.48c-0.863,0.051-1.727,0.108-2.586,0.169c-0.034,1.077-0.068,2.153-0.098,3.236
		c-0.328,0.264-0.653,0.535-0.978,0.816c-0.02,2.438,0.007,4.882-0.027,7.326c-0.884,0.037-1.764,0.081-2.641,0.129
		c-0.044,2.393-0.047,4.794-0.091,7.191c-0.42,0.102-0.836,0.21-1.249,0.328c-0.132,8.86-0.02,17.723-0.047,26.586
		c0.044,4.123-0.102,8.247,0.024,12.37c0.427,0.105,0.853,0.22,1.283,0.342c0.051,2.394,0.047,4.79,0.068,7.187
		c0.88,0.047,1.767,0.098,2.651,0.156c0.047,2.241-0.03,4.489,0.091,6.73c1.094,1.3,1.019,3.04,1.036,4.641
		c0.846,0.044,1.696,0.095,2.546,0.152c0.044,1.158,0.091,2.319,0.142,3.484c0.427,0.108,0.856,0.223,1.286,0.349
		c-0.058,0.799-0.115,1.598-0.169,2.41c-19.913-27.171-34.643-57.914-45.012-89.903c6.1-6.625,9.804-15.427,10.139-24.439
		c0.355-7.492-1.645-15.024-5.484-21.453c12.093-0.992,23.823-5.87,33.035-13.772c8.504-7.221,14.855-16.924,18.085-27.605
		c15.437-0.802,30.401-7.688,41.136-18.792c8.778,12.397,22.344,21.318,37.263,24.267c12.275,2.495,25.326,1.083,36.745-4.079
		c10.515-4.706,19.608-12.509,25.888-22.164c6.297-9.608,9.713-21.054,9.77-32.537c0.636,2.986,1.371,5.962,2.451,8.826
		c3.991,10.901,11.714,20.373,21.555,26.521c10.481,6.625,23.353,9.317,35.614,7.502c10.373-1.459,20.241-6.145,27.977-13.2
		c8.602-7.8,14.574-18.505,16.49-29.974C568.854,564.193,569.013,563.31,569.944,563.218 M453.899,647.667
		c-8.538,0.691-17.052,1.642-25.529,2.864c-3.006,0.396-5.251,3.514-4.679,6.493c0.399,3.03,3.616,5.379,6.629,4.614
		c10.783-2.549,21.423-5.752,32.344-7.702c6.916-1.212,13.985-2.17,21.01-1.398c2.556,0.24,4.987,1.087,7.4,1.916
		c0.064-1.11,0.359-2.373-0.359-3.335c-1.012-1.412-2.702-2.089-4.296-2.597c-3.514-1.043-7.194-1.31-10.837-1.49
		C468.351,646.736,461.11,647.129,453.899,647.667 M645.53,667.211c-0.917,0.816-0.873,2.109-0.911,3.233
		c3.873-0.846,7.888-0.626,11.751,0.156c5.481,1.063,10.772,2.928,15.942,5.01c9.777,3.944,19.101,8.89,28.593,13.457
		c1.222,0.572,2.468,1.273,3.866,1.232c2.553,0.003,4.936-1.95,5.437-4.452c0.694-2.796-1.114-5.833-3.859-6.646
		c-12.374-4.398-24.886-8.497-37.693-11.46c-5.484-1.202-11.047-2.343-16.687-2.322C649.755,665.508,647.253,665.634,645.53,667.211
		 M748.856,680.8c-0.051,0.758-0.098,1.52-0.135,2.285c-3.663,0.139-7.326-0.027-10.982,0.102c-0.091,0.406-0.173,0.823-0.247,1.242
		c-1.293,0.044-2.586,0.088-3.873,0.125c-0.041,0.867-0.074,1.737-0.105,2.614c-2.417,0.071-4.834-0.014-7.248,0.064
		c-0.078,0.234-0.234,0.697-0.311,0.928c-1.165,0.034-2.322,0.071-3.477,0.112c-0.068,0.863-0.129,1.733-0.186,2.607
		c-1.361,0.112-3.135-0.413-4.002,0.958c-1.202,0.085-2.404,0.119-3.602,0.149c-0.078,1.06,0.061,2.309-0.904,3.03
		c-0.135,0.298-0.261,0.603-0.376,0.921c-0.819,0.044-1.635,0.095-2.448,0.146c-0.064,0.738-0.122,1.483-0.173,2.231
		c-1.192,0.034-2.38,0.068-3.565,0.105c-0.044,0.863-0.088,1.73-0.122,2.603c-1.212,0.037-2.424,0.075-3.629,0.112
		c-0.037,1.178-0.074,2.356-0.105,3.541c-0.42,0.074-0.829,0.156-1.232,0.247c-0.054,1.175-0.098,2.353-0.132,3.534
		c-0.755,0.047-1.507,0.102-2.251,0.159c-0.037,1.195-0.071,2.39-0.098,3.595c-1.209,0.017-2.417,0.041-3.622,0.074
		c-0.105,2.431-0.027,4.868-0.081,7.302c-0.433,0.071-0.857,0.149-1.276,0.234c-0.03,1.293-0.058,2.59-0.081,3.89
		c-0.89,0.03-1.777,0.071-2.658,0.112c-0.031,1.561-0.017,3.121,0.027,4.685c-0.003,0.873,0.074,1.835-0.471,2.59
		c-0.816,1.063-0.501,2.465-0.718,3.707c-0.846,0.156-1.706,0.176-2.556,0.234c-0.088,4.997,0.047,9.994-0.047,14.991
		c-0.443,0.078-0.884,0.162-1.313,0.257c-0.041,5.329-0.044,10.657,0.003,15.989c0.416,0.085,0.843,0.179,1.276,0.284
		c0.162,5-0.02,10.004,0.081,15.008c0.867,0.041,1.74,0.091,2.617,0.142c-0.003,1.439-0.091,2.996,0.87,4.195
		c0.653,2.289-0.119,4.75,0.322,7.096c0.833,0.169,1.689,0.21,2.546,0.288c0.041,1.148,0.081,2.302,0.125,3.46
		c0.406,0.068,0.819,0.142,1.242,0.227c0.024,1.185,0.051,2.377,0.085,3.572c0.755,0.03,1.513,0.071,2.282,0.115
		c0.024,1.171,0.058,2.346,0.098,3.524c0.406,0.081,0.819,0.166,1.242,0.264c0.031,1.182,0.068,2.37,0.105,3.561
		c1.205,0.02,2.417,0.047,3.636,0.074c0.02,1.317,0.047,2.641,0.081,3.968c0.741,0.03,1.49,0.068,2.245,0.112
		c0.054,0.718,0.112,1.446,0.176,2.177c0.393,0.081,0.792,0.173,1.198,0.271c0.044,0.833,0.091,1.669,0.146,2.512
		c0.816,0.041,1.635,0.095,2.461,0.149c0.088,0.19,0.264,0.572,0.352,0.762c0.19,0.088,0.572,0.261,0.762,0.349
		c0.044,0.819,0.091,1.642,0.142,2.475c1.192,0.037,2.383,0.078,3.582,0.118c0.03,0.748,0.068,1.503,0.112,2.268
		c1.29,0.017,2.583,0.047,3.88,0.095c0.088,0.4,0.179,0.809,0.281,1.229c1.158,0.037,2.322,0.081,3.487,0.129
		c0.047,0.741,0.105,1.49,0.163,2.245c1.181,0.034,2.366,0.078,3.555,0.129c0.064,0.406,0.142,0.819,0.223,1.239
		c1.165,0.041,2.329,0.081,3.5,0.122c0.064,0.403,0.135,0.813,0.217,1.236c1.178,0.027,2.36,0.061,3.544,0.098
		c0.044,0.758,0.091,1.527,0.146,2.299c3.768,0.061,7.536-0.041,11.304,0.064c0.074,0.416,0.159,0.843,0.251,1.276
		c3.758,0.129,7.516-0.051,11.277,0.058c0.068,0.42,0.146,0.85,0.23,1.29c7.482,0.091,14.967,0.041,22.452,0.02
		c0.068-0.433,0.142-0.857,0.227-1.273c4.882-0.186,9.767,0.058,14.652-0.095c0.068-0.437,0.146-0.863,0.23-1.28
		c2.532-0.091,5.071-0.02,7.61-0.058c0.034-0.768,0.078-1.53,0.122-2.285c2.339-0.19,4.692,0.081,7.031-0.122
		c0.257-0.396,0.447-0.833,0.684-1.229c1.107-0.061,2.221-0.098,3.338-0.122c0.047-0.762,0.102-1.517,0.162-2.262
		c1.276-0.034,2.559-0.068,3.846-0.102c0.071-0.427,0.149-0.843,0.237-1.253c1.171-0.047,2.349-0.088,3.531-0.122
		c0.041-0.867,0.091-1.727,0.149-2.58c1.185-0.044,2.373-0.085,3.568-0.115c0.037-0.762,0.081-1.517,0.132-2.265
		c1.202-0.041,2.407-0.074,3.619-0.105c0.02-1.215,0.054-2.427,0.095-3.633c1.202-0.03,2.41-0.058,3.626-0.081
		c0.037-1.205,0.081-2.407,0.125-3.602c0.863-0.051,1.737-0.098,2.614-0.135c0.017-1.32,0.037-2.634,0.058-3.944
		c0.755-0.044,1.517-0.085,2.289-0.118c0.03-1.205,0.064-2.407,0.098-3.605c0.863-0.047,1.733-0.088,2.61-0.122
		c0.027-1.178,0.057-2.353,0.095-3.524c0.227-0.068,0.677-0.206,0.904-0.274c0.024-1.161,0.054-2.316,0.091-3.467
		c0.416-0.091,0.843-0.173,1.28-0.247c0.027-1.171,0.061-2.339,0.102-3.501c0.833-0.064,1.683-0.085,2.519-0.24
		c0.091-0.752,0.081-1.51,0.163-2.251c0.003-1.005,0.965-1.683,0.975-2.685c0.085-2.112-0.054-4.228,0.037-6.337
		c0.877-0.064,1.764-0.125,2.654-0.179c0.085-3.646-0.034-7.292,0.081-10.938c0.41-0.098,0.833-0.19,1.263-0.271
		c0.085-7.932,0.027-15.864,0.024-23.793c-0.444-0.088-0.873-0.169-1.297-0.24c-0.159-3.771,0.061-7.539-0.081-11.304
		c-0.884-0.061-1.764-0.115-2.634-0.162c-0.071-2.404-0.014-4.807-0.095-7.204c-0.223-0.078-0.667-0.234-0.887-0.311
		c-0.047-1.158-0.091-2.312-0.132-3.463c-0.43-0.088-0.853-0.166-1.263-0.237c-0.024-1.286-0.041-2.566-0.058-3.842
		c-0.427-0.078-0.846-0.146-1.256-0.206c-0.041-1.168-0.078-2.333-0.108-3.49c-0.43-0.088-0.853-0.169-1.266-0.24
		c-0.041-1.178-0.078-2.353-0.108-3.524c-0.762-0.064-1.517-0.125-2.262-0.176c-0.034-1.188-0.061-2.373-0.088-3.551
		c-0.765-0.061-1.52-0.115-2.272-0.159c-0.044-1.205-0.078-2.404-0.108-3.602c-1.32-0.034-2.637-0.068-3.947-0.108
		c-0.054-1.195-0.098-2.387-0.135-3.575c-0.735-0.054-1.463-0.098-2.184-0.139c-0.088-0.399-0.169-0.789-0.24-1.171
		c-0.4-0.088-0.789-0.169-1.171-0.237c-0.044-0.853-0.085-1.699-0.115-2.542c-0.674-0.024-1.337-0.044-1.991-0.054
		c-0.179-0.294-0.349-0.579-0.504-0.857c-0.372-0.115-0.731-0.223-1.083-0.325c-0.054-0.84-0.105-1.672-0.146-2.498
		c-1.202-0.037-2.4-0.068-3.595-0.095c-0.054-0.765-0.105-1.523-0.146-2.275c-1.195-0.041-2.39-0.078-3.575-0.112
		c-0.047-0.87-0.088-1.737-0.118-2.597c-2.133-0.135-4.262-0.01-6.388-0.037c-0.921,0.034-1.503-0.833-2.356-0.975
		c-0.887-0.129-1.781-0.088-2.664-0.088c-0.044-0.884-0.085-1.767-0.115-2.641c-2.427-0.051-4.851,0.041-7.268-0.078
		c-0.098-0.433-0.183-0.86-0.261-1.276c-2.221-0.095-4.442,0.091-6.652-0.037c-0.626,0.037-0.968-0.545-1.368-0.894
		c-1.077-0.098-2.15-0.149-3.22-0.19c-0.095-0.423-0.183-0.836-0.264-1.242C774,680.76,761.426,680.733,748.856,680.8
		 M666.289,690.747c-3.521,0.62-6.828,2.312-9.432,4.757c-4.11,3.819-6.415,9.445-6.27,15.045
		c0.068,5.616,2.597,11.168,6.872,14.831c3.748,3.274,8.849,4.97,13.816,4.459c5.268-0.457,10.197-3.379,13.294-7.637
		c3.297-4.445,4.57-10.281,3.548-15.708c-0.958-5.342-4.184-10.258-8.789-13.156C675.508,690.882,670.758,689.944,666.289,690.747
		 M587.721,741.277c0.322,3.511,1.043,7.086,0.254,10.59c-0.457,2.116-1.693,4.046-3.436,5.335c-2.597,1.98-5.833,2.749-8.921,3.599
		c2.861,1.046,5.918,1.804,8.988,1.557c1.953-0.142,3.937-1.093,4.919-2.854c1.307-2.333,1.212-5.132,0.931-7.705
		C589.972,748.197,588.967,744.683,587.721,741.277 M453.771,793.436c2.603,2.874,5.501,5.471,8.331,8.122
		c7.888,7.238,16.287,13.931,25.204,19.862c14.429,9.621,30.313,17.164,47.081,21.673c15.654,4.242,32.009,5.786,48.191,4.79
		c25.011-1.503,49.366-8.853,72.072-19.212c11.436-5.264,22.591-11.179,33.268-17.855c-6.998,1.913-13.999,3.809-21.078,5.383
		c-27.933,6.344-56.668,9.317-85.309,8.315c-34.284-1.148-68.307-8.071-100.489-19.886
		C471.794,801.29,462.752,797.418,453.771,793.436z"/>
	<path fill="#373435" stroke="#373435" stroke-width="0.5" d="M453.899,647.667c7.211-0.538,14.452-0.931,21.684-0.633
		c3.643,0.179,7.323,0.447,10.837,1.49c1.595,0.508,3.284,1.185,4.296,2.597c0.718,0.961,0.423,2.224,0.359,3.335
		c-2.414-0.829-4.845-1.676-7.4-1.916c-7.025-0.772-14.093,0.186-21.01,1.398c-10.921,1.95-21.562,5.153-32.344,7.702
		c-3.013,0.765-6.229-1.584-6.629-4.614c-0.572-2.979,1.672-6.097,4.679-6.493C436.847,649.309,445.361,648.358,453.899,647.667z"/>
	<path fill="#373435" stroke="#373435" stroke-width="0.5" d="M645.53,667.211c1.723-1.578,4.225-1.703,6.439-1.791
		c5.64-0.02,11.202,1.121,16.687,2.322c12.807,2.962,25.319,7.062,37.693,11.46c2.746,0.813,4.553,3.849,3.859,6.646
		c-0.501,2.502-2.884,4.455-5.437,4.452c-1.398,0.041-2.644-0.66-3.866-1.232c-9.493-4.567-18.816-9.513-28.593-13.457
		c-5.169-2.082-10.461-3.947-15.942-5.01c-3.863-0.782-7.878-1.002-11.751-0.156C644.657,669.32,644.613,668.027,645.53,667.211z"/>
	<path fill="#373435" stroke="#373435" stroke-width="0.5" d="M439.342,674.659c5.153-3.649,12.228-4.296,17.963-1.655
		c5.809,2.593,10.048,8.243,11.121,14.49c1.195,6.375-0.85,13.294-5.484,17.868c-3.826,3.897-9.415,5.935-14.855,5.413
		c-6.138-0.562-11.751-4.442-14.679-9.828c-1.947-3.416-2.678-7.387-2.539-11.287C431.376,683.752,434.389,678.018,439.342,674.659
		 M451.36,686.024c-2.786,0.88-4.746,3.687-4.767,6.588c-0.115,2.861,1.639,5.721,4.313,6.801c2.36,1.002,5.271,0.447,7.099-1.354
		c2.109-1.96,2.783-5.227,1.73-7.891C458.568,686.891,454.698,684.853,451.36,686.024z"/>
	<path fill="#FEFEFE" stroke="#FEFEFE" stroke-width="0.5" d="M451.36,686.024c3.338-1.171,7.208,0.867,8.376,4.144
		c1.053,2.664,0.379,5.931-1.73,7.891c-1.828,1.801-4.74,2.356-7.099,1.354c-2.674-1.08-4.428-3.941-4.313-6.801
		C446.614,689.711,448.574,686.904,451.36,686.024z"/>
	<path fill="#373435" stroke="#373435" stroke-width="0.5" d="M666.289,690.747c4.469-0.802,9.218,0.135,13.041,2.59
		c4.604,2.898,7.83,7.814,8.789,13.156c1.022,5.427-0.251,11.263-3.548,15.708c-3.098,4.259-8.027,7.18-13.294,7.637
		c-4.966,0.511-10.068-1.185-13.816-4.459c-4.276-3.663-6.805-9.215-6.872-14.831c-0.146-5.599,2.16-11.226,6.27-15.045
		C659.461,693.059,662.769,691.366,666.289,690.747 M671.432,704.996c-2.583,0.66-4.594,2.972-5.021,5.586
		c-0.538,2.793,0.741,5.857,3.169,7.37c1.879,1.219,4.394,1.378,6.409,0.383c2.099-0.999,3.585-3.128,3.876-5.427
		c0.345-2.397-0.579-4.943-2.431-6.51C675.819,704.986,673.504,704.444,671.432,704.996z"/>
	<path fill="#FEFEFE" stroke="#FEFEFE" stroke-width="0.5" d="M671.432,704.996c2.072-0.552,4.387-0.01,6.002,1.402
		c1.852,1.567,2.776,4.113,2.431,6.51c-0.291,2.299-1.777,4.428-3.876,5.427c-2.014,0.995-4.53,0.836-6.409-0.383
		c-2.427-1.513-3.707-4.577-3.169-7.37C666.838,707.968,668.849,705.656,671.432,704.996z"/>
	<radialGradient id="SVGID_1_" cx="375.0382" cy="750.1663" r="78.9428" gradientUnits="userSpaceOnUse">
		<stop  offset="0" style="stop-color:#C37059"/>
		<stop  offset="1" style="stop-color:#AE6451"/>
	</radialGradient>
	<path fill="url(#SVGID_1_)" stroke="#C36F59" stroke-width="0.5" d="M455.924,731.273c-0.887-0.051-1.771-0.098-2.654-0.135
		c-0.027-2.329-0.024-4.652-0.027-6.974c-0.335-0.274-0.667-0.538-0.992-0.796c-0.02-2.441-0.017-4.878-0.051-7.316
		c-0.873-0.061-1.747-0.115-2.617-0.166c-0.037-1.165-0.074-2.326-0.108-3.484c-0.406-0.115-0.806-0.22-1.198-0.315
		c-0.068-0.447-0.132-0.884-0.19-1.314c-6.138-0.562-11.751-4.442-14.679-9.828c-1.947-3.416-2.678-7.387-2.539-11.287
		c-0.664-1.202-1.263-2.441-1.632-3.761c-1.226-0.047-2.451-0.081-3.677-0.105c-0.047-0.86-0.095-1.713-0.139-2.559
		c-1.476-0.024-3.047-0.041-4.266-0.985c-0.995-0.102-1.991-0.169-2.983-0.227c-0.108-0.399-0.21-0.792-0.308-1.175
		c-1.134-0.057-2.265-0.112-3.396-0.159c-0.108-0.416-0.21-0.829-0.311-1.232c-1.161-0.041-2.319-0.078-3.477-0.112
		c-0.064-0.758-0.129-1.513-0.19-2.261c-2.509-0.051-5.021-0.037-7.529-0.085c-0.108-0.43-0.213-0.856-0.315-1.273
		c-3.622-0.088-7.241,0.034-10.86-0.071c-0.112-0.437-0.22-0.863-0.325-1.283c-1.754-0.085-3.507-0.017-5.261-0.02
		c-1.666,0.074-3.05-1.117-4.706-1.073c-3.734,0.02-7.468,0.057-11.199,0.027c-1.76,0-3.605-0.261-5.268,0.474
		c-2.346,1.036-4.956,0.399-7.428,0.586c-0.118,0.423-0.234,0.853-0.345,1.29c-2.38,0.03-4.757,0.017-7.133,0.064
		c-0.108,0.416-0.21,0.843-0.308,1.273c-3.751,0.142-7.505-0.02-11.253,0.085c-0.061,0.752-0.118,1.51-0.173,2.275
		c-1.171,0.034-2.339,0.074-3.504,0.115c-0.105,0.406-0.207,0.816-0.308,1.236c-1.134,0.034-2.268,0.071-3.402,0.112
		c-0.098,0.413-0.193,0.833-0.284,1.259c-1.273,0.027-2.546,0.057-3.819,0.091c-0.064,0.748-0.129,1.503-0.19,2.265
		c-1.161,0.044-2.322,0.091-3.484,0.142c-0.102,0.393-0.203,0.792-0.301,1.202c-1.161,0.041-2.319,0.088-3.477,0.135
		c-0.064,0.711-0.122,1.429-0.179,2.15c-0.369,0.105-0.735,0.217-1.094,0.335c-0.118,0.352-0.234,0.711-0.345,1.077
		c-0.708,0.054-1.408,0.115-2.109,0.186c-0.071,0.694-0.135,1.395-0.2,2.102c-0.359,0.112-0.718,0.23-1.07,0.359
		c-0.122,0.345-0.237,0.704-0.352,1.066c-0.704,0.064-1.405,0.132-2.102,0.207c-0.074,0.758-0.149,1.523-0.217,2.292
		c-0.582,0.413-1.161,0.83-1.737,1.249c-0.728,0.054-1.452,0.112-2.173,0.179c-0.03,1.29-0.058,2.58-0.085,3.876
		c-0.755,0.047-1.51,0.098-2.261,0.159c-0.034,1.175-0.064,2.353-0.098,3.538c-0.765,0.064-1.53,0.135-2.292,0.21
		c-0.03,1.148-0.058,2.299-0.085,3.45c-0.416,0.105-0.829,0.217-1.242,0.335c-0.041,1.158-0.081,2.316-0.122,3.48
		c-0.863,0.051-1.727,0.108-2.586,0.169c-0.034,1.077-0.068,2.153-0.098,3.236c-0.328,0.264-0.653,0.535-0.978,0.816
		c-0.02,2.438,0.007,4.882-0.027,7.326c-0.884,0.037-1.764,0.081-2.641,0.129c-0.044,2.393-0.047,4.794-0.091,7.191
		c-0.42,0.102-0.836,0.21-1.249,0.328c-0.132,8.86-0.02,17.723-0.047,26.586c0.044,4.123-0.102,8.247,0.024,12.37
		c0.427,0.105,0.853,0.22,1.283,0.342c0.051,2.394,0.047,4.79,0.068,7.187c0.88,0.047,1.767,0.098,2.651,0.156
		c0.047,2.241-0.03,4.489,0.091,6.73c1.094,1.3,1.019,3.04,1.036,4.641c0.846,0.044,1.696,0.095,2.546,0.152
		c0.044,1.158,0.091,2.319,0.142,3.484c0.427,0.108,0.856,0.223,1.286,0.349c-0.058,0.799-0.115,1.598-0.169,2.41
		c5.098,6.964,10.529,13.684,16.274,20.126c1.236-0.024,2.475-0.034,3.714-0.034c0.112,0.423,0.223,0.853,0.339,1.293
		c1.049,0.02,2.099,0.047,3.152,0.078c0.261,0.315,0.525,0.636,0.789,0.972c1.192,0.014,2.383,0.03,3.575,0.051
		c0.051,0.867,0.105,1.743,0.159,2.624c1.09,0.02,2.177,0.051,3.267,0.081c0.257,0.308,0.515,0.626,0.779,0.958
		c2.329,0.017,4.658,0.017,6.991,0.047c0.041,0.877,0.081,1.76,0.125,2.654c2.515,0.027,5.034,0.014,7.553,0.078
		c0.108,0.41,0.22,0.833,0.335,1.259c3.46,0.156,6.923-0.064,10.383,0.142c1.507,1.273,3.548,0.928,5.366,0.924
		c3.944-0.047,7.888,0.007,11.832,0.01c2.085-0.034,4.283,0.332,6.249-0.562c1.771-0.768,3.731-0.443,5.603-0.467
		c3.104-0.014,6.212,0.051,9.32-0.041c0.108-0.44,0.22-0.87,0.335-1.29c2.404-0.017,4.807-0.003,7.211-0.058
		c0.051-0.887,0.102-1.767,0.156-2.644c2.434-0.031,4.865-0.02,7.299-0.041c0.264-0.332,0.528-0.657,0.802-0.968
		c1.083-0.034,2.167-0.061,3.257-0.081c0.044-0.877,0.095-1.747,0.146-2.61c1.093-0.027,2.19-0.051,3.287-0.068
		c0.247-0.342,0.498-0.67,0.755-0.992c1.077-0.024,2.16-0.047,3.243-0.061c0.054-0.873,0.112-1.737,0.173-2.593
		c1.293-0.041,2.59-0.074,3.886-0.108c0.064-0.765,0.132-1.527,0.2-2.278c1.185-0.037,2.373-0.068,3.561-0.095
		c0.034-1.327,0.075-2.651,0.115-3.968c1.198-0.037,2.4-0.068,3.605-0.091c0.044-1.212,0.091-2.417,0.139-3.619
		c1.188-0.044,2.38-0.085,3.572-0.122c0.041-1.209,0.081-2.417,0.125-3.619c1.219-0.037,2.441-0.068,3.663-0.095
		c0.02-2.448-0.013-4.892,0.037-7.333c1.222-0.047,2.448-0.088,3.673-0.125c0.037-2.526-0.007-5.051,0.064-7.57
		c0.41-0.115,0.823-0.22,1.242-0.318c0.041-1.168,0.085-2.333,0.132-3.49c0.836-0.054,1.672-0.102,2.515-0.142
		c-0.125-1.876,0.714-3.555,1.121-5.325c0.146-3.25-0.091-6.513,0.068-9.767c0.88-0.047,1.764-0.091,2.651-0.132
		c0.071-6.862-0.01-13.724,0.007-20.587C455.924,740.935,456.018,736.101,455.924,731.273z"/>
	<radialGradient id="SVGID_2_" cx="768.4193" cy="757.7819" r="79.3417" gradientUnits="userSpaceOnUse">
		<stop  offset="0" style="stop-color:#C37059"/>
		<stop  offset="1" style="stop-color:#AE6451"/>
	</radialGradient>
	<path fill="url(#SVGID_2_)" stroke="#C37059" stroke-width="0.5" d="M849.992,746.559c-0.444-0.088-0.873-0.169-1.297-0.24
		c-0.159-3.771,0.061-7.539-0.081-11.304c-0.884-0.061-1.764-0.115-2.634-0.162c-0.071-2.404-0.014-4.807-0.095-7.204
		c-0.223-0.078-0.667-0.234-0.887-0.312c-0.047-1.158-0.091-2.312-0.132-3.463c-0.43-0.088-0.853-0.166-1.263-0.237
		c-0.024-1.287-0.041-2.566-0.058-3.842c-0.427-0.078-0.846-0.146-1.256-0.206c-0.041-1.168-0.078-2.333-0.108-3.49
		c-0.43-0.088-0.853-0.169-1.266-0.24c-0.041-1.178-0.078-2.353-0.108-3.524c-0.762-0.064-1.517-0.125-2.262-0.176
		c-0.034-1.188-0.061-2.373-0.088-3.551c-0.765-0.061-1.52-0.115-2.272-0.159c-0.044-1.205-0.078-2.404-0.108-3.602
		c-1.32-0.034-2.637-0.068-3.947-0.108c-0.054-1.195-0.098-2.387-0.135-3.575c-0.735-0.054-1.463-0.098-2.184-0.139
		c-0.088-0.399-0.169-0.789-0.24-1.171c-0.4-0.088-0.789-0.169-1.171-0.237c-0.044-0.853-0.085-1.699-0.115-2.543
		c-0.674-0.024-1.337-0.044-1.991-0.054c-0.179-0.294-0.349-0.579-0.504-0.857c-0.372-0.115-0.731-0.224-1.083-0.325
		c-0.054-0.84-0.105-1.672-0.146-2.498c-1.202-0.037-2.4-0.068-3.595-0.095c-0.054-0.765-0.105-1.523-0.146-2.275
		c-1.195-0.041-2.39-0.078-3.575-0.112c-0.047-0.87-0.088-1.737-0.118-2.597c-2.133-0.135-4.262-0.01-6.388-0.037
		c-0.921,0.034-1.503-0.833-2.356-0.975c-0.887-0.129-1.781-0.088-2.664-0.088c-0.044-0.884-0.085-1.767-0.115-2.641
		c-2.427-0.051-4.851,0.041-7.268-0.078c-0.098-0.433-0.183-0.86-0.261-1.276c-2.221-0.095-4.442,0.091-6.652-0.037
		c-0.626,0.037-0.968-0.545-1.368-0.894c-1.077-0.098-2.15-0.149-3.22-0.19c-0.095-0.423-0.183-0.836-0.264-1.242
		c-12.57-0.041-25.143-0.068-37.714,0c-0.051,0.758-0.098,1.52-0.135,2.285c-3.663,0.139-7.326-0.027-10.982,0.102
		c-0.091,0.406-0.173,0.823-0.247,1.242c-1.293,0.044-2.586,0.088-3.873,0.125c-0.041,0.867-0.074,1.737-0.105,2.614
		c-2.417,0.071-4.834-0.014-7.248,0.064c-0.078,0.234-0.234,0.697-0.311,0.928c-1.165,0.034-2.322,0.071-3.477,0.112
		c-0.068,0.863-0.129,1.733-0.186,2.607c-1.361,0.112-3.135-0.413-4.002,0.958c-1.202,0.085-2.404,0.119-3.602,0.149
		c-0.078,1.06,0.061,2.309-0.904,3.03c-0.135,0.298-0.261,0.603-0.376,0.921c-0.819,0.044-1.635,0.095-2.448,0.146
		c-0.064,0.738-0.122,1.483-0.173,2.231c-1.192,0.034-2.38,0.068-3.565,0.105c-0.044,0.863-0.088,1.73-0.122,2.603
		c-1.212,0.037-2.424,0.075-3.629,0.112c-0.037,1.178-0.074,2.356-0.105,3.541c-0.42,0.075-0.829,0.156-1.232,0.247
		c-0.054,1.175-0.098,2.353-0.132,3.534c-0.755,0.047-1.507,0.102-2.251,0.159c-0.037,1.195-0.071,2.39-0.098,3.595
		c-1.209,0.017-2.417,0.041-3.622,0.074c-0.105,2.431-0.027,4.868-0.081,7.302c-0.433,0.071-0.857,0.149-1.276,0.234
		c-0.03,1.293-0.058,2.59-0.081,3.89c-0.89,0.03-1.777,0.071-2.658,0.112c-0.031,1.561-0.017,3.121,0.027,4.685
		c-0.003,0.873,0.074,1.835-0.471,2.59c-0.816,1.063-0.501,2.465-0.718,3.707c-0.846,0.156-1.706,0.176-2.556,0.234
		c-0.088,4.997,0.047,9.994-0.047,14.991c-0.443,0.078-0.884,0.162-1.313,0.257c-0.041,5.329-0.044,10.657,0.003,15.989
		c0.416,0.085,0.843,0.179,1.276,0.284c0.162,5-0.02,10.004,0.081,15.008c0.867,0.041,1.74,0.091,2.617,0.142
		c-0.003,1.439-0.091,2.996,0.87,4.195c0.653,2.289-0.119,4.75,0.322,7.096c0.833,0.169,1.689,0.21,2.546,0.288
		c0.041,1.148,0.081,2.302,0.125,3.46c0.406,0.068,0.819,0.142,1.242,0.227c0.024,1.185,0.051,2.377,0.085,3.572
		c0.755,0.03,1.513,0.071,2.282,0.115c0.024,1.171,0.058,2.346,0.098,3.524c0.406,0.081,0.819,0.166,1.242,0.264
		c0.031,1.182,0.068,2.37,0.105,3.561c1.205,0.02,2.417,0.047,3.636,0.074c0.02,1.317,0.047,2.641,0.081,3.968
		c0.741,0.03,1.49,0.068,2.245,0.112c0.054,0.718,0.112,1.446,0.176,2.177c0.393,0.081,0.792,0.173,1.198,0.271
		c0.044,0.833,0.091,1.669,0.146,2.512c0.816,0.041,1.635,0.095,2.461,0.149c0.088,0.19,0.264,0.572,0.352,0.762
		c0.19,0.088,0.572,0.261,0.762,0.349c0.044,0.819,0.091,1.642,0.142,2.475c1.192,0.037,2.383,0.078,3.582,0.118
		c0.03,0.748,0.068,1.503,0.112,2.268c1.29,0.017,2.583,0.047,3.88,0.095c0.088,0.4,0.179,0.809,0.281,1.229
		c1.158,0.037,2.322,0.081,3.487,0.129c0.047,0.741,0.105,1.49,0.163,2.245c1.181,0.034,2.366,0.078,3.555,0.129
		c0.064,0.406,0.142,0.819,0.223,1.239c1.165,0.041,2.329,0.081,3.5,0.122c0.064,0.403,0.135,0.813,0.217,1.236
		c1.178,0.027,2.36,0.061,3.544,0.098c0.044,0.758,0.091,1.527,0.146,2.299c3.768,0.061,7.536-0.041,11.304,0.064
		c0.074,0.416,0.159,0.843,0.251,1.276c3.758,0.129,7.516-0.051,11.277,0.058c0.068,0.42,0.146,0.85,0.23,1.29
		c7.482,0.091,14.967,0.041,22.452,0.02c0.068-0.433,0.142-0.857,0.227-1.273c4.882-0.186,9.767,0.058,14.652-0.095
		c0.068-0.437,0.146-0.863,0.23-1.28c2.532-0.091,5.071-0.02,7.61-0.058c0.034-0.768,0.078-1.53,0.122-2.285
		c2.339-0.19,4.692,0.081,7.031-0.122c0.257-0.396,0.447-0.833,0.684-1.229c1.107-0.061,2.221-0.098,3.338-0.122
		c0.047-0.762,0.102-1.517,0.162-2.262c1.276-0.034,2.559-0.068,3.846-0.102c0.071-0.427,0.149-0.843,0.237-1.253
		c1.171-0.047,2.349-0.088,3.531-0.122c0.041-0.867,0.091-1.727,0.149-2.58c1.185-0.044,2.373-0.085,3.568-0.115
		c0.037-0.762,0.081-1.517,0.132-2.265c1.202-0.041,2.407-0.074,3.619-0.105c0.02-1.215,0.054-2.427,0.095-3.633
		c1.202-0.03,2.41-0.058,3.626-0.081c0.037-1.205,0.081-2.407,0.125-3.602c0.863-0.051,1.737-0.098,2.614-0.135
		c0.017-1.32,0.037-2.634,0.058-3.944c0.755-0.044,1.517-0.085,2.289-0.118c0.03-1.205,0.064-2.407,0.098-3.605
		c0.863-0.047,1.733-0.088,2.61-0.122c0.027-1.178,0.057-2.353,0.095-3.524c0.227-0.068,0.677-0.206,0.904-0.274
		c0.024-1.161,0.054-2.316,0.091-3.467c0.416-0.091,0.843-0.173,1.28-0.247c0.027-1.171,0.061-2.339,0.102-3.501
		c0.833-0.064,1.683-0.085,2.519-0.24c0.091-0.752,0.081-1.51,0.163-2.251c0.003-1.005,0.965-1.683,0.975-2.685
		c0.085-2.112-0.054-4.228,0.037-6.337c0.877-0.064,1.764-0.125,2.654-0.179c0.085-3.646-0.034-7.292,0.081-10.938
		c0.41-0.098,0.833-0.19,1.263-0.271C850.053,762.419,849.995,754.487,849.992,746.559z"/>
	<path fill="#373435" stroke="#373435" stroke-width="0.5" d="M587.721,741.277c1.246,3.406,2.251,6.92,2.735,10.522
		c0.281,2.573,0.376,5.373-0.931,7.705c-0.982,1.76-2.966,2.712-4.919,2.854c-3.071,0.247-6.128-0.511-8.988-1.557
		c3.087-0.85,6.324-1.618,8.921-3.599c1.743-1.29,2.979-3.22,3.436-5.335C588.764,748.363,588.043,744.788,587.721,741.277z"/>
	<path fill="#373435" stroke="#373435" stroke-width="0.5" d="M453.771,793.436c8.981,3.981,18.024,7.854,27.273,11.192
		c32.182,11.815,66.205,18.738,100.489,19.886c28.641,1.002,57.376-1.97,85.309-8.315c7.079-1.574,14.08-3.47,21.078-5.383
		c-10.678,6.676-21.833,12.59-33.268,17.855c-22.706,10.359-47.061,17.709-72.072,19.212c-16.182,0.995-32.537-0.548-48.191-4.79
		c-16.768-4.509-32.652-12.052-47.081-21.673c-8.917-5.931-17.316-12.624-25.204-19.862
		C459.272,798.907,456.374,796.31,453.771,793.436z"/>
	<path fill="#48887B" stroke="#48887B" stroke-width="0.5" d="M624.063,898.777c12.428,1.327,24.805,3.138,37.206,4.675
		c4.851,29.778,8.904,59.708,11.141,89.805c1.842,24.883,2.539,49.894,0.867,74.807c-61.31,1.625-122.619,3.26-183.926,4.878
		c-3.66-29.108-4.083-58.527-3.138-87.817c0.85-25.905,2.976-51.749,5.647-77.522c4.002-0.603,7.946-1.551,11.93-2.251
		c8.301-1.584,16.609-3.121,24.933-4.577c1.286,11.862,4.442,24.118,12.333,33.39c3.484,4.093,7.868,7.404,12.743,9.669
		c6.033,2.823,12.689,4.103,19.314,4.411c1.994,0.108,4.09-0.2,5.985,0.613c7.258-0.203,14.544-1.831,21.094-5.004
		c4.658-2.285,8.863-5.508,12.211-9.476c3.633-4.276,6.26-9.34,8.044-14.642C622.723,912.985,623.732,905.872,624.063,898.777z"/>
	<path fill="#B37D71" stroke="#B37D71" stroke-width="0.5" d="M696.284,899.677c1.588-0.159,3.192-0.538,4.797-0.318
		c0.664,2.339,0.792,4.79,1.242,7.18c0.166,1.117,0.339,2.245,0.515,3.369c4.733,31.43,8.541,63.05,9.723,94.832
		c0.67,20.813,0.393,41.806-3.304,62.359c-0.721,3.805-1.598,7.583-2.59,11.331c-0.325,1.07-0.508,2.245-1.181,3.172
		c-1.151,1.154-2.712,1.757-4.117,2.529c-5.803-3.595-13.718-3.206-19.124,0.965c-2.928-1.077-5.759-2.411-8.436-4.008
		c-0.488-0.315-0.978-0.626-1.361-1.039c-0.176-0.945-0.041-1.899,0.047-2.833c0.352-3.043,0.562-6.101,0.782-9.151
		c1.672-24.913,0.975-49.925-0.867-74.807c-2.238-30.096-6.29-60.027-11.141-89.805c2.881-0.129,5.735-0.616,8.609-0.884
		C678.683,901.634,687.482,900.652,696.284,899.677z"/>
	<path fill="#B37D71" stroke="#B37D71" stroke-width="0.5" d="M451.793,905.598c12.99,0.643,25.973,1.378,38.963,1.991
		c0.362,0.003,0.731,0.007,1.104,0.014c-2.671,25.773-4.797,51.617-5.647,77.522c-0.945,29.291-0.521,58.71,3.138,87.817
		c0.386,2.986,0.765,5.979,1.286,8.954c0.041,1.043,0.724,2.492-0.376,3.196c-2.749,2.058-5.806,3.69-8.958,5.044
		c-5.647-3.856-13.582-3.765-19.165,0.169c-1.408-0.711-2.952-1.236-4.167-2.265c-0.843-1.002-1.094-2.339-1.527-3.534
		c-1.144-3.487-2.177-7.008-3.04-10.573c-3.517-14.219-5.166-28.827-6.145-43.418c-1.886-30.35-0.664-60.799,1.54-91.095
		c0.569-7.671,1.222-15.336,1.936-22.99C451.072,912.816,451.445,909.207,451.793,905.598z"/>
	<path fill="#48887B" stroke="#48887B" stroke-width="0.5" d="M702.838,909.908c47.585,8.034,94.89,18.315,140.877,33.062
		c-1.923,5.112-3.832,10.227-5.748,15.343c-9.425,25.167-18.846,50.338-28.271,75.505c-0.21,0.525-0.413,1.056-0.603,1.601
		c-21.057-6.869-42.108-13.768-63.168-20.634c-2.989-0.667-6.138-0.911-9.158-0.315c-2.106,0.399-4.154,1.821-4.655,4.005
		c-0.711,3.115,0.399,6.266,1.554,9.134c0.511,1.097,0.447,2.329,0.545,3.517c0.762,11.754,1.564,23.505,2.316,35.259
		c-9.09,0.234-18.18,0.494-27.269,0.714c3.697-20.553,3.974-41.546,3.304-62.359C711.38,972.958,707.571,941.338,702.838,909.908z"
		/>
	<path fill="#48887B" stroke="#48887B" stroke-width="0.5" d="M311.99,957.49c45.073-17.337,91.701-30.33,138.748-41.058
		c-0.714,7.654-1.368,15.319-1.936,22.99c-2.204,30.296-3.426,60.744-1.54,91.095c0.978,14.591,2.627,29.199,6.145,43.418
		c-9.117,0.159-18.23,0.471-27.344,0.691c0.088-11.785,0.206-23.566,0.295-35.35c0.034-1.127-0.108-2.289,0.278-3.362
		c0.897-2.627,1.713-5.393,1.374-8.193c-0.193-1.713-1.161-3.372-2.718-4.164c-2.749-1.388-5.969-1.029-8.907-0.572
		c-2.627,0.325-4.987,1.591-7.448,2.481c-19.033,7.455-38.059,14.913-57.095,22.347c-0.234-0.538-0.457-1.046-0.687-1.561
		c-10.854-24.585-21.7-49.17-32.547-73.758C316.397,967.494,314.183,962.497,311.99,957.49z"/>
	<path fill="#A45E4D" stroke="#A45E4D" stroke-width="0.5" d="M809.695,1033.817c9.425-25.167,18.847-50.338,28.271-75.505
		c13.694,2.945,27.07,7.147,40.476,11.162c15.136,4.604,30.201,9.428,45.334,14.036c6.608,1.967,13.213,3.998,19.977,5.373
		c5.471,1.144,11.189,1.202,16.646-0.051c5.508-1.222,10.644-3.795,15.211-7.072c5.704-4.083,10.847-8.883,16.453-13.095
		c3.775-2.823,7.851-5.335,12.319-6.906c3.243-1.121,6.791-1.727,10.187-0.951c2.918,0.633,5.583,2.363,7.323,4.797
		c1.679,2.312,2.485,5.139,2.861,7.946c0.65,4.983,0.041,10.021-0.731,14.957c-0.437,3.016-1.002,6.053-0.863,9.117
		c0.091,2.041,0.789,4.255,2.553,5.467c2.004,1.381,4.594,1.344,6.916,1.056c5.586-0.812,11.084-2.85,16.802-2.289
		c4.977,0.501,9.09,4.107,11.517,8.304c1.391,2.471,2.536,5.274,2.309,8.169c-0.196,2.383-1.903,4.333-3.883,5.522
		c-2.732,1.659-5.85,2.526-8.934,3.274c-5.603,1.303-11.301,2.146-16.964,3.145c-3.03,0.562-6.111,1.012-9.022,2.055
		c-0.843,0.355-1.994,0.809-2.055,1.876c0.19,1.073,1.168,1.75,1.964,2.41c2.346,1.73,4.889,3.176,7.309,4.807
		c5.082,3.399,10.085,7.028,14.263,11.527c3.636,3.948,6.646,8.938,6.707,14.452c0.095,6.07-4.31,11.717-10.021,13.545
		c-3.324,1.134-6.943,0.758-10.261-0.183c-5.498-1.551-10.546-4.289-15.657-6.771c-3.826-1.869-7.675-3.7-11.632-5.264
		c-2.414-0.904-4.855-1.936-7.455-2.089c-0.89-0.098-1.994,0.372-2.021,1.391c-0.064,1.679,0.752,3.219,1.401,4.726
		c3.108,6.618,7.052,12.966,8.64,20.187c1.381,5.999,0.555,12.523-2.485,17.899c-1.442,2.509-3.494,4.807-6.206,5.955
		c-3.406,1.479-7.39,1.063-10.688-0.505c-4.631-2.214-7.942-6.351-10.81-10.471c-4.465-6.683-8.203-13.816-11.846-20.966
		c-0.738-1.395-1.368-2.857-2.309-4.12c-0.322-0.454-1.009-1.063-1.479-0.454c-1.036,1.198-1.398,2.8-1.987,4.239
		c-1.683,4.75-3.639,9.493-6.811,13.464c-2.16,2.715-4.801,5.295-8.199,6.327c-3.121,0.965-6.886,0.345-9.127-2.153
		c-2.184-2.468-2.759-5.874-3.071-9.042c-0.484-5.877-0.176-11.778-0.01-17.658c0.193-5.285,0.44-10.566,0.785-15.84
		c0.119-3.037,0.637-6.216-0.42-9.141c-0.752-2.126-2.881-3.294-4.929-3.87c-3.822-1.09-7.81-1.327-11.737-1.757
		c-8.728-0.795-17.387-2.163-26.064-3.362c-15.36-2.214-30.858-3.179-46.343-3.991c-4.079-0.23-8.159-0.46-12.228-0.816
		c-4.289-0.376-8.555-0.975-12.854-1.225C814.367,1035.307,811.947,1034.785,809.695,1033.817z"/>
	<path fill="#A45E4D" stroke="#A45E4D" stroke-width="0.5" d="M276.998,986.628c13.762-5.007,27.476-10.237,41.607-14.134
		c10.847,24.588,21.694,49.173,32.547,73.758c-3.497,1.859-7.505,2.055-11.341,2.641c-15.922,2.83-32.094,3.812-48.069,6.293
		c-15.678,2.19-31.037,6.158-46.702,8.433c-3.66,0.657-7.448,1.1-10.837,2.722c-1.645,0.772-2.986,2.251-3.338,4.066
		c-0.636,3.03,0.03,6.128,0.342,9.164c0.992,8.325,1.838,16.67,2.424,25.038c0.217,4.046,0.488,8.159-0.274,12.171
		c-0.498,2.57-1.747,5.197-4.103,6.544c-3.223,1.919-7.417,1.398-10.498-0.555c-3.636-2.292-6.415-5.715-8.646-9.34
		c-1.882-3.115-3.23-6.503-4.709-9.814c-0.45-0.911-0.836-1.93-1.676-2.549c-1.005-0.196-1.402,1.046-1.835,1.727
		c-2.052,4.398-3.893,8.893-6.023,13.261c-2.539,5.22-5.095,10.474-8.464,15.224c-2.16,2.989-4.723,5.83-8.04,7.553
		c-3.165,1.669-7.038,2.238-10.447,0.972c-4.614-1.757-7.431-6.307-8.992-10.776c-2.079-5.789-1.584-12.184,0.298-17.953
		c1.236-3.951,2.955-7.725,4.608-11.51c1.005-2.448,2.248-4.851,2.691-7.478c0.227-0.962-0.196-2.228-1.317-2.285
		c-1.892-0.146-3.68,0.664-5.413,1.314c-6.27,2.617-12.14,6.067-18.051,9.391c-4.99,2.759-10.119,5.66-15.847,6.486
		c-5.467,0.809-11.148-1.933-14.131-6.541c-2.052-3.027-2.688-6.876-1.98-10.437c0.911-4.787,3.646-9.005,6.855-12.58
		c4.465-4.943,9.767-9.042,15.146-12.936c1.808-1.358,3.768-2.563,5.315-4.232c0.596-0.603,1.083-1.713,0.264-2.339
		c-1.334-1.022-3.077-1.222-4.675-1.557c-8.328-1.344-16.798-1.71-25.082-3.352c-3.033-0.667-6.158-1.459-8.7-3.318
		c-1.615-1.168-2.759-3.016-2.861-5.024c-0.135-2.322,0.548-4.607,1.466-6.71c1.459-3.247,3.734-6.195,6.764-8.108
		c1.903-1.205,4.123-1.848,6.361-1.977c5.139-0.366,10.156,1.063,15.238,1.51c2.363,0.173,4.997,0.047,6.923-1.5
		c1.635-1.314,2.19-3.514,2.17-5.522c-0.03-3.047-0.765-6.026-1.364-8.995c-1.087-5.051-2.024-10.221-1.571-15.404
		c0.288-3.402,1.33-6.889,3.717-9.418c2.783-3.067,7.113-4.337,11.162-3.964c5.627,0.471,10.85,2.979,15.607,5.887
		c5.972,3.734,11.392,8.264,17.252,12.167c4.391,2.969,9.191,5.417,14.358,6.703c6.151,1.561,12.682,1.479,18.826-0.081
		c6.598-1.656,12.986-4.035,19.388-6.324C247.924,997.587,262.424,992.004,276.998,986.628z"/>
	<path fill="#F58634" stroke="#F58634" stroke-width="0.5" d="M709.257,1067.099c9.09-0.22,18.18-0.481,27.269-0.714
		c4.083-0.108,8.169-0.22,12.255-0.325c4.706,129.417,9.411,258.835,14.117,388.255c0.372,8.497,0.491,17.015,1.039,25.506
		c-0.369,0.156-0.752,0.284-1.121,0.427c-0.193,0.061-0.582,0.179-0.775,0.24c-0.603-0.281-1.266-0.227-1.815,0.115
		c-0.887,0.122-1.771,0.261-2.62,0.532c-0.562-0.416-1.253-0.2-1.737,0.193c-3.186,0.261-6.354,0.762-9.476,1.435
		c-0.443-0.102-0.873-0.085-1.286,0.044c-1.794,0.352-3.612,0.579-5.4,0.951c-0.528-0.207-1.087-0.109-1.479,0.291
		c-3.944,0.318-7.844,1.05-11.734,1.737c-0.538-0.203-1.104-0.081-1.476,0.352c-0.156,0.017-0.471,0.047-0.626,0.064
		c-0.44-0.139-0.873-0.145-1.293-0.024c-1.828,0.332-3.67,0.582-5.488,0.972c-0.454-0.129-0.88-0.098-1.283,0.091
		c-0.186,0.078-0.559,0.23-0.745,0.305c-0.45-0.166-0.88-0.166-1.3-0.003c-0.359,0.102-0.714,0.217-1.06,0.345
		c-0.464-0.2-0.894-0.19-1.3,0.031c-0.173,0.095-0.521,0.281-0.694,0.376c-0.548-0.406-1.219-0.224-1.75,0.074
		c-0.904,0.122-1.801,0.257-2.668,0.538c-0.569-0.416-1.266-0.186-1.737,0.23c-0.166,0.024-0.498,0.068-0.664,0.088
		c-0.46-0.186-0.894-0.169-1.297,0.047c-0.173,0.091-0.518,0.271-0.691,0.362c-0.565-0.41-1.253-0.2-1.75,0.179
		c-0.162,0.024-0.491,0.068-0.653,0.091c-0.46-0.186-0.894-0.172-1.297,0.047c-0.173,0.091-0.518,0.271-0.691,0.362
		c-0.552-0.41-1.232-0.22-1.743,0.119c-1.72,0.122-3.419,0.396-5.098,0.772c-0.46-0.149-0.887-0.112-1.28,0.108
		c-0.173,0.095-0.518,0.277-0.691,0.369c-0.545-0.403-1.215-0.234-1.757,0.044c-0.901,0.139-1.798,0.288-2.664,0.565
		c-0.572-0.413-1.273-0.19-1.75,0.237c-0.159,0.024-0.477,0.071-0.64,0.095c-0.447-0.162-0.88-0.162-1.297,0.003
		c-0.335,0.091-0.664,0.2-0.985,0.328c-0.528-0.24-1.107-0.142-1.493,0.281c-0.139,0.017-0.413,0.047-0.548,0.064
		c-0.609-0.24-1.263-0.173-1.794,0.19c-0.911,0.112-1.815,0.254-2.712,0.406c-0.454-0.119-0.88-0.078-1.28,0.119
		c-0.179,0.078-0.542,0.23-0.721,0.308c-0.555-0.139-1.154-0.237-1.662,0.061c-0.163,0.064-0.484,0.193-0.647,0.257
		c-0.616-0.244-1.286-0.156-1.791,0.271c-0.156,0.017-0.471,0.051-0.63,0.071c-0.46-0.186-0.89-0.169-1.293,0.047
		c-0.176,0.091-0.525,0.274-0.701,0.366c-0.559-0.413-1.246-0.21-1.75,0.156c-0.166,0.03-0.491,0.088-0.657,0.115
		c-0.454-0.162-0.887-0.149-1.3,0.041c-0.186,0.074-0.562,0.23-0.748,0.305c-0.45-0.166-0.884-0.166-1.303,0
		c-0.359,0.098-0.714,0.213-1.06,0.345c-0.46-0.2-0.894-0.19-1.303,0.027c-0.169,0.091-0.515,0.274-0.687,0.362
		c-0.555-0.413-1.242-0.206-1.74,0.169c-0.166,0.02-0.501,0.068-0.667,0.091c-0.46-0.179-0.894-0.162-1.297,0.058
		c-0.176,0.091-0.525,0.274-0.697,0.365c-0.555-0.413-1.242-0.21-1.747,0.156c-0.162,0.027-0.491,0.085-0.657,0.115
		c-0.454-0.169-0.887-0.159-1.297,0.037c-0.169,0.071-0.508,0.217-0.674,0.288c-0.609-0.234-1.253-0.162-1.798,0.166
		c-0.894,0.119-1.787,0.257-2.641,0.545c-0.552-0.41-1.232-0.207-1.744,0.129c-0.901,0.119-1.798,0.257-2.661,0.535
		c-0.565-0.413-1.266-0.183-1.733,0.244c-0.169,0.017-0.504,0.051-0.67,0.068c-0.464-0.179-0.894-0.159-1.3,0.061
		c-0.173,0.091-0.518,0.274-0.691,0.365c-0.555-0.416-1.242-0.213-1.743,0.156c-0.162,0.024-0.488,0.078-0.653,0.105
		c-0.46-0.186-0.89-0.169-1.297,0.047c-0.176,0.091-0.525,0.274-0.701,0.366c-0.559-0.417-1.249-0.207-1.744,0.179
		c-0.169,0.017-0.504,0.057-0.67,0.075c-0.46-0.18-0.894-0.163-1.297,0.054c-0.173,0.091-0.518,0.274-0.691,0.365
		c-0.559-0.413-1.249-0.203-1.743,0.176c-0.166,0.024-0.501,0.064-0.667,0.088c-0.46-0.18-0.89-0.162-1.293,0.051
		c-0.173,0.088-0.518,0.267-0.691,0.355c-0.565-0.416-1.259-0.189-1.737,0.224c-0.149,0.017-0.44,0.047-0.586,0.064
		c-0.23,0.017-0.691,0.054-0.921,0.075c-9.032-35.215-17.983-70.45-27.07-105.652c-6.872,35.459-13.846,70.901-20.786,106.349
		c-0.816-0.122-1.622-0.227-2.427-0.328c-0.772-0.274-1.584-0.301-2.363-0.078c-0.471-0.135-0.931-0.23-1.388-0.328
		c-0.755-0.267-1.547-0.179-2.302-0.007c-0.369-0.119-0.731-0.22-1.087-0.305c-0.752-0.305-1.557-0.213-2.312-0.034
		c-0.477-0.136-0.945-0.234-1.408-0.335c-0.758-0.267-1.554-0.176-2.305,0c-0.369-0.122-0.728-0.223-1.083-0.305
		c-0.745-0.301-1.537-0.22-2.292-0.075c-0.217-0.02-0.653-0.061-0.87-0.081c-1.026-0.139-2.055-0.24-3.077-0.322
		c-0.295-0.071-0.586-0.129-0.867-0.179c-0.755-0.271-1.551-0.257-2.316-0.095c-0.21-0.02-0.626-0.061-0.833-0.078
		c-1.029-0.145-2.058-0.247-3.084-0.325c-0.298-0.071-0.589-0.132-0.873-0.179c-0.752-0.271-1.544-0.261-2.306-0.105
		c-0.21-0.02-0.63-0.057-0.836-0.075c-1.033-0.142-2.068-0.24-3.101-0.318c-0.298-0.068-0.589-0.129-0.87-0.176
		c-0.752-0.264-1.54-0.267-2.302-0.125c-0.308-0.047-0.609-0.074-0.904-0.078c-1.005-0.135-2.011-0.23-3.013-0.318
		c-1.351-0.223-2.712-0.41-4.079-0.426c-1.019-0.078-2.038-0.139-3.047-0.213c-0.301-0.071-0.592-0.136-0.877-0.193
		c-0.752-0.284-1.547-0.267-2.309-0.105c-0.21-0.02-0.63-0.057-0.84-0.078c-1.022-0.142-2.052-0.24-3.074-0.315
		c-0.301-0.068-0.596-0.125-0.88-0.176c-0.752-0.261-1.534-0.271-2.299-0.136c-0.308-0.047-0.613-0.071-0.914-0.074
		c-1.002-0.125-2.008-0.21-3.006-0.284c-0.311-0.071-0.613-0.136-0.907-0.19c-0.745-0.267-1.53-0.261-2.285-0.102
		c-0.21-0.02-0.626-0.057-0.836-0.078c-1.029-0.142-2.062-0.24-3.091-0.315c-0.305-0.071-0.599-0.132-0.89-0.183
		c-0.745-0.267-1.523-0.257-2.278-0.105c-0.22-0.02-0.664-0.057-0.884-0.078c-1.016-0.135-2.035-0.234-3.047-0.311
		c-0.305-0.071-0.606-0.132-0.897-0.183c-0.752-0.264-1.54-0.267-2.302-0.125c-0.311-0.047-0.616-0.071-0.914-0.078
		c-1.002-0.122-2.004-0.21-3.003-0.295c-0.305-0.068-0.603-0.129-0.894-0.179c-0.752-0.274-1.54-0.254-2.299-0.064
		c-0.372-0.119-0.738-0.22-1.097-0.305c-0.745-0.298-1.54-0.2-2.285-0.007c-0.484-0.142-0.958-0.24-1.429-0.342
		c-0.752-0.271-1.544-0.19-2.295-0.014c-0.261-0.051-0.782-0.149-1.039-0.196c-0.758-0.379-1.601-0.416-2.39-0.142
		c-0.471-0.135-0.928-0.23-1.388-0.328c-0.748-0.267-1.534-0.186-2.282-0.013c-0.379-0.119-0.755-0.22-1.121-0.301
		c-0.741-0.281-1.527-0.22-2.278-0.091c-1.689-0.325-3.399-0.474-5.112-0.559c-0.768-0.267-1.574-0.291-2.346-0.068
		c-0.362-0.119-0.721-0.22-1.073-0.305c-0.745-0.308-1.547-0.21-2.295-0.024c-0.484-0.139-0.958-0.234-1.429-0.335
		c-0.748-0.267-1.537-0.179-2.282-0.003c-0.376-0.119-0.745-0.224-1.11-0.308c-0.738-0.291-1.53-0.224-2.285-0.095
		c-1.581-0.301-3.182-0.457-4.784-0.555c-0.772-0.267-1.584-0.295-2.363-0.064c-0.464-0.139-0.917-0.237-1.371-0.339
		c-0.653-0.254-1.347-0.162-2.001,0.007c-0.477-0.136-0.945-0.23-1.412-0.325c-0.745-0.254-1.52-0.2-2.272-0.074
		c-1.588-0.305-3.196-0.457-4.804-0.545c-0.768-0.274-1.578-0.305-2.356-0.095l-0.318-0.064
		c-1.442-72.221-3.016-144.442-4.509-216.663c-1.378-65.86-2.759-131.719-4.137-197.576c4.083-0.108,8.166-0.22,12.248-0.328
		c9.114-0.22,18.227-0.531,27.344-0.691c0.863,3.565,1.896,7.086,3.04,10.573c0.433,1.195,0.684,2.532,1.527,3.534
		c1.215,1.029,2.759,1.554,4.167,2.265c-4.865,3.297-7.854,9.107-7.766,14.977c-0.02,6.124,3.382,12.15,8.711,15.197
		c5.027,2.972,11.595,3.054,16.7,0.22c5.274-2.803,8.86-8.43,9.273-14.378c0.569-6.27-2.485-12.719-7.753-16.186
		c3.152-1.354,6.209-2.986,8.958-5.044c1.1-0.704,0.416-2.153,0.376-3.196c-0.521-2.976-0.9-5.968-1.286-8.954
		c61.306-1.618,122.616-3.253,183.926-4.878c-0.22,3.05-0.43,6.107-0.782,9.151c-0.088,0.934-0.223,1.889-0.047,2.833
		c0.383,0.413,0.873,0.724,1.361,1.039c2.678,1.598,5.508,2.932,8.436,4.008c-4.828,3.616-7.505,9.828-6.879,15.82
		c0.511,6.09,4.354,11.788,9.868,14.452c5.19,2.624,11.72,2.312,16.626-0.819c5.481-3.372,8.69-9.953,8.132-16.341
		c-0.393-5.721-3.687-11.148-8.623-14.077c1.405-0.772,2.966-1.375,4.117-2.529c0.674-0.928,0.857-2.102,1.181-3.172
		C707.659,1074.682,708.536,1070.904,709.257,1067.099z"/>
	<path fill="#FEFEFE" stroke="#FEFEFE" stroke-width="0.5" d="M682.245,1085.096c5.406-4.171,13.322-4.56,19.124-0.965
		c4.936,2.928,8.23,8.355,8.623,14.077c0.559,6.388-2.651,12.969-8.132,16.341c-4.905,3.131-11.436,3.443-16.626,0.819
		c-5.515-2.664-9.357-8.362-9.868-14.452C674.739,1094.924,677.417,1088.712,682.245,1085.096z"/>
	<path fill="#FEFEFE" stroke="#FEFEFE" stroke-width="0.5" d="M462.139,1090.306c5.583-3.934,13.518-4.025,19.165-0.169
		c5.268,3.467,8.321,9.916,7.753,16.186c-0.413,5.948-3.998,11.575-9.273,14.378c-5.105,2.834-11.673,2.752-16.7-0.22
		c-5.329-3.047-8.731-9.073-8.711-15.197C454.285,1099.413,457.274,1093.603,462.139,1090.306z"/>
	<path fill="#D96438" stroke="#D96438" stroke-width="0.5" d="M765.753,1479.625c2.678-0.697,5.359-1.395,8.04-2.089
		c2.356,18.065,4.709,36.132,7.069,54.2c-12.695,2.072-25.397,4.123-38.093,6.199c-28.268,4.594-56.536,9.195-84.808,13.789
		c-10.786,1.754-21.575,3.507-32.361,5.261c-6.832-17.625-13.674-35.242-20.509-52.867c4.476-0.559,8.958-1.09,13.433-1.672
		c0.146-0.017,0.437-0.047,0.586-0.064c0.576,0.135,1.226,0.135,1.737-0.224c0.173-0.088,0.518-0.267,0.691-0.355
		c0.196,0.64,0.975,0.301,1.293-0.051c0.166-0.024,0.501-0.064,0.667-0.088c0.572,0.166,1.229,0.193,1.743-0.176
		c0.173-0.091,0.518-0.274,0.691-0.365c0.2,0.636,0.978,0.298,1.297-0.054c0.166-0.017,0.501-0.058,0.67-0.075
		c0.572,0.159,1.229,0.186,1.744-0.179c0.176-0.091,0.525-0.274,0.701-0.366c0.2,0.636,0.975,0.301,1.297-0.047
		c0.166-0.027,0.491-0.081,0.653-0.105c0.569,0.176,1.229,0.217,1.743-0.156c0.173-0.091,0.518-0.274,0.691-0.365
		c0.206,0.633,0.982,0.291,1.3-0.061c0.166-0.017,0.501-0.051,0.67-0.068c0.582,0.156,1.209,0.081,1.733-0.244
		c0.863-0.278,1.76-0.416,2.661-0.535c0.559,0.247,1.215,0.217,1.744-0.129c0.853-0.288,1.747-0.427,2.641-0.545
		c0.572,0.305,1.283,0.264,1.798-0.166c0.166-0.071,0.504-0.217,0.674-0.288c0.179,0.65,0.978,0.322,1.297-0.037
		c0.166-0.031,0.494-0.088,0.657-0.115c0.569,0.176,1.232,0.217,1.747-0.156c0.173-0.091,0.521-0.274,0.697-0.365
		c0.203,0.633,0.978,0.291,1.297-0.058c0.166-0.024,0.501-0.071,0.667-0.091c0.569,0.169,1.229,0.203,1.74-0.169
		c0.173-0.088,0.518-0.271,0.687-0.362c0.193,0.633,0.968,0.305,1.303-0.027c0.345-0.132,0.701-0.247,1.06-0.345
		c0.152,0.667,0.975,0.362,1.303,0c0.186-0.074,0.562-0.23,0.748-0.305c0.179,0.653,0.985,0.325,1.3-0.041
		c0.166-0.027,0.491-0.085,0.657-0.115c0.569,0.176,1.232,0.213,1.75-0.156c0.176-0.091,0.525-0.274,0.701-0.366
		c0.193,0.636,0.975,0.301,1.293-0.047c0.159-0.02,0.474-0.054,0.63-0.071c0.599,0.21,1.276,0.129,1.791-0.271
		c0.163-0.064,0.484-0.193,0.647-0.257c0.416,0.596,1.185,0.301,1.662-0.061c0.179-0.078,0.542-0.23,0.721-0.308
		c0.2,0.664,1.002,0.288,1.28-0.119c0.897-0.152,1.801-0.295,2.712-0.406c0.579,0.274,1.28,0.227,1.794-0.19
		c0.135-0.017,0.41-0.047,0.548-0.064c0.508,0.183,1.08,0.088,1.493-0.281c0.322-0.129,0.65-0.237,0.985-0.328
		c0.152,0.667,0.975,0.366,1.297-0.003c0.163-0.024,0.481-0.071,0.64-0.095c0.586,0.156,1.219,0.081,1.75-0.237
		c0.867-0.278,1.764-0.427,2.664-0.565c0.548,0.254,1.236,0.352,1.757-0.044c0.173-0.091,0.518-0.274,0.691-0.369
		c0.21,0.64,0.989,0.271,1.28-0.108c1.679-0.376,3.379-0.65,5.098-0.772c0.559,0.206,1.226,0.264,1.743-0.119
		c0.173-0.091,0.518-0.271,0.691-0.362c0.196,0.633,0.972,0.298,1.297-0.047c0.163-0.024,0.491-0.068,0.653-0.091
		c0.572,0.162,1.232,0.19,1.75-0.179c0.173-0.091,0.518-0.271,0.691-0.362c0.196,0.633,0.975,0.301,1.297-0.047
		c0.166-0.02,0.498-0.064,0.664-0.088c0.579,0.166,1.212,0.095,1.737-0.23c0.867-0.281,1.764-0.416,2.668-0.538
		c0.548,0.24,1.232,0.318,1.75-0.074c0.173-0.095,0.521-0.281,0.694-0.376c0.193,0.633,0.965,0.301,1.3-0.031
		c0.345-0.129,0.701-0.244,1.06-0.345c0.152,0.67,0.975,0.369,1.3,0.003c0.186-0.075,0.559-0.227,0.745-0.305
		c0.19,0.66,0.995,0.308,1.283-0.091c1.818-0.389,3.66-0.64,5.488-0.972c0.118,0.694,0.978,0.423,1.293,0.024
		c0.156-0.017,0.471-0.047,0.626-0.064c0.515,0.169,1.087,0.047,1.476-0.352c3.89-0.687,7.79-1.418,11.734-1.737
		c0.501,0.213,1.087,0.112,1.479-0.291c1.787-0.372,3.605-0.599,5.4-0.951c0.146,0.698,1.005,0.393,1.286-0.044
		c3.121-0.674,6.29-1.175,9.476-1.435c0.572,0.196,1.209,0.135,1.737-0.193c0.85-0.271,1.733-0.41,2.62-0.532
		c0.576,0.295,1.269,0.261,1.815-0.115c0.193-0.061,0.582-0.179,0.775-0.24l-0.088,0.149
		C763.782,1480.342,764.734,1479.858,765.753,1479.625z"/>
	<path opacity="0.89" fill="#B26E3D" stroke="#B26E3D" stroke-width="0.5" enable-background="new    " d="M760.228,1480.603
		c0.548-0.342,1.212-0.396,1.815-0.115C761.497,1480.864,760.803,1480.897,760.228,1480.603z"/>
	<path opacity="0.89" fill="#B46C3B" stroke="#B46C3B" stroke-width="0.5" enable-background="new    " d="M755.871,1481.327
		c0.484-0.393,1.175-0.609,1.737-0.193C757.079,1481.463,756.443,1481.524,755.871,1481.327z"/>
	<path opacity="0.85" fill="#B16736" stroke="#B16736" stroke-width="0.5" enable-background="new    " d="M745.109,1482.807
		c0.413-0.129,0.843-0.146,1.286-0.044C746.114,1483.199,745.254,1483.504,745.109,1482.807z"/>
	<path opacity="0.85" fill="#B46934" stroke="#B46934" stroke-width="0.5" enable-background="new    " d="M738.229,1484.049
		c0.393-0.4,0.951-0.498,1.479-0.291C739.316,1484.161,738.73,1484.262,738.229,1484.049z"/>
	<path opacity="0.83" fill="#B56532" stroke="#B56532" stroke-width="0.5" enable-background="new    " d="M725.02,1486.138
		c0.372-0.433,0.938-0.555,1.476-0.352C726.106,1486.185,725.534,1486.307,725.02,1486.138z"/>
	<path opacity="0.82" fill="#B66230" stroke="#B66230" stroke-width="0.5" enable-background="new    " d="M723.1,1486.179
		c0.42-0.122,0.853-0.115,1.293,0.024C724.078,1486.602,723.218,1486.873,723.1,1486.179z"/>
	<path fill="#D96438" stroke="#D96438" stroke-width="0.5" d="M412.401,1487.184c3.352,0.667,6.703,1.337,10.058,2.008l0.318,0.064
		c0.711,0.484,1.601,0.525,2.356,0.095c1.608,0.088,3.216,0.24,4.804,0.545c0.677,0.44,1.601,0.691,2.272,0.074
		c0.467,0.095,0.934,0.19,1.412,0.325c0.603,0.369,1.452,0.599,2.001-0.007c0.454,0.102,0.907,0.2,1.371,0.339
		c0.721,0.467,1.611,0.498,2.363,0.064c1.601,0.098,3.203,0.254,4.784,0.555c0.687,0.43,1.595,0.677,2.285,0.095
		c0.366,0.085,0.735,0.19,1.11,0.308c0.704,0.383,1.618,0.613,2.282,0.003c0.471,0.102,0.945,0.196,1.429,0.335
		c0.711,0.365,1.608,0.593,2.295,0.024c0.352,0.085,0.711,0.186,1.073,0.305c0.714,0.477,1.601,0.508,2.346,0.068
		c1.713,0.085,3.423,0.234,5.112,0.559c0.68,0.437,1.591,0.68,2.278,0.091c0.366,0.081,0.741,0.183,1.121,0.301
		c0.701,0.386,1.615,0.619,2.282,0.013c0.46,0.098,0.917,0.193,1.388,0.328c0.731,0.423,1.598,0.44,2.39,0.142
		c0.257,0.047,0.779,0.146,1.039,0.196c0.708,0.379,1.622,0.609,2.295,0.014c0.471,0.101,0.945,0.2,1.429,0.342
		c0.708,0.366,1.605,0.582,2.285,0.007c0.359,0.085,0.724,0.186,1.097,0.305c0.701,0.396,1.605,0.63,2.299,0.064
		c0.291,0.051,0.589,0.112,0.894,0.179c0.989,0.183,1.994,0.237,3.003,0.295c0.298,0.007,0.603,0.03,0.914,0.078
		c0.68,0.443,1.598,0.694,2.302,0.125c0.291,0.051,0.592,0.112,0.897,0.183c1.002,0.19,2.024,0.247,3.047,0.311
		c0.22,0.02,0.664,0.058,0.884,0.078c0.677,0.437,1.588,0.684,2.278,0.105c0.291,0.051,0.586,0.112,0.89,0.183
		c1.016,0.2,2.052,0.254,3.091,0.315c0.21,0.02,0.626,0.057,0.836,0.078c0.68,0.433,1.591,0.674,2.285,0.102
		c0.295,0.054,0.596,0.119,0.907,0.19c0.988,0.186,1.997,0.23,3.006,0.284c0.301,0.003,0.606,0.027,0.914,0.074
		c0.677,0.454,1.595,0.711,2.299,0.136c0.284,0.051,0.579,0.108,0.88,0.176c1.012,0.186,2.041,0.247,3.074,0.315
		c0.21,0.02,0.63,0.058,0.84,0.078c0.694,0.42,1.601,0.657,2.309,0.105c0.284,0.057,0.576,0.122,0.877,0.193
		c0.999,0.206,2.024,0.217,3.047,0.213c1.368,0.017,2.729,0.203,4.079,0.426c0.995,0.162,2.001,0.254,3.013,0.318
		c0.294,0.004,0.596,0.031,0.904,0.078c0.684,0.443,1.598,0.697,2.302,0.125c0.281,0.047,0.572,0.109,0.87,0.176
		c1.019,0.196,2.058,0.257,3.101,0.318c0.207,0.017,0.626,0.054,0.836,0.075c0.691,0.427,1.605,0.67,2.306,0.105
		c0.284,0.047,0.576,0.108,0.873,0.179c1.012,0.196,2.045,0.257,3.084,0.325c0.206,0.017,0.623,0.058,0.833,0.078
		c0.697,0.42,1.608,0.657,2.316,0.095c0.281,0.051,0.572,0.108,0.867,0.179c1.012,0.193,2.041,0.257,3.077,0.322
		c0.217,0.02,0.653,0.061,0.87,0.081c0.694,0.41,1.601,0.647,2.292,0.075c0.355,0.081,0.714,0.183,1.083,0.305
		c0.711,0.376,1.628,0.599,2.305,0c0.464,0.102,0.931,0.2,1.408,0.335c0.714,0.369,1.615,0.596,2.312,0.034
		c0.355,0.085,0.718,0.186,1.087,0.305c0.711,0.383,1.628,0.609,2.302,0.007c0.457,0.098,0.917,0.193,1.388,0.328
		c0.718,0.477,1.605,0.498,2.363,0.078c0.806,0.102,1.611,0.206,2.427,0.328c4.195,0.332,8.399,0.555,12.6,0.85
		c-5.816,17.983-11.636,35.967-17.448,53.95c-10.874-1.134-21.745-2.272-32.615-3.399c-28.485-2.969-56.97-5.942-85.454-8.911
		c-12.793-1.337-25.587-2.671-38.38-4.005C409.767,1523.53,411.087,1505.357,412.401,1487.184z"/>
	<path opacity="0.82" fill="#B6632F" stroke="#B6632F" stroke-width="0.5" enable-background="new    " d="M716.329,1487.242
		c0.403-0.19,0.829-0.22,1.283-0.091C717.325,1487.55,716.519,1487.902,716.329,1487.242z"/>
	<path opacity="0.82" fill="#B75F2E" stroke="#B75F2E" stroke-width="0.5" enable-background="new    " d="M714.284,1487.543
		c0.42-0.163,0.85-0.163,1.3,0.003C715.259,1487.912,714.437,1488.213,714.284,1487.543z"/>
	<path opacity="0.81" fill="#B6622E" stroke="#B6622E" stroke-width="0.5" enable-background="new    " d="M711.925,1487.919
		c0.406-0.22,0.836-0.23,1.3-0.031C712.89,1488.22,712.118,1488.552,711.925,1487.919z"/>
	<path opacity="0.83" fill="#BB642F" stroke="#BB642F" stroke-width="0.5" enable-background="new    " d="M709.48,1488.369
		c0.531-0.298,1.202-0.481,1.75-0.074C710.713,1488.687,710.029,1488.609,709.48,1488.369z"/>
	<path opacity="0.83" fill="#BA632E" stroke="#BA632E" stroke-width="0.5" enable-background="new    " d="M705.076,1489.137
		c0.471-0.416,1.168-0.646,1.737-0.23C706.288,1489.232,705.655,1489.303,705.076,1489.137z"/>
	<path opacity="0.89" fill="#BF6A36" stroke="#BF6A36" stroke-width="0.5" enable-background="new    " d="M422.777,1489.256
		c0.779-0.21,1.588-0.179,2.356,0.095C424.378,1489.781,423.488,1489.74,422.777,1489.256z"/>
	<path opacity="0.81" fill="#B7602D" stroke="#B7602D" stroke-width="0.5" enable-background="new    " d="M703.116,1489.273
		c0.403-0.217,0.836-0.234,1.297-0.047C704.091,1489.574,703.312,1489.906,703.116,1489.273z"/>
	<path opacity="0.82" fill="#BA622E" stroke="#BA622E" stroke-width="0.5" enable-background="new    " d="M700.675,1489.815
		c0.498-0.379,1.185-0.589,1.75-0.179C701.907,1490.004,701.247,1489.977,700.675,1489.815z"/>
	<path opacity="0.87" fill="#BD6834" stroke="#BD6834" stroke-width="0.5" enable-background="new    " d="M429.937,1489.896
		c0.752-0.125,1.527-0.18,2.272,0.074C431.539,1490.586,430.614,1490.336,429.937,1489.896z"/>
	<path opacity="0.81" fill="#B7602D" stroke="#B7602D" stroke-width="0.5" enable-background="new    " d="M698.725,1489.953
		c0.403-0.22,0.836-0.234,1.297-0.047C699.697,1490.251,698.921,1490.586,698.725,1489.953z"/>
	<path opacity="0.86" fill="#BB6733" stroke="#BB6733" stroke-width="0.5" enable-background="new    " d="M433.621,1490.295
		c0.653-0.169,1.347-0.261,2.001-0.007C435.073,1490.894,434.223,1490.664,433.621,1490.295z"/>
	<path opacity="0.82" fill="#BB622E" stroke="#BB622E" stroke-width="0.5" enable-background="new    " d="M696.291,1490.434
		c0.511-0.339,1.192-0.528,1.743-0.119C697.516,1490.698,696.849,1490.641,696.291,1490.434z"/>
	<path opacity="0.86" fill="#BD6733" stroke="#BD6733" stroke-width="0.5" enable-background="new    " d="M436.992,1490.627
		c0.779-0.23,1.591-0.203,2.363,0.064C438.604,1491.125,437.714,1491.094,436.992,1490.627z"/>
	<path opacity="0.85" fill="#BC6532" stroke="#BC6532" stroke-width="0.5" enable-background="new    " d="M444.139,1491.247
		c0.755-0.129,1.547-0.196,2.285,0.095C445.734,1491.924,444.826,1491.677,444.139,1491.247z"/>
	<path opacity="0.8" fill="#B65F2C" stroke="#B65F2C" stroke-width="0.5" enable-background="new    " d="M689.913,1491.314
		c0.393-0.22,0.819-0.257,1.28-0.108C690.901,1491.585,690.123,1491.954,689.913,1491.314z"/>
	<path opacity="0.85" fill="#BC6331" stroke="#BC6331" stroke-width="0.5" enable-background="new    " d="M447.535,1491.65
		c0.745-0.176,1.534-0.264,2.282,0.003C449.153,1492.262,448.239,1492.032,447.535,1491.65z"/>
	<path opacity="0.82" fill="#BB612D" stroke="#BB612D" stroke-width="0.5" enable-background="new    " d="M687.465,1491.727
		c0.542-0.278,1.212-0.447,1.757-0.044C688.701,1492.079,688.014,1491.981,687.465,1491.727z"/>
	<path opacity="0.84" fill="#BB6430" stroke="#BB6430" stroke-width="0.5" enable-background="new    " d="M451.245,1491.988
		c0.748-0.186,1.551-0.284,2.295,0.024C452.853,1492.581,451.956,1492.354,451.245,1491.988z"/>
	<path opacity="0.84" fill="#BB6230" stroke="#BB6230" stroke-width="0.5" enable-background="new    " d="M454.613,1492.316
		c0.772-0.224,1.578-0.2,2.346,0.068C456.215,1492.824,455.328,1492.794,454.613,1492.316z"/>
	<path opacity="0.82" fill="#BB612D" stroke="#BB612D" stroke-width="0.5" enable-background="new    " d="M683.051,1492.53
		c0.477-0.427,1.178-0.65,1.75-0.237C684.269,1492.611,683.636,1492.685,683.051,1492.53z"/>
	<path opacity="0.8" fill="#B75F2B" stroke="#B75F2B" stroke-width="0.5" enable-background="new    " d="M681.114,1492.628
		c0.416-0.166,0.85-0.166,1.297-0.003C682.089,1492.993,681.267,1493.295,681.114,1492.628z"/>
	<path opacity="0.83" fill="#BB642F" stroke="#BB642F" stroke-width="0.5" enable-background="new    " d="M462.072,1492.943
		c0.752-0.129,1.537-0.19,2.278,0.091C463.663,1493.623,462.752,1493.379,462.072,1492.943z"/>
	<path opacity="0.8" fill="#B8612C" stroke="#B8612C" stroke-width="0.5" enable-background="new    " d="M678.636,1493.237
		c0.386-0.423,0.965-0.521,1.493-0.281C679.716,1493.325,679.144,1493.42,678.636,1493.237z"/>
	<path opacity="0.83" fill="#BA622F" stroke="#BA622F" stroke-width="0.5" enable-background="new    " d="M465.47,1493.335
		c0.748-0.173,1.534-0.254,2.282,0.013C467.085,1493.955,466.171,1493.721,465.47,1493.335z"/>
	<path opacity="0.82" fill="#BD632C" stroke="#BD632C" stroke-width="0.5" enable-background="new    " d="M676.293,1493.491
		c0.532-0.362,1.185-0.43,1.794-0.19C677.573,1493.718,676.872,1493.765,676.293,1493.491z"/>
	<path opacity="0.82" fill="#BB642E" stroke="#BB642E" stroke-width="0.5" enable-background="new    " d="M469.14,1493.677
		c0.789-0.274,1.632-0.237,2.39,0.142C470.738,1494.117,469.871,1494.1,469.14,1493.677z"/>
	<path opacity="0.82" fill="#B9612E" stroke="#B9612E" stroke-width="0.5" enable-background="new    " d="M472.57,1494.016
		c0.752-0.176,1.544-0.257,2.295,0.014C474.191,1494.625,473.277,1494.395,472.57,1494.016z"/>
	<path opacity="0.8" fill="#B85E2B" stroke="#B85E2B" stroke-width="0.5" enable-background="new    " d="M672.302,1494.016
		c0.399-0.196,0.826-0.237,1.28-0.119C673.304,1494.304,672.502,1494.679,672.302,1494.016z"/>
	<path opacity="0.82" fill="#BA632E" stroke="#BA632E" stroke-width="0.5" enable-background="new    " d="M476.294,1494.371
		c0.745-0.193,1.54-0.291,2.285,0.007C477.898,1494.954,477.001,1494.737,476.294,1494.371z"/>
	<path opacity="0.82" fill="#BB602C" stroke="#BB602C" stroke-width="0.5" enable-background="new    " d="M669.919,1494.385
		c0.508-0.298,1.107-0.2,1.662-0.061C671.104,1494.686,670.335,1494.981,669.919,1494.385z"/>
	<path opacity="0.81" fill="#B9612D" stroke="#B9612D" stroke-width="0.5" enable-background="new    " d="M479.676,1494.683
		c0.758-0.19,1.547-0.21,2.299,0.064C481.28,1495.313,480.376,1495.079,479.676,1494.683z"/>
	<path opacity="0.82" fill="#BC632D" stroke="#BC632D" stroke-width="0.5" enable-background="new    " d="M667.481,1494.913
		c0.504-0.427,1.175-0.515,1.791-0.271C668.757,1495.042,668.08,1495.123,667.481,1494.913z"/>
	<path opacity="0.82" fill="#BC622E" stroke="#BC622E" stroke-width="0.5" enable-background="new    " d="M482.868,1494.927
		c0.999,0.085,2.001,0.173,3.003,0.295C484.862,1495.164,483.857,1495.109,482.868,1494.927z"/>
	<path opacity="0.79" fill="#B8602B" stroke="#B8602B" stroke-width="0.5" enable-background="new    " d="M665.558,1495.031
		c0.403-0.217,0.833-0.234,1.293-0.047C666.533,1495.333,665.751,1495.668,665.558,1495.031z"/>
	<path opacity="0.81" fill="#B9602C" stroke="#B9602C" stroke-width="0.5" enable-background="new    " d="M486.785,1495.299
		c0.762-0.142,1.551-0.139,2.302,0.125C488.383,1495.993,487.465,1495.742,486.785,1495.299z"/>
	<path opacity="0.81" fill="#BC622C" stroke="#BC622C" stroke-width="0.5" enable-background="new    " d="M663.107,1495.553
		c0.504-0.366,1.192-0.569,1.75-0.156C664.339,1495.766,663.676,1495.729,663.107,1495.553z"/>
	<path opacity="0.82" fill="#BB612D" stroke="#BB612D" stroke-width="0.5" enable-background="new    " d="M489.984,1495.607
		c1.012,0.078,2.031,0.176,3.047,0.311C492.009,1495.854,490.986,1495.797,489.984,1495.607z"/>
	<path opacity="0.79" fill="#B7602B" stroke="#B7602B" stroke-width="0.5" enable-background="new    " d="M661.15,1495.709
		c0.413-0.19,0.846-0.203,1.3-0.041C662.136,1496.034,661.33,1496.362,661.15,1495.709z"/>
	<path opacity="0.8" fill="#B9602C" stroke="#B9602C" stroke-width="0.5" enable-background="new    " d="M493.915,1495.996
		c0.755-0.152,1.534-0.162,2.278,0.105C495.502,1496.68,494.592,1496.433,493.915,1495.996z"/>
	<path opacity="0.8" fill="#B75D2B" stroke="#B75D2B" stroke-width="0.5" enable-background="new    " d="M659.099,1496.013
		c0.42-0.166,0.853-0.166,1.303,0C660.074,1496.376,659.251,1496.68,659.099,1496.013z"/>
	<path opacity="0.82" fill="#BB612D" stroke="#BB612D" stroke-width="0.5" enable-background="new    " d="M497.083,1496.284
		c1.029,0.074,2.062,0.172,3.091,0.315C499.135,1496.538,498.099,1496.484,497.083,1496.284z"/>
	<path opacity="0.8" fill="#B9602B" stroke="#B9602B" stroke-width="0.5" enable-background="new    " d="M656.736,1496.386
		c0.41-0.217,0.843-0.227,1.303-0.027C657.704,1496.69,656.929,1497.019,656.736,1496.386z"/>
	<path opacity="0.8" fill="#B95F2B" stroke="#B95F2B" stroke-width="0.5" enable-background="new    " d="M501.01,1496.677
		c0.755-0.159,1.54-0.166,2.285,0.102C502.602,1497.35,501.691,1497.11,501.01,1496.677z"/>
	<path opacity="0.82" fill="#BC622C" stroke="#BC622C" stroke-width="0.5" enable-background="new    " d="M654.309,1496.917
		c0.498-0.376,1.185-0.582,1.74-0.169C655.537,1497.12,654.877,1497.086,654.309,1496.917z"/>
	<path opacity="0.82" fill="#BB602C" stroke="#BB602C" stroke-width="0.5" enable-background="new    " d="M504.203,1496.968
		c0.999,0.074,2.004,0.159,3.006,0.284C506.2,1497.198,505.191,1497.154,504.203,1496.968z"/>
	<path opacity="0.8" fill="#B8602B" stroke="#B8602B" stroke-width="0.5" enable-background="new    " d="M652.345,1497.066
		c0.403-0.22,0.836-0.237,1.297-0.058C653.323,1497.357,652.548,1497.699,652.345,1497.066z"/>
	<path opacity="0.8" fill="#B95F2B" stroke="#B95F2B" stroke-width="0.5" enable-background="new    " d="M508.123,1497.327
		c0.765-0.135,1.547-0.125,2.299,0.136C509.718,1498.038,508.8,1497.781,508.123,1497.327z"/>
	<path opacity="0.81" fill="#BC622C" stroke="#BC622C" stroke-width="0.5" enable-background="new    " d="M649.901,1497.587
		c0.504-0.365,1.192-0.569,1.747-0.156C651.133,1497.804,650.469,1497.763,649.901,1497.587z"/>
	<path opacity="0.81" fill="#BB602C" stroke="#BB602C" stroke-width="0.5" enable-background="new    " d="M511.302,1497.638
		c1.022,0.074,2.052,0.173,3.074,0.315C513.344,1497.885,512.314,1497.824,511.302,1497.638z"/>
	<path opacity="0.79" fill="#B75F2B" stroke="#B75F2B" stroke-width="0.5" enable-background="new    " d="M647.947,1497.74
		c0.41-0.196,0.843-0.206,1.297-0.037C648.926,1498.062,648.127,1498.39,647.947,1497.74z"/>
	<path opacity="0.8" fill="#B85F2B" stroke="#B85F2B" stroke-width="0.5" enable-background="new    " d="M515.216,1498.031
		c0.762-0.162,1.557-0.179,2.309,0.105C516.817,1498.688,515.91,1498.451,515.216,1498.031z"/>
	<path opacity="0.81" fill="#BC622C" stroke="#BC622C" stroke-width="0.5" enable-background="new    " d="M645.476,1498.193
		c0.545-0.328,1.188-0.399,1.798-0.166C646.759,1498.458,646.048,1498.498,645.476,1498.193z"/>
	<path opacity="0.81" fill="#BB602C" stroke="#BB602C" stroke-width="0.5" enable-background="new    " d="M518.401,1498.329
		c1.009,0.074,2.028,0.135,3.047,0.213C520.426,1498.546,519.4,1498.535,518.401,1498.329z"/>
	<path opacity="0.82" fill="#BC622C" stroke="#BC622C" stroke-width="0.5" enable-background="new    " d="M641.092,1498.867
		c0.511-0.335,1.192-0.538,1.744-0.129C642.307,1499.084,641.65,1499.114,641.092,1498.867z"/>
	<path opacity="0.81" fill="#BB602C" stroke="#BB602C" stroke-width="0.5" enable-background="new    " d="M525.528,1498.969
		c1.002,0.088,2.008,0.183,3.013,0.318C527.528,1499.223,526.523,1499.131,525.528,1498.969z"/>
	<path opacity="0.79" fill="#B85F2A" stroke="#B85F2A" stroke-width="0.5" enable-background="new    " d="M529.445,1499.365
		c0.762-0.142,1.551-0.139,2.302,0.125C531.042,1500.062,530.128,1499.808,529.445,1499.365z"/>
	<path opacity="0.82" fill="#BC622D" stroke="#BC622D" stroke-width="0.5" enable-background="new    " d="M636.698,1499.646
		c0.467-0.427,1.168-0.657,1.733-0.244C637.906,1499.727,637.28,1499.802,636.698,1499.646z"/>
	<path opacity="0.81" fill="#BA602B" stroke="#BA602B" stroke-width="0.5" enable-background="new    " d="M532.617,1499.666
		c1.033,0.078,2.068,0.176,3.101,0.318C534.675,1499.923,533.636,1499.862,532.617,1499.666z"/>
	<path opacity="0.8" fill="#B8602C" stroke="#B8602C" stroke-width="0.5" enable-background="new    " d="M634.727,1499.775
		c0.406-0.22,0.836-0.24,1.3-0.061C635.709,1500.066,634.934,1500.407,634.727,1499.775z"/>
	<path opacity="0.79" fill="#B85F2A" stroke="#B85F2A" stroke-width="0.5" enable-background="new    " d="M536.554,1500.059
		c0.762-0.156,1.554-0.166,2.306,0.105C538.159,1500.729,537.245,1500.485,536.554,1500.059z"/>
	<path opacity="0.82" fill="#BC622D" stroke="#BC622D" stroke-width="0.5" enable-background="new    " d="M632.293,1500.296
		c0.501-0.369,1.188-0.572,1.743-0.156C633.522,1500.512,632.862,1500.472,632.293,1500.296z"/>
	<path opacity="0.81" fill="#BB602B" stroke="#BB602B" stroke-width="0.5" enable-background="new    " d="M539.733,1500.343
		c1.026,0.078,2.055,0.18,3.084,0.325C541.778,1500.601,540.745,1500.54,539.733,1500.343z"/>
	<path opacity="0.8" fill="#B8612D" stroke="#B8612D" stroke-width="0.5" enable-background="new    " d="M630.343,1500.448
		c0.406-0.217,0.836-0.234,1.297-0.047C631.318,1500.75,630.543,1501.085,630.343,1500.448z"/>
	<path opacity="0.8" fill="#B85F2B" stroke="#B85F2B" stroke-width="0.5" enable-background="new    " d="M543.65,1500.746
		c0.765-0.162,1.561-0.176,2.316,0.095C545.258,1501.403,544.347,1501.166,543.65,1500.746z"/>
	<path opacity="0.82" fill="#BB622E" stroke="#BB622E" stroke-width="0.5" enable-background="new    " d="M627.899,1500.993
		c0.494-0.386,1.185-0.596,1.744-0.179C629.128,1501.179,628.471,1501.152,627.899,1500.993z"/>
	<path opacity="0.81" fill="#BB602C" stroke="#BB602C" stroke-width="0.5" enable-background="new    " d="M546.832,1501.02
		c1.022,0.081,2.052,0.183,3.077,0.322C548.873,1501.278,547.844,1501.213,546.832,1501.02z"/>
	<path opacity="0.81" fill="#B8612D" stroke="#B8612D" stroke-width="0.5" enable-background="new    " d="M625.932,1501.122
		c0.403-0.217,0.836-0.234,1.297-0.054C626.91,1501.42,626.132,1501.758,625.932,1501.122z"/>
	<path opacity="0.8" fill="#B9602B" stroke="#B9602B" stroke-width="0.5" enable-background="new    " d="M550.779,1501.423
		c0.755-0.146,1.547-0.227,2.292,0.075C552.381,1502.07,551.473,1501.833,550.779,1501.423z"/>
	<path opacity="0.84" fill="#BC642F" stroke="#BC642F" stroke-width="0.5" enable-background="new    " d="M623.498,1501.663
		c0.494-0.379,1.185-0.589,1.743-0.176C624.727,1501.857,624.07,1501.829,623.498,1501.663z"/>
	<path opacity="0.81" fill="#B95E2C" stroke="#B95E2C" stroke-width="0.5" enable-background="new    " d="M554.155,1501.802
		c0.752-0.176,1.547-0.267,2.305,0C555.783,1502.401,554.866,1502.178,554.155,1501.802z"/>
	<path opacity="0.83" fill="#B76430" stroke="#B76430" stroke-width="0.5" enable-background="new    " d="M621.538,1501.802
		c0.403-0.213,0.833-0.23,1.293-0.051C622.513,1502.104,621.734,1502.442,621.538,1501.802z"/>
	<path opacity="0.81" fill="#BA612C" stroke="#BA612C" stroke-width="0.5" enable-background="new    " d="M557.868,1502.138
		c0.755-0.18,1.561-0.271,2.312,0.034C559.483,1502.733,558.583,1502.506,557.868,1502.138z"/>
	<path opacity="0.86" fill="#BB6834" stroke="#BB6834" stroke-width="0.5" enable-background="new    " d="M619.11,1502.381
		c0.477-0.413,1.171-0.64,1.737-0.224C620.336,1502.517,619.686,1502.517,619.11,1502.381z"/>
	<path opacity="0.82" fill="#BA602D" stroke="#BA602D" stroke-width="0.5" enable-background="new    " d="M561.267,1502.476
		c0.755-0.173,1.547-0.261,2.302,0.007C562.896,1503.085,561.978,1502.859,561.267,1502.476z"/>
	<path opacity="0.83" fill="#BB6430" stroke="#BB6430" stroke-width="0.5" enable-background="new    " d="M564.957,1502.811
		c0.779-0.224,1.591-0.196,2.363,0.078C566.562,1503.309,565.675,1503.289,564.957,1502.811z"/>
	<path fill="#A45E4D" stroke="#A45E4D" stroke-width="0.5" d="M657.961,1551.724c28.272-4.594,56.54-9.195,84.808-13.789
		c1.936,16.494,3.974,32.977,6.29,49.424c1.445,9.855,2.779,19.744,4.953,29.47c0.823,3.176,1.52,6.531,3.473,9.242
		c1.171,1.662,3.264,2.231,5.2,2.329c6.26,0.399,12.709-0.731,18.813,1.165c3.037,0.927,6.128,2.79,7.299,5.901
		c1.198,3.159,0.034,6.707-1.987,9.259c-3.064,3.886-7.509,6.371-11.964,8.342c-6.737,2.857-13.85,4.682-20.956,6.337
		c-13.41,3.006-27.009,5.156-40.672,6.591c-7.682,0.748-15.431,1.242-23.143,0.653c-2.969-0.261-6.124-0.674-8.579-2.509
		c-2.539-1.923-4.059-4.845-5.207-7.743c-2.241-5.904-3.507-12.116-4.794-18.274c-4.076-20.871-7.18-41.911-10.39-62.925
		C659.993,1567.385,658.608,1559.595,657.961,1551.724z"/>
	<path fill="#A45E4D" stroke="#A45E4D" stroke-width="0.5" d="M446.83,1545.708c28.485,2.969,56.97,5.942,85.454,8.911
		c-0.162,7.431-1.036,14.821-1.662,22.225c-1.527,16.602-3.108,33.201-4.993,49.769c-0.88,7.536-1.787,15.075-3.087,22.557
		c-0.714,3.951-1.483,7.915-2.8,11.724c-0.968,2.729-2.309,5.464-4.574,7.36c-2.143,1.774-4.946,2.4-7.627,2.834
		c-6.991,1.032-14.08,1.077-21.128,0.88c-14.053-0.511-28.079-1.882-41.972-4.063c-7.157-1.178-14.32-2.539-21.23-4.783
		c-4.817-1.628-9.642-3.744-13.342-7.326c-2.346-2.282-4.14-5.505-3.666-8.87c0.342-2.867,2.498-5.156,4.953-6.476
		c4.151-2.292,8.998-2.627,13.64-2.823c3.314-0.22,6.747-0.01,9.936-1.077c2.742-1.094,3.69-4.198,4.404-6.788
		c1.716-7.025,2.309-14.259,3.081-21.426C444.214,1587.494,445.578,1566.602,446.83,1545.708z"/>
</g>
</svg>
