<?xml version="1.0" encoding="UTF-8" standalone="no"?>
<svg
   xmlns:dc="http://purl.org/dc/elements/1.1/"
   xmlns:cc="http://creativecommons.org/ns#"
   xmlns:rdf="http://www.w3.org/1999/02/22-rdf-syntax-ns#"
   xmlns:svg="http://www.w3.org/2000/svg"
   xmlns="http://www.w3.org/2000/svg"
   xmlns:sodipodi="http://sodipodi.sourceforge.net/DTD/sodipodi-0.dtd"
   xmlns:inkscape="http://www.inkscape.org/namespaces/inkscape"
   version="1.1"
   x="0"
   y="0"
   width="489.0647"
   height="526.54102"
   viewBox="0 0 489.06469 526.54099"
   id="svg1213"
   sodipodi:docname="man-3423740_colour.svg"
   inkscape:version="0.92.2 2405546, 2018-03-11">
  <metadata
     id="metadata1219">
    <rdf:RDF>
      <cc:Work
         rdf:about="">
        <dc:format>image/svg+xml</dc:format>
        <dc:type
           rdf:resource="http://purl.org/dc/dcmitype/StillImage" />
        <dc:title></dc:title>
      </cc:Work>
    </rdf:RDF>
  </metadata>
  <defs
     id="defs1217" />
  <sodipodi:namedview
     pagecolor="#ffffff"
     bordercolor="#666666"
     borderopacity="1"
     objecttolerance="10"
     gridtolerance="10"
     guidetolerance="10"
     inkscape:pageopacity="0"
     inkscape:pageshadow="2"
     inkscape:window-width="1446"
     inkscape:window-height="799"
     id="namedview1215"
     showgrid="false"
     fit-margin-top="0"
     fit-margin-left="0"
     fit-margin-right="0"
     fit-margin-bottom="0"
     inkscape:pagecheckerboard="true"
     inkscape:zoom="1.0717645"
     inkscape:cx="311.34981"
     inkscape:cy="322.89012"
     inkscape:window-x="0"
     inkscape:window-y="23"
     inkscape:window-maximized="0"
     inkscape:current-layer="svg1213" />
  <g
     id="color"
     transform="translate(-165.516,-31.076)">
    <g
       id="g1185">
      <path
         d="m 408.251,535.552 c 0,-4.948 -29.817,-8.957 -66.597,-8.957 -2.973,0 -5.895,0.028 -8.765,0.079 4.741,-0.932 7.516,-2.062 7.516,-3.276 0,-3.216 -19.38,-5.822 -43.285,-5.822 -6.736,0 -54.175,-0.617 -39.492,12.604 2.362,2.127 7.897,5.687 7.586,8.803 -0.491,4.949 -7.868,2.361 -11.657,2.286 -4.285,-0.084 -29.28,1.896 -29.281,7.393 0,4.945 29.817,8.955 66.598,8.955 36.78,0 66.596,-4.01 66.596,-8.955 0,-1.527 -2.849,-2.964 -7.863,-4.222 33.028,-0.53 58.644,-4.306 58.644,-8.888"
         id="path1037"
         inkscape:connector-curvature="0"
         style="fill:#c6d0d0" />
      <path
         d="m 347.759,202.899 c -2.621,4.812 -1.298,11.925 -0.451,16.933 1.188,7.057 3.271,14.482 6.654,20.877 0.006,0.019 0.012,0.039 0.019,0.059 0.005,0.02 0.025,0.023 0.032,0.04 0.058,0.106 0.111,0.214 0.169,0.32 -0.234,6.062 0.801,12.451 1.302,18.497 0.564,6.811 1.189,13.601 1.611,20.425 0.425,6.87 0.985,13.718 1.308,20.594 0.306,6.526 1.268,13.263 1.04,19.779 -0.003,0.068 0.021,0.118 0.029,0.179 -1.812,3.469 -3.901,6.676 -6.165,9.896 -3.2,4.554 -6.371,7.017 -11.548,8.991 -0.093,0.034 -0.059,0.174 0.042,0.15 4.782,-1.12 7.799,-2.677 11.105,-6.361 3.286,-3.662 6.138,-7.776 8.342,-12.178 0.066,-0.064 0.13,-0.132 0.175,-0.218 0.288,0.304 0.577,0.606 0.873,0.905 1.654,1.672 0.601,2.994 -0.266,4.515 -1.041,1.824 -2.275,3.562 -3.388,5.343 -3.088,4.932 -6.887,8.466 -12.151,10.955 -5.276,2.49 -11.258,3.409 -17.044,3.2 -6.1,-0.221 -11.836,-2.675 -17.601,-4.431 -5.169,-1.576 -9.81,-3.451 -14.455,-6.252 -2.34,-1.41 -4.568,-2.993 -6.899,-4.419 -2.531,-1.546 -9.741,-5.971 -12.098,-2.112 -0.149,0.247 0.221,0.548 0.407,0.315 0.707,-0.889 1.861,-1.037 3.242,-0.751 -0.453,1.723 -0.994,3.434 -1.596,5.128 -1.342,-2.391 -5.21,-8.717 -0.129,-8.161 0.513,0.055 0.868,-0.381 1.039,-0.792 2.317,-5.556 3.535,-11.758 5.402,-17.497 1.995,-6.141 4.233,-12.162 5.113,-18.596 0.04,-0.296 -0.068,-0.523 -0.357,-0.63 -1.013,-0.375 -1.839,-0.669 -2.902,-0.768 -0.223,-0.021 -0.271,0.346 -0.053,0.39 0.94,0.191 1.364,0.837 1.483,1.71 -0.973,-0.663 -1.987,-1.26 -2.918,-1.989 -0.149,-0.115 2.47,-0.912 3.039,-1.046 0.584,-0.142 0.81,-0.73 0.717,-1.267 -1.247,-7.233 -2.928,-14.471 -4.905,-21.618 1.881,-3.016 3.999,-5.848 6.269,-8.559 1.424,3.247 2.881,6.482 4.327,9.72 0.162,0.364 0.761,0.103 0.639,-0.269 -1.199,-3.646 -2.379,-7.299 -3.78,-10.856 8.461,-9.698 18.997,-17.742 29.031,-26.011 0.637,0.514 1.258,1.087 1.858,1.7 2.509,2.563 5.463,4.648 8.066,7.114 1.215,1.151 2.204,3.765 4.153,3.972 5.717,0.607 1.798,-12.394 1.221,-14.847 -0.772,-3.274 -0.85,-6.715 -1.81,-9.942 3.612,-3.658 6.935,-7.603 9.661,-11.912 0.721,-0.04 1.436,-0.121 2.148,-0.225"
         id="path1039"
         inkscape:connector-curvature="0"
         style="fill:#88a73e" />
      <path
         d="m 301.552,258.523 c 0.951,-0.388 1.953,0.84 1.256,1.658 -0.52,0.61 -1.425,0.378 -1.832,-0.186 -0.129,-0.582 -0.033,-1.224 0.576,-1.472"
         id="path1041"
         inkscape:connector-curvature="0"
         style="fill:#8a735f" />
      <path
         d="m 436.43,205.861 c -2.921,3.545 -7.772,5.168 -12.01,6.45 -5.883,1.778 -12.425,3.44 -18.075,0.095 -2.645,-1.566 -3.783,-4.274 -4.016,-7.129 0.024,-0.116 0.019,-0.224 -0.02,-0.321 -0.095,-1.653 0.099,-3.343 0.479,-4.88 1.346,-5.437 7.83,-8.78 12.311,-5.415 0.304,1.325 1.004,2.458 2.293,3.101 0.005,0.002 0.01,0 0.014,0.002 -1.158,3.226 -0.453,6.802 2.546,9.035 5.178,3.859 12.813,-1.026 16.166,-5.11 0.187,-0.229 -0.12,-0.557 -0.333,-0.333 -3.031,3.197 -8.24,6.119 -12.773,5.22 -5.563,-1.101 -4.591,-7.484 -1.972,-10.717 2.494,-3.078 7.883,-4.423 11.642,-4.435 3.873,-0.011 5.928,3.676 6.375,7.01 0.384,2.858 -0.869,5.295 -2.627,7.427"
         id="path1043"
         inkscape:connector-curvature="0"
         style="fill:#f4c4b4" />
      <path
         d="m 414.539,216.409 c 0.981,2.724 1.871,5.497 2.621,8.291 0.484,1.805 0.859,3.59 1.063,5.454 0.558,5.142 -4.566,2.284 -6.267,0.845 -2.345,-1.985 -4.238,-4.397 -5.853,-6.99 0.264,-0.682 0.445,-1.441 0.586,-1.855 0.745,-2.183 1.582,-4.211 2.492,-6.319 1.712,0.438 3.543,0.6 5.358,0.574"
         id="path1045"
         inkscape:connector-curvature="0"
         style="fill:#465f25" />
      <path
         d="m 439.363,192.7 c -0.859,-1.213 -1.971,-2.186 -3.329,-2.722 -5.414,-2.137 -13.457,0.454 -17.049,4.962 -0.53,0.664 -0.959,1.378 -1.294,2.116 -2.808,-3.699 -0.442,-9.125 3.07,-11.242 2.607,-1.571 5.639,-1.816 8.578,-1.417 5.199,0.707 9.724,3.248 10.024,8.303"
         id="path1047"
         inkscape:connector-curvature="0"
         style="fill:#f4c4b4" />
      <path
         d="m 449.289,163.796 c 5.15,1.116 8.539,5.64 7.541,10.913 -0.845,4.462 -6.096,3.241 -9.242,3.135 -2.921,-0.097 -5.689,0.023 -8.52,0.75 -2.488,-3.806 -8.277,-6.612 -12.187,-6.959 -0.459,-0.041 -0.926,-0.043 -1.396,-0.017 7.58,-4.477 14.286,-9.885 23.804,-7.822"
         id="path1049"
         inkscape:connector-curvature="0"
         style="fill:#f4c4b4" />
      <path
         d="m 427.354,174.134 c 5.632,0.915 11.52,4.998 10.38,11.05 -3.178,-2.032 -7.523,-3.168 -10.384,-3.267 -3.784,-0.132 -8.672,1.597 -10.746,4.957 -0.073,0.116 -0.142,0.248 -0.211,0.375 -3.484,-7.238 3.334,-14.354 10.961,-13.115"
         id="path1051"
         inkscape:connector-curvature="0"
         style="fill:#f4c4b4" />
      <path
         d="m 399.526,188.448 c 0.545,-2.367 2.7,-4.092 3.609,-6.301 1.161,-2.824 1.114,-5.571 -0.495,-8.189 -2.925,-4.757 -12.136,-6.846 -12.512,-12.912 -0.457,-7.339 8.506,-7.121 12.931,-4.662 5.155,2.867 6.616,8.577 6.846,13.997 0.132,3.172 1.5,9.29 4.684,7.78 -1.921,3.109 -2.094,6.842 1.223,10.071 0.027,0.027 0.059,0.02 0.089,0.039 -0.698,1.663 -1.15,3.782 -0.93,5.653 -3.174,-2.675 -7.735,-2.887 -11.161,0.282 -0.974,0.9 -1.721,2.015 -2.275,3.249 -1.582,-2.767 -2.76,-5.751 -2.009,-9.007"
         id="path1053"
         inkscape:connector-curvature="0"
         style="fill:#f4c4b4" />
      <path
         d="m 400.931,207.845 c 0.267,0.954 0.611,1.857 1.042,2.668 1.233,2.319 3.143,3.801 5.364,4.706 -1.026,1.293 -1.61,3.232 -1.941,4.719 -0.149,0.668 -0.317,1.353 -0.464,2.043 -0.137,-0.247 -0.289,-0.487 -0.422,-0.735 -1.859,-3.485 -3.94,-7.202 -4.469,-11.17 0.064,-0.162 0.1,-0.339 0.153,-0.544 0.128,-0.5 0.358,-0.975 0.594,-1.431 0.045,-0.088 0.097,-0.17 0.143,-0.256"
         id="path1055"
         inkscape:connector-curvature="0"
         style="fill:#f4c4b4" />
      <path
         d="m 388.249,234.445 c -0.914,2.034 -1.826,4.071 -2.627,6.178 -1.622,4.264 -0.484,9.82 0.426,14.134 0.044,0.204 0.393,0.161 0.367,-0.049 -0.562,-4.431 -0.505,-9.049 1.306,-13.2 1.556,-3.569 3.508,-6.897 4.791,-10.586 1.54,-4.435 2.939,-8.911 3.778,-13.536 0.602,-3.331 -0.479,-12.657 4.06,-13.297 0.022,0.612 0.084,1.218 0.172,1.814 -0.392,0.57 -0.788,1.139 -1.156,1.726 -0.137,0.217 -0.298,0.462 -0.448,0.718 -0.232,0.092 -0.418,0.301 -0.432,0.636 -0.006,0.103 0.01,0.204 0.009,0.307 -0.086,0.318 -0.089,0.634 0.025,0.937 0.217,5.063 2.875,9.998 5.334,14.295 2.482,4.33 6.328,9.223 11.276,10.729 9.349,2.846 2.571,-14.281 0.328,-18.872 0.612,-0.029 1.215,-0.077 1.813,-0.142 2.582,4.45 3.832,10.032 4.062,15.118 0.151,3.372 -1.004,7.544 -4.928,7.989 -3.197,0.363 -6.693,-1.821 -9.035,-3.732 -0.077,-0.063 -0.184,0.036 -0.111,0.111 1.708,1.757 4.156,3.604 6.662,4.582 -5.568,9.173 -11.192,18.449 -18.42,26.428 -7.026,-3.065 -13.666,-6.683 -20.119,-10.838 -7.086,-4.563 -14.456,-9.388 -20.585,-15.209 -0.027,-0.032 -0.05,-0.057 -0.083,-0.077 -0.012,-0.011 -0.026,-0.023 -0.038,-0.034 -3.444,-11.898 -5.656,-23.517 -3.459,-35.781 12.861,9.21 24.469,20.061 37.032,29.651"
         id="path1057"
         inkscape:connector-curvature="0"
         style="fill:#88a73e" />
      <path
         d="m 348.452,202.806 c 0.017,0.014 0.024,0.03 0.042,0.042 0.72,0.494 1.418,1.016 2.129,1.521 -3.211,9.659 -1.061,21.135 1.772,31.106 -4.031,-10.32 -7.19,-22.28 -4.038,-32.656 0.032,-0.006 0.064,-0.007 0.095,-0.013"
         id="path1059"
         inkscape:connector-curvature="0"
         style="fill:#88a73e" />
      <path
         d="m 317.13,364.509 c -0.304,0.291 -0.565,0.617 -0.823,0.948 -0.22,-0.431 -0.45,-0.833 -0.694,-1.182 0.505,0.079 1.01,0.156 1.517,0.234"
         id="path1061"
         inkscape:connector-curvature="0"
         style="fill:#517f8a" />
      <path
         d="m 316.832,362.896 c -3.436,-1.009 -6.828,-1.422 -10.501,-1.12 0.47,-6.546 1.13,-12.526 3.711,-18.566 0.397,0.123 0.793,0.248 1.195,0.366 3.909,1.14 7.678,2.551 11.581,3.543 -1.319,5.116 -2.594,10.215 -4.97,14.953 -0.349,0.259 -0.683,0.542 -1.016,0.824"
         id="path1063"
         inkscape:connector-curvature="0"
         style="fill:#517f8a" />
      <path
         d="m 305.742,361.205 c -2.93,-4.173 -6.755,-7.44 -11.278,-9.855 -5.059,-2.699 -11.297,-4.981 -17.086,-4.624 1.357,-3.78 2.72,-7.556 4.068,-11.34 0.839,-2.356 1.546,-4.533 1.486,-7.01 4.924,1.563 12.102,7.693 14.451,9.184 0.749,0.477 1.505,0.915 2.265,1.335 -2.231,3.315 -5.053,5.639 -9.416,3.617 -2.794,-1.295 -4.892,-3.981 -7.229,-5.924 -0.334,-0.278 -0.811,0.176 -0.485,0.484 2.791,2.63 5.728,7.2 9.953,7.539 3.82,0.307 6.738,-1.874 8.038,-5.244 2.915,1.535 5.926,2.714 9.1,3.712 -2.917,5.586 -4.043,11.837 -3.867,18.126"
         id="path1065"
         inkscape:connector-curvature="0"
         style="fill:#517f8a" />
      <path
         d="m 303.431,359.21 c -3.677,-3.232 -7.847,-5.742 -12.36,-7.831 -4.485,-2.077 -9.525,-3.648 -14.427,-2.607 0.189,-0.527 0.378,-1.054 0.567,-1.582 0.033,0.018 0.058,0.043 0.105,0.042 5.721,-0.217 11.706,2.268 16.752,4.795 3.571,1.79 6.682,4.274 9.363,7.183"
         id="path1067"
         inkscape:connector-curvature="0"
         style="fill:#517f8a" />
      <path
         d="m 280.818,246.43 c 0.885,-1.922 1.768,-3.844 2.732,-5.726 1.104,-2.152 2.401,-4.243 3.692,-6.289 2.063,-3.271 3.431,0.045 5.353,1.885 0.323,0.308 0.74,-0.144 0.477,-0.477 -1.025,-1.297 -1.819,-2.565 -2.849,-3.739 0.059,-0.104 0.091,-0.222 0.027,-0.343 -3.702,-6.914 -10.607,6.846 -13.76,14.472 -0.598,-1.089 -1.233,-2.166 -1.929,-3.222 0.003,-0.895 0.042,-1.764 0.105,-2.564 0.249,-3.252 1.288,-6.457 2.383,-9.505 0.732,-2.036 2.232,-3.91 2.792,-5.986 0.311,-1.15 0.308,-1.826 -0.3,-2.845 -0.643,-1.078 -3.719,-1.269 -3.404,-2.935 0.46,-2.434 3.395,-3.753 4.798,-5.847 0.951,0.176 1.903,0.365 2.854,0.551 0.001,10e-4 0.001,0.004 0.002,0.005 0.893,1.148 1.052,3.141 1.495,4.504 0.663,2.04 1.581,3.968 2.579,5.863 2.289,4.35 4.902,8.892 8.125,12.641 -2.492,2.393 -5.314,4.628 -7.385,7.345 -0.292,0.091 -0.519,0.356 -0.381,0.702 0.851,2.129 1.742,4.242 2.645,6.349 -2.199,2.713 -4.164,5.557 -5.787,8.563 -1.313,-4.52 -2.743,-8.996 -4.264,-13.402"
         id="path1069"
         inkscape:connector-curvature="0"
         style="fill:#88a73e" />
      <path
         d="m 277.817,248.816 c -0.29,-0.622 -0.592,-1.24 -0.913,-1.853 0.984,-2.456 2.134,-4.866 3.295,-7.204 1.204,-2.429 4.616,-9.692 7.95,-8.678 -2.788,2.17 -4.417,5.722 -6.072,8.762 -1.58,2.906 -2.859,5.977 -4.26,8.973"
         id="path1071"
         inkscape:connector-curvature="0"
         style="fill:#465f25" />
      <path
         d="m 276.555,251.406 c -0.006,0.011 -0.011,0.022 -0.017,0.035 -0.294,-0.429 -0.538,-0.895 -0.754,-1.38 0.019,-0.058 0.039,-0.114 0.057,-0.17 0.252,0.5 0.491,1.004 0.714,1.515"
         id="path1073"
         inkscape:connector-curvature="0"
         style="fill:#465f25" />
      <path
         d="m 272.573,240.214 c -0.275,-0.36 -0.54,-0.723 -0.827,-1.079 -1.574,-1.951 -3.305,-3.753 -5.102,-5.491 2.526,-4.115 5.143,-8.17 7.932,-12.115 0.139,0.174 0.283,0.343 0.446,0.499 0.321,0.31 0.769,0.483 1.182,0.637 2.128,0.796 1.151,2.682 0.381,4.085 -1.827,3.328 -3.533,8.413 -4.012,13.464"
         id="path1075"
         inkscape:connector-curvature="0"
         style="fill:#88a73e" />
      <path
         d="m 318.467,205.074 c -0.12,-0.862 -0.208,-1.732 -0.28,-2.605 1.246,-0.923 2.875,-1.334 4.351,-1.694 0.908,-0.22 1.835,-0.276 2.766,-0.279 2.627,-0.01 1.644,2.589 0.693,3.863 -1.984,2.657 0.59,4.314 2.905,4.914 2.015,0.523 3.313,2.017 4.189,3.876 -3.005,2.994 -6.183,5.809 -9.295,8.497 -0.764,-0.276 -1.555,-0.475 -2.404,-0.499 -7.643,-0.215 -13.143,7.373 -15.009,14.057 -0.015,0.051 0.009,0.084 0.041,0.107 -0.104,0.291 -0.205,0.58 -0.297,0.856 -0.016,0.049 0.009,0.079 0.009,0.121 -2.906,2.446 -5.775,4.978 -8.492,7.624 -0.075,-0.055 -0.14,-0.124 -0.224,-0.167 -1.407,-0.729 -2.983,0.577 -2.778,2.051 0.043,0.302 0.139,0.599 0.27,0.881 -0.977,1.031 -1.925,2.078 -2.839,3.147 -0.821,-1.83 -1.719,-3.627 -2.749,-5.368 -0.012,-0.02 -0.027,-0.03 -0.041,-0.046 3.621,-3.185 7.602,-5.879 11.122,-9.224 3.981,-3.78 7.71,-7.846 11.091,-12.17 2.784,-3.558 6.123,-7.647 7.216,-12.103 0.461,-1.875 0.018,-3.964 -0.245,-5.839"
         id="path1077"
         inkscape:connector-curvature="0"
         style="fill:#88a73e" />
      <path
         d="m 331.535,227.873 c -1.415,-1.456 -2.943,-3.172 -4.682,-4.511 1.543,-1.317 3.074,-2.642 4.563,-3.992 0.959,-0.87 1.906,-1.758 2.84,-2.662 0.402,1.804 0.613,3.62 0.801,5.067 0.36,2.764 1.02,5.414 1.581,8.141 0.261,1.276 0.45,2.562 0.586,3.855 -1.409,-2.287 -3.839,-3.996 -5.689,-5.898"
         id="path1079"
         inkscape:connector-curvature="0"
         style="fill:#88a73e" />
      <path
         d="m 337.349,235.9 c -0.002,0.278 0.019,0.557 0.005,0.837 -0.105,2.205 -2.112,-0.696 -2.68,-1.299 -2.154,-2.292 -4.596,-4.244 -6.965,-6.305 -1.233,-1.074 -2.343,-2.354 -3.558,-3.489 0.651,-0.542 1.294,-1.088 1.936,-1.633 1.769,1.328 3.302,3.124 4.708,4.6 2.254,2.365 5.322,4.174 6.554,7.289"
         id="path1081"
         inkscape:connector-curvature="0"
         style="fill:#465f25" />
      <path
         d="m 334.542,211.672 c -0.666,-1.207 -1.499,-2.337 -2.641,-3.107 -1.6,-1.079 -3.979,-1.427 -3.574,-3.225 3.656,-0.533 7.203,-1.527 10.906,-1.925 0.763,-0.082 1.53,-0.122 2.298,-0.15 -2.057,2.968 -4.44,5.758 -6.989,8.407"
         id="path1083"
         inkscape:connector-curvature="0"
         style="fill:#88a73e" />
      <path
         d="m 317.174,222.757 c 1.574,-0.582 3.264,-0.815 5.047,-0.532 0.239,0.037 0.466,0.117 0.697,0.181 -0.487,0.418 -0.972,0.834 -1.452,1.248 -1.522,-0.804 -2.955,-1.056 -4.292,-0.897"
         id="path1085"
         inkscape:connector-curvature="0"
         style="fill:#465f25" />
      <path
         d="m 319.558,225.274 c -3.889,3.266 -8.109,6.59 -12.297,10.075 1.282,-3.074 2.846,-5.884 5.238,-8.288 2.413,-2.424 4.803,-2.677 7.059,-1.787"
         id="path1087"
         inkscape:connector-curvature="0"
         style="fill:#88a73e" />
      <path
         d="m 296.836,244.706 c -0.465,0.463 -0.926,0.929 -1.38,1.399 -0.118,-0.571 -0.016,-1.191 0.579,-1.435 0.28,-0.113 0.557,-0.077 0.801,0.036"
         id="path1089"
         inkscape:connector-curvature="0"
         style="fill:#8a735f" />
      <path
         d="m 312.712,217.063 c -1.675,2.6 -3.567,5.052 -5.5,7.461 -3.093,3.852 -6.492,7.486 -9.92,11.041 -3.015,-4.351 -5.683,-8.997 -8.288,-13.599 -1.116,-1.969 -1.897,-5.653 -3.519,-7.788 4.356,0.784 8.697,1.174 12.911,-0.953 3.802,-1.919 7.054,-5.423 10.106,-8.305 2.499,-2.357 4.935,-4.784 7.331,-7.25 0.108,3.888 0.541,7.75 0.555,11.628 0.01,2.759 -2.248,5.549 -3.676,7.765"
         id="path1091"
         inkscape:connector-curvature="0"
         style="fill:#f4c4b4" />
      <path
         d="m 317.62,137.207 c -1.366,-3.433 -1.621,-6.641 -1.035,-10.495 0.46,-3.039 0.772,-6.039 0.54,-9.091 0.014,-0.376 0.036,-0.748 0.002,-1.149 -0.008,-0.079 -0.067,-0.131 -0.133,-0.16 -0.09,-0.163 -0.365,-0.156 -0.348,0.065 0.012,0.15 0.008,0.302 0.016,0.453 -0.346,1.877 -1.09,3.612 -2.061,5.262 -0.837,1.424 -1.931,2.668 -2.835,4.035 2.228,-5.517 2.955,-11.191 2.239,-17.143 -0.425,-3.516 -1.372,-8.041 -3.607,-11.236 3.704,2.435 6.819,5.154 9.42,7.887 0.29,0.317 0.593,0.617 0.875,0.941 0.069,0.075 0.137,0.149 0.204,0.224 1.781,2.05 3.423,4.254 4.943,6.58 -1.979,0.908 -3.153,3.16 -4.28,4.927 -2.128,3.346 -3.112,7.042 -3.634,10.941 -0.365,2.721 -0.45,5.365 -0.306,7.959"
         id="path1093"
         inkscape:connector-curvature="0"
         style="fill:#735f51" />
      <path
         d="m 319.073,132.094 c 0.293,-3.765 0.989,-7.511 2.583,-10.947 1.012,-2.181 2.715,-5.373 4.732,-6.885 0.475,0.755 0.949,1.51 1.396,2.291 -6.934,9.838 -6.809,22.309 -2.142,33.16 1.084,2.526 2.721,4.886 4.681,6.837 -2.722,-2.891 -4.471,-6.958 -5.706,-10.459 -3.436,-9.724 -2.51,-20.667 3.377,-29.148 0.575,1.021 1.134,2.056 1.66,3.119 l -0.025,-0.014 c -2.653,4.685 -3.39,11.5 -1.97,18.229 1.524,7.22 5.25,13.363 9.964,16.432 2.643,1.721 5.424,2.339 8.043,1.785 0.007,-0.002 0.09,-0.025 0.201,-0.054 -0.002,0.029 -0.018,0.051 -0.018,0.081 -0.005,1.016 0.034,2.028 0.089,3.039 -3.927,1.932 -8.458,1.639 -12.408,-0.472 -0.523,-0.28 -1.013,-0.614 -1.485,-0.97 3.841,3.01 8.631,4.327 13.357,2.129 -2.995,2.03 -6.679,2.826 -10.824,1.899 -5.661,-1.266 -9.424,-6.257 -11.91,-11.132 -3.02,-5.92 -4.109,-12.326 -3.595,-18.92"
         id="path1095"
         inkscape:connector-curvature="0"
         style="fill:#395960" />
      <path
         d="m 347.84,158.161 c -0.105,-0.628 -0.205,-1.252 -0.289,-1.87 -0.015,-0.111 -0.054,-0.203 -0.101,-0.284 0.921,-0.211 1.805,-0.564 2.637,-1.058 0.07,-0.029 0.141,-0.063 0.21,-0.095 -0.715,1.229 -1.537,2.338 -2.457,3.307"
         id="path1097"
         inkscape:connector-curvature="0"
         style="fill:#395960" />
      <path
         d="m 355.233,132.356 c 1.463,6.924 0.601,13.724 -2.307,18.186 -0.946,1.453 -2.077,2.579 -3.339,3.351 -0.905,0.287 -1.913,0.226 -3.032,-0.433 -3.45,-1.599 -5.735,-5.758 -7.254,-10.017 -2.897,-8.681 -3.372,-17.702 -0.62,-23.044 2.322,-4.237 5.831,-3.894 7.352,-3.549 4.336,2.964 7.768,8.719 9.2,15.506"
         id="path1099"
         inkscape:connector-curvature="0"
         style="fill:#2c332f" />
      <path
         d="m 345.466,116.472 c -1.779,-0.467 -4.998,-0.526 -7.572,3.479 -3.266,5.671 -3.022,14.97 -0.023,24 1.608,4.423 4.001,8.887 8.154,10.726 0.253,0.131 0.5,0.231 0.744,0.318 -0.455,0.124 -1.374,0.376 -1.374,0.376 -2.282,0.481 -4.762,-0.08 -7.142,-1.63 -4.463,-2.906 -8,-8.776 -9.463,-15.703 -1.29,-6.115 -0.72,-12.254 1.477,-16.667 0.299,0.64 0.615,1.268 0.898,1.923 0.111,0.252 0.419,0.302 0.654,0.265 0.461,-0.071 0.922,-0.143 1.384,-0.213 0.111,0.019 0.223,-0.006 0.331,-0.081 0.128,-0.053 0.211,-0.142 0.25,-0.252 1.545,-1.874 3.09,-3.749 4.635,-5.624 0.495,-0.599 1.066,-0.999 0.848,-1.791 -0.059,-0.216 -0.142,-0.425 -0.205,-0.64 2.08,-0.31 4.276,0.207 6.404,1.514"
         id="path1101"
         inkscape:connector-curvature="0"
         style="fill:#606560" />
      <path
         d="m 294.309,77.887 c 4.382,-1.137 8.763,-1.942 13.294,-1.763 0.961,2.477 1.907,4.96 3.02,7.374 0.088,0.192 0.244,0.269 0.409,0.277 0.163,0.101 0.374,0.135 0.63,0.044 3.91,-1.395 7.578,-3.613 11.238,-5.586 3.768,2.908 7.85,6.091 10.41,10.131 4.397,6.937 6.19,15.034 6.189,23.142 -0.604,-0.323 -1.271,-0.532 -1.951,-0.607 -0.632,-1.417 -1.338,-2.802 -2.079,-4.146 -0.716,-1.299 -1.5,-2.541 -2.321,-3.751 -0.435,-0.68 -0.889,-1.368 -1.39,-2.077 -5.811,-8.57 -18.055,-18.086 -33.91,-20.979 -2.506,-0.452 -4.935,-0.725 -7.299,-0.876 1.263,-0.425 2.518,-0.86 3.76,-1.183"
         id="path1103"
         inkscape:connector-curvature="0"
         style="fill:#735f51" />
      <path
         d="m 216.091,152.674 c 0.324,-5.607 0.414,-11.134 0.884,-16.67 2.893,-3.132 6.969,-7.13 12.06,-10.961 10.366,-8.182 19.73,-13.621 19.572,-13.878 0.009,-0.034 -9.976,4.379 -20.517,12.691 -4.643,3.494 -8.31,7.275 -10.965,10.463 0.224,-2.235 0.521,-4.473 0.936,-6.72 0.562,-3.031 1.318,-6.001 2.273,-8.896 3.091,-2.2 6.875,-4.633 11.179,-6.89 11.906,-6.318 22.328,-10.023 22.212,-10.314 0.018,-0.021 -10.818,2.557 -22.934,8.98 -3.727,1.956 -7.004,4.124 -9.752,6.2 1.301,-3.524 2.937,-6.917 4.939,-10.15 0.194,0.017 0.398,-0.009 0.612,-0.144 11.548,-7.262 24.796,-13.808 38.547,-16.733 8.361,-1.265 20.994,-1.872 34.63,2.728 2.048,0.754 3.964,1.613 5.776,2.541 -36.349,5.51 -70.892,25.438 -89.452,57.753"
         id="path1105"
         inkscape:connector-curvature="0"
         style="fill:#735f51" />
      <path
         d="m 235.155,163.79 c 0.268,1.204 0.534,2.402 0.836,3.598 0.418,1.644 1.027,3.164 1.822,4.653 0.227,0.427 0.964,0.245 0.93,-0.252 -0.12,-1.8 0.801,0.09 1.516,1.403 -1.74,1.367 -3.252,2.626 -4.508,4.478 -1.486,-4.281 -2.706,-8.522 -3.639,-12.986 -0.601,-2.876 -1.019,-5.715 -0.949,-8.658 0.015,-0.633 0.161,-1.23 0.324,-1.821 0.504,3.236 1.269,6.467 2.604,9.299 0.194,0.414 0.74,0.158 0.776,-0.211 -0.024,-1.106 0.071,-0.94 0.288,0.497"
         id="path1107"
         inkscape:connector-curvature="0"
         style="fill:#395960" />
      <path
         d="m 238.525,169.652 c -0.191,-0.262 -0.543,-0.167 -0.597,0.141 -1.119,-2.78 -1.789,-5.689 -2.707,-8.558 -0.101,-0.313 -0.525,-0.307 -0.629,0 -0.064,0.165 -0.111,0.334 -0.166,0.501 -1.372,-4.838 -2.02,-10.025 -2.524,-14.979 -0.452,-4.434 0.047,-8.567 0.215,-12.923 0.703,-0.693 1.389,-1.408 2.109,-2.083 -1.126,6.714 -1.095,13.17 0.408,19.919 1.459,6.555 3.168,14.724 7.115,20.339 -0.25,0.2 -0.499,0.404 -0.74,0.594 -0.874,-0.942 -1.71,-1.894 -2.484,-2.951"
         id="path1109"
         inkscape:connector-curvature="0"
         style="fill:#4c4139" />
      <path
         d="m 230.771,148.252 c 0.09,0.915 0.189,1.855 0.297,2.802 -0.976,0.89 -1.494,2.221 -1.737,3.693 -1.472,-4.836 -2.403,-10.262 -2.632,-15.226 1.361,-1.521 2.751,-3.008 4.18,-4.455 -0.024,0.097 -0.041,0.194 -0.065,0.29 -0.242,1.036 -0.256,1.624 -0.347,2.724 -0.278,3.384 -0.019,6.803 0.304,10.172"
         id="path1111"
         inkscape:connector-curvature="0"
         style="fill:#2c332f" />
      <path
         d="m 224.978,141.661 c -0.005,-0.065 -0.029,-0.115 -0.047,-0.17 0.423,-0.494 0.869,-0.961 1.298,-1.446 0.278,5.168 1.436,10.586 2.998,15.512 -0.025,0.272 -0.046,0.541 -0.059,0.815 -0.424,0.248 -0.81,0.512 -1.151,0.792 -1.594,-5.067 -2.67,-10.163 -3.039,-15.503"
         id="path1113"
         inkscape:connector-curvature="0"
         style="fill:#606560" />
      <path
         d="m 234.578,179.726 c -0.495,1.078 -0.825,2.195 -1.035,3.332 -2.692,-3.75 -4.155,-7.727 -5.308,-12.253 -0.671,-2.634 -0.915,-5.158 -0.99,-7.864 -0.062,-2.241 0.841,-3.446 1.922,-4.947 0.053,1.267 0.197,2.47 0.346,3.398 1.011,6.278 2.633,12.168 5.264,17.954 -0.065,0.131 -0.136,0.243 -0.199,0.38"
         id="path1115"
         inkscape:connector-curvature="0"
         style="fill:#606560" />
      <path
         d="m 238.317,194.506 c -2.776,-3.788 -3.285,-8.321 -2.019,-12.744 0.891,-3.117 3.113,-5.175 5.121,-7.468 0.238,-0.068 0.426,-0.275 0.441,-0.517 0.428,-0.508 0.844,-1.026 1.226,-1.579 0.254,-0.369 -0.061,-0.702 -0.412,-0.734 -3.6,-5.28 -4.949,-12.715 -6.174,-18.856 -1.517,-7.605 -1.085,-14.898 -0.308,-22.538 0.002,-0.024 -0.008,-0.043 -0.008,-0.066 19.741,-17.771 44.792,-29.077 71.364,-33.473 2.857,3.296 4.073,8.53 5.008,12.648 1.328,5.847 0.515,11.962 -1.36,17.582 -0.028,0.087 0.034,0.155 0.108,0.179 0.008,0.006 0.014,0 0.023,0.002 0.058,0.011 0.116,0 0.144,-0.064 0.005,-0.011 0.007,-0.022 0.012,-0.033 2.062,-1.927 4.03,-3.872 5.015,-6.295 -0.781,6.292 -3.392,12.701 1.201,18.12 0.482,5.159 2.01,10.1 4.663,14.924 2.926,5.317 7.942,9.78 14.172,10.404 0.297,0.03 0.586,0.037 0.876,0.05 -0.074,0.073 -0.117,0.174 -0.102,0.307 0.599,5.357 -2.127,8.98 -5.351,12.758 -3.232,3.785 -6.573,7.476 -9.948,11.132 -6.877,7.447 -13.902,15.261 -22.018,21.394 -4.968,3.756 -10.738,3.308 -16.585,1.982 -7.658,-1.738 -15.43,-1.926 -23.03,-4.194 -8.018,-2.393 -16.946,-5.944 -22.059,-12.921"
         id="path1117"
         inkscape:connector-curvature="0"
         style="fill:#f4c4b4" />
      <path
         d="m 226.667,255.689 c -1.212,-1.587 -2.41,-3.182 -3.71,-4.699 -0.041,-0.048 -0.115,-0.063 -0.172,-0.1 0.427,-2.141 0.414,-4.413 -0.085,-6.524 0.085,-0.043 0.166,-0.104 0.235,-0.192 0.834,-1.056 1.651,-2.222 2.327,-3.458 0.591,0.513 1.191,1.012 1.773,1.534 0.368,0.33 0.723,0.691 1.024,1.083 0.146,0.189 0.254,0.388 0.385,0.559 0.931,4.116 0.478,8.989 -0.51,13.474 -0.423,-0.559 -0.843,-1.12 -1.267,-1.677"
         id="path1119"
         inkscape:connector-curvature="0"
         style="fill:#f4c4b4" />
      <path
         d="m 227.547,259.019 c -0.371,1.461 -0.775,2.871 -1.201,4.158 -0.502,1.519 -4.652,11.417 -7.555,7.593 -2.036,-2.682 -1.704,-8.142 -1.746,-11.558 1.36,-0.734 2.582,-1.734 3.56,-3.098 0.642,-0.896 1.162,-1.914 1.559,-3 1.343,1.656 2.676,3.325 4.196,4.826 0.12,0.12 0.631,0.634 1.187,1.079"
         id="path1121"
         inkscape:connector-curvature="0"
         style="fill:#465f25" />
      <path
         d="m 209.954,222.483 c 2.959,1.584 4.597,-3.682 5.005,-6.943 0.697,-5.574 1.763,-10.264 6.666,-13.702 4.784,-3.353 12.834,-2.847 13.582,4.129 0.598,5.559 -9.564,8.795 -12.659,12.366 -1.588,1.833 -2.358,4.373 -1.856,6.77 0.461,2.198 1.56,3.928 2.715,5.829 2.401,3.951 0.943,7.968 -1.303,11.528 -0.397,-0.983 -0.915,-1.905 -1.562,-2.724 -3.127,-3.955 -8.14,-4.174 -11.687,-1.457 0.386,-1.934 0.108,-4.161 -0.561,-5.744 0.006,-0.006 0.014,-0.007 0.019,-0.012 3.479,-3.088 3.451,-6.839 1.641,-10.04"
         id="path1123"
         inkscape:connector-curvature="0"
         style="fill:#f4c4b4" />
      <path
         d="m 207.751,231.545 c -2.256,-3.688 -6.39,-5.591 -10.629,-5.845 -2.903,-0.175 -7.321,0.8 -10.593,2.75 -0.868,-6.033 4.858,-9.333 10.291,-10.435 7.863,-1.592 14.781,6.356 10.931,13.53"
         id="path1125"
         inkscape:connector-curvature="0"
         style="fill:#f4c4b4" />
      <path
         d="m 178.397,220.721 c -3.251,-0.139 -8.65,1.325 -10.224,-2.69 -2.048,-5.228 2.376,-9.953 7.02,-11.272 9.514,-2.703 16.87,3.861 24.222,8.735 -0.456,-0.047 -0.911,-0.069 -1.359,-0.053 -3.839,0.134 -9.855,2.689 -12.569,6.388 -2.352,-0.723 -4.638,-1.003 -7.09,-1.108"
         id="path1127"
         inkscape:connector-curvature="0"
         style="fill:#f4c4b4" />
      <path
         d="m 186.63,231.182 c 2.102,-2 5.477,-2.761 8.262,-3.09 2.784,-0.329 5.228,0.165 7.758,1.352 4.098,1.921 6.545,8.125 3.294,11.906 -0.168,-0.473 -0.358,-0.937 -0.578,-1.379 -2.34,-4.69 -10.377,-8.071 -15.372,-7.142 -2.37,0.442 -4.214,1.716 -5.51,3.424 0.01,-1.927 0.474,-3.478 2.146,-5.071"
         id="path1129"
         inkscape:connector-curvature="0"
         style="fill:#f4c4b4" />
      <path
         d="m 201.285,257.105 c -4.958,-1.541 -9.946,-3.407 -13.705,-7.114 -3.85,-3.799 -4.077,-9.768 -0.241,-13.639 3.596,-3.629 11.899,0.013 14.895,2.99 3.078,3.056 3.501,8.213 -0.485,10.604 -4.43,2.659 -11.176,-1.942 -14.015,-5.224 -0.174,-0.2 -0.529,0.07 -0.368,0.284 3.304,4.426 9.353,8.425 14.981,6.358 4.139,-1.519 4.859,-5.699 3.799,-9.374 0.049,-0.001 0.095,0.009 0.148,-0.014 1.21,-0.534 1.963,-1.628 2.366,-2.933 4.365,-3.003 10.35,0.04 11.895,5.009 1.33,4.28 0.647,9.053 -2.671,12.187 -4.362,4.122 -11.593,2.422 -16.599,0.866"
         id="path1131"
         inkscape:connector-curvature="0"
         style="fill:#f4c4b4" />
      <path
         d="m 267.463,277.549 c -3.281,5.571 -10.138,19.269 -18.443,15.646 -3.876,-1.69 -7.466,-4.532 -11.138,-6.633 -3.859,-2.21 -7.741,-4.362 -11.683,-6.418 -4.068,-2.121 -8.896,-4.438 -10.688,-8.928 -1.333,-3.338 -1.069,-7.36 -1.194,-10.93 0.424,-0.112 0.839,-0.244 1.246,-0.397 -0.07,5.687 0.95,18.54 8.562,11.704 3.584,-3.22 5.039,-9.433 5.837,-13.934 0.701,-3.961 1.24,-8.355 0.437,-12.389 -0.144,-2.534 -0.883,-4.997 -3.192,-5.981 -0.092,-0.038 -0.208,0.075 -0.116,0.151 0.685,0.572 1.144,1.313 1.453,2.152 -0.101,-0.077 -0.196,-0.147 -0.279,-0.212 -0.798,-0.622 -1.632,-1.192 -2.441,-1.798 0.131,-0.288 0.253,-0.581 0.363,-0.876 2.398,-0.935 5.548,4.328 6.352,5.868 2.363,4.528 4.741,8.908 7.654,13.121 2.536,3.668 5.458,6.719 8.661,9.803 4.029,3.879 6.308,8.358 7.519,13.808 0.054,0.241 0.393,0.132 0.361,-0.099 -0.705,-5.138 -1.844,-10.495 -5.303,-14.506 -0.903,-1.047 -1.913,-1.993 -2.929,-2.936 5.849,-9.009 11.066,-18.432 16.621,-27.639 2.651,2.627 5.146,5.394 7.383,8.433 0.239,3.542 1.282,6.798 3.584,9.073 0.362,0.36 1.014,0.314 1.302,-0.121 0.801,2.207 1.395,4.48 1.823,6.796 -4.465,5.284 -8.315,11.41 -11.752,17.242"
         id="path1133"
         inkscape:connector-curvature="0"
         style="fill:#88a73e" />
      <path
         d="m 278.724,250.893 c 0.408,-0.842 0.809,-1.689 1.202,-2.54 0.598,3.005 1.245,6.004 1.934,8.998 -0.295,0.308 -0.582,0.63 -0.87,0.945 -0.532,-2.53 -1.29,-4.998 -2.266,-7.403"
         id="path1135"
         inkscape:connector-curvature="0"
         style="fill:#88a73e" />
      <path
         d="m 306.537,543.52 c 0.581,-0.768 0.917,-1.576 1.067,-2.403 2.684,8.118 -19.829,10.742 -24.431,11.282 -6.462,0.76 -13.057,1.013 -19.544,0.431 -2.57,-0.232 -5.171,-0.644 -7.607,-1.518 -1.955,-0.701 -2.881,-1.874 -3.408,-3.387 4.387,3.074 11.113,3.262 16.167,3.628 7.694,0.556 15.012,-0.304 22.483,-2.12 4.412,-1.071 12.252,-1.922 15.273,-5.913"
         id="path1137"
         inkscape:connector-curvature="0"
         style="fill:#b4b5b4" />
      <path
         d="m 271.506,538.569 c 1.424,3.397 1.775,6.922 1.979,10.541 -1.095,-0.003 -2.192,-0.02 -3.297,-0.062 -3.164,-0.122 -6.312,-0.494 -9.429,-1.029 -2.316,-0.397 -5.094,-0.754 -7.195,-1.948 2.322,-5.812 6.505,-11.22 11.625,-15.254 3.2,0.905 5.145,4.955 6.317,7.752"
         id="path1139"
         inkscape:connector-curvature="0"
         style="fill:#b4b5b4" />
      <path
         d="m 265.695,530.421 c 5.363,-4.081 11.697,-6.641 17.994,-6.607 8.523,2.786 14.401,13.724 11.548,22.157 -2.539,0.623 -5.126,1.087 -7.397,1.618 -4.553,1.067 -9.075,1.491 -13.674,1.521 0.02,-4.565 -0.825,-8.876 -2.955,-12.981 -1.188,-2.286 -2.984,-4.886 -5.516,-5.708"
         id="path1141"
         inkscape:connector-curvature="0"
         style="fill:#b4b5b4" />
      <path
         d="m 299.019,530.225 c 0.082,0.183 0.219,0.28 0.371,0.314 2.851,2.825 8.248,9.576 3.393,12.577 -1.88,1.162 -4.151,1.951 -6.504,2.58 3.042,-7.93 -2.66,-18.244 -10.494,-21.77 4.625,0.461 9.165,2.401 13.216,6.257 0.006,0.014 0.012,0.028 0.018,0.042"
         id="path1143"
         inkscape:connector-curvature="0"
         style="fill:#b4b5b4" />
      <path
         d="m 285.931,423.991 c -6.104,21.91 -10.731,45.589 -8.495,68.392 0.028,0.289 0.473,0.297 0.457,0 -1.043,-20.306 3.029,-40.751 8.268,-60.38 -0.192,2.162 -0.35,4.301 -0.528,6.369 -0.956,11.1 -1.179,22.269 0.094,33.353 2.064,17.999 4.627,36.432 11.207,53.436 -6.135,-3.746 -13.828,-4.69 -20.994,-3 -10.81,2.548 -19.852,12.124 -22.9,22.661 -1.889,-10.375 -4.084,-20.55 -4.988,-31.097 -0.929,-10.835 -0.884,-21.737 -0.415,-32.594 0.46,-10.665 1.136,-21.311 2.585,-31.893 0.332,-2.422 0.702,-4.838 1.09,-7.251 0.244,-1.507 1.156,-3.86 0.702,-5.423 -0.767,-2.624 -4.634,-6.626 0.24,-6.945 -0.022,0.339 -0.048,0.676 -0.055,1.019 0,0.032 0.013,0.053 0.015,0.084 -0.052,0.005 -0.104,0.01 -0.155,0.014 -0.572,0.027 -1.149,0.007 -1.722,0.036 -0.47,0.024 -0.462,0.685 0,0.723 0.618,0.049 1.205,0.182 1.8,0.359 0.554,0.164 1.026,0.356 1.594,0.172 0.375,-0.121 0.5,-0.452 0.44,-0.757 0.131,-0.166 0.231,-0.366 0.243,-0.631 0.201,-4.492 1.663,-8.657 2.606,-13.013 1.048,-4.85 2.151,-9.688 3.285,-14.518 2.145,-9.149 4.727,-18.156 7.491,-27.134 2.77,-8.99 5.55,-17.958 8.714,-26.821 10.697,-1.552 21.099,6.056 28.849,12.724 -0.61,0.071 -1.22,0.144 -1.849,0.255 -0.069,0.011 -0.068,0.125 0,0.138 0.775,0.155 1.55,0.284 2.324,0.424 0.08,0.119 0.236,0.146 0.344,0.064 1.199,0.213 2.4,0.421 3.6,0.614 -5.932,8.541 -9.042,18.822 -12.875,28.387 -4.227,10.541 -7.924,21.292 -10.972,32.233"
         id="path1145"
         inkscape:connector-curvature="0"
         style="fill:#517f8a" />
      <path
         d="m 316.629,446.53 c 0.015,0.069 0.033,0.139 0.05,0.208 -0.457,0.326 -0.904,0.66 -1.332,1.004 -0.806,-3.65 -1.545,-7.318 -2.264,-11.016 0.376,-0.12 0.752,-0.24 1.129,-0.365 1.15,3.275 1.66,6.79 2.417,10.169"
         id="path1147"
         inkscape:connector-curvature="0"
         style="fill:#606560" />
      <path
         d="m 314.72,436.193 c 1.379,-0.455 2.764,-0.897 4.162,-1.266 0.688,3.147 1.868,6.181 3.434,9.012 -1.694,0.442 -3.303,1.252 -4.789,2.219 -0.74,-3.418 -1.606,-6.782 -2.807,-9.965"
         id="path1149"
         inkscape:connector-curvature="0"
         style="fill:#b4b5b4" />
      <path
         d="m 316.808,447.286 c 1.006,4.422 2.121,8.812 3.25,13.204 -0.422,0.217 -0.842,0.432 -1.263,0.648 -1.294,-4.262 -2.374,-8.547 -3.334,-12.86 0.446,-0.355 0.896,-0.682 1.347,-0.992"
         id="path1151"
         inkscape:connector-curvature="0"
         style="fill:#606560" />
      <path
         d="m 317.65,446.73 c 1.582,-0.972 3.233,-1.678 5.027,-2.167 1.81,3.127 4.077,5.996 6.649,8.466 0.791,0.76 1.659,1.457 2.559,2.128 -3.917,1.323 -7.685,3.209 -11.372,5.098 -1.111,-4.374 -1.9,-8.984 -2.863,-13.525"
         id="path1153"
         inkscape:connector-curvature="0"
         style="fill:#b4b5b4" />
      <path
         d="m 325.375,443.922 c 0.064,-0.133 -0.021,-0.346 -0.199,-0.348 h -0.013 c -3.138,-5.444 -4.819,-11.811 -4.505,-18.177 0.25,-5.048 3.062,-9.313 7.135,-12.085 0.767,2.633 1.508,5.275 2.173,7.941 1.547,6.191 1.895,12.755 2.352,19.106 0.356,4.915 0.868,10.836 3.939,14.676 -4.445,-2.661 -8.179,-6.548 -10.882,-11.113"
         id="path1155"
         inkscape:connector-curvature="0"
         style="fill:#395960" />
      <path
         d="m 318.231,429.945 c 0.059,1.395 0.231,2.774 0.489,4.137 -2.191,0.379 -4.36,1.014 -6.472,1.676 -0.221,0.07 -0.337,0.228 -0.383,0.403 -0.034,0.096 -0.054,0.201 -0.03,0.323 1.735,8.636 3.554,17.1 6.155,25.519 0.056,0.181 0.181,0.279 0.322,0.323 0.024,0.01 0.05,0.013 0.077,0.017 0.021,0.004 0.04,0.01 0.06,0.01 0.091,0.009 0.185,0.003 0.285,-0.049 4.609,-2.357 9.274,-4.736 14.194,-6.387 1.934,1.308 4.066,2.402 6.309,3.266 -4.516,0.698 -8.674,2.289 -12.497,5.033 -3.512,2.52 -7.247,6.075 -9.313,10.046 -1.065,-1.805 -2.037,-3.653 -2.897,-5.492 -6.036,-12.889 -7.574,-27.96 -4.772,-41.856 1.429,-7.085 6.043,-23.854 16.028,-20.304 0.525,1.705 1.04,3.412 1.548,5.122 -7.29,3.097 -9.422,10.622 -9.103,18.213"
         id="path1157"
         inkscape:connector-curvature="0"
         style="fill:#414241" />
      <path
         d="m 334.202,479.885 c -0.595,-4.117 -2.464,-10.256 -5.718,-13.194 3.995,-2.591 8.551,-4.399 13.203,-5.343 3.429,1.354 7.061,5.855 9.146,8.665 2.66,3.587 4.109,8.233 4.229,12.682 -2.097,5.223 -7.236,7.683 -12.975,7.972 -3.027,0.153 -5.801,-0.326 -8.364,-1.245 1.232,-2.987 0.937,-6.367 0.479,-9.537"
         id="path1159"
         inkscape:connector-curvature="0"
         style="fill:#b4b5b4" />
      <path
         d="m 333.228,489.249 c -6.008,-2.316 -10.757,-7.185 -14.42,-12.766 2.362,-3.906 5.666,-7.168 9.516,-9.692 3.613,6.662 7.515,14.821 4.904,22.458"
         id="path1161"
         inkscape:connector-curvature="0"
         style="fill:#b4b5b4" />
      <path
         d="m 318.433,475.897 c -0.264,-0.414 -0.527,-0.824 -0.779,-1.244 4.349,-8.293 13.567,-13.613 22.607,-15.088 0.523,0.183 1.052,0.35 1.585,0.506 -9.543,1.716 -18.927,7.513 -23.413,15.826"
         id="path1163"
         inkscape:connector-curvature="0"
         style="fill:#b4b5b4" />
      <path
         d="m 350.055,492.673 c -4.946,2.875 -11.063,2.705 -16.487,1.723 -13.23,-2.396 -20.742,-13.598 -25.399,-25.258 -4.718,-11.818 -5.928,-25.651 -3.705,-38.12 1.007,-5.651 2.631,-11.355 4.999,-16.586 1.648,-3.642 5.646,-10.218 10.272,-10.084 -5.615,2.329 -9.329,11.832 -10.93,17.036 -5.009,16.294 -2.868,34.387 4.304,49.68 5.824,12.416 17.239,24.416 32.265,21.75 5.5,-0.977 9.124,-3.965 11.169,-7.899 -1.186,3.189 -3.386,5.952 -6.488,7.758"
         id="path1165"
         inkscape:connector-curvature="0"
         style="fill:#b4b5b4" />
      <path
         d="m 355.829,479.999 c -0.025,0.147 -0.064,0.281 -0.095,0.426 -0.355,-3.863 -2.157,-7.525 -4.206,-10.819 -1.343,-2.158 -3.384,-3.965 -5.272,-5.623 -1.144,-1.004 -2.283,-2.243 -3.696,-2.792 0.818,-0.146 1.635,-0.264 2.455,-0.358 2.303,0.43 4.644,0.599 6.949,0.487 3.231,4.968 4.848,13.034 3.865,18.679"
         id="path1167"
         inkscape:connector-curvature="0"
         style="fill:#b4b5b4" />
      <path
         d="m 355.2,458.254 c -6.147,1.294 -11.931,0.35 -16.946,-2.12 -6.292,-5.527 -4.695,-18.263 -5.164,-25.703 -0.821,-13.039 -5.388,-25.383 -8.869,-37.87 -1.756,-6.3 -3.288,-12.66 -5.214,-18.912 -0.359,-1.164 -1.193,-4.998 -2.49,-7.768 0.36,-0.464 0.775,-0.883 1.225,-1.272 1.15,0.18 2.302,0.361 3.453,0.558 0.34,0.058 0.625,-0.449 0.254,-0.605 -0.805,-0.342 -1.6,-0.651 -2.389,-0.935 2.171,-1.396 4.838,-2.263 7.09,-3.013 6.179,-2.053 12.317,-2.79 18.672,-1.027 0.302,0.084 0.424,-0.369 0.13,-0.464 -6.295,-2.033 -12.808,-1.246 -18.949,0.953 -2.425,0.868 -5.286,1.789 -7.535,3.354 -0.183,-0.064 -0.363,-0.123 -0.545,-0.183 0.258,-0.449 0.513,-0.903 0.756,-1.363 8.066,-5.049 18.813,-4.849 27.941,-3.72 0.378,0.047 0.37,-0.54 0,-0.59 -8.893,-1.184 -19.778,-1.376 -27.641,3.717 2.212,-4.374 3.708,-9.196 4.423,-14.023 1.549,0.374 3.117,0.68 4.729,0.864 3.902,0.444 8.012,0.181 11.994,-0.733 1.473,2.219 2.905,4.818 5.9,4.943 4.793,0.199 9.137,-1.244 13.376,-3.359 0.316,-0.159 0.093,-0.693 -0.241,-0.574 -3.101,1.111 -6.173,2.042 -9.452,2.455 -4.178,0.525 -5.98,-0.948 -8.23,-3.805 5.932,-1.599 11.485,-4.659 15.499,-9.039 1.111,-1.213 2.122,-2.575 3.089,-3.978 -0.767,11.566 0.641,23.571 1.618,35.016 1.226,14.352 2.724,28.703 4.762,42.967 2.131,14.911 9.43,41.882 -11.246,46.229"
         id="path1169"
         inkscape:connector-curvature="0"
         style="fill:#517f8a" />
      <path
         d="m 241.023,146.42 c -0.587,-4.789 0.336,-9.229 3.069,-13.35 3.202,-4.828 8.395,-6.482 13.71,-7.77 -0.405,2.132 -0.183,4.525 0.5,6.897 -6.781,0.294 -15.438,7.776 -17.279,14.223"
         id="path1171"
         inkscape:connector-curvature="0"
         style="fill:#4c4139" />
      <path
         d="m 270.289,118.353 c 5.215,-2.463 10.726,-4.313 16.531,-3.23 5.147,0.959 9.199,4.39 11.907,8.692 -7.284,-5.103 -19.736,-2.649 -27.054,1.391 -0.13,-2.315 -0.822,-4.613 -1.404,-6.848 0.007,-0.003 0.014,-0.002 0.02,-0.005"
         id="path1173"
         inkscape:connector-curvature="0"
         style="fill:#4c4139" />
      <path
         d="m 298.382,251.479 c 0.952,-0.388 1.954,0.841 1.256,1.659 -0.519,0.61 -1.425,0.378 -1.831,-0.187 -0.129,-0.582 -0.033,-1.223 0.575,-1.472"
         id="path1175"
         inkscape:connector-curvature="0"
         style="fill:#8a735f" />
      <path
         d="m 301.768,187.787 c -3.844,7.772 -12.81,10.582 -20.589,6.772 -2.078,-1.018 -3.741,-3.394 -5.219,-5.741 5.776,0.028 12.425,-3.75 16.946,-6.729 4.806,-3.166 9.476,-7.108 12.062,-12.321 0.045,6.242 -0.316,12.187 -3.2,18.019"
         id="path1177"
         inkscape:connector-curvature="0"
         style="fill:#fffffe" />
      <path
         d="m 287.086,173.864 c 10.322,-7.708 16.25,-17.024 19.574,-24.173 -1.405,5.489 -1.846,11.192 -1.735,16.883 0.013,0.676 0.022,1.345 0.032,2.014 -5.591,10.516 -18.278,17.28 -29.812,18.919 -0.571,-0.92 -1.12,-1.794 -1.659,-2.529 -1.23,-1.679 -2.547,-3.059 -4.211,-4.097 5.556,-1.195 11.651,-3.338 17.811,-7.017"
         id="path1179"
         inkscape:connector-curvature="0"
         style="fill:#fffffe" />
      <path
         d="m 297.35,88.41 c -16.879,-4.694 -31.55,-1.488 -40.632,1.748 4.183,-1.165 8.435,-2.018 12.718,-2.499 8.174,-1.243 19.128,-1.396 31.109,2.581 14.553,5.502 22.616,15.628 26.867,23.179 0.672,1.095 1.321,2.206 1.919,3.345 0.845,1.61 1.66,3.237 2.383,4.906 0.394,0.909 0.241,0.733 1.224,0.558 0.046,-0.055 0.091,-0.109 0.136,-0.164 -0.053,-0.207 -0.118,-0.461 -0.192,-0.741 -0.192,-0.535 -0.421,-1.186 -0.637,-1.799 -2.948,-7.309 -12.397,-24.761 -34.895,-31.114"
         id="path1181"
         inkscape:connector-curvature="0"
         style="fill:#606560" />
      <path
         d="m 338.026,115.472 c -0.924,-3.012 -2.258,-5.919 -3.841,-8.641 -0.512,-0.881 -1.053,-1.735 -1.61,-2.574 -0.577,-0.824 -1.195,-1.668 -1.876,-2.537 -6.106,-8.062 -18.009,-16.738 -33.289,-19.541 -23.597,-4.403 -41.645,5.747 -49.074,10.748 1.29,-0.49 2.588,-0.953 3.896,-1.389 8.143,-3.864 25.045,-9.754 45.42,-4.147 14.078,4.113 24.531,13.375 29.525,21.417 3.478,5.242 4.928,9.672 5.585,12.07 0.163,0.454 0.278,0.809 0.37,1.114 1.365,-1.654 2.727,-3.307 4.09,-4.96 0.625,-0.757 0.828,-1.529 0.996,-0.886 -0.059,-0.226 -0.124,-0.45 -0.192,-0.674"
         id="path1183"
         inkscape:connector-curvature="0"
         style="fill:#2c332f" />
    </g>
  </g>
  <g
     id="line"
     transform="translate(-165.516,-31.076)">
    <g
       id="g1210">
      <path
         d="m 355.2,458.254 c -6.147,1.294 -11.931,0.35 -16.946,-2.12 -6.292,-5.527 -4.695,-18.263 -5.164,-25.703 -0.821,-13.039 -5.388,-25.383 -8.869,-37.87 -1.756,-6.3 -3.288,-12.66 -5.214,-18.912 -0.359,-1.164 -1.193,-4.998 -2.49,-7.768 0.36,-0.464 0.775,-0.883 1.225,-1.272 1.15,0.18 2.302,0.361 3.453,0.558 0.34,0.058 0.625,-0.449 0.254,-0.605 -0.805,-0.342 -1.6,-0.651 -2.389,-0.935 2.171,-1.396 4.838,-2.263 7.09,-3.013 6.179,-2.053 12.317,-2.79 18.672,-1.027 0.302,0.084 0.424,-0.369 0.13,-0.464 -6.295,-2.033 -12.808,-1.246 -18.949,0.953 -2.425,0.868 -5.286,1.789 -7.535,3.354 -0.183,-0.064 -0.363,-0.123 -0.545,-0.183 0.258,-0.449 0.513,-0.903 0.756,-1.363 8.066,-5.049 18.813,-4.849 27.941,-3.72 0.378,0.047 0.37,-0.54 0,-0.59 -8.893,-1.184 -19.778,-1.376 -27.641,3.717 2.212,-4.374 3.708,-9.196 4.423,-14.023 1.549,0.374 3.117,0.68 4.729,0.864 3.902,0.444 8.012,0.181 11.994,-0.733 1.473,2.219 2.905,4.818 5.9,4.943 4.793,0.199 9.137,-1.244 13.376,-3.359 0.316,-0.159 0.093,-0.693 -0.241,-0.574 -3.101,1.111 -6.173,2.042 -9.452,2.455 -4.178,0.525 -5.978,-0.948 -8.23,-3.805 5.932,-1.599 11.485,-4.659 15.499,-9.039 1.111,-1.213 2.122,-2.575 3.089,-3.978 -0.767,11.566 0.641,23.571 1.618,35.016 1.226,14.352 2.724,28.703 4.762,42.967 2.131,14.911 9.43,41.882 -11.246,46.229 m 0.629,21.745 c -0.025,0.148 -0.065,0.281 -0.095,0.426 -0.355,-3.862 -2.157,-7.525 -4.206,-10.818 -1.343,-2.159 -3.384,-3.966 -5.272,-5.624 -1.144,-1.003 -2.285,-2.243 -3.696,-2.791 0.818,-0.147 1.635,-0.265 2.454,-0.359 2.304,0.43 4.645,0.599 6.95,0.487 3.231,4.968 4.848,13.035 3.865,18.679 m -5.774,12.675 c -4.946,2.874 -11.062,2.704 -16.487,1.722 -13.229,-2.396 -20.742,-13.598 -25.398,-25.258 -4.719,-11.818 -5.929,-25.651 -3.705,-38.12 1.006,-5.65 2.631,-11.355 4.999,-16.586 1.647,-3.642 5.645,-10.218 10.271,-10.084 -5.614,2.329 -9.329,11.832 -10.93,17.036 -5.008,16.294 -2.868,34.387 4.304,49.68 5.824,12.417 17.239,24.417 32.266,21.75 5.5,-0.977 9.124,-3.965 11.169,-7.899 -1.185,3.189 -3.387,5.953 -6.489,7.759 m -31.622,-16.776 c -0.263,-0.415 -0.527,-0.825 -0.779,-1.245 4.35,-8.293 13.567,-13.613 22.608,-15.087 0.522,0.182 1.051,0.349 1.584,0.505 -9.542,1.716 -18.926,7.513 -23.413,15.827 m 14.795,13.351 c -6.007,-2.316 -10.757,-7.184 -14.42,-12.766 2.363,-3.906 5.666,-7.167 9.516,-9.692 3.613,6.662 7.516,14.821 4.904,22.458 m 0.974,-9.363 c -0.597,-4.117 -2.463,-10.256 -5.718,-13.194 3.995,-2.591 8.551,-4.4 13.203,-5.344 3.429,1.354 7.061,5.855 9.146,8.666 2.66,3.587 4.109,8.232 4.229,12.681 -2.097,5.223 -7.236,7.683 -12.975,7.972 -3.027,0.153 -5.801,-0.326 -8.364,-1.245 1.232,-2.986 0.937,-6.367 0.479,-9.536 m -15.971,-49.941 c 0.059,1.395 0.232,2.775 0.49,4.137 -2.192,0.379 -4.361,1.015 -6.473,1.677 -0.221,0.069 -0.336,0.227 -0.383,0.402 -0.034,0.096 -0.054,0.201 -0.029,0.323 1.734,8.636 3.553,17.1 6.154,25.519 0.057,0.182 0.182,0.279 0.322,0.323 0.025,0.01 0.05,0.013 0.077,0.018 0.021,0.004 0.04,0.01 0.062,0.01 0.089,0.008 0.184,0.003 0.283,-0.049 4.61,-2.358 9.275,-4.737 14.195,-6.388 1.933,1.309 4.065,2.402 6.309,3.267 -4.517,0.697 -8.675,2.289 -12.498,5.033 -3.512,2.519 -7.247,6.074 -9.312,10.046 -1.066,-1.806 -2.038,-3.654 -2.898,-5.492 -6.036,-12.89 -7.574,-27.96 -4.771,-41.857 1.428,-7.085 6.043,-23.853 16.027,-20.304 0.525,1.706 1.04,3.413 1.548,5.123 -7.289,3.096 -9.422,10.622 -9.103,18.212 m 7.144,13.977 c 0.064,-0.133 -0.018,-0.346 -0.199,-0.348 h -0.013 c -3.138,-5.444 -4.819,-11.811 -4.505,-18.177 0.25,-5.048 3.063,-9.313 7.135,-12.085 0.766,2.633 1.508,5.275 2.174,7.941 1.546,6.191 1.894,12.755 2.351,19.106 0.357,4.915 0.869,10.836 3.939,14.676 -4.444,-2.661 -8.178,-6.548 -10.882,-11.113 m -7.725,2.809 c 1.582,-0.972 3.234,-1.678 5.028,-2.167 1.809,3.127 4.076,5.996 6.648,8.465 0.791,0.76 1.659,1.457 2.56,2.128 -3.917,1.324 -7.686,3.209 -11.373,5.099 -1.111,-4.374 -1.9,-8.984 -2.863,-13.525 m -0.842,0.555 c 1.006,4.422 2.121,8.812 3.25,13.204 -0.421,0.217 -0.841,0.432 -1.262,0.648 -1.294,-4.262 -2.374,-8.547 -3.334,-12.86 0.445,-0.355 0.895,-0.682 1.346,-0.992 m -2.087,-11.093 c 1.378,-0.455 2.763,-0.897 4.162,-1.265 0.687,3.146 1.868,6.18 3.433,9.012 -1.693,0.441 -3.303,1.251 -4.789,2.218 -0.739,-3.418 -1.605,-6.782 -2.806,-9.965 m 1.909,10.337 c 0.014,0.07 0.033,0.139 0.049,0.208 -0.458,0.327 -0.903,0.661 -1.332,1.004 -0.805,-3.65 -1.544,-7.318 -2.263,-11.015 0.376,-0.12 0.752,-0.241 1.129,-0.366 1.15,3.276 1.66,6.79 2.417,10.169 m -64.75,-74.471 c 9.758,-14.112 15.725,-29.674 20.31,-46.115 4.359,-15.635 8.877,-31.763 9.843,-48.064 0.581,-0.086 1.098,-0.464 1.276,-1.228 0.522,-2.259 0.849,-4.853 -0.26,-6.987 -0.098,-0.189 -0.277,-0.305 -0.477,-0.384 0.467,-0.98 0.946,-1.953 1.461,-2.898 1.491,5.951 3.063,11.882 4.603,17.795 -1.536,0.415 -3.731,1.133 -3.731,2.643 0,1.747 3.598,3.197 4.763,3.933 0.092,0.059 0.181,0.083 0.268,0.104 -0.442,2.292 -1.738,5.002 -2.089,6.102 -0.993,3.119 -2.16,6.184 -3.208,9.284 -1.846,5.467 -2.99,11.33 -5.056,16.708 -6.276,0.036 -3.726,9.286 0.07,11.737 0.078,0.05 0.158,0.082 0.236,0.099 -1.722,4.591 -3.793,9.101 -5.594,13.601 -3.695,9.235 -6.549,18.814 -9.504,28.305 -2.793,8.975 -5.253,18 -7.357,27.164 -1.111,4.84 -2.094,9.708 -3.07,14.578 -0.222,1.101 -0.474,2.185 -0.725,3.261 l -0.378,1.641 c -0.398,1.764 -0.75,3.531 -0.933,5.35 -1.441,-0.148 -3.948,0.247 -4.368,1.77 -0.321,1.166 0.402,2.388 0.826,3.421 0.964,2.341 1.292,3.465 0.797,6.109 -2.177,11.616 -3.291,23.407 -3.797,35.203 -0.51,11.893 -0.894,23.686 -0.122,35.582 0.722,11.12 2.028,22.847 5.612,33.494 -0.429,6.811 3.191,8.619 9.372,9.649 7.843,1.309 16.096,0.761 23.937,-0.231 3.691,-0.468 33.354,-5.736 23.052,-14.753 -0.014,-0.012 -0.032,-0.016 -0.044,-0.026 -0.474,-2.84 -2.531,-5.703 -4.129,-7.839 -1.189,-1.586 -2.541,-2.972 -4.021,-4.163 -5.132,-18.211 -9.285,-36.269 -11.233,-55.178 -1.044,-10.126 -1.11,-20.16 -0.559,-30.321 0.349,-6.422 1.068,-12.697 1.897,-18.987 l 0.211,-1.639 c 0.117,-0.861 0.234,-1.728 0.354,-2.59 2.432,-7.796 5.196,-15.491 8.18,-23.089 4.138,-10.534 8.115,-21.001 13.717,-30.863 0.095,-0.166 0.149,-0.331 0.168,-0.485 0.326,0.051 0.654,0.101 0.98,0.15 0.09,0.07 0.196,0.123 0.338,0.134 0.003,0 1.31,4.232 1.504,4.861 1.092,3.556 2.116,7.133 3.106,10.718 1.845,6.685 3.493,13.41 5.532,20.037 0.491,1.596 0.987,3.191 1.481,4.785 -0.901,-0.379 -1.769,-0.571 -2.602,-0.599 -3.15,-1.991 -6.818,-0.246 -9.382,2.217 -3.946,3.792 -6.079,9.306 -7.68,14.592 l -0.489,1.642 c -0.163,0.561 -0.326,1.124 -0.479,1.673 -4.399,15.677 -3.14,32.841 3.112,47.862 5.502,13.219 14.745,22.946 29.409,24.697 11.503,1.373 24.832,-6.504 21.559,-19.283 0.339,-5.494 -1.266,-11.436 -4.356,-16.129 4.321,-0.575 8.416,-2.206 11.733,-5.16 4.571,-4.072 6.392,-9.814 6.786,-16.097 0.655,-10.421 -2.613,-22.328 -3.754,-30.567 -2.071,-14.941 -3.542,-29.981 -4.876,-45.004 -0.976,-11.02 -2.202,-22.147 -2.096,-33.262 0.89,-1.499 1.737,-3.015 2.498,-4.503 1.948,-3.808 -0.207,-5.491 -2.902,-7.826 0.087,-5.479 -0.697,-11.102 -0.927,-16.556 -0.292,-6.887 -0.71,-13.746 -1.168,-20.624 -0.426,-6.403 -0.657,-12.862 -1.587,-19.22 -0.553,-3.795 -0.925,-7.607 -1.352,-11.418 -0.328,-2.938 -1.044,-5.802 -1.482,-8.722 3.667,5.934 11.441,10.282 16.861,14.079 7.334,5.137 15.189,9.728 23.553,12.968 0.355,0.138 0.852,-0.019 1.101,-0.29 7.652,-8.325 13.526,-18.077 19.347,-27.714 0.061,-0.1 0.078,-0.197 0.106,-0.295 2.716,0.436 5.269,-0.501 6.756,-4.142 2.572,-6.303 0.15,-15.08 -3.332,-20.837 0.459,-0.082 0.911,-0.17 1.346,-0.266 7.331,-1.621 15.148,-4.298 19.293,-10.963 1.651,-2.654 1.706,-6.647 0.392,-9.874 2.396,-3.632 1.121,-6.588 -1.55,-8.751 1.437,-2.005 1.6,-3.98 0.953,-5.796 4.277,-0.895 8.365,-0.389 12.688,-0.195 2.752,0.124 4.688,-1.259 5.877,-3.623 2.176,-4.334 0.205,-9.795 -3.388,-12.644 -3.668,-2.907 -9.17,-3.346 -13.623,-2.612 -7.545,1.245 -12.512,6.317 -18.535,10.527 -0.159,0.111 -0.238,0.258 -0.262,0.407 -2.316,0.701 -4.55,2.049 -6.266,3.768 -0.172,-0.15 -0.439,-0.194 -0.678,0.007 -4.306,3.631 -3.748,-6.983 -3.96,-9.161 -0.401,-4.131 -2.589,-8.39 -5.9,-10.938 -5.996,-4.614 -16.398,-4.885 -17.764,4.37 -0.904,6.135 7.006,9.481 10.739,12.749 4.262,3.734 2.903,7.598 0.093,11.859 -3.184,4.831 -1.518,9.89 1.619,14.26 0.092,0.129 0.206,0.21 0.325,0.27 -0.328,1.195 -0.506,2.452 -0.536,3.714 -2.65,-0.465 -4.18,2.064 -4.989,4.453 -0.823,2.433 -0.589,5.423 -0.962,7.933 -0.48,3.232 -1.384,6.407 -2.338,9.526 -0.789,2.58 -1.811,5.022 -2.88,7.439 -6.021,-6.14 -12.989,-11.492 -19.667,-16.858 -6.27,-5.039 -12.706,-10.873 -19.977,-14.439 -0.15,-0.073 -0.296,-0.111 -0.434,-0.121 -0.117,-0.111 -0.253,-0.201 -0.435,-0.235 -0.475,-0.091 -0.978,-0.162 -1.492,-0.225 1.507,-2.715 2.777,-5.566 3.721,-8.582 3.189,-10.195 -0.819,-21.813 -2.767,-32.205 1.549,-1.622 2.802,-3.618 3.736,-5.855 1.545,-1.314 2.64,-3.215 3.193,-4.314 0.652,-1.586 1.053,-3.03 1.303,-4.301 0.95,-3.935 0.99,-8.507 0.014,-13.126 -1.525,-7.218 -5.249,-13.361 -9.964,-16.432 -1.584,-1.033 -3.219,-1.66 -4.837,-1.883 -0.009,-0.061 -0.024,-0.12 -0.047,-0.173 -0.198,-0.463 -0.486,-0.866 -0.823,-1.22 0.418,-9.007 -1.606,-17.019 -5.632,-25.07 -2.302,-4.606 -7.267,-8.288 -11.283,-11.339 -0.062,-0.049 -0.127,-0.097 -0.191,-0.145 -0.327,-0.248 -0.836,-0.18 -1.17,0 -2.643,1.417 -5.419,2.747 -8.041,4.279 4.131,-4.357 8.398,-9.979 8.898,-15.89 0.586,-6.916 -3.008,-12.935 -8.539,-16.853 -0.05,-0.036 -0.111,0.045 -0.064,0.085 4.997,4.457 8.108,10.957 7.097,17.723 -0.935,6.257 -5.603,11.626 -9.568,16.244 -0.025,0.03 -0.02,0.063 -0.033,0.095 -0.016,0.011 -0.033,0.022 -0.048,0.033 3.167,-6.344 4.583,-13.708 2.089,-20.528 -3.016,-8.248 -12.256,-10.804 -20.109,-11.784 -11.031,-1.376 -22.748,1.647 -32.953,5.614 -10.426,4.053 -20.302,10.104 -28.462,17.764 -1.016,0.954 0.459,2.337 1.499,1.499 15.32,-12.361 33.196,-22.086 53.224,-23.238 8.711,-0.502 19.975,0.938 24.939,9.03 4.063,6.62 2.217,15.562 -0.942,22.118 -0.015,0.011 -0.032,0.02 -0.046,0.031 -0.687,-2.379 -1.486,-4.721 -2.275,-7.068 -0.09,-0.268 -0.265,-0.437 -0.471,-0.53 -0.111,-0.066 -0.241,-0.114 -0.394,-0.128 -7.549,-0.715 -15.164,1.307 -21.939,4.581 -20.472,0.098 -34.751,10.368 -39.727,14.68 -7.421,2.97 -14.509,6.761 -21.032,10.943 -0.204,0.131 -0.317,0.301 -0.394,0.48 -0.098,0.022 -0.193,0.065 -0.274,0.157 -3.796,4.239 -6.236,9.29 -7.764,14.708 -3.721,3.275 -5.703,5.792 -5.441,5.954 -0.067,-0.05 1.774,-1.857 5.017,-4.409 -1.253,5.069 -1.745,10.422 -1.788,15.733 -2.009,2.725 -2.978,4.562 -2.85,4.597 0.044,0.015 1.036,-1.325 2.85,-3.424 0.019,5.092 0.42,10.122 0.936,14.79 0.004,0.033 0.037,0.031 0.055,0.051 0.026,0.027 0.04,0.07 0.074,0.07 0.044,0.001 0.068,-0.044 0.091,-0.086 0.025,-0.008 0.051,-0.02 0.069,-0.047 2.361,-3.544 4.91,-6.911 7.589,-10.142 0.312,5.235 1.4,10.316 3.289,15.222 -2.025,2.511 -1.809,5.915 -1.151,9.553 1.011,5.597 2.878,13.102 7.499,16.885 -0.145,1.806 0.006,3.64 0.387,5.432 0.788,3.719 3.004,6.794 5.819,9.328 -0.872,11.567 10.076,22.773 18.047,29.766 1.856,1.63 3.685,3.269 5.466,4.947 -1.064,1.773 -2.11,3.539 -3.166,5.257 -4.55,7.412 -9.369,14.931 -12.985,22.874 -0.553,-0.536 -1.093,-1.084 -1.6,-1.665 -2.64,-3.02 -4.846,-6.504 -6.948,-9.911 -1.081,-1.749 -7.257,-14.991 -11.697,-13.479 0.42,-1.797 0.383,-3.659 -0.432,-5.493 -1.997,-4.484 -5.463,-8.385 -1.309,-12.731 3.947,-4.129 11.773,-5.828 12.394,-12.423 0.309,-3.275 -2.024,-6.536 -4.777,-7.984 -3.752,-1.975 -8.58,-0.551 -11.965,1.454 -3.948,2.338 -6.279,6.653 -7.194,11.013 -0.466,2.231 -0.15,13.138 -4.431,9.178 -0.196,-0.18 -0.471,-0.151 -0.664,-0.022 -1.642,-1.797 -3.819,-3.25 -6.102,-4.056 -0.018,-0.156 -0.092,-0.312 -0.245,-0.43 -5.586,-4.299 -10.148,-9.419 -17.231,-11.195 -4.952,-1.241 -10.736,-0.896 -14.97,2.152 -3.569,2.571 -5.296,8.105 -3.478,12.185 1,2.244 2.636,3.686 5.208,3.811 4.468,0.218 8.703,-0.294 13.097,0.812 -0.745,1.789 -0.67,3.771 0.713,5.833 -2.775,2.109 -4.169,5.086 -1.881,8.782 -1.364,2.897 -1.489,6.482 -0.213,9.545 2.856,6.854 11.084,9.549 17.513,11.658 3.786,1.242 8.634,2.069 12.862,1.182 -0.269,3.777 -0.689,7.491 0.283,11.213 0.948,3.629 4.058,5.886 7.015,7.859 4.241,2.832 8.933,5.093 13.363,7.619 4.58,2.613 8.962,5.615 13.592,8.128 7.056,3.831 13.639,-3.968 17.266,-9.123 5.209,-7.397 9.359,-15.522 14.615,-22.904 0.254,1.958 0.414,3.933 0.512,5.91 -0.164,-0.155 -0.345,-0.293 -0.575,-0.378 -0.404,-0.146 -0.81,0.103 -1.033,0.42 -0.391,0.56 -0.666,1.577 -0.814,2.348 -0.207,1.063 -0.516,2.24 -0.274,3.316 0.188,0.843 0.834,1.269 1.542,1.357 -0.762,16.604 -5.5,32.932 -9.821,48.894 -4.396,16.241 -10.558,31.4 -20,45.377 -2.684,3.974 -5.678,7.377 -8.757,10.967 -0.597,0.695 -2.956,3.888 -1.364,4.551 3.162,1.302 11.31,-11.83 12.784,-13.962 m 34.051,51.932 c -6.104,21.91 -10.731,45.589 -8.495,68.392 0.028,0.289 0.472,0.298 0.457,0 -1.043,-20.306 3.029,-40.751 8.268,-60.38 -0.192,2.162 -0.35,4.301 -0.528,6.369 -0.956,11.101 -1.179,22.27 0.094,33.354 2.064,17.999 4.627,36.431 11.207,53.435 -6.135,-3.746 -13.828,-4.689 -20.994,-3 -10.81,2.548 -19.852,12.124 -22.9,22.661 -1.889,-10.375 -4.084,-20.549 -4.988,-31.096 -0.929,-10.835 -0.884,-21.738 -0.415,-32.595 0.46,-10.665 1.136,-21.311 2.585,-31.893 0.332,-2.422 0.702,-4.838 1.09,-7.251 0.244,-1.506 1.156,-3.86 0.701,-5.422 -0.766,-2.624 -4.633,-6.626 0.241,-6.946 -0.02,0.339 -0.048,0.676 -0.055,1.02 0,0.031 0.013,0.053 0.015,0.084 -0.052,0.005 -0.104,0.01 -0.155,0.013 -0.572,0.028 -1.149,0.007 -1.722,0.037 -0.47,0.023 -0.462,0.684 0,0.722 0.618,0.049 1.205,0.182 1.8,0.36 0.554,0.164 1.026,0.355 1.594,0.171 0.375,-0.121 0.5,-0.452 0.44,-0.756 0.131,-0.166 0.231,-0.367 0.243,-0.631 0.201,-4.492 1.663,-8.657 2.606,-13.014 1.048,-4.85 2.151,-9.687 3.284,-14.517 2.146,-9.15 4.728,-18.157 7.492,-27.134 2.77,-8.991 5.55,-17.958 8.714,-26.822 10.697,-1.551 21.099,6.056 28.849,12.724 -0.61,0.071 -1.221,0.145 -1.849,0.255 -0.069,0.012 -0.068,0.125 0,0.139 0.775,0.154 1.55,0.284 2.324,0.423 0.08,0.12 0.236,0.146 0.344,0.064 1.199,0.214 2.4,0.421 3.6,0.614 -5.932,8.541 -9.042,18.822 -12.875,28.387 -4.227,10.541 -7.924,21.292 -10.972,32.233 m 13.088,106.235 c 0.082,0.182 0.219,0.28 0.371,0.314 2.851,2.824 8.25,9.575 3.393,12.576 -1.88,1.162 -4.15,1.951 -6.503,2.58 3.041,-7.929 -2.661,-18.244 -10.495,-21.769 4.625,0.461 9.165,2.399 13.217,6.257 0.006,0.013 0.011,0.028 0.017,0.042 m -33.323,0.195 c 5.363,-4.081 11.697,-6.641 17.994,-6.607 8.522,2.786 14.4,13.724 11.548,22.157 -2.539,0.623 -5.126,1.087 -7.398,1.618 -4.553,1.067 -9.074,1.491 -13.674,1.521 0.021,-4.565 -0.825,-8.876 -2.955,-12.981 -1.187,-2.286 -2.983,-4.886 -5.515,-5.708 m 5.81,8.148 c 1.424,3.398 1.777,6.922 1.979,10.541 -1.095,-0.002 -2.192,-0.019 -3.297,-0.061 -3.164,-0.122 -6.312,-0.494 -9.429,-1.029 -2.315,-0.398 -5.094,-0.754 -7.195,-1.949 2.323,-5.811 6.506,-11.219 11.625,-15.254 3.2,0.906 5.145,4.956 6.317,7.752 m 35.031,4.952 c 0.581,-0.768 0.917,-1.577 1.067,-2.404 2.684,8.118 -19.829,10.742 -24.431,11.283 -6.462,0.759 -13.057,1.012 -19.544,0.43 -2.57,-0.231 -5.171,-0.643 -7.607,-1.517 -1.955,-0.702 -2.881,-1.874 -3.409,-3.387 4.389,3.073 11.114,3.262 16.168,3.628 7.694,0.555 15.012,-0.305 22.483,-2.12 4.412,-1.072 12.251,-1.922 15.273,-5.913 M 278.723,250.893 c 0.409,-0.842 0.81,-1.689 1.203,-2.539 0.598,3.005 1.245,6.004 1.934,8.997 -0.295,0.308 -0.582,0.63 -0.87,0.945 -0.532,-2.53 -1.29,-4.998 -2.267,-7.403 m -11.26,26.656 c -3.281,5.571 -10.138,19.269 -18.443,15.646 -3.876,-1.69 -7.466,-4.532 -11.138,-6.633 -3.859,-2.209 -7.741,-4.362 -11.683,-6.418 -4.067,-2.12 -8.896,-4.438 -10.687,-8.928 -1.333,-3.338 -1.069,-7.36 -1.197,-10.93 0.425,-0.112 0.842,-0.244 1.248,-0.396 -0.071,5.686 0.95,18.539 8.562,11.703 3.584,-3.219 5.039,-9.433 5.837,-13.934 0.701,-3.961 1.24,-8.355 0.437,-12.389 -0.143,-2.534 -0.883,-4.997 -3.192,-5.98 -0.091,-0.039 -0.208,0.075 -0.115,0.151 0.684,0.572 1.142,1.313 1.452,2.151 -0.101,-0.076 -0.196,-0.147 -0.279,-0.212 -0.796,-0.622 -1.629,-1.193 -2.441,-1.798 0.131,-0.289 0.253,-0.581 0.363,-0.876 2.398,-0.934 5.548,4.328 6.352,5.868 2.363,4.529 4.742,8.909 7.654,13.121 2.536,3.669 5.458,6.719 8.661,9.803 4.03,3.879 6.308,8.358 7.519,13.809 0.054,0.24 0.393,0.131 0.361,-0.1 -0.704,-5.138 -1.844,-10.494 -5.303,-14.506 -0.903,-1.047 -1.913,-1.993 -2.929,-2.936 5.849,-9.009 11.066,-18.431 16.621,-27.639 2.651,2.627 5.146,5.395 7.383,8.434 0.239,3.542 1.282,6.798 3.584,9.073 0.362,0.359 1.014,0.314 1.302,-0.122 0.802,2.207 1.395,4.481 1.823,6.796 -4.465,5.285 -8.315,11.41 -11.752,17.242 m -66.178,-20.444 c -4.959,-1.54 -9.946,-3.407 -13.705,-7.114 -3.85,-3.799 -4.077,-9.768 -0.241,-13.639 3.596,-3.629 11.899,0.013 14.895,2.99 3.078,3.057 3.501,8.213 -0.485,10.604 -4.43,2.659 -11.176,-1.942 -14.015,-5.224 -0.174,-0.2 -0.529,0.071 -0.368,0.284 3.304,4.426 9.353,8.425 14.981,6.358 4.139,-1.519 4.859,-5.699 3.798,-9.374 0.05,-0.001 0.097,0.009 0.149,-0.014 1.21,-0.534 1.963,-1.628 2.366,-2.933 4.365,-3.003 10.352,0.04 11.894,5.009 1.331,4.28 0.647,9.053 -2.67,12.187 -4.362,4.122 -11.593,2.422 -16.599,0.866 m -14.654,-25.922 c 2.101,-2 5.477,-2.762 8.262,-3.09 2.784,-0.329 5.228,0.165 7.758,1.351 4.097,1.922 6.546,8.126 3.294,11.908 -0.168,-0.474 -0.357,-0.938 -0.578,-1.381 -2.34,-4.689 -10.377,-8.07 -15.372,-7.141 -2.37,0.442 -4.214,1.716 -5.511,3.424 0.011,-1.928 0.475,-3.479 2.147,-5.071 m -8.234,-10.461 c -3.251,-0.139 -8.65,1.325 -10.223,-2.69 -2.049,-5.229 2.376,-9.953 7.02,-11.272 9.513,-2.703 16.869,3.861 24.221,8.735 -0.456,-0.048 -0.911,-0.07 -1.359,-0.053 -3.838,0.134 -9.855,2.688 -12.568,6.388 -2.353,-0.723 -4.639,-1.003 -7.091,-1.108 m 29.354,10.824 c -2.255,-3.689 -6.389,-5.591 -10.629,-5.846 -2.902,-0.175 -7.32,0.8 -10.593,2.75 -0.868,-6.033 4.858,-9.333 10.291,-10.434 7.864,-1.593 14.781,6.356 10.931,13.53 m 2.203,-9.062 c 2.961,1.583 4.598,-3.683 5.005,-6.944 0.698,-5.574 1.763,-10.264 6.667,-13.702 4.783,-3.353 12.833,-2.847 13.581,4.129 0.598,5.559 -9.564,8.795 -12.658,12.366 -1.588,1.833 -2.359,4.373 -1.856,6.77 0.461,2.198 1.559,3.928 2.714,5.829 2.402,3.951 0.942,7.968 -1.302,11.529 -0.398,-0.984 -0.915,-1.906 -1.563,-2.725 -3.126,-3.955 -8.141,-4.174 -11.686,-1.457 0.384,-1.933 0.108,-4.161 -0.562,-5.744 0.006,-0.006 0.014,-0.007 0.02,-0.012 3.478,-3.088 3.448,-6.839 1.64,-10.039 m 17.594,36.535 c -0.371,1.461 -0.776,2.871 -1.202,4.158 -0.501,1.519 -4.651,11.417 -7.554,7.593 -2.038,-2.682 -1.704,-8.142 -1.746,-11.558 1.36,-0.734 2.581,-1.734 3.559,-3.098 0.643,-0.896 1.161,-1.914 1.56,-3 1.343,1.657 2.675,3.325 4.195,4.826 0.12,0.12 0.631,0.634 1.188,1.079 m -0.881,-3.329 c -1.212,-1.588 -2.41,-3.183 -3.71,-4.699 -0.041,-0.047 -0.116,-0.063 -0.172,-0.1 0.427,-2.142 0.413,-4.413 -0.085,-6.524 0.085,-0.043 0.166,-0.104 0.235,-0.192 0.836,-1.056 1.652,-2.222 2.326,-3.459 0.592,0.513 1.192,1.013 1.774,1.534 0.368,0.331 0.723,0.692 1.024,1.083 0.146,0.19 0.255,0.388 0.386,0.559 0.93,4.116 0.477,8.989 -0.512,13.474 -0.421,-0.559 -0.841,-1.119 -1.266,-1.676 m 27.221,-33.686 c -5.795,-5.707 -10.204,-13.299 -12.556,-21.108 2.549,1.949 5.4,3.532 8.073,4.795 8.485,4.007 17.825,6.267 27.153,7 0.787,0.061 1.577,0.162 2.368,0.281 -1.831,1.85 -4.137,3.385 -4.869,5.939 -0.085,0.044 -0.172,0.091 -0.249,0.169 -3.576,3.687 -6.52,8.098 -9.27,12.579 -3.535,-3.238 -7.247,-6.304 -10.65,-9.655 m -15.57,-27.498 c -2.776,-3.788 -3.285,-8.32 -2.019,-12.744 0.891,-3.116 3.113,-5.175 5.121,-7.468 0.238,-0.067 0.426,-0.274 0.441,-0.517 0.427,-0.508 0.844,-1.025 1.225,-1.578 0.255,-0.37 -0.06,-0.703 -0.411,-0.734 -3.6,-5.281 -4.949,-12.715 -6.174,-18.857 -1.518,-7.605 -1.086,-14.898 -0.309,-22.538 0.003,-0.024 -0.007,-0.043 -0.007,-0.066 19.741,-17.771 44.792,-29.076 71.364,-33.473 2.857,3.296 4.073,8.53 5.007,12.649 1.329,5.846 0.516,11.961 -1.359,17.582 -0.028,0.087 0.033,0.154 0.107,0.179 0.008,0.005 0.015,0 0.024,10e-4 0.058,0.011 0.116,0 0.143,-0.064 0.005,-0.011 0.007,-0.021 0.012,-0.032 2.063,-1.928 4.03,-3.872 5.016,-6.296 -0.781,6.292 -3.393,12.701 1.201,18.12 0.483,5.16 2.01,10.1 4.663,14.925 2.926,5.316 7.941,9.779 14.172,10.404 0.297,0.029 0.586,0.036 0.876,0.049 -0.074,0.073 -0.117,0.175 -0.103,0.307 0.6,5.357 -2.127,8.98 -5.35,12.758 -3.233,3.786 -6.573,7.477 -9.948,11.132 -6.877,7.447 -13.903,15.261 -22.018,21.395 -4.968,3.756 -10.739,3.307 -16.585,1.982 -7.659,-1.738 -15.43,-1.927 -23.03,-4.194 -8.019,-2.393 -16.946,-5.945 -22.059,-12.922 m -3.74,-14.779 c -0.495,1.077 -0.824,2.195 -1.035,3.332 -2.692,-3.751 -4.155,-7.727 -5.307,-12.253 -0.672,-2.634 -0.916,-5.158 -0.991,-7.864 -0.062,-2.241 0.841,-3.446 1.922,-4.948 0.053,1.267 0.197,2.471 0.346,3.399 1.012,6.278 2.633,12.168 5.264,17.954 -0.065,0.131 -0.135,0.242 -0.199,0.38 m -9.6,-38.066 c -0.005,-0.065 -0.028,-0.115 -0.047,-0.171 0.423,-0.493 0.869,-0.961 1.298,-1.446 0.279,5.168 1.436,10.587 2.998,15.514 -0.025,0.271 -0.046,0.54 -0.057,0.814 -0.426,0.248 -0.811,0.512 -1.153,0.793 -1.594,-5.068 -2.671,-10.163 -3.039,-15.504 m 5.794,6.591 c 0.089,0.915 0.188,1.856 0.296,2.802 -0.975,0.89 -1.494,2.221 -1.737,3.693 -1.472,-4.836 -2.403,-10.262 -2.632,-15.226 1.36,-1.522 2.751,-3.009 4.181,-4.455 -0.024,0.097 -0.042,0.194 -0.066,0.291 -0.242,1.035 -0.256,1.623 -0.346,2.723 -0.279,3.384 -0.02,6.803 0.304,10.172 m 7.753,21.4 c -0.191,-0.262 -0.543,-0.167 -0.597,0.141 -1.119,-2.78 -1.789,-5.689 -2.707,-8.559 -0.101,-0.312 -0.525,-0.306 -0.629,0 -0.063,0.166 -0.111,0.335 -0.165,0.502 -1.373,-4.838 -2.02,-10.025 -2.525,-14.979 -0.452,-4.434 0.047,-8.568 0.215,-12.923 0.704,-0.693 1.39,-1.408 2.109,-2.084 -1.126,6.714 -1.094,13.171 0.408,19.92 1.459,6.555 3.169,14.724 7.114,20.339 -0.249,0.2 -0.498,0.404 -0.739,0.594 -0.873,-0.942 -1.71,-1.894 -2.484,-2.951 m -3.37,-5.862 c 0.268,1.204 0.534,2.402 0.837,3.598 0.417,1.644 1.026,3.164 1.821,4.653 0.227,0.427 0.964,0.245 0.93,-0.252 -0.12,-1.8 0.801,0.09 1.515,1.403 -1.739,1.367 -3.251,2.626 -4.507,4.479 -1.484,-4.282 -2.706,-8.522 -3.639,-12.987 -0.601,-2.876 -1.019,-5.715 -0.949,-8.658 0.015,-0.633 0.162,-1.23 0.322,-1.821 0.506,3.237 1.271,6.467 2.606,9.299 0.194,0.414 0.74,0.158 0.776,-0.211 -0.024,-1.105 0.071,-0.94 0.288,0.497 m -19.064,-11.117 c 0.324,-5.607 0.413,-11.133 0.884,-16.669 2.893,-3.132 6.969,-7.13 12.06,-10.961 10.366,-8.183 19.73,-13.621 19.572,-13.878 0.009,-0.034 -9.976,4.379 -20.517,12.691 -4.643,3.494 -8.308,7.275 -10.965,10.462 0.224,-2.234 0.52,-4.472 0.936,-6.719 0.562,-3.032 1.318,-6.001 2.273,-8.896 3.091,-2.2 6.875,-4.633 11.179,-6.89 11.906,-6.318 22.328,-10.023 22.212,-10.314 0.018,-0.021 -10.818,2.557 -22.934,8.98 -3.727,1.956 -7.004,4.124 -9.752,6.199 1.301,-3.523 2.937,-6.916 4.939,-10.149 0.194,0.017 0.398,-0.009 0.612,-0.144 11.548,-7.262 24.797,-13.808 38.547,-16.733 8.361,-1.265 20.994,-1.872 34.63,2.727 2.048,0.755 3.964,1.614 5.776,2.542 -36.349,5.509 -70.891,25.437 -89.452,57.752 M 297.41,82.179 c 15.28,2.804 27.184,11.48 33.289,19.541 0.682,0.869 1.299,1.714 1.876,2.538 0.558,0.838 1.099,1.692 1.61,2.574 1.583,2.721 2.917,5.629 3.841,8.641 0.069,0.223 0.133,0.448 0.193,0.674 -0.168,-0.643 -0.372,0.128 -0.997,0.886 -1.363,1.653 -2.725,3.306 -4.089,4.959 -0.093,-0.304 -0.207,-0.659 -0.37,-1.113 0.135,0.493 0.232,0.874 0.311,1.185 -0.045,0.055 -0.09,0.109 -0.136,0.164 -0.983,0.175 -0.83,0.351 -1.224,-0.557 -0.723,-1.67 -1.538,-3.296 -2.383,-4.907 -0.596,-1.139 -1.247,-2.25 -1.919,-3.345 -4.251,-7.551 -12.315,-17.677 -26.867,-23.179 -11.981,-3.977 -22.936,-3.824 -31.109,-2.581 -4.283,0.482 -8.535,1.334 -12.718,2.499 9.082,-3.236 23.753,-6.442 40.632,-1.748 24.037,6.788 33.182,26.251 35.413,32.469 -0.658,-2.398 -2.108,-6.829 -5.585,-12.07 -4.995,-8.042 -15.448,-17.304 -29.525,-21.417 -20.375,-5.608 -37.278,0.283 -45.421,4.147 -1.308,0.436 -2.606,0.899 -3.896,1.388 7.429,-5 25.477,-15.15 49.074,-10.748 m -3.101,-4.291 c 4.382,-1.137 8.763,-1.943 13.294,-1.763 0.961,2.477 1.907,4.96 3.02,7.374 0.088,0.192 0.244,0.269 0.409,0.276 0.163,0.102 0.374,0.136 0.63,0.045 3.91,-1.395 7.578,-3.613 11.238,-5.586 3.768,2.908 7.85,6.091 10.41,10.13 4.397,6.938 6.19,15.035 6.189,23.143 -0.604,-0.323 -1.271,-0.532 -1.951,-0.607 -0.632,-1.417 -1.338,-2.802 -2.079,-4.146 -0.716,-1.299 -1.5,-2.541 -2.321,-3.751 -0.435,-0.68 -0.889,-1.369 -1.39,-2.078 -5.811,-8.569 -18.055,-18.086 -33.91,-20.979 -2.506,-0.451 -4.935,-0.724 -7.299,-0.875 1.263,-0.425 2.518,-0.86 3.76,-1.183 m 44.15,35.239 c 0.151,0.129 0.305,0.259 0.465,0.38 0.121,0.093 0.248,0.164 0.372,0.247 -0.198,0.021 -0.395,0.058 -0.592,0.092 -0.083,-0.24 -0.157,-0.481 -0.245,-0.719 m 7.008,3.345 c -1.78,-0.467 -4.998,-0.526 -7.573,3.479 -3.265,5.671 -3.021,14.97 -0.022,24 1.607,4.424 4.001,8.887 8.153,10.726 0.253,0.131 0.5,0.231 0.745,0.319 -0.457,0.124 -1.375,0.375 -1.375,0.375 -2.281,0.481 -4.761,-0.079 -7.141,-1.63 -4.463,-2.906 -8,-8.776 -9.463,-15.702 -1.29,-6.116 -0.72,-12.255 1.476,-16.667 0.299,0.639 0.616,1.268 0.899,1.922 0.11,0.252 0.419,0.302 0.653,0.266 0.462,-0.072 0.923,-0.143 1.384,-0.214 0.111,0.019 0.224,-0.006 0.332,-0.081 0.128,-0.053 0.211,-0.141 0.25,-0.252 1.545,-1.874 3.09,-3.749 4.635,-5.623 0.495,-0.599 1.065,-1 0.847,-1.791 -0.058,-0.217 -0.141,-0.426 -0.207,-0.64 2.082,-0.311 4.279,0.207 6.407,1.513 m 9.766,15.885 c 1.463,6.924 0.601,13.723 -2.306,18.185 -0.947,1.454 -2.078,2.58 -3.34,3.351 -0.905,0.287 -1.913,0.226 -3.032,-0.433 -3.45,-1.598 -5.735,-5.757 -7.253,-10.016 -2.898,-8.682 -3.373,-17.703 -0.621,-23.044 2.322,-4.237 5.831,-3.894 7.352,-3.549 4.336,2.964 7.767,8.719 9.2,15.506 m -7.392,25.804 c -0.106,-0.628 -0.205,-1.252 -0.289,-1.869 -0.015,-0.112 -0.053,-0.204 -0.101,-0.285 0.921,-0.211 1.806,-0.564 2.637,-1.058 0.07,-0.028 0.14,-0.063 0.21,-0.095 -0.715,1.229 -1.537,2.338 -2.457,3.307 m -28.768,-26.067 c 0.293,-3.765 0.989,-7.511 2.583,-10.946 1.012,-2.182 2.713,-5.374 4.732,-6.886 0.475,0.756 0.949,1.511 1.396,2.291 -6.934,9.838 -6.809,22.309 -2.142,33.16 1.32,3.069 3.421,5.932 5.971,8.056 -3.477,-2.872 -5.574,-7.652 -6.996,-11.678 -3.436,-9.724 -2.51,-20.667 3.377,-29.148 0.575,1.021 1.134,2.057 1.66,3.119 l -0.025,-0.014 c -2.653,4.685 -3.39,11.5 -1.97,18.229 1.524,7.221 5.25,13.364 9.964,16.433 2.643,1.721 5.424,2.338 8.043,1.784 0.006,-0.002 0.09,-0.024 0.201,-0.054 -0.002,0.029 -0.018,0.052 -0.018,0.082 -0.004,1.015 0.034,2.027 0.087,3.039 -3.924,1.931 -8.456,1.638 -12.406,-0.473 -0.521,-0.279 -1.01,-0.612 -1.481,-0.968 3.84,3.009 8.627,4.324 13.353,2.127 -2.995,2.03 -6.679,2.826 -10.824,1.899 -5.661,-1.266 -9.424,-6.257 -11.91,-11.132 -3.02,-5.919 -4.109,-12.326 -3.595,-18.92 m -1.453,5.114 c -1.366,-3.433 -1.621,-6.641 -1.035,-10.496 0.46,-3.039 0.772,-6.039 0.54,-9.091 0.013,-0.376 0.036,-0.748 0.002,-1.148 -0.008,-0.079 -0.067,-0.131 -0.133,-0.16 -0.09,-0.163 -0.365,-0.157 -0.348,0.065 0.012,0.15 0.008,0.302 0.016,0.453 -0.346,1.877 -1.09,3.612 -2.061,5.262 -0.838,1.424 -1.931,2.668 -2.835,4.035 2.228,-5.517 2.955,-11.192 2.239,-17.144 -0.425,-3.515 -1.372,-8.041 -3.607,-11.236 3.704,2.436 6.819,5.154 9.42,7.888 0.29,0.316 0.593,0.617 0.875,0.94 0.069,0.075 0.137,0.15 0.204,0.225 1.781,2.05 3.423,4.254 4.943,6.579 -1.979,0.908 -3.153,3.16 -4.28,4.928 -2.128,3.345 -3.112,7.041 -3.634,10.94 -0.365,2.721 -0.45,5.365 -0.306,7.96 m 28.264,58.305 c -0.704,1.646 -1.533,3.232 -2.447,4.778 -4.883,0.018 -10.441,1.078 -14.257,3.299 1.307,-2.452 -0.03,-4.825 -2.88,-5.262 -2.613,-0.4 -5.916,0.476 -8.255,2.044 -0.078,-1.484 -0.122,-2.971 -0.174,-4.443 -0.004,-0.118 -0.04,-0.213 -0.072,-0.311 1.68,-1.76 3.351,-3.529 5.005,-5.31 3.866,-4.161 7.665,-8.39 11.323,-12.736 3.383,-4.018 5.561,-7.838 4.068,-13.337 -0.021,-0.076 -0.08,-0.116 -0.128,-0.164 3.072,0.005 5.76,-0.93 7.999,-2.55 0.966,11.487 4.635,22.72 -0.182,33.992 m -33.171,21.551 c -1.675,2.599 -3.568,5.051 -5.5,7.461 -3.092,3.852 -6.492,7.486 -9.919,11.041 -3.016,-4.352 -5.684,-8.998 -8.29,-13.6 -1.115,-1.969 -1.896,-5.653 -3.518,-7.788 4.356,0.785 8.697,1.174 12.911,-0.952 3.802,-1.919 7.054,-5.424 10.106,-8.305 2.499,-2.357 4.934,-4.784 7.331,-7.25 0.108,3.888 0.541,7.75 0.554,11.627 0.01,2.76 -2.248,5.549 -3.675,7.766 m -15.877,27.642 c -0.465,0.463 -0.926,0.929 -1.38,1.4 -0.118,-0.572 -0.016,-1.192 0.579,-1.435 0.28,-0.114 0.557,-0.078 0.801,0.035 m 22.722,-19.431 c -3.888,3.266 -8.109,6.59 -12.296,10.075 1.282,-3.075 2.845,-5.885 5.238,-8.288 2.412,-2.425 4.803,-2.677 7.058,-1.787 m -2.383,-2.517 c 1.574,-0.582 3.263,-0.815 5.046,-0.533 0.24,0.038 0.466,0.118 0.698,0.181 -0.488,0.419 -0.972,0.834 -1.452,1.247 -1.523,-0.803 -2.955,-1.055 -4.292,-0.895 m 17.367,-11.086 c -0.665,-1.207 -1.499,-2.337 -2.641,-3.107 -1.6,-1.079 -3.979,-1.427 -3.574,-3.225 3.657,-0.533 7.204,-1.527 10.907,-1.925 0.762,-0.082 1.529,-0.122 2.298,-0.15 -2.058,2.968 -4.44,5.758 -6.99,8.407 m 2.807,24.228 c -0.002,0.279 0.019,0.557 0.005,0.837 -0.104,2.205 -2.112,-0.695 -2.679,-1.299 -2.155,-2.291 -4.597,-4.243 -6.965,-6.305 -1.234,-1.073 -2.344,-2.354 -3.559,-3.488 0.652,-0.542 1.294,-1.089 1.937,-1.634 1.768,1.328 3.3,3.125 4.708,4.6 2.254,2.365 5.321,4.174 6.553,7.289 m -5.814,-8.027 c -1.415,-1.455 -2.943,-3.172 -4.682,-4.511 1.543,-1.317 3.074,-2.642 4.563,-3.992 0.959,-0.869 1.906,-1.758 2.84,-2.661 0.402,1.803 0.611,3.619 0.801,5.066 0.36,2.764 1.02,5.415 1.581,8.141 0.261,1.276 0.45,2.562 0.586,3.855 -1.409,-2.287 -3.837,-3.996 -5.689,-5.898 m -13.067,-22.799 c -0.121,-0.862 -0.208,-1.731 -0.281,-2.604 1.246,-0.923 2.875,-1.334 4.352,-1.695 0.908,-0.22 1.835,-0.275 2.765,-0.278 2.627,-0.011 1.645,2.589 0.694,3.862 -1.985,2.657 0.59,4.315 2.904,4.915 2.016,0.522 3.314,2.017 4.19,3.876 -3.005,2.993 -6.183,5.808 -9.294,8.497 -0.765,-0.276 -1.556,-0.476 -2.406,-0.499 -7.642,-0.215 -13.142,7.373 -15.008,14.057 -0.015,0.05 0.008,0.084 0.041,0.106 -0.105,0.292 -0.205,0.581 -0.297,0.857 -0.017,0.048 0.009,0.079 0.01,0.121 -2.908,2.445 -5.777,4.977 -8.493,7.624 -0.075,-0.055 -0.141,-0.124 -0.225,-0.167 -1.406,-0.73 -2.982,0.576 -2.777,2.05 0.043,0.302 0.139,0.6 0.269,0.882 -0.976,1.03 -1.924,2.078 -2.838,3.145 -0.822,-1.828 -1.719,-3.626 -2.749,-5.367 -0.012,-0.019 -0.03,-0.029 -0.042,-0.046 3.622,-3.185 7.603,-5.878 11.123,-9.223 3.981,-3.782 7.71,-7.846 11.091,-12.17 2.783,-3.559 6.123,-7.647 7.216,-12.103 0.461,-1.875 0.017,-3.964 -0.245,-5.84 m -45.894,35.14 c -0.276,-0.359 -0.541,-0.722 -0.828,-1.078 -1.574,-1.952 -3.304,-3.754 -5.101,-5.491 2.525,-4.116 5.142,-8.171 7.931,-12.115 0.139,0.173 0.284,0.342 0.447,0.499 0.32,0.309 0.768,0.482 1.181,0.637 2.128,0.796 1.152,2.681 0.381,4.084 -1.827,3.329 -3.533,8.413 -4.011,13.464 m 2.816,8.811 c -0.003,0.005 -0.005,0.011 -0.006,0.017 -0.013,-0.034 -0.028,-0.066 -0.041,-0.1 0.015,0.027 0.032,0.055 0.047,0.083 m 1.165,2.381 c -0.006,0.011 -0.011,0.023 -0.017,0.035 -0.294,-0.429 -0.538,-0.895 -0.754,-1.38 0.019,-0.057 0.039,-0.114 0.057,-0.17 0.252,0.5 0.491,1.005 0.714,1.515 m 1.263,-2.59 c -0.29,-0.622 -0.592,-1.24 -0.913,-1.853 0.984,-2.456 2.133,-4.866 3.295,-7.204 1.204,-2.429 4.616,-9.692 7.95,-8.678 -2.788,2.17 -4.417,5.722 -6.073,8.762 -1.58,2.906 -2.858,5.977 -4.259,8.973 m 5.499,14.668 c -0.517,1.21 -0.978,2.447 -1.375,3.711 -0.02,-2.145 -0.19,-4.254 -0.498,-6.327 0.312,-0.405 0.632,-0.803 0.953,-1.203 0.301,1.274 0.607,2.547 0.92,3.819 m -2.498,-17.054 c 0.884,-1.922 1.767,-3.844 2.732,-5.726 1.104,-2.152 2.4,-4.243 3.691,-6.288 2.064,-3.271 3.432,0.045 5.354,1.884 0.322,0.309 0.739,-0.144 0.477,-0.477 -1.025,-1.297 -1.82,-2.565 -2.849,-3.738 0.059,-0.104 0.091,-0.223 0.026,-0.344 -3.701,-6.913 -10.606,6.846 -13.759,14.472 -0.598,-1.088 -1.233,-2.166 -1.929,-3.222 0.003,-0.895 0.042,-1.763 0.104,-2.564 0.249,-3.252 1.288,-6.457 2.384,-9.505 0.732,-2.036 2.232,-3.91 2.792,-5.986 0.311,-1.15 0.308,-1.826 -0.301,-2.845 -0.642,-1.077 -3.718,-1.269 -3.403,-2.935 0.46,-2.433 3.395,-3.753 4.798,-5.847 0.951,0.176 1.902,0.365 2.853,0.551 0.001,10e-4 0.001,0.004 0.002,0.005 0.894,1.149 1.053,3.141 1.495,4.504 0.664,2.04 1.581,3.969 2.58,5.864 2.289,4.35 4.902,8.891 8.125,12.641 -2.493,2.392 -5.314,4.628 -7.385,7.344 -0.292,0.091 -0.52,0.356 -0.381,0.703 0.85,2.128 1.742,4.241 2.644,6.349 -2.199,2.712 -4.164,5.556 -5.787,8.563 -1.312,-4.52 -2.743,-8.996 -4.263,-13.403 m 22.612,112.78 c -3.676,-3.232 -7.847,-5.742 -12.359,-7.831 -4.486,-2.077 -9.526,-3.648 -14.427,-2.607 0.188,-0.527 0.378,-1.054 0.566,-1.581 0.033,0.017 0.059,0.042 0.106,0.042 5.72,-0.218 11.706,2.267 16.752,4.794 3.571,1.79 6.682,4.274 9.362,7.183 m 2.311,1.995 c -2.93,-4.173 -6.755,-7.44 -11.278,-9.855 -5.059,-2.699 -11.298,-4.981 -17.086,-4.623 1.357,-3.781 2.72,-7.557 4.068,-11.341 0.839,-2.356 1.546,-4.532 1.486,-7.01 4.924,1.564 12.101,7.693 14.451,9.185 0.749,0.476 1.504,0.914 2.265,1.335 -2.231,3.314 -5.053,5.638 -9.416,3.616 -2.794,-1.295 -4.892,-3.981 -7.229,-5.924 -0.334,-0.278 -0.811,0.176 -0.485,0.484 2.791,2.63 5.728,7.201 9.953,7.539 3.82,0.307 6.738,-1.874 8.038,-5.244 2.915,1.535 5.926,2.714 9.1,3.712 -2.917,5.586 -4.043,11.837 -3.867,18.126 m 11.091,1.692 c -3.437,-1.009 -6.829,-1.422 -10.501,-1.121 0.469,-6.545 1.13,-12.526 3.711,-18.565 0.397,0.122 0.792,0.247 1.195,0.365 3.909,1.141 7.678,2.552 11.581,3.543 -1.32,5.116 -2.595,10.216 -4.972,14.953 -0.347,0.259 -0.681,0.542 -1.014,0.825 m 0.298,1.613 c -0.304,0.291 -0.566,0.617 -0.824,0.948 -0.219,-0.432 -0.45,-0.833 -0.693,-1.183 0.504,0.08 1.01,0.157 1.517,0.235 m -0.036,-1.538 c 0.159,-0.12 0.315,-0.245 0.475,-0.361 -0.076,0.147 -0.148,0.296 -0.226,0.442 -0.083,-0.026 -0.166,-0.057 -0.249,-0.081 M 347.76,202.9 c -2.622,4.812 -1.298,11.924 -0.452,16.932 1.189,7.058 3.272,14.483 6.655,20.878 0.006,0.019 0.011,0.039 0.018,0.058 0.005,0.021 0.026,0.023 0.032,0.04 0.058,0.106 0.112,0.215 0.169,0.32 -0.233,6.063 0.801,12.451 1.302,18.498 0.565,6.81 1.19,13.6 1.612,20.425 0.424,6.869 0.985,13.718 1.307,20.594 0.307,6.525 1.269,13.262 1.04,19.779 -0.003,0.067 0.023,0.117 0.029,0.179 -1.811,3.468 -3.9,6.675 -6.165,9.895 -3.2,4.555 -6.371,7.018 -11.547,8.991 -0.093,0.035 -0.059,0.174 0.042,0.151 4.782,-1.12 7.798,-2.677 11.105,-6.362 3.285,-3.662 6.138,-7.776 8.342,-12.177 0.065,-0.065 0.13,-0.132 0.175,-0.218 0.288,0.304 0.577,0.605 0.873,0.904 1.654,1.672 0.6,2.994 -0.267,4.516 -1.04,1.823 -2.274,3.561 -3.388,5.343 -3.088,4.931 -6.886,8.465 -12.15,10.955 -5.276,2.49 -11.259,3.409 -17.045,3.2 -6.1,-0.222 -11.836,-2.676 -17.601,-4.432 -5.168,-1.576 -9.809,-3.451 -14.454,-6.252 -2.341,-1.41 -4.568,-2.993 -6.9,-4.419 -2.531,-1.546 -9.741,-5.97 -12.097,-2.112 -0.15,0.247 0.221,0.549 0.407,0.315 0.706,-0.888 1.859,-1.037 3.241,-0.751 -0.453,1.723 -0.994,3.434 -1.595,5.128 -1.343,-2.39 -5.21,-8.716 -0.129,-8.161 0.512,0.056 0.868,-0.381 1.039,-0.792 2.316,-5.555 3.535,-11.758 5.401,-17.497 1.995,-6.14 4.233,-12.162 5.113,-18.595 0.04,-0.297 -0.067,-0.524 -0.356,-0.631 -1.014,-0.375 -1.84,-0.668 -2.902,-0.767 -0.223,-0.022 -0.272,0.346 -0.053,0.389 0.939,0.192 1.363,0.837 1.48,1.71 -0.97,-0.662 -1.984,-1.26 -2.916,-1.988 -0.148,-0.116 2.471,-0.912 3.039,-1.046 0.584,-0.142 0.811,-0.73 0.717,-1.268 -1.246,-7.232 -2.926,-14.47 -4.904,-21.617 1.881,-3.016 3.999,-5.849 6.268,-8.56 1.424,3.248 2.881,6.482 4.328,9.72 0.162,0.364 0.76,0.103 0.638,-0.268 -1.198,-3.647 -2.379,-7.299 -3.779,-10.856 8.46,-9.698 18.997,-17.742 29.031,-26.011 0.636,0.514 1.258,1.087 1.857,1.699 2.51,2.564 5.464,4.648 8.067,7.115 1.214,1.151 2.204,3.764 4.153,3.971 5.717,0.608 1.798,-12.393 1.221,-14.846 -0.773,-3.274 -0.85,-6.715 -1.81,-9.943 3.611,-3.657 6.935,-7.603 9.66,-11.911 0.722,-0.041 1.437,-0.122 2.149,-0.225 m 0.692,-0.094 c 0.017,0.014 0.024,0.031 0.042,0.043 0.72,0.493 1.418,1.015 2.129,1.52 -3.211,9.659 -1.061,21.135 1.772,31.106 -4.031,-10.32 -7.19,-22.28 -4.038,-32.656 0.031,-0.005 0.064,-0.006 0.095,-0.013 m 39.797,31.639 c -0.914,2.034 -1.824,4.071 -2.627,6.178 -1.622,4.264 -0.485,9.819 0.427,14.134 0.043,0.204 0.393,0.161 0.366,-0.049 -0.563,-4.431 -0.504,-9.049 1.306,-13.2 1.556,-3.569 3.509,-6.898 4.791,-10.586 1.54,-4.435 2.939,-8.911 3.778,-13.536 0.601,-3.331 -0.479,-12.657 4.059,-13.297 0.024,0.612 0.084,1.218 0.173,1.814 -0.392,0.57 -0.787,1.139 -1.156,1.726 -0.137,0.217 -0.298,0.461 -0.448,0.718 -0.232,0.092 -0.418,0.301 -0.432,0.636 -0.005,0.103 0.01,0.204 0.009,0.307 -0.086,0.318 -0.089,0.634 0.025,0.937 0.217,5.063 2.875,9.998 5.335,14.295 2.481,4.33 6.327,9.223 11.275,10.729 9.349,2.846 2.571,-14.281 0.329,-18.872 0.611,-0.029 1.215,-0.077 1.812,-0.143 2.582,4.451 3.832,10.033 4.063,15.119 0.15,3.372 -1.005,7.544 -4.929,7.989 -3.197,0.363 -6.692,-1.821 -9.035,-3.733 -0.077,-0.062 -0.183,0.037 -0.111,0.112 1.708,1.757 4.157,3.604 6.662,4.582 -5.569,9.173 -11.191,18.449 -18.42,26.428 -7.026,-3.065 -13.666,-6.683 -20.119,-10.838 -7.086,-4.563 -14.456,-9.388 -20.585,-15.209 -0.028,-0.032 -0.05,-0.057 -0.083,-0.077 -0.014,-0.011 -0.026,-0.023 -0.038,-0.034 -3.444,-11.898 -5.657,-23.517 -3.459,-35.781 12.861,9.21 24.47,20.061 37.032,29.651 m 12.682,-26.599 c 0.267,0.954 0.612,1.857 1.042,2.668 1.234,2.319 3.143,3.801 5.365,4.706 -1.027,1.293 -1.611,3.232 -1.942,4.719 -0.148,0.668 -0.316,1.353 -0.464,2.043 -0.136,-0.248 -0.289,-0.487 -0.421,-0.735 -1.86,-3.486 -3.941,-7.202 -4.469,-11.17 0.063,-0.162 0.099,-0.339 0.152,-0.544 0.128,-0.5 0.359,-0.975 0.595,-1.431 0.045,-0.088 0.097,-0.17 0.142,-0.256 m -1.405,-19.398 c 0.545,-2.366 2.7,-4.092 3.61,-6.3 1.16,-2.824 1.113,-5.572 -0.496,-8.189 -2.924,-4.758 -12.136,-6.847 -12.512,-12.913 -0.457,-7.34 8.507,-7.121 12.931,-4.662 5.155,2.867 6.617,8.577 6.846,13.997 0.132,3.173 1.5,9.29 4.684,7.78 -1.921,3.11 -2.094,6.842 1.223,10.072 0.028,0.026 0.059,0.019 0.089,0.038 -0.699,1.663 -1.15,3.783 -0.93,5.653 -3.174,-2.675 -7.735,-2.887 -11.161,0.282 -0.972,0.9 -1.719,2.016 -2.275,3.249 -1.582,-2.766 -2.76,-5.751 -2.009,-9.007 m 27.828,-14.313 c 5.632,0.915 11.519,4.996 10.38,11.05 -3.178,-2.033 -7.523,-3.169 -10.383,-3.268 -3.784,-0.132 -8.672,1.597 -10.747,4.957 -0.072,0.117 -0.142,0.249 -0.212,0.376 -3.483,-7.238 3.334,-14.354 10.962,-13.115 m 21.935,-10.339 c 5.151,1.117 8.539,5.64 7.541,10.914 -0.844,4.461 -6.095,3.24 -9.242,3.135 -2.921,-0.098 -5.688,0.022 -8.519,0.75 -2.489,-3.806 -8.278,-6.613 -12.188,-6.96 -0.459,-0.04 -0.926,-0.042 -1.395,-0.016 7.58,-4.477 14.286,-9.886 23.803,-7.823 m -9.925,28.905 c -0.86,-1.214 -1.971,-2.186 -3.33,-2.722 -5.414,-2.138 -13.457,0.454 -17.049,4.962 -0.529,0.664 -0.959,1.378 -1.294,2.116 -2.807,-3.699 -0.441,-9.125 3.071,-11.242 2.606,-1.571 5.639,-1.816 8.577,-1.417 5.199,0.707 9.724,3.248 10.025,8.303 m -24.825,23.709 c 0.981,2.723 1.873,5.496 2.621,8.291 0.484,1.805 0.859,3.59 1.062,5.453 0.559,5.142 -4.565,2.285 -6.266,0.846 -2.345,-1.985 -4.238,-4.397 -5.853,-6.99 0.264,-0.682 0.445,-1.442 0.586,-1.856 0.745,-2.183 1.582,-4.21 2.491,-6.318 1.713,0.438 3.543,0.6 5.359,0.574 m 21.891,-10.548 c -2.921,3.544 -7.772,5.166 -12.01,6.449 -5.883,1.778 -12.425,3.44 -18.075,0.095 -2.645,-1.565 -3.783,-4.274 -4.016,-7.129 0.024,-0.115 0.019,-0.223 -0.02,-0.32 -0.095,-1.654 0.098,-3.344 0.479,-4.88 1.346,-5.437 7.83,-8.781 12.311,-5.415 0.304,1.324 1.004,2.458 2.293,3.1 0.005,0.003 0.01,0 0.014,0.002 -1.158,3.227 -0.453,6.803 2.546,9.036 5.178,3.859 12.813,-1.026 16.165,-5.11 0.188,-0.23 -0.119,-0.557 -0.332,-0.333 -3.031,3.196 -8.24,6.118 -12.773,5.22 -5.563,-1.102 -4.591,-7.484 -1.972,-10.718 2.493,-3.078 7.883,-4.423 11.642,-4.434 3.873,-0.011 5.928,3.675 6.375,7.009 0.384,2.858 -0.869,5.296 -2.627,7.428 M 331.613,157.769 c 0.145,0.119 0.287,0.239 0.436,0.351 -0.148,-0.115 -0.291,-0.231 -0.436,-0.351 M 202.669,277.054 c -0.477,-0.66 -3.776,15.988 8.839,30.318 5.843,6.981 13.611,11.072 19.61,11.5 5.997,0.552 9.421,-1.352 9.395,-1.22 -0.028,-0.275 -3.577,1.218 -9.278,0.345 -5.715,-0.75 -12.917,-4.876 -18.57,-11.605 -12.156,-13.72 -10.094,-29.703 -9.996,-29.338 m 51.607,33.028 c -0.002,-0.025 -0.154,0.088 -0.433,0.277 0.349,-0.167 0.505,-0.275 0.433,-0.277 m -26.713,-2.595 c 6.394,4.702 13.843,6.584 19.021,5.622 3.962,-0.659 6.346,-2.137 7.259,-2.75 -2.421,1.148 -14.193,5.07 -25.393,-4.102 -12.669,-9.106 -16.795,-21.836 -16.837,-21.634 -0.373,-0.212 2.785,13.349 15.95,22.864 m 42.521,137.806 c -1.414,0.235 -2.041,2.421 -2.638,3.495 -1.889,3.398 -2.196,8.236 -2.53,12.048 -0.027,0.305 0.478,0.372 0.534,0.072 0.67,-3.612 1.746,-7.055 3.088,-10.473 0.144,-0.366 1.594,-4.712 1.704,-4.769 0.223,-0.109 0.054,-0.409 -0.158,-0.373 m 3.874,1.69 c -1.601,0.896 -1.958,3.718 -2.323,5.316 -0.85,3.71 -1.144,7.198 -0.827,11.014 0.034,0.413 0.598,0.408 0.638,0 0.546,-5.43 1.886,-10.674 2.919,-16.016 0.046,-0.235 -0.182,-0.439 -0.407,-0.314 m 51.28,-151.197 c -0.1,0 -0.1,0.154 0,0.154 0.1,0 0.1,-0.154 0,-0.154 m -19.961,-8.107 c 5.174,4.698 12.287,6.767 18.967,8.164 0.28,0.057 0.394,-0.346 0.118,-0.43 -7.005,-2.129 -13.304,-4.883 -18.903,-9.689 -5.426,-4.658 -9.965,-10.146 -13.57,-16.316 -0.055,-0.093 -0.197,-0.009 -0.145,0.086 3.651,6.666 7.877,13.046 13.533,18.185 m -10.529,-4.099 c -0.131,-0.157 -0.4,0.05 -0.284,0.219 13.633,19.799 39.802,26.743 62.794,24.631 0.523,-0.048 0.543,-0.843 0,-0.831 -22.146,0.505 -47.741,-6.46 -62.51,-24.019 m -94.3,-87.034 c -0.383,-0.947 -0.036,-1.71 1.04,-2.286 1.705,-0.587 2.385,0.751 2.762,1.914 0.363,1.126 0.283,2.438 0.105,3.589 -0.062,0.397 -0.164,0.762 -0.281,1.115 -1.788,-0.685 -3.013,-2.586 -3.626,-4.332 m -3.019,9.11 c 3.25,0.033 5.655,-1.439 6.864,-3.916 3.208,0.909 7.224,-0.785 7.543,-4.3 0.012,-0.122 -0.193,-0.149 -0.212,-0.029 -0.536,3.326 -3.815,4.109 -6.703,3.691 -0.11,-0.015 -0.211,-0.056 -0.316,-0.081 0.304,-0.831 0.506,-1.742 0.553,-2.75 0.127,-2.687 -2.242,-6.927 -5.177,-3.936 -1.985,2.024 1.768,6.351 3.535,7.132 0.086,0.038 0.175,0.064 0.263,0.098 -1.137,2.377 -3.608,3.561 -6.35,3.742 -0.223,0.015 -0.228,0.347 0,0.349 m 53.161,58.553 c -0.368,-0.04 -0.587,0.509 -0.307,0.74 1.311,1.078 2.688,2.102 3.877,3.316 1.49,1.521 2.377,3.531 3.187,5.468 0.054,0.132 0.265,0.085 0.219,-0.06 -1.172,-3.876 -2.165,-8.935 -6.976,-9.464 M 424.396,150.313 c 3.373,0.697 -1.461,5.966 -2.636,6.437 -0.065,0.026 -0.134,0.044 -0.201,0.067 -0.036,-0.094 -0.08,-0.175 -0.114,-0.272 -0.786,-2.192 -0.273,-6.899 2.951,-6.232 m -3.272,7.281 c 1.112,2.574 3.667,4.183 6.794,4.285 0.229,0.008 0.218,-0.325 0,-0.349 -2.983,-0.325 -4.901,-1.544 -6.084,-4.065 0.039,-0.008 0.078,-0.013 0.115,-0.023 1.955,-0.468 5.728,-4.975 3.918,-7.001 -2.884,-3.231 -5.193,1.161 -5.34,3.719 -0.058,1.037 0.089,1.983 0.37,2.847 -2.887,0.639 -6.431,-0.885 -6.787,-3.995 -0.015,-0.136 -0.222,-0.142 -0.217,0 0.169,3.769 3.96,5.045 7.231,4.582 m -38.185,90.308 c 0.097,-1.852 0.272,-3.678 0.836,-5.453 0.588,-1.853 1.857,-3.511 2.828,-5.174 0.231,-0.395 -0.216,-0.781 -0.592,-0.593 -4.288,2.125 -3.5,7.226 -3.3,11.22 0.008,0.148 0.221,0.148 0.228,0 m -81.386,10.622 c 0.951,-0.389 1.953,0.84 1.255,1.658 -0.52,0.61 -1.423,0.378 -1.832,-0.187 -0.129,-0.581 -0.033,-1.223 0.577,-1.471 m -1.393,1.125 c 0.184,1.328 1.312,2.609 2.72,2.582 0.117,-0.002 0.153,-0.192 0.028,-0.213 -0.534,-0.091 -0.936,-0.386 -1.258,-0.767 0.346,0.108 0.721,0.146 1.082,0.077 1.9,-0.359 1.653,-2.978 0.205,-3.73 -1.406,-0.729 -2.984,0.577 -2.777,2.051 m -1.778,-8.169 c 0.952,-0.388 1.954,0.84 1.256,1.658 -0.52,0.61 -1.423,0.378 -1.831,-0.186 -0.129,-0.583 -0.033,-1.224 0.575,-1.472 m 1.328,3.707 c 0.117,-0.002 0.153,-0.192 0.028,-0.213 -0.534,-0.09 -0.934,-0.386 -1.257,-0.767 0.346,0.109 0.72,0.146 1.081,0.078 1.899,-0.36 1.653,-2.98 0.205,-3.73 -1.405,-0.73 -2.984,0.576 -2.776,2.051 0.183,1.327 1.312,2.608 2.719,2.581 m -1.125,-53.532 c -4.797,3.022 -13.842,4.764 -17.472,-0.791 -0.062,-0.092 -0.229,-0.035 -0.189,0.078 1.369,3.848 4.651,5.459 8.19,5.495 -0.189,0.077 -0.231,0.371 -0.039,0.483 0.548,0.321 0.972,0.757 1.583,0.984 0.614,0.229 1.241,0.34 1.896,0.322 0.235,-0.007 0.229,-0.346 0,-0.361 -0.812,-0.057 -1.817,-0.233 -2.53,-0.748 0.83,0.074 1.654,-0.11 2.445,-0.411 0.235,-0.075 0.465,-0.164 0.684,-0.277 0.277,-0.129 0.327,-0.419 0.246,-0.672 2.174,-0.71 4.187,-1.93 5.638,-3.515 0.278,-0.304 -0.082,-0.821 -0.452,-0.587 m -11.499,-27.791 c 10.322,-7.709 16.25,-17.023 19.574,-24.173 -1.404,5.489 -1.846,11.192 -1.734,16.883 0.012,0.676 0.021,1.345 0.031,2.014 -5.591,10.516 -18.278,17.28 -29.812,18.919 -0.57,-0.92 -1.119,-1.794 -1.658,-2.529 -1.231,-1.68 -2.548,-3.059 -4.211,-4.097 5.555,-1.195 11.65,-3.338 17.81,-7.017 m 14.682,13.924 c -3.844,7.772 -12.81,10.582 -20.589,6.772 -2.077,-1.018 -3.74,-3.394 -5.219,-5.741 5.777,0.027 12.425,-3.751 16.947,-6.729 4.805,-3.166 9.476,-7.108 12.062,-12.321 0.044,6.242 -0.317,12.187 -3.201,18.019 m -19.373,9.554 c 6.574,2.148 13.709,0.74 18.4,-4.419 4.176,-4.592 5.732,-11.285 6.166,-17.299 0.354,-4.933 -0.371,-9.956 -0.447,-14.896 -0.081,-5.318 0.629,-10.849 2.191,-15.96 0.689,-1.885 1.156,-3.45 1.451,-4.552 0.242,-0.02 0.482,-0.056 0.707,-0.061 0.393,-0.008 0.764,0.293 1.121,0.427 0.416,0.157 0.684,-0.291 0.637,-0.637 -0.131,-0.966 -0.888,-1.651 -1.756,-1.984 -0.773,-0.297 -1.882,0.085 -2.687,0.157 -0.874,0.078 -1.26,1.184 -0.456,1.683 0.563,0.35 1.216,0.421 1.865,0.429 -2.389,5.14 -9.204,20.084 -24.198,31.119 -16.568,10.074 -33.78,9.463 -38.748,9.507 0.003,-0.013 0.006,-0.025 0.01,-0.038 0.133,-0.679 0.412,-1.345 0.3,-2.042 -0.067,-0.421 -0.627,-0.482 -0.895,-0.236 -0.507,0.469 -0.948,1.361 -1.158,2.021 -0.277,0.866 -0.274,1.76 0.047,2.614 0.196,0.521 1.012,0.625 1.162,0 0.148,-0.616 0.294,-1.239 0.429,-1.86 2.985,0.577 10.764,1.71 20.524,-0.004 6.429,3.903 7.869,13.592 15.335,16.031 m -12.106,-78.988 c 5.215,-2.463 10.726,-4.314 16.532,-3.23 5.146,0.959 9.199,4.39 11.906,8.692 -7.283,-5.103 -19.735,-2.649 -27.054,1.39 -0.13,-2.314 -0.821,-4.613 -1.403,-6.847 0.008,-0.003 0.013,-0.002 0.019,-0.005 m -0.663,3.134 c 0.396,1.69 0.193,3.552 0.898,5.155 0.037,0.084 0.088,0.147 0.146,0.196 0.166,0.213 0.432,0.334 0.754,0.219 9.096,-3.234 18.426,-6.683 27.875,-2.241 0.016,0.008 0.033,0 0.05,0.003 0.002,0.003 0.004,0.005 0.005,0.009 0.105,0.185 0.437,0.057 0.353,-0.149 -0.012,-0.028 -0.028,-0.051 -0.038,-0.078 0.001,-0.056 -0.019,-0.114 -0.078,-0.163 l -0.003,-0.002 c -5.029,-11.732 -19.986,-13.39 -29.967,-7.227 -0.373,0.23 -0.39,0.612 -0.218,0.887 -0.278,1.106 -0.034,2.297 0.223,3.391 m 14.669,10.232 c -5.064,1.394 -8.657,6.084 -10.23,10.859 -0.059,0.18 0.226,0.303 0.308,0.13 1.923,-4.061 5.21,-7.106 9.36,-8.818 4.595,-1.898 8.601,-0.59 12.55,1.937 0.186,0.119 0.391,-0.152 0.233,-0.303 -3.67,-3.525 -7.18,-5.193 -12.221,-3.805 m -43.271,14.701 c -0.587,-4.789 0.336,-9.23 3.069,-13.351 3.202,-4.828 8.395,-6.481 13.71,-7.77 -0.405,2.133 -0.184,4.525 0.5,6.898 -6.782,0.294 -15.438,7.775 -17.279,14.223 m 17.829,-12.555 c 1.549,4.09 4.355,7.876 7.477,9.814 -1.603,1.448 -2.871,3.036 -3.812,4.726 -2.453,-2.952 -7.465,-2.291 -10.485,-0.655 -4.452,2.413 -6.236,6.657 -6.505,11.487 -0.005,0.068 0.104,0.082 0.118,0.016 0.872,-3.814 2.389,-6.643 5.749,-8.775 2.8,-1.779 7.675,-3.191 10.826,-1.603 0.021,0.011 0.037,0.003 0.059,0.008 -2.606,5.058 -2.401,10.954 0.245,16.611 0.773,1.653 2.112,3.98 3.748,5.842 -2.055,1.129 -3.359,3.595 -5.681,4.219 -1.704,0.456 -2.029,-3.326 -1.997,-4.238 0.075,-2.252 1.339,-4.531 3.54,-5.267 0.342,-0.114 0.305,-0.706 -0.091,-0.662 -4.699,0.513 -6.838,7.284 -4.372,10.94 3.147,4.669 7.125,-1.558 9.952,-3.629 2.242,1.93 4.857,2.623 7.326,-0.24 1.43,-1.657 2.161,-3.903 3.13,-5.836 1.705,-3.399 4.766,-3.953 8.148,-4.6 3.161,-0.606 6.511,-2.839 5.939,-6.507 -0.506,-3.234 -2.73,-4.763 -5.869,-4.889 -4.097,-0.166 -7.685,3.105 -9.251,6.602 -0.113,0.249 0.231,0.466 0.373,0.218 1.965,-3.396 7.454,-7.514 11.332,-4.185 1.686,1.448 1.211,4.174 -0.424,5.391 -1.287,0.957 -3.373,1.147 -4.904,1.462 -5.887,1.212 -7.111,5.223 -9.833,9.972 -3.172,5.533 -8.001,-3.753 -9.334,-6.41 -3.34,-6.652 -2.165,-14.103 2.55,-19.772 0.063,-0.077 0.064,-0.157 0.045,-0.23 0.004,-0.048 -0.009,-0.098 -0.048,-0.14 -4.194,-4.574 -8.437,-12.491 -8.173,-18.852 0.003,-0.074 -0.032,-0.124 -0.064,-0.176 -0.028,-0.327 -0.248,-0.631 -0.637,-0.585 -5.838,0.69 -10.564,2.943 -14.117,7.7 -3.344,4.477 -4.659,10.772 -2.998,16.116 0.069,0.224 0.357,0.145 0.363,-0.062 0.008,-0.012 0.022,-0.012 0.03,-0.027 3.356,-6.583 10.271,-12.334 17.645,-13.784"
         id="path1188"
         inkscape:connector-curvature="0"
         style="fill:#010000" />
      <path
         d="m 369.08,467.417 c -0.733,-0.312 12.392,-9.932 14.867,-27.786 1.947,-17.549 -2.076,-32.292 -1.191,-32.333 -0.154,-0.089 6.199,13.968 4.192,32.781 -2.958,19.568 -18.435,27.677 -17.868,27.338"
         id="path1192"
         inkscape:connector-curvature="0"
         style="fill:#010000" />
      <path
         d="m 395.578,442.913 c -0.358,-0.24 2.228,-5.888 2.435,-13.066 0.176,-7.181 -1.21,-13.274 -0.725,-13.432 0.217,-0.167 3.901,5.399 3.759,13.545 -0.333,8.301 -5.385,13.224 -5.469,12.953"
         id="path1194"
         inkscape:connector-curvature="0"
         style="fill:#010000" />
      <path
         d="m 353.111,94.732 c 9.539,11.816 28.53,8.985 41.214,4.892 21.871,-7.059 41.087,-20.479 62.837,-27.898 11.567,-3.946 23.291,-7.383 35.532,-8.369 12.406,-1 24.074,1.173 35.746,5.28 10.759,3.785 21.117,7.434 32.622,7.959 10.674,0.486 21.336,-1.176 31.527,-4.311 23.14,-7.121 43.604,-21.297 61.884,-36.821 0.307,-0.26 -0.107,-0.81 -0.435,-0.564 -17.265,12.894 -35.433,25.304 -55.893,32.53 -10.043,3.547 -20.55,5.776 -31.222,5.975 -11.423,0.213 -21.852,-2.439 -32.519,-6.261 -10.36,-3.712 -20.641,-7.012 -31.731,-7.413 -11.067,-0.402 -22.15,1.557 -32.755,4.597 -21.337,6.115 -40.128,17.07 -59.996,26.614 -9.128,4.384 -18.354,8.684 -28.43,10.279 -9.632,1.525 -21.394,1.349 -28.303,-6.566 -0.048,-0.054 -0.121,0.023 -0.078,0.077"
         id="path1196"
         inkscape:connector-curvature="0"
         style="fill:#010000" />
      <path
         d="m 360.36,118.229 c 19.781,26.731 60.423,11.176 86.248,3.917 20.224,-5.684 41.488,-8.391 62.43,-5.308 23.632,3.48 45.171,15.615 69.498,15.494 24.853,-0.124 50.19,-6.673 71.262,-19.947 0.595,-0.375 0.066,-1.29 -0.551,-0.945 -19.783,11.07 -42.835,16.402 -65.351,17.638 -24.277,1.333 -45.292,-9.507 -68.518,-14.105 -19.07,-3.774 -39.946,-2.952 -58.803,1.727 -15.345,3.807 -30.259,9.247 -45.798,12.29 -17.117,3.352 -38.228,4.175 -50.245,-10.893 -0.077,-0.097 -0.246,0.032 -0.172,0.132"
         id="path1198"
         inkscape:connector-curvature="0"
         style="fill:#010000" />
      <path
         d="m 479.145,69.074 c -2.588,-8.549 -7.333,-12.982 -9.228,-15.479 -2.579,3.855 -18.507,9.602 -21.105,10.073 5.668,3.882 13.54,12.616 18.396,19.508 -9.963,-3.404 -22.291,6.937 -17.706,14.175 4.481,7.075 15.461,4.977 20.373,0.167 3.071,-3.008 5.249,-8.177 2.844,-10.899 -2.852,-4.093 -11.707,-13.342 -11.707,-13.342 0,0 9.835,-5.16 18.133,-4.203"
         id="path1200"
         inkscape:connector-curvature="0"
         style="fill:#010000" />
      <path
         d="m 403.971,118.41 c -1.488,-4.918 -4.218,-7.467 -5.308,-8.904 -1.483,2.218 -10.645,5.524 -12.139,5.794 3.26,2.233 7.788,7.257 10.581,11.221 -5.731,-1.958 -12.821,3.99 -10.184,8.153 2.577,4.069 8.893,2.863 11.718,0.096 1.767,-1.73 3.019,-4.703 1.636,-6.269 -1.641,-2.354 -6.734,-7.674 -6.734,-7.674 0,0 5.657,-2.967 10.43,-2.417"
         id="path1202"
         inkscape:connector-curvature="0"
         style="fill:#010000" />
      <path
         d="m 578.972,96.113 c -1.488,-4.918 -4.218,-7.467 -5.308,-8.904 -1.483,2.218 -10.645,5.524 -12.139,5.794 3.26,2.233 7.788,7.257 10.581,11.221 -5.731,-1.958 -12.821,3.99 -10.184,8.153 2.577,4.069 8.893,2.863 11.718,0.096 1.767,-1.73 3.019,-4.703 1.636,-6.269 -1.641,-2.354 -6.734,-7.674 -6.734,-7.674 0,0 5.657,-2.967 10.43,-2.417"
         id="path1204"
         inkscape:connector-curvature="0"
         style="fill:#010000" />
      <path
         d="m 552.307,71.904 c -0.827,-4.919 -4.87,-17.069 -4.87,-17.069 l -7.344,-21.2 c 0,0 -12.484,5.094 -16.755,6.485 -4.041,1.315 -16.425,4.371 -16.425,4.371 l 2.923,7.27 c 3.064,8.685 6.349,20.711 7.362,26.557 -7.549,-7.341 -23.116,-3.27 -22.07,5.233 1.021,8.312 11.843,11.116 18.34,8.871 4.064,-1.405 8.244,-5.144 7.236,-8.633 -0.827,-4.92 -4.87,-17.069 -4.87,-17.069 0,0 -1.222,-3.966 -2.833,-8.635 8.657,-5.339 23.157,-8.827 31.087,-9.201 2.045,5.598 3.783,12.187 4.712,17.55 -7.548,-7.342 -23.115,-3.271 -22.069,5.233 1.02,8.311 11.843,11.115 18.341,8.87 4.062,-1.404 8.243,-5.144 7.235,-8.633"
         id="path1206"
         inkscape:connector-curvature="0"
         style="fill:#010000" />
      <path
         d="m 649.092,89.979 c -0.986,-4.89 -11.935,-37.953 -11.935,-37.953 l -8.027,-20.95 c 0,0 -12.312,5.496 -16.536,7.024 -3.996,1.445 -16.274,4.901 -16.274,4.901 l 3.157,7.171 c 3.344,8.581 9.38,25.328 10.581,31.138 -7.782,-7.093 -23.208,-2.52 -21.888,5.945 1.29,8.274 12.197,10.726 18.617,8.271 4.017,-1.535 8.075,-5.408 6.953,-8.862 -0.986,-4.891 -8.266,-26.002 -10.027,-30.616 8.48,-5.617 21.99,-9.23 29.904,-9.861 2.226,5.529 10.691,33.108 11.792,38.438 -7.781,-7.092 -23.208,-2.52 -21.887,5.946 1.29,8.274 12.197,10.725 18.618,8.271 4.015,-1.536 8.073,-5.408 6.952,-8.863"
         id="path1208"
         inkscape:connector-curvature="0"
         style="fill:#010000" />
    </g>
  </g>
</svg>
