<?xml version="1.0" encoding="UTF-8" standalone="no"?>
<svg id="svg2" xmlns:rdf="http://www.w3.org/1999/02/22-rdf-syntax-ns#" xmlns="http://www.w3.org/2000/svg" height="1391pt" width="886pt" version="1.1" xmlns:cc="http://creativecommons.org/ns#" xmlns:dc="http://purl.org/dc/elements/1.1/" viewBox="0 0 886 1391">
<g id="g4237">
<path id="rect4234" d="m0 0v0.77969l0.77968-0.77969h-0.77968zm316.47 0c-1.56 2.32-2.7203 4.91-3.1203 7.7-38.9 172.71-78.53 345.25-117.72 517.89-1.37 9.14-10.75-0.25-16.3-0.15-14.69-6.67-32.44 8.4588-23.62 23.519-6.69 3.27-17.109 2.91-19.789 11.3-5.95 9.42 5.0098 17.961-0.0906 27.461 6.44 15.84 21.411 24.83 37.941 27.93-9.72 56.07-24.91 111.46-36.9 167.25-0.93 10.29-9.51 16.859-15.85 24.109-40.65 43.2-80.76 86.91-121.02 130.47v6.1203c4.5 8.99 0.16936 25.801 12.609 27.941 42.5 10.25 84.561 23.979 127.44 31.639 3.93 5.43 10.969 7.96 14.909 12.75-27.33 41.23-26.05 93.331-21.43 140.56 2.82 29.31 2.391 63.25-18.989 86.05-19.98 22.01-40.38 46.589-46.82 75.989-4.22 5.55-5.7094 14.65 0.0203 19.73 18.87 13.35 43.439 27.331 66.519 14.961 25.62-14.95 48.361-34.76 67.381-57.5 13.54-13.79 3.4788-36.3-10.381-45.45-1.81-23.56 2.3403-47.13 4.4703-70.55 6.56-38.77 7.84-84.24 40.3-111.75 21.68 13.78 47.511 8.1303 71.141 4.3703 4.63 8.39 28.65 13.359 14.97 24.719-12.18 16.99-22.15 36.33-24.87 57.3-2.4 37.99-2.97 76.451-11.1 113.79-9.32 30.24-42.921 45.92-51.461 76.7-0.71 11.84-2.51 24.489 0.9 36.009 6.34 6.76 16.17 8.3906 24.87 10.141h15.791c30.55-7.64 51.46-33.51 75.38-52.18 9.63-6.53 14.279-24.53 1.9094-30.37-5.27-1.73-7.1088-6.9103-7.1688-11.97-3.46-63.82 18.259-130.74 65.919-174.38 23.28 5.13 46.98 10.84 71.07 9.4297 14.28-1.2 25.76-12.469 37.95-17.659 50.11 15.22 102.78 23.239 153.74 36.159 5.2 1.35 12.11 3.2609 15.6-2.3891 52.1-71.85 106.21-142.3 157.54-214.67 0.58-10 0.8406-21.351-2.1594-31.061-35.02-8.41-71.101-12.85-106.04-21.43 5.79-41.73 17.801-82.61 25.561-124.07 0.18-2.42 1.9394-12.22-2.4906-8.55-10.8 43.72-18.54 88.23-29.35 131.95-38.6-6.68-76.96-15.02-115.58-21.7-7.52-0.89-3.0194-11.079-3.8594-15.659 2.45-22.88-1.4503-45.821 0.1797-68.691 5.96 15.17 11.779 30.4 16.739 45.92 9.59 23.99 43.76 19.6 57.75 2.2703 21.39-25.48 40.93-52.909 67.42-73.559 13.58-16.79 32.441 6.0888 48.911 5.3688 13.91 5.34 15.289-12.499 25.469-16.919 8.87-5.03 2.11-17.59 10.2-23.02 7.24-6.52 3.2609-16.57-3.9391-20.98 5.87-5.07 13.289-12.161 7.9094-20.511-9.48-12.02-27.23-8.2597-40.23-11.58-4.05-4.39-9.6294-5.5794-14.859-7.7094-1.54-8.43 2.81-16.911 3.85-25.341 31.03-140.86 60.949-281.98 92.309-422.77v-8.8297c-1.3 0.7-2.9797 1.1494-3.3297 2.8094-33.63 150.66-65.301 301.93-99.311 452.44-11.51 2.38-23.419 4.34-32.819 12.2-29.83 23.3-53.13 53.58-78.5 81.4l-0.7812 0.17031c-6.33-35.29-16.039-69.921-23.309-104.99-12.94-35.08-31.13-78.99-71.95-85.98-4-13.6-20.481-19.171-32.391-11.741-18.14-5.74-32.08-30.65-16.23-46.83 39.74-4.3 81.501-12.189 113.79-37.409 22.58-16.36 35.02-41.981 49.28-64.841 18.49-3.7 43.539 1.81 56.359-16.55 14.07-23.61 24.361-51.18 22.991-78.98-0.09-15.85-14.389-27.03-29.409-27.12 14.52-63.22-6.9409-132.45-54.411-176.67-51.53-47.49-126.08-54.099-192.89-53.039-32.91-0.75-67.121 8.7891-91.741 31.389-42.81 37.68-58.44 96.09-66.15 149.95-21.48-1.46-33.91 20.18-33.55 39.4-0.48 18.68-6.3003 45.4 14.83 54.87 5.28 3.58 16.74 1.2103 16.53 9.6203 1.93 60.71 35.351 124.76 95.581 145.15 24.26 3.06 7.61 37.23-4.4 44.42-14.2-10.6-36.581-10.561-44.581 7.9094-22.69 4.81-41.18 20.701-55.83 38.111-24.49 26.91-43.369 59.409-65.789 87.119-9.29-29.24-14.531-61.679-21.481-92.319-6.73-15.46-27.979-12.65-37.389-24.02 38.79-174.87 79.51-349.43 118.89-524.24 0.38-2.75 0.23-5.53 0.3-8.3h-1.8391zm-134.89 616.1c4.44 0.03 8.8597 0.84031 13.03 2.3203 6.85 37.66 12.081 76.54 28.381 111.6 4.83 9.04 12.659 20.47 24.659 17.83 18.33-1.47 31.939-15.81 43.359-27.62-4.82 23.96-5.2688 48.911-7.0188 72.861-35.32-10.05-70.471-20.701-105.93-30.261-16.77-6.83-23.87 14.2-36.13 21.07 11.09-54.07 24.51-107.66 36.22-161.61 0.63-2.26 1.0097-5.1506 3.4297-6.1906z" fill="#19191a"/>
<path id="path8" d="m476.48 236.09c-1.38 0.03-2.79 0.28-4.27 0.81-23.16 7.29-20.71 39.54-21.42 58.5 1.42 9.13-11.55 19.72-18.72 11.32-4.87-6.73-1.99-16.32-4.54-24-12.4 1.39-27.41 0.11-35.15 12.18-13.89 19.21-9.78 45.06-11.02 67.32-1.55 19.13 16.24 34.46 34.95 32.52-0.69-14.93 1.37-32.68-0.93-45.85-4.34 8.61-21.72 4.64-16.73 20.89-12.14-3.07-3.8-25.5 9.29-21.88 2.12-11.22 1.19-24.04-0.14-35.46-4.76 0.65-17.19 7.12-12.15-4.12 6.48-1.92 13.98-3.15 20.28 0 1 12.78-0.4 25.62 0.72 38.38 2.41-3.26 1.15-15.03 7.06-13.85-6.81 55.14-3.9 113.67 19.9 164.79 19.53 42.33 57.39 75.31 101.75 89.45 11.08 1.74 13.52 14.41 10.42 23.61-3.33 16.04-12.74 40.48-30.67 40.66-8.73 29.3-21.7 58.81-17.91 90.11 0.82 23.27 17.26 46.42 40.09 52.5 29.3 5.84 62.61-1.58 84.83-21.9 16.17-27.52 25.58-58.46 41.19-86.31 4.88-6.19-6.05-7.66-9.38-10.92-20.62-11.69-26.45-46.73-5.43-60.34 54.61-6.35 113.49-17.77 153.78-58.47 20.76-19.74 31.76-46.63 48.02-69.65 22.46-4 51.69 2.06 68.63-17.56 16.98-30.17 31.05-64.73 27.51-99.85-1.22-24.81-39.1-33.43-51.59-12.73-17.51 26.95-29.11 57.6-35.7 89-6.21 14.97-27.16 10.25-28.79-4.64 0.39-43.84 19.74-85.38 23.21-128.85-43.87-1.9-88.87 9.63-132.85 0-79.65-15.41-156.74-41.65-233.38-67.82-7.2-1.82-13.43-8-20.86-7.84zm33.65 117.26c14.38 0.14 28.82 3.76 40.03 12.86 3.56 5.18-3.87 6.04-6.69 2.91-20.03-13.08-45.12-10.02-67.03-4.24-0.46-9.48 13.41-8.38 19.46-10.58 4.66-0.65 9.44-0.99 14.23-0.95zm427.03 29.53c5.33-0.18 7.95 7.21 0.1 7.02-17-1.35-37.32 13.3-30.7 30.89 17.46-7.77 22.08 23.49 4.99 22.9 4.38-10.43 4.54-24.18-10.73-10.83-9.88-21.12 6.53-51.8 32.32-48.47 1.42-1.03 2.79-1.48 4.02-1.51zm-194.5 9.92c18.69-0.06 37.75 6.86 48.16 22.91 2.2 6.63-6.32 4.14-7.81-0.01-17.36-21.15-46.69-16.35-70.32-12.11-1.41-7.49 9.43-7.32 14.56-9.14 4.98-1.06 10.18-1.63 15.41-1.65zm-142.56 33.9c2.81-0.01 3.32 5.18 0.78 6.29-13.59 9.12-11.58 32.46 1.73 41.27 13.63 4.2 26.08-3.21 37.7-9.07 4.2-1 3.89 4.67 0.94 6.02-13.83 9.73-36 17.95-49.13 2.75-8.78-13.03-10.93-37.82 5.09-45.84 1.13-1.01 2.1-1.42 2.89-1.42zm-83.69 58.49c4.99 0.3 8.46 5.81 12.55 8.43 46.54 37.88 115.36 57.92 171.29 29.07 3.65-2.4 14.49-4.37 9.96 2.25-63.58 36.52-145.61 12.31-196.21-35.63-0.24-1.31-0.17-2.62 0.18-3.91 0.78-0.19 1.52-0.25 2.23-0.21zm-303.16 175.28c-0.86 0.01-1.72 0.04-2.59 0.1-13.75 0.07-20.15 23.12-4.1 26.69 2.98 1.89 14.12 4.19 7.15 7.65-12.08-5.74-26.15-2.05-37.45 3.93-4.35 8.94-4.29 23.25 7.9 25.97 17.45 6.4 37.68 11.27 55.72 7.44 1.84-14.55-21.99-7.75-22.97-22.13-7.21-21.57 14.35-33.72 31.99-36.02-10.45-7.09-22.76-13.67-35.65-13.63zm259.24 0.24c-1.24-0.05-2.62 0.32-4.11 1.25-12.37 3.17-23.46 10.26-33.53 17.89-53.19 47.41-87.5 112.21-130.14 167.56-5.97-8.51 17.33-19.59 12.05-31.56-9.09-40.06-18.38-80.12-26.82-120.32-16.39-17.83-48.69-22.37-66.55-4.46-6.35 10.13-2.83 26.96 11.14 26.92 12.96 5.64 6.93-17.65 18.96-15.39 2.71 7.37 2.27 15.76 6.57 22.56-8.64 4.33-8.74-10.94-9.92-14.59-10.17 11.73-0.96 35.71-17.58 45.02-7.12 18.87 25.44 3.22 16.59 17.23 6.65 41.98 13.64 84.43 28.59 124.43 5.77 12.09 10.47 27.13 23.98 32.37 36.27 0.87 59.88-33.27 71.81-63.57 12.25-30.41 28.68-59.61 52.4-82.62 29.13-31.43 46.26-72.58 52.61-114.62 0.06-4.01-2.33-7.94-6.05-8.1zm249.89 39.6c-32.88 26.69-28.29 76.51-29.68 114.29 2.15 29.9 7.4 73.99 42.37 81.78 2.8 0.57 9.49 2.55 8.4-2.48-4.1-17.46-11.68-33.95-16.48-51.2-2.56-1.69-0.18-11.5 2.35-6 21.77 61.72 42.5 123.84 64.67 185.4 5.78 18.2 28.89 21.2 44.44 15.2 18.29-8.8 30.21-26.1 41.98-41.86 21.27-26.89 45.05-52.2 72.63-72.66 13.48-4.27 25.15 7.18 37.84 10.01-17.35-10.57-0.66-25.75-3.64-40.36-2.11-7.77 0.94-14.78 2.69-22.08-8.05-1.59-11.14-7.19-8.6-14.95-7.66 3.61-18.83 14.7-26.29 8.79 10.78-5.33 21.44-10.66 30.32-19.08 7.1 2.39 1.12 21.23 11.62 20.96 14.5-8.91 11.2-36.41-4-43.25-23.94-6.96-48.02 5.18-64.97 21.47-36.48 33.36-66.97 72.52-100.07 109-8-2.35 10.6-16.03 12.09-22.1l-0.98 0.21c-2.37 0.89-4.93 1.56-5.25-1.78-7.63-40.4-19.54-79.92-26.7-120.44-7.74-26.25-19.42-51.44-34.57-74.23-11.9-16.48-28.1-34.66-50.17-34.64zm-544.7 27.5c-4.7 1.55-3.62 9.33 0.1 11.81 14.13 9.47 31.83 13.88 48.72 12.44 5.49-1.62 14.7-6.82 9.32-13.1-19.71-2.01-39.81-3.24-58.14-11.15zm9.38 22.47c6.19 9.17 19.82 9.6 29.55 13.18 4.2 4.07 17.19 0.24 9.98-5.66-13.51-0.46-26.58-3.92-39.53-7.52zm824.84 82.7c-5.6-0.09-0.7 7.78-1.3 11.33 2 8.2-4 14.64-5.4 22.16 15.8-0.5 41.8 0.69 48.5-17.77-4.1-16.35-27.3-15.12-40.5-15.59-0.5-0.08-0.9-0.12-1.3-0.13zm23.5 35.58c-1.5 0.03-3 0.32-4.4 0.89-10.6 2.64-21.7 1.51-32.47 1.9-8.14 4.69-13.27 22.34-0.56 24.46 17.63 3.27 42.23 6.69 52.93-11.7 1.3-8.51-7.3-15.71-15.5-15.55zm-41.43 31.41c-10.85 24.34 55.63 32.83 45.23 0.15-14.6 4.57-30.4 2.34-45.23-0.15zm-6.12 15.43c-4.99 14.39 33.95 34.49 35.35 10.95-13.1 1.17-24.01-7.77-35.35-10.95zm-753.23 326c-2.52 5.4-7.2 8.4-12.73 10.5-40.54 25.6-50.37 78-52.64 122.4-4.06 56.2 19.25 119.2-12.99 170.7-12.44 18.8-32.88 32.4-40.8 54.2 0.64 17.6 3.08 37.1 8.16 53 24.26-26 58.68-60 98.6-47.5 10.27-9.2 12.72-25.2 11.62-38.4-2.21-48.7 6.25-97 13.66-145 6.46-26.2 10.06-56.2 31.04-75.3 19.97-27.2 44.07-52 72.84-69.9-35.44-20.2-75.86-33.3-116.76-34.7zm236.88 71c-2.29 0.1-4.57 0.1-6.85 0.2-38.5 37.3-82.17 78.8-89.27 135.3-0.69 46.1-2.48 92.5-12.27 137.7-4.25 21-21.87 34.8-33.91 51.2-5.44 18.2-9.68 36.9-13.29 55.6 23.66-22.8 58.29-32.8 90.8-27.8 14.02 3.4 20.28-13.4 24.28-23.5-7.06-36.1-3.1-73.3 4.94-108.9 14-71.9 65.18-129.6 118.27-176.8 1.92-5.5 21.81-7.1 14.69-14.2-27.85-20.7-63.06-28.9-97.39-28.8zm-362.4 293.9c-6.61 10.3-14.187 20.6-17.549 32.5 2.312 12.2 16.209 17.5 27.099 19.8-3.96-16.7-3.98-38.6-9.55-52.3zm98.18 0.1c-2.6-0.1-5.2 0-7.77 0.5-32.01 4.4-57.02 29.8-75.35 54.1 6.15 10.5 20.02 5.3 28.62 0.5 24.58-14.3 50.32-29.2 67.19-52.7-4.07-1.5-8.37-2.3-12.69-2.4zm114.91 38.7c-15.99 15.2-33.79 42.2-19.25 64 2.12-0.3 5.66-0.1 5.57-3.1 3.58-20.5 8.14-40.9 13.68-60.9zm75.1 22.7c-7.98 0.2-17.72 2.5-24.03 1.6-21.91 4.6-47.2 13.3-58.87 33.9-0.87 16.3 23.33 16.2 34.15 11.6 21.55-11.8 43.11-26.6 60.11-43.8-2.4-2.7-6.56-3.4-11.36-3.3z" transform="scale(.8)" fill="#f6c870"/>
<path id="path20" d="m503.06 640.71c-0.45 0-0.89 0.01-1.32 0.03-13.19 0.32-25.85 13.85-18.45 27.05-6.28 47.11-27.1 93.12-61.07 126.93-49.37 53.03-64.58 130.39-58.68 200.08 52.95 33.3 108.54 66.1 170.9 78.2 69.44 20.4 145.23 24.5 214.26 0.8 6.1-5.1 16.55-8.9 13.86-19-1.22-48 4.79-98.34-13.22-144.06-4.2-16.46-27.29-5.94-36.02-19.09-29.5-32.6-24.75-80.82-24.62-121.29 4.07-25.13 7.68-53.16 27.05-71.9-0.87-17.55-24.89-26.46-36.76-13.07-13.05 22.53-21.71 47.26-32.94 70.7-13.61 38.05-61.83 48.35-97.49 43.03-31.27-6.57-50.75-41.33-46.31-71.92 0.44-27.81 10.68-53.96 20.11-79.58-3.85-4.94-12.54-6.91-19.3-6.91zm-122.67 371.99c-16.22 21.6-30.6 54.1-61.15 56.9-2.99 3.7-6.03 7.6-7.69 12.1 34.04-4.5 56.87-34.8 75.8-60.7 7.32-4.2-3.61-8.1-6.96-8.3zm306.38 79c-1.26 0-2.76 0.3-4.55 1-13.82 22.1-13.93 53.2-11.62 79.1 1.17 37.1 41.46 64.2 76.64 55.6 1.59-4.2 5.99-12.8-1.4-12.4-28.33 1.9-56.53-17.7-60.37-46.8-0.88-18.4-2.08-37.7 3.09-55.6 3.76-6.8 7.02-21.1-1.79-20.9z" transform="scale(.8)" fill="#fff"/>
<path id="path40" d="m209.72 957.86c-15.52 16.24-38.94 30.1-40.91 54.64-5.76 25.8-11.61 51.5-17.97 77.1-2.65 1.5-2.73-1.8-3.16-3.6 4.26-27.9 14.68-55.3 17.01-83.4-51.6 55-103.02 110.2-153.82 165.9-7.0575 6.2 6.293 7.3 9.681 8.5 58.137 12.4 115.41 28.1 173.6 38.9 65.43-60.1 115.56-135 158.11-212.5 1.75-2.7 2.29-7.6-1.88-7.49-46.87-12.22-93.04-30.4-140.66-38.05zm562.43 121.24c11.41 98.1-34.7 199.6-89.25 280.2 42.33 14.3 87.55 22.5 131.06 34.3 16.17 1.8 38.32 14.8 50.15-2.2 35.44-42.4 68.01-87 100.86-131.4 30-42.1 64.23-82.5 87.43-128.6-43.8-7.6-87.31-19.7-131.5-23.4-11.84 51.2-21.96 102.9-33.74 154.1-0.39 3.1-2.95 0.8-4.59 0.2 10.77-48.4 20.99-96.9 32.05-145.3 0.8-4.1 4.22-12.6-3.11-12.4-46.69-7-92.6-20.9-139.36-25.5zm282.15 62c-57.52 86.8-120.2 170.3-185.36 251.6-12.12 9.3-15.44 24.2-17.49 38.5 5.15 4.5 9.24-2.9 12.19-6.4 62.27-85.1 125.87-169.2 187.86-254.5 7.8-7.9 2.6-19.6 2.8-29.2zm-1048.1 37.9c3.3875 11 0.3512 31.4 16.701 31.9 50.675 12.1 100.47 28.3 151.67 37.7 3.85-9.3 7.18-19.1 13.08-27.6-60.39-14.1-120.58-30-181.45-42zm670 186.3c-7.28 7.8-14.87 15.2-22.4 22.6 60.91 15.3 123.66 27.6 185.2 42 11.88 4.2 9.81-17.3 6.45-21.3-56.39-13.8-114.06-25.6-169.25-43.3z" transform="scale(.8)" fill="#a66111"/>
<path id="path42" d="m359.38 1000.4c-11.47 21.3-24.86 41.8-35.22 63.5 23.46-4.8 35.05-30.2 48.29-47.8 7.76-8.1-6.55-16-13.07-15.7zm34.83 20.1c-18.55 24.3-38.15 50.7-67.56 62.5-7.31 4.2-18.95 0.4-22.87 9.7-30.54 46.2-66.02 89.2-106 127.5-6.83 7.2-15.43 14.3-16.28 24.9 69.25-26.2 141.35 7.3 202.14 39.7 19.2-36.1 41.67-70.9 68.62-101.6 10.36-3.4 0.79 10.9-2.22 13.1-26.74 38.9-63.93 77.7-69.19 126.1 75.41-28.9 179.69-23.8 226.64 51.4 6.96 7.9 8.55 20.8 16.36 27.3 29.35-13.2 48.77-40.8 68.31-65.3 18.1-33.1 41.9-65.7 49.99-103.1-16.41 0.1-32.49-1.9-46.49-10.8-43.31-28.3-31.04-85.8-22.1-128.1-57.85 2.9-115.12-8.6-170.46-24.4-38.49-10.9-73.76-31.9-108.89-48.9zm366.29 49.9c-16.96 14.9-41.01 16.1-61.18 22.5-8.82 25.9-14.12 54.9-6.43 81.8 4.61 25.6 34.42 39.2 58.55 35.1 18-39.8 17.37-84.6 15.62-127.3-5.08-2.1-3.2-11-6.56-12.1z" transform="scale(.8)" fill="#ff6b1b"/>
<path id="path58" d="m225.62 1241.7c-14.38 2.3-31.06 2.5-42.96 11 3.2 10.7 20.16 13.1 26.19 2.3 2.47-5.5 25.17-12 16.77-13.3zm130.97 37.5c-21.69 12.6-41.95 30.5-56.55 50.6 20.82 17.7 52.96 8.1 77.47 5.1-6.67-14.1-0.63-29 2.35-43.1-6.66-5.4-15.01-10.8-23.27-12.6zm94.98 34.3c-3.54 0.1-7.13 0.7-10.6 0.9-20.18 2.8-40.22 6.9-59.62 13.2 9.1 10.8 19.3 24 33.21 28.4 14.23-14.1 28.17-28.5 43.28-41.6-2.04-0.7-4.14-0.9-6.27-0.9zm124.92 34.4c-21.99 11.7-42.78 29-56.31 49.4 30.48 7.7 64.92 17.5 95.43 8.1-6-21.3-21.22-43-39.12-57.5z" transform="scale(.8)" fill="#d84e03"/>
</g>
</svg>
