<?xml version="1.0" encoding="UTF-8"?>
<!DOCTYPE svg PUBLIC "-//W3C//DTD SVG 1.1//EN" "http://www.w3.org/Graphics/SVG/1.1/DTD/svg11.dtd">
<svg version="1.1" xmlns="http://www.w3.org/2000/svg" xmlns:xlink="http://www.w3.org/1999/xlink" x="0" y="0" width="218" height="478" viewBox="0, 0, 218, 478">
  <defs>
    <clipPath id="Clip_1">
      <path d="M0.06,0.12 L217.546,0.12 L217.546,478 L0.06,478 z"/>
    </clipPath>
    <clipPath id="Clip_2">
      <path d="M0.06,0.12 L217.546,0.12 L217.546,478 L0.06,478 z"/>
    </clipPath>
  </defs>
  <g id="Layer_1">
    <path d="M194.009,348.303 C194.009,348.303 200.122,346.233 203.976,351.578 C205.505,353.701 206.999,357.642 207.446,361.492 C214.052,369.201 217.712,376.562 216.523,383.691 C215.884,387.531 212.319,389.324 207.433,387.514 C205.028,386.623 201.966,384.531 198.787,379.023 C195.808,373.861 190.438,366.478 188.984,364.478 C186.925,361.646 186.134,357.234 186.134,357.234" fill="#FFFFFE"/>
    <path d="M107.194,291.293 C107.194,291.293 118.603,312.407 123.034,314.773 C124.817,315.724 131.989,318.773 141.69,324.117 L152.852,320.805 L156.417,303.125 C151.278,299.883 146.198,297.998 143.686,297.228 C142.659,296.915 133.286,263.78 133.286,263.78 L118.731,266.135 L107.194,291.293" fill="#6B6C6B"/>
    <path d="M195.811,351.839 C190.884,342.415 173.779,318.953 163.624,308.801 C159.772,304.949 155.114,302.126 151.114,300.191 L150.805,300.433 C150.805,300.433 155.475,321.482 135.893,321.126 L137.107,321.658 C150.759,328.791 169.973,339.773 187.394,358.542 L187.688,361.932 L190.779,366.686 C190.779,366.686 192.036,360.238 199.417,361.09 C200.065,359.306 199.214,354.886 198.605,353.831 C197.997,352.776 198.038,351.154 195.811,351.839" fill="#FADCB4"/>
    <path d="M107.979,293.427 C107.97,293.427 107.959,293.426 107.947,293.424 C107.981,293.397 108.014,293.37 108.048,293.343 C108.049,293.398 108.028,293.427 107.979,293.427 M108.048,293.343 C108.04,293.094 107.542,292.319 106.913,291.435 C107.06,291.268 107.21,291.098 107.363,290.925 L107.194,291.293 C107.194,291.293 107.581,292.008 108.24,293.191 C108.176,293.242 108.112,293.293 108.048,293.343 M138.808,282.029 C138.808,282.029 138.732,282.023 138.586,282.015 C136.21,274.066 133.819,265.657 133.363,264.053 L133.367,264.049 L138.808,282.029" fill="#AFB0AF"/>
    <path d="M108.24,293.191 C107.581,292.008 107.194,291.293 107.194,291.293 L107.363,290.925 C112.786,284.802 122.22,275.036 129.192,267.91 C129.246,268.051 129.3,268.193 129.352,268.335 L133.363,264.053 C133.819,265.657 136.21,274.066 138.586,282.015 C138.389,282.006 138.062,281.994 137.62,281.994 C133.801,281.994 121.321,282.86 108.24,293.191" fill="#545554"/>
    <path d="M108.062,220.07 C108.062,220.07 79.988,270.451 75.811,283.257 C72.999,291.882 72.999,299.007 72.999,299.007 C72.999,299.007 71.956,306.328 70.177,317.469 L96.761,325.44 C99.744,313.66 100.715,307.269 100.813,305.32 C101.064,300.322 103.374,295.819 103.374,295.819 C106.936,290.194 138.004,258.967 138.004,258.967 L135.21,244.034 L108.062,220.07" fill="#6B6C6B"/>
    <path d="M97.698,321.644 C93.429,339.398 83.849,372.044 63.563,424.069 L60.182,428.169 L46.516,427.836 L47.438,418.89 C56.701,397.957 66.271,342.225 70.606,314.757 L70.974,314.273 C70.974,314.273 85.786,311.273 97.599,320.836 L97.698,321.644" fill="#FADCB4"/>
    <path d="M131.374,252.631 C131.373,252.632 123.605,260.44 115.39,268.953 C111.282,273.21 107.062,277.643 103.644,281.366 C101.935,283.229 100.426,284.913 99.229,286.312 C98.032,287.714 97.151,288.82 96.676,289.568 L96.664,289.587 L96.654,289.608 C96.641,289.641 94.3,294.179 94.038,299.312 C93.959,300.924 93.226,305.932 91.104,314.843 L92.077,315.075 C94.206,306.119 94.946,301.118 95.036,299.362 C95.158,296.932 95.785,294.597 96.384,292.876 C96.684,292.016 96.975,291.309 97.191,290.819 C97.299,290.574 97.388,290.384 97.45,290.255 C97.511,290.127 97.544,290.064 97.543,290.064 L97.099,289.836 L97.521,290.103 C97.937,289.446 98.806,288.345 99.99,286.962 C104.138,282.111 112.168,273.695 119.153,266.504 C122.645,262.908 125.878,259.615 128.238,257.222 C129.417,256.026 130.379,255.054 131.045,254.382 C131.712,253.709 132.082,253.337 132.083,253.336 L131.374,252.631" fill="#FFFFFE"/>
    <path d="M144.192,190.082 C144.192,190.082 166.561,211.82 179.498,212.758 C179.498,212.758 166.575,259.585 143.686,259.632 C137.991,259.643 131.662,256.818 124.604,253.994 C115.301,250.271 104.734,246.547 92.687,249.319 L86.686,258.882 C82.186,249.319 79.778,214.27 79.778,214.27 L84.849,202.836 L139.849,188.503 L144.192,190.082" fill="#CDCBCB"/>
    <path d="M146.804,192.7 C147.984,195.626 157.578,226.602 154.402,239.942 C151.925,250.349 145.813,254.808 139.183,259.17 C166.183,263.17 179.498,212.758 179.498,212.758 C172.288,212.235 154.367,198.78 146.804,192.7" fill="#A6A5A5"/>
    <path d="M65.061,164.394 C59.063,160.396 57.19,161.645 57.19,161.645 L57.287,160.4 L58.84,152.445 L62.218,151.949 L66.95,162.299 L65.061,164.394" fill="#E46A7C"/>
    <path d="M131.624,137.139 C144.242,140.264 159.611,149.76 159.611,149.76 L165.571,140.417 L166.962,132.661 C154.737,121.5 139.875,111.842 139.244,111.213 C138.307,110.275 136.432,107.839 134.56,106.526 C132.685,105.215 111.13,102.965 111.13,102.965 L111.367,101.387 C111.768,97.167 113.381,93.156 113.381,93.156 C108.051,91.955 102.637,92.152 97.507,93.131 L82.456,98.185 C74.058,102.096 67.274,107.4 67.274,107.4 C67.274,107.4 70.841,107.683 73.804,112.099 L74.209,113.461 C74.209,113.461 63.15,123.582 62.588,125.457 C62.025,127.33 60.27,143.123 60.27,143.123 L59.44,145.469 C58.781,147.42 58.324,149.072 58.277,150.009 C58.09,153.758 69.147,171.187 69.147,171.187 C69.147,171.187 76.645,197.615 76.457,200.428 C76.27,203.238 76.136,205.255 77.229,207.043 C79.291,210.417 78.142,213.725 78.142,213.725 C78.142,213.725 108.638,216.969 132.131,197.369 L135.682,179.997 C135.682,179.997 128.747,171.375 127.435,166.877 C126.42,163.391 129.793,146.175 131.362,138.601 L131.624,137.139" fill="#E46A7C"/>
    <path d="M124.931,45.537 C124.931,45.537 141.884,37.908 149.51,53.164 C157.136,68.419 157.501,84.766 161.135,85.855 C165.022,87.021 171.181,80.889 171.181,80.889 C171.181,80.889 165.008,91.786 160.525,93.724 C157.591,94.993 154.546,90.877 152.534,87.79 C147.331,79.801 133.407,65.513 121.056,61.76" fill="#70422C"/>
    <g>
      <path d="M123.867,45.846 L120.299,61.58 L135.385,69.529 C135.385,69.529 136.358,53.632 131.005,44.061 L123.867,45.846" fill="#543121"/>
      <path d="M51.073,67.209 C42.6,60.55 39.403,57.391 41.51,45.174 C45.143,24.106 59.429,10.666 75.411,3.643 C86.633,-1.288 96.6,1.343 101.686,4.733 C106.771,8.122 109.071,17.325 109.071,17.325 C109.071,17.325 118.877,17.81 122.509,31.612 C126.002,44.876 124.203,62.729 115.485,67.692" fill="#70422C"/>
    </g>
    <path d="M82.826,95.019 C82.826,95.019 83.895,108.67 82.588,113.182 L81.402,114.369 L81.555,127.972 C81.555,127.972 87.803,127.658 95.675,123.161 L96.887,122.034 C99.231,118.946 101.087,116.145 101.886,114.149 C105.133,106.027 94.513,100.279 94.513,100.279 L97.599,98.447 L96.418,86.641 C103.379,80.163 108.222,72.172 108.222,72.172 C108.222,72.172 115.366,70.599 118.151,62.729 C119.974,57.579 117.548,52.436 111.37,55.1 C107.118,56.934 104.954,64.483 104.954,64.483 C107.315,56.676 99.143,36.335 99.143,36.335 L97.689,48.684 C91.515,38.694 92.605,27.617 92.605,27.617 C92.605,27.617 85.339,25.074 76.44,28.525 C54.69,36.959 49.38,54.496 49.38,54.496 C49.38,54.496 49.864,76.531 59.551,85.247 C69.236,93.966 76.017,95.178 76.017,95.178 L83.886,94.812" fill="#FADCB4"/>
    <path d="M131.099,141.086 L127.435,166.877 L138.849,182.836 L130.016,199.003 C130.016,199.003 114.516,209.336 107.516,210.836 C100.516,212.336 78.72,213.663 78.72,213.663 L78.72,208.213 C76.099,206.836 75.974,197.836 75.474,194.086 C81.224,193.586 94.792,189.848 109.099,176.336 C115.196,170.577 131.849,135.086 131.849,135.086 L131.099,141.086" fill="#E0536C"/>
    <path d="M165.286,131.273 C165.286,131.273 164.37,142.31 152.251,145.56 L153.112,146.065 C157.029,148.164 159.611,149.76 159.611,149.76 C156.611,158.568 137.369,180.248 137.369,180.248 C137.369,180.248 123.125,179.685 120.875,179.873 C118.628,180.06 118.44,189.18 118.25,191.617 C118.065,194.054 122.188,194.429 122.188,194.429 C122.188,194.429 130.81,198.365 133.81,197.053 C134.885,196.584 135.31,197.334 136.994,194.054 C141.869,195.366 143.53,189.647 144.491,188.805 C145.991,187.494 175.61,161.758 178.977,157.318 C183.099,151.884 180.978,149.135 180.978,149.135 C178.103,143.641 172.448,137.596 166.206,131.976 L165.286,131.273" fill="#FADCB4"/>
    <path d="M69.147,171.562 C69.147,171.562 65.774,189.742 63.15,192.742 C60.527,195.741 53.218,191.242 53.218,191.242 C53.218,191.242 36.349,171.937 29.789,148.322 C29.789,148.322 28.657,125.458 30.011,121.564 C31.366,117.669 38.987,115.466 40.512,115.974 C42.036,116.482 44.068,120.887 44.068,120.887 C44.068,120.887 45.423,126.137 44.915,130.031 C44.407,133.927 41.696,135.959 41.696,135.959 C41.696,135.959 43.455,141.684 42.407,144.651 C41.36,147.622 40.659,149.071 40.659,149.071 C40.659,149.071 50.431,161.376 55.553,168.178 L55.841,167.814 L56.866,162.557 L57.19,161.645 C57.19,161.645 59.063,160.396 65.061,164.394 L69.147,171.562" fill="#FADCB4"/>
    <path d="M81.37,47.252 C81.37,50.448 80.258,53.04 78.89,53.04 C77.519,53.04 76.407,50.448 76.407,47.252 C76.407,44.055 77.519,41.462 78.89,41.462 C80.258,41.462 81.37,44.055 81.37,47.252" fill="#37312A"/>
    <path d="M59.507,55.044 C59.989,57.44 59.55,59.548 58.522,59.755 C57.495,59.961 56.274,58.187 55.79,55.792 C55.309,53.397 55.749,51.289 56.776,51.083 C57.802,50.875 59.024,52.65 59.507,55.044" fill="#37312A"/>
    <path d="M81.555,127.972 C81.555,127.972 87.803,127.658 95.675,123.161 C95.675,123.161 81.127,141.571 78.825,142.372 L81.555,127.972" fill="#FFFFFE"/>
    <path d="M56.625,457.444 C61.125,452.382 61.5,445.257 61.875,440.007 C62.25,434.757 63.938,425.382 63.938,425.382 C62.216,423.504 55.767,419.424 53.093,421.41 C51.007,419.058 45.681,417.82 44.687,420.418 C43.992,422.236 41.063,424.632 29.625,428.757 C19.244,432.501 6.577,434.042 3.952,435.729 C2.532,436.642 1.497,439.914 0.845,442.726 C0.292,445.113 4.917,448.982 11.654,449.732 C21.703,450.851 37.767,452.168 56.625,457.444" fill="#FFFFFE"/>
    <path d="M96.029,52.64 C96.581,54.953 94.057,57.539 90.391,58.412 C86.725,59.287 83.306,58.118 82.754,55.805 C82.202,53.492 84.727,50.908 88.393,50.035 C92.058,49.161 95.476,50.326 96.029,52.64" fill="#EA8E91"/>
    <path d="M57.866,64.735 C58.679,66.389 57.21,68.77 54.593,70.053 C53.718,70.481 52.825,70.733 51.996,70.817 C51.103,70.773 49.706,65.516 50.048,65.103 C50.515,64.715 51.057,64.362 51.659,64.066 C54.277,62.784 57.058,63.083 57.866,64.735" fill="#EA8E91"/>
    <path d="M78.354,94.493 L99.56,82.307 L96.418,86.641 L96.893,93.406 L83.517,105.62 L82.468,94.968 L78.354,94.493" fill="#F2B290"/>
    <path d="M113.724,58.336 C113.724,58.336 110.724,60.336 110.099,60.836 C109.474,61.336 108.224,65.711 108.224,65.711 C108.224,65.711 107.434,68.586 108.224,68.586 C110.474,68.586 113.724,66.211 115.599,62.086 C117.474,57.961 115.099,57.711 113.724,58.336" fill="#F2B290"/>
    <path d="M60.849,64.211 C64.599,62.336 67.392,66.641 65.099,67.711 C61.349,69.461 57.099,66.086 60.849,64.211" fill="#F2B290"/>
    <path d="M42.231,41.111 C42.231,41.111 38.513,52.424 41.612,57.227 C44.711,62.031 51.219,66.525 51.219,66.525 C51.219,66.525 47.965,55.988 50.135,52.578 C50.135,52.578 48.12,51.184 45.486,48.394 C42.852,45.605 42.231,41.111 42.231,41.111" fill="#543121"/>
    <path d="M133.367,264.049 L133.286,263.78 L133.265,263.761 C135.161,261.834 136.62,260.362 137.391,259.584 C137.465,259.616 137.504,259.634 137.504,259.634 L133.367,264.049" fill="#9E9F9E"/>
    <path d="M133.363,264.053 C133.313,263.874 133.286,263.78 133.286,263.78 L133.367,264.049 L133.363,264.053 M133.238,263.788 C133.247,263.779 133.255,263.77 133.265,263.761 L133.286,263.78 L133.238,263.788" fill="#787978"/>
    <path d="M129.352,268.335 C129.3,268.193 129.246,268.051 129.192,267.91 C130.672,266.398 132.042,265.003 133.238,263.788 L133.286,263.78 C133.286,263.78 133.313,263.874 133.363,264.053 L129.352,268.335" fill="#3E3F3E"/>
    <path d="M129.192,267.91 C128.138,265.182 126.636,262.711 124.976,260.538 C126.18,259.312 127.281,258.193 128.238,257.222 C128.635,256.82 129.007,256.443 129.351,256.094 C133.391,257.807 136.745,259.296 137.391,259.584 C136.62,260.362 135.161,261.834 133.265,263.761 C133.255,263.77 133.247,263.779 133.238,263.788 C132.042,265.003 130.672,266.398 129.192,267.91 M124.354,259.745 C119.499,253.733 113.648,250.222 113.648,250.222 C116.125,250.665 122.727,253.304 128.359,255.675 C127.251,256.798 125.887,258.182 124.354,259.745" fill="#4E4E4D"/>
    <path d="M124.976,260.538 C124.771,260.269 124.563,260.005 124.354,259.745 C125.887,258.182 127.251,256.798 128.359,255.675 C128.694,255.816 129.024,255.956 129.351,256.094 C129.007,256.443 128.635,256.82 128.238,257.222 C127.281,258.193 126.18,259.312 124.976,260.538" fill="#9E9F9E"/>
    <path d="M33.35,432.646 C33.35,432.646 37.694,441.47 35.9,445.901 L40.153,446.949 C40.153,446.949 42.93,439.768 62.779,437.488 L63.087,434.714 C63.087,434.714 52.482,437.579 43.729,435.668 C39.762,434.802 35.776,431.907 35.776,431.907 L33.35,432.646" fill="#E46A7C"/>
    <path d="M198.655,352.875 C198.655,352.875 202.561,358.897 209.103,363.244 C209.284,363.365 211.747,367.29 211.747,367.29 L209.766,379.503 L208.516,376.086 C208.516,376.086 209.27,370.762 208.516,369.003 C206.016,363.169 199.944,358.373 199.944,358.373 L198.655,352.875" fill="#E46A7C"/>
    <path d="M132.099,135.586 C132.099,135.586 145.472,138.73 159.016,126.477 C159.016,126.477 165.224,130.586 165.286,131.273 C165.349,131.961 166.099,136.586 160.724,141.086 C155.349,145.586 151.599,145.836 151.599,145.836 L142.498,141.258 L131.624,137.139 L132.099,135.586" fill="#E0536C"/>
    <path d="M73.849,112.836 L67.224,119.711 C67.224,119.711 75.224,118.086 77.474,122.586 C77.474,122.586 76.224,114.961 73.849,112.836" fill="#E0536C"/>
    <g>
      <path d="M81.099,225.336 C81.099,225.336 86.762,241.959 95.137,242.584 L86.599,260.336 C86.599,260.336 84.724,255.086 83.724,248.336 C82.724,241.586 81.099,225.336 81.099,225.336" fill="#A6A5A5"/>
      <path d="M181.849,465.833 C176.276,473.577 148.327,479.796 121.01,477.526 C93.69,475.255 88.517,466.282 104.817,459.429 C117.566,454.073 140.148,451.688 157.565,453.137 C174.981,454.583 186.208,459.778 181.849,465.833" fill="#E4E4E3"/>
    </g>
    <path d="M151.998,145.758 C151.998,145.758 157.873,143.883 160.724,141.086 C162.785,139.063 165.286,131.273 165.286,131.273 C165.286,131.273 180.498,146.258 181.248,150.883 C181.248,150.883 163.6,148.012 159.611,149.76 L151.998,145.758" fill="#F2B290"/>
    <path d="M57.623,161.508 L55.873,168.508 C55.873,168.508 63.498,176.633 65.248,188.008 L69.147,171.187 L65.061,164.394 C65.061,164.394 61.248,161.758 57.623,161.508" fill="#F2B290"/>
    <path d="M199.047,361.433 C199.047,361.434 199.189,361.624 199.444,361.975 C200.335,363.204 202.576,366.359 204.578,369.702 C205.579,371.372 206.519,373.091 207.197,374.619 C207.881,376.139 208.277,377.5 208.266,378.273 L208.266,378.355 L208.267,378.428 C208.265,379.033 208.121,379.552 207.871,380.018 C207.496,380.715 206.86,381.298 206.098,381.703 C205.34,382.108 204.465,382.323 203.699,382.321 C202.984,382.323 202.388,382.136 202.022,381.848 C201.586,381.51 200.958,381.59 200.62,382.026 C200.281,382.463 200.361,383.091 200.798,383.429 C201.628,384.067 202.659,384.32 203.699,384.321 C205.196,384.316 206.769,383.803 208.042,382.82 C208.675,382.326 209.232,381.708 209.631,380.967 C210.031,380.228 210.268,379.364 210.267,378.428 L210.265,378.317 L209.266,378.336 L210.265,378.353 L210.266,378.273 C210.264,377.511 210.089,376.708 209.814,375.842 C208.844,372.834 206.565,368.997 204.518,365.834 C202.471,362.682 200.659,360.249 200.651,360.238 C200.321,359.795 199.694,359.704 199.251,360.034 C198.808,360.364 198.717,360.99 199.047,361.433" fill="#9E9F9E"/>
    <path d="M5.073,442.133 L5.082,442.133 C5.327,442.133 8.933,442.149 15.356,443.1 C24.495,444.454 39.334,447.7 58.311,455.487 C58.822,455.696 59.406,455.452 59.616,454.941 C59.825,454.43 59.581,453.846 59.07,453.636 C39.935,445.784 24.936,442.497 15.649,441.122 C9.122,440.155 5.418,440.133 5.082,440.133 L5.054,440.133 C4.501,440.138 4.058,440.59 4.064,441.142 C4.069,441.695 4.521,442.138 5.073,442.133" fill="#9E9F9E"/>
    <path d="M52.529,420.957 C49.437,425.326 45.076,427.91 41.464,429.391 C39.66,430.131 38.05,430.595 36.897,430.871 C36.321,431.009 35.859,431.101 35.546,431.158 C35.389,431.186 35.269,431.206 35.19,431.218 L35.102,431.231 L35.08,431.234 L35.079,431.234 C33.635,431.426 31.923,431.597 30.168,431.597 C27.651,431.601 25.059,431.234 23.061,430.156 C22.575,429.895 21.968,430.077 21.707,430.564 C21.446,431.051 21.629,431.657 22.116,431.918 C24.577,433.233 27.469,433.593 30.168,433.597 C32.052,433.597 33.848,433.415 35.341,433.217 L35.34,433.217 C35.398,433.209 38.385,432.815 42.223,431.241 C46.056,429.667 50.762,426.906 54.161,422.113 C54.48,421.662 54.373,421.038 53.923,420.719 C53.472,420.4 52.848,420.506 52.529,420.957" fill="#9E9F9E"/>
    <path d="M34.655,123.233 C34.657,123.232 40.543,122.101 43.549,121.471 C43.966,121.384 44.232,120.975 44.145,120.559 C44.058,120.143 43.65,119.876 43.234,119.963 C41.744,120.276 39.524,120.715 37.68,121.076 C35.835,121.438 34.368,121.72 34.364,121.72 C33.947,121.801 33.673,122.204 33.754,122.622 C33.834,123.039 34.238,123.313 34.655,123.233" fill="#B5845B"/>
    <path d="M123.207,185.256 L121.432,194.28 C121.35,194.697 121.622,195.102 122.039,195.184 C122.456,195.266 122.861,194.995 122.943,194.577 L124.718,185.553 C124.801,185.136 124.529,184.731 124.112,184.649 C123.694,184.567 123.289,184.838 123.207,185.256" fill="#B5845B"/>
    <path d="M69.762,75.843 C69.814,75.836 71.836,75.575 74.63,74.567 C77.423,73.558 80.997,71.802 84.12,68.773 L83.423,68.055 L82.539,68.521 L82.54,68.524 C82.608,68.641 84.145,71.707 84.136,75.197 C84.136,76.501 83.928,77.859 83.378,79.169 C82.826,80.478 81.936,81.749 80.512,82.904 C80.083,83.251 80.016,83.881 80.364,84.31 C80.711,84.74 81.341,84.806 81.77,84.458 C83.443,83.106 84.551,81.544 85.222,79.943 C85.895,78.342 86.136,76.712 86.136,75.197 C86.126,71.012 84.34,67.665 84.308,67.589 C84.161,67.311 83.89,67.117 83.58,67.067 C83.27,67.018 82.952,67.119 82.727,67.337 C79.88,70.102 76.56,71.745 73.951,72.685 C72.647,73.156 71.523,73.452 70.732,73.628 C70.336,73.717 70.023,73.775 69.813,73.811 C69.708,73.829 69.628,73.842 69.577,73.85 L69.52,73.858 L69.508,73.86 C68.96,73.93 68.573,74.431 68.643,74.979 C68.713,75.526 69.214,75.914 69.762,75.843" fill="#E0573B"/>
    <path d="M33.203,428.264 C33.203,428.264 33.28,428.262 33.436,428.262 C34.006,428.262 35.564,428.289 37.415,428.535 C39.265,428.779 41.41,429.249 43.13,430.093 C43.502,430.275 43.951,430.12 44.133,429.748 C44.315,429.376 44.161,428.927 43.789,428.745 C41.831,427.79 39.557,427.308 37.612,427.048 C35.667,426.79 34.052,426.763 33.436,426.762 C33.267,426.762 33.174,426.765 33.168,426.765 C32.754,426.774 32.426,427.118 32.436,427.532 C32.445,427.946 32.789,428.274 33.203,428.264" fill="#9E9F9E"/>
    <path d="M38.396,425.821 L38.43,425.819 C38.507,425.816 38.707,425.809 39.006,425.809 C40.432,425.804 44.11,425.99 47.193,427.505 C47.565,427.687 48.014,427.532 48.196,427.16 C48.378,426.788 48.224,426.339 47.852,426.157 C44.397,424.476 40.551,424.313 39.006,424.309 C38.575,424.309 38.323,424.323 38.311,424.323 C37.897,424.347 37.581,424.702 37.605,425.115 C37.628,425.529 37.983,425.845 38.396,425.821" fill="#9E9F9E"/>
    <path d="M27.925,430.15 C27.925,430.15 28.015,430.15 28.192,430.154 C28.813,430.167 30.45,430.229 32.365,430.506 C34.28,430.781 36.477,431.279 38.188,432.118 C38.56,432.3 39.009,432.146 39.191,431.774 C39.373,431.401 39.219,430.952 38.847,430.77 C36.621,429.686 33.914,429.175 31.743,428.911 C29.573,428.651 27.945,428.65 27.925,428.65 C27.511,428.65 27.175,428.986 27.175,429.4 C27.175,429.814 27.511,430.15 27.925,430.15" fill="#9E9F9E"/>
    <path d="M193.63,372.052 L193.633,372.052 C193.862,372.048 194.501,371.981 195.984,371.204 C197.466,370.424 199.796,368.922 203.376,365.983 C203.696,365.72 203.743,365.248 203.48,364.927 C203.217,364.607 202.745,364.561 202.425,364.824 C198.898,367.719 196.638,369.166 195.285,369.876 C194.609,370.232 194.161,370.403 193.899,370.483 C193.768,370.523 193.684,370.541 193.642,370.548 L193.608,370.552 L193.633,370.835 L193.633,370.552 L193.608,370.552 L193.633,370.835 L193.633,370.552 L193.63,370.552 C193.216,370.552 192.88,370.887 192.88,371.302 C192.88,371.716 193.216,372.052 193.63,372.052" fill="#9E9F9E"/>
    <path d="M196.571,375.281 C196.655,375.258 201.1,374.088 205.508,369.513 C205.795,369.215 205.786,368.74 205.488,368.453 C205.19,368.166 204.715,368.174 204.428,368.473 C202.357,370.623 200.279,371.968 198.727,372.773 C197.951,373.175 197.307,373.442 196.862,373.607 C196.639,373.69 196.466,373.747 196.352,373.783 L196.225,373.821 L196.197,373.829 L196.193,373.83 C195.792,373.934 195.552,374.344 195.656,374.745 C195.761,375.146 196.17,375.386 196.571,375.281" fill="#9E9F9E"/>
    <g clip-path="url(#Clip_1)">
      <path d="M198.43,379.035 C198.543,379.01 202.363,378.069 207.552,373.126 C207.852,372.84 207.864,372.366 207.578,372.066 C207.293,371.766 206.818,371.754 206.518,372.04 C204.022,374.417 201.885,375.806 200.386,376.599 C199.637,376.996 199.047,377.243 198.652,377.39 C198.454,377.463 198.305,377.511 198.209,377.54 L198.105,377.57 L198.084,377.576 C197.681,377.671 197.431,378.076 197.527,378.479 C197.623,378.882 198.027,379.131 198.43,379.035" fill="#9E9F9E"/>
      <path d="M56.625,457.444 L57.223,457.976 C59.591,455.311 60.855,452.126 61.577,448.974 C62.298,445.821 62.485,442.683 62.673,440.064 C62.857,437.486 63.37,433.837 63.837,430.849 C64.071,429.354 64.293,428.021 64.457,427.063 C64.62,426.105 64.725,425.525 64.725,425.523 C64.769,425.279 64.695,425.024 64.527,424.841 C64.122,424.4 63.549,423.908 62.85,423.391 C61.804,422.619 60.486,421.806 59.106,421.173 C57.723,420.544 56.288,420.083 54.942,420.078 C54.115,420.077 53.295,420.264 52.616,420.768 L53.093,421.41 L53.691,420.879 C52.949,420.047 51.93,419.389 50.826,418.918 C49.72,418.449 48.529,418.169 47.412,418.167 C46.687,418.168 45.987,418.285 45.364,418.593 C44.743,418.895 44.206,419.424 43.94,420.132 C43.813,420.464 43.576,420.854 43.087,421.339 C41.626,422.801 37.891,424.935 29.354,428.004 C24.227,429.854 18.493,431.171 13.707,432.233 C11.312,432.765 9.155,433.233 7.413,433.68 C6.541,433.903 5.774,434.12 5.125,434.342 C4.474,434.565 3.946,434.784 3.52,435.056 L3.519,435.056 C3.02,435.381 2.632,435.843 2.286,436.381 C1.77,437.189 1.349,438.188 0.983,439.259 C0.618,440.331 0.314,441.473 0.065,442.546 C0.021,442.737 0,442.933 0,443.127 C0.005,443.981 0.38,444.792 0.966,445.558 C1.852,446.706 3.26,447.79 5.067,448.681 C6.874,449.568 9.084,450.251 11.566,450.527 C21.632,451.648 37.628,452.96 56.409,458.215 C56.704,458.297 57.02,458.204 57.223,457.976 L56.625,457.444 L56.84,456.674 C37.905,451.376 21.774,450.055 11.743,448.937 C8.681,448.598 6.077,447.581 4.278,446.394 C3.379,445.803 2.683,445.168 2.234,444.583 C1.78,443.997 1.595,443.472 1.6,443.127 L1.624,442.907 C1.944,441.526 2.359,440.036 2.853,438.815 C3.098,438.205 3.364,437.663 3.633,437.244 C3.9,436.823 4.175,436.534 4.385,436.402 C4.614,436.252 5.056,436.054 5.642,435.856 C7.706,435.148 11.507,434.374 15.896,433.383 C20.291,432.389 25.299,431.167 29.896,429.509 C35.642,427.436 39.269,425.795 41.595,424.409 C42.757,423.715 43.597,423.084 44.211,422.477 C44.825,421.872 45.215,421.281 45.435,420.704 C45.56,420.389 45.749,420.193 46.075,420.026 C46.399,419.863 46.865,419.766 47.412,419.767 C48.254,419.765 49.271,419.994 50.2,420.39 C51.13,420.783 51.971,421.347 52.494,421.941 C52.77,422.251 53.237,422.3 53.57,422.052 C53.895,421.81 54.344,421.679 54.942,421.678 C56.23,421.667 58.064,422.353 59.683,423.258 C60.495,423.707 61.26,424.205 61.9,424.678 C62.538,425.149 63.054,425.601 63.348,425.922 L63.938,425.382 L63.15,425.24 C63.149,425.255 61.46,434.617 61.077,439.95 C60.89,442.58 60.702,445.63 60.017,448.617 C59.332,451.606 58.159,454.515 56.027,456.913 L56.625,457.444 L56.84,456.674 L56.625,457.444" fill="#343534"/>
    </g>
    <path d="M194.265,349.06 L194.179,348.807 L194.264,349.061 L194.265,349.06 L194.179,348.807 L194.264,349.061 C194.28,349.055 195.349,348.707 196.806,348.708 C197.778,348.708 198.917,348.861 200.051,349.348 C201.185,349.838 202.322,350.655 203.327,352.046 C204.029,353.018 204.764,354.481 205.364,356.157 C205.965,357.835 206.437,359.73 206.652,361.584 C206.67,361.743 206.735,361.891 206.839,362.013 C209.697,365.347 211.983,368.602 213.544,371.767 C215.107,374.933 215.946,378.001 215.946,380.993 C215.946,381.853 215.876,382.708 215.734,383.56 C215.523,384.81 214.988,385.748 214.208,386.397 C213.426,387.044 212.369,387.421 211.028,387.423 C210.056,387.423 208.939,387.219 207.711,386.763 C205.495,385.936 202.602,384.018 199.48,378.623 C196.463,373.398 191.089,366.015 189.632,364.008 C188.686,362.712 187.988,360.966 187.55,359.556 C187.33,358.851 187.171,358.229 187.069,357.787 C187.017,357.566 186.98,357.39 186.956,357.27 L186.929,357.135 L186.921,357.093 C186.843,356.658 186.427,356.369 185.993,356.447 C185.558,356.525 185.268,356.941 185.346,357.375 C185.351,357.398 185.554,358.529 186.023,360.033 C186.495,361.537 187.224,363.412 188.337,364.949 C189.786,366.941 195.153,374.324 198.094,379.423 C201.33,385.044 204.562,387.31 207.155,388.264 C208.532,388.774 209.832,389.022 211.028,389.023 C212.671,389.025 214.127,388.544 215.229,387.629 C216.333,386.717 217.054,385.389 217.313,383.823 C217.469,382.883 217.546,381.939 217.546,380.993 C217.545,377.698 216.622,374.386 214.979,371.059 C213.335,367.73 210.971,364.377 208.054,360.972 L207.446,361.492 L208.241,361.4 C208.009,359.405 207.51,357.404 206.87,355.618 C206.228,353.83 205.452,352.261 204.625,351.11 C203.457,349.488 202.064,348.471 200.683,347.879 C199.302,347.285 197.942,347.109 196.806,347.108 C195.044,347.11 193.806,347.528 193.752,347.545 C193.334,347.686 193.109,348.141 193.251,348.559 C193.393,348.978 193.847,349.202 194.265,349.06" fill="#343534"/>
    <path d="M191.861,366.351 L191.856,366.201 C191.857,365.597 192.088,365.013 192.527,364.436 C193.18,363.574 194.302,362.792 195.467,362.258 C196.625,361.718 197.844,361.426 198.562,361.432 C198.81,361.43 198.99,361.468 199.052,361.496 C199.282,361.588 199.547,361.567 199.76,361.439 C199.973,361.311 200.116,361.088 200.144,360.841 C200.244,359.94 200.29,359.111 200.29,358.347 C200.295,354.724 199.242,352.54 198.101,351.299 C196.963,350.056 195.805,349.785 195.7,349.763 C195.268,349.67 194.843,349.945 194.75,350.377 C194.657,350.809 194.932,351.234 195.364,351.327 L195.366,351.328 C195.475,351.358 196.288,351.604 197.079,352.562 C197.868,353.521 198.686,355.226 198.69,358.347 C198.69,359.047 198.648,359.818 198.554,360.664 L199.349,360.753 L199.646,360.01 C199.299,359.874 198.943,359.834 198.562,359.832 C197.837,359.834 197.007,359.996 196.128,360.281 C194.814,360.712 193.407,361.422 192.275,362.395 C191.711,362.883 191.214,363.439 190.849,364.074 C190.485,364.708 190.255,365.43 190.256,366.201 L190.264,366.453 C190.292,366.894 190.673,367.229 191.114,367.201 C191.555,367.172 191.889,366.792 191.861,366.351" fill="#343534"/>
    <path d="M83.849,94.013 L75.979,94.378 L76.017,95.178 L76.157,94.39 L76.15,94.389 C75.871,94.332 69.362,93 60.086,84.652 C57.786,82.585 55.987,79.673 54.611,76.451 C52.543,71.618 51.425,66.108 50.836,61.819 C50.541,59.674 50.377,57.833 50.286,56.531 C50.241,55.881 50.215,55.365 50.199,55.013 C50.184,54.661 50.18,54.479 50.18,54.478 L49.38,54.496 L50.146,54.728 L50.158,54.69 C50.303,54.235 51.763,49.88 55.776,44.647 C59.791,39.413 66.346,33.299 76.73,29.271 C80.221,27.917 83.45,27.515 86.06,27.514 C87.982,27.514 89.567,27.734 90.664,27.951 C91.213,28.059 91.639,28.167 91.925,28.247 C92.068,28.286 92.175,28.319 92.245,28.341 L92.322,28.366 L92.34,28.372 L92.605,27.617 L91.808,27.539 C91.806,27.561 91.73,28.341 91.73,29.663 C91.733,33.407 92.328,41.523 97.009,49.105 C97.188,49.395 97.53,49.539 97.863,49.466 C98.195,49.392 98.444,49.116 98.484,48.778 L99.937,36.428 L99.143,36.335 L98.4,36.633 C98.4,36.634 98.495,36.869 98.664,37.308 C99.256,38.843 100.743,42.822 102.076,47.397 C103.412,51.966 104.587,57.152 104.582,60.994 C104.583,62.26 104.455,63.375 104.188,64.252 L104.954,64.483 L105.723,64.704 L105.745,64.63 C105.862,64.243 106.452,62.388 107.481,60.456 C107.995,59.491 108.618,58.508 109.331,57.684 C110.043,56.858 110.842,56.198 111.687,55.835 C112.773,55.366 113.699,55.173 114.458,55.174 C115.657,55.184 116.445,55.615 117.029,56.343 C117.607,57.074 117.944,58.168 117.943,59.454 C117.943,60.392 117.765,61.424 117.397,62.462 C116.071,66.205 113.732,68.42 111.708,69.729 C110.698,70.381 109.768,70.801 109.098,71.055 C108.763,71.182 108.493,71.268 108.311,71.321 C108.22,71.347 108.15,71.365 108.106,71.377 L108.058,71.388 L108.05,71.391 C107.835,71.438 107.651,71.569 107.538,71.757 L107.485,71.842 C106.95,72.712 102.305,80.073 95.873,86.056 C95.689,86.227 95.597,86.471 95.622,86.721 L96.803,98.527 C96.847,98.966 97.239,99.287 97.678,99.243 C98.118,99.199 98.439,98.807 98.395,98.367 L97.214,86.562 L96.418,86.641 L96.963,87.227 C104.023,80.652 108.883,72.619 108.906,72.586 L108.222,72.172 L108.394,72.953 C108.456,72.938 110.328,72.522 112.576,71.074 C114.821,69.629 117.447,67.123 118.906,62.996 C119.329,61.797 119.542,60.592 119.543,59.454 C119.541,57.899 119.147,56.453 118.288,55.354 C117.435,54.252 116.081,53.564 114.458,53.574 C113.429,53.574 112.294,53.831 111.053,54.366 C109.828,54.896 108.812,55.801 107.958,56.829 C106.679,58.375 105.751,60.219 105.127,61.685 C104.504,63.152 104.192,64.241 104.185,64.263 C104.064,64.685 104.307,65.126 104.728,65.251 C105.15,65.375 105.593,65.135 105.72,64.715 C106.05,63.621 106.182,62.365 106.182,60.994 C106.177,56.258 104.594,50.066 103.026,45.004 C101.456,39.948 99.89,36.049 99.885,36.037 C99.749,35.698 99.398,35.494 99.037,35.542 C98.675,35.59 98.391,35.879 98.348,36.241 L96.895,48.591 L97.689,48.684 L98.37,48.264 C93.923,41.079 93.327,33.239 93.33,29.663 C93.33,29.032 93.348,28.535 93.366,28.198 C93.375,28.029 93.384,27.901 93.391,27.816 L93.401,27.695 C93.437,27.328 93.218,26.984 92.869,26.862 C92.809,26.842 90.148,25.915 86.06,25.914 C83.286,25.914 79.854,26.343 76.151,27.779 C65.12,32.055 58.229,38.66 54.112,44.196 C49.993,49.733 48.634,54.201 48.614,54.264 L48.58,54.514 C48.581,54.543 48.702,60.089 50.049,66.761 C50.723,70.098 51.702,73.718 53.139,77.08 C54.578,80.44 56.472,83.55 59.016,85.842 C68.811,94.662 75.745,95.944 75.876,95.965 L76.054,95.977 L83.923,95.612 C84.364,95.591 84.705,95.217 84.685,94.775 C84.664,94.334 84.29,93.993 83.849,94.013" fill="#343534"/>
    <g clip-path="url(#Clip_2)">
      <path d="M82.029,95.082 C82.029,95.083 82.054,95.405 82.092,95.974 C82.207,97.679 82.438,101.574 82.438,105.343 C82.438,106.879 82.399,108.394 82.301,109.723 C82.204,111.051 82.041,112.2 81.82,112.959 L82.588,113.182 L82.022,112.616 L80.836,113.804 C80.524,114.116 80.524,114.623 80.837,114.935 C81.15,115.247 81.656,115.247 81.968,114.934 L83.154,113.747 C83.25,113.651 83.319,113.534 83.356,113.404 C83.631,112.451 83.793,111.23 83.896,109.841 C83.999,108.454 84.037,106.906 84.037,105.343 C84.037,100.235 83.624,94.968 83.624,94.957 C83.589,94.516 83.204,94.187 82.764,94.222 C82.323,94.256 81.994,94.641 82.029,95.082" fill="#343534"/>
      <path d="M51.284,66.659 C47.935,64.03 45.508,61.961 43.957,59.751 C42.408,57.54 41.659,55.192 41.652,51.73 C41.651,49.921 41.866,47.815 42.298,45.31 C44.091,34.922 48.497,26.44 54.431,19.669 C60.364,12.9 67.833,7.847 75.733,4.376 C80.086,2.463 84.228,1.72 87.953,1.72 C93.611,1.717 98.318,3.447 101.242,5.399 C103.56,6.929 105.38,9.963 106.554,12.625 C107.145,13.954 107.583,15.185 107.871,16.08 C108.015,16.527 108.122,16.89 108.193,17.14 C108.228,17.265 108.254,17.362 108.271,17.426 L108.295,17.519 C108.381,17.861 108.679,18.107 109.032,18.124 L109.039,17.975 L109.03,18.124 L109.032,18.124 L109.039,17.975 L109.03,18.124 C109.089,18.127 111.414,18.282 114.128,20.051 C116.841,21.825 119.985,25.19 121.735,31.816 C122.816,35.917 123.384,40.486 123.384,44.958 C123.385,49.825 122.709,54.579 121.321,58.488 C119.933,62.404 117.839,65.437 115.09,66.997 C114.706,67.216 114.572,67.704 114.79,68.088 C115.009,68.472 115.497,68.606 115.881,68.387 C119.105,66.547 121.36,63.154 122.828,59.023 C124.296,54.885 124.983,49.972 124.984,44.958 C124.983,40.35 124.401,35.658 123.282,31.408 L123.282,31.409 C121.429,24.338 117.926,20.561 114.857,18.618 C111.79,16.67 109.201,16.531 109.111,16.526 L109.071,17.325 L109.847,17.131 C109.84,17.102 109.256,14.766 108.016,11.975 C106.769,9.188 104.896,5.926 102.129,4.068 C98.919,1.93 93.94,0.123 87.953,0.12 C84.015,0.12 79.645,0.909 75.089,2.911 C67.007,6.462 59.341,11.641 53.228,18.614 C47.114,25.586 42.562,34.358 40.721,45.038 C40.279,47.603 40.052,49.794 40.052,51.73 C40.044,55.421 40.907,58.212 42.649,60.673 C44.387,63.135 46.93,65.269 50.296,67.917 C50.643,68.19 51.146,68.13 51.419,67.782 C51.692,67.435 51.632,66.932 51.284,66.659" fill="#343534"/>
    </g>
    <path d="M113.32,57.572 C113.201,57.597 112.238,57.845 111.038,58.981 C109.835,60.116 108.406,62.122 107.284,65.615 C107.149,66.036 107.38,66.486 107.801,66.621 C108.222,66.757 108.672,66.525 108.808,66.104 C109.866,62.815 111.16,61.068 112.136,60.145 C112.625,59.683 113.037,59.425 113.313,59.284 C113.45,59.214 113.553,59.173 113.615,59.152 L113.675,59.132 L113.68,59.131 L113.565,58.678 L113.666,59.134 L113.68,59.131 L113.565,58.678 L113.666,59.134 C114.098,59.038 114.37,58.611 114.274,58.18 C114.179,57.748 113.751,57.476 113.32,57.572" fill="#343534"/>
    <path d="M125.259,46.266 L125.297,46.25 C125.724,46.062 129.677,44.425 134.361,44.43 C136.861,44.43 139.558,44.889 142.074,46.241 C144.59,47.596 146.95,49.838 148.794,53.522 C152.56,61.052 154.546,68.889 156.042,75.011 C156.792,78.075 157.416,80.706 158.102,82.694 C158.446,83.689 158.803,84.525 159.231,85.195 C159.658,85.857 160.178,86.398 160.905,86.622 C161.326,86.748 161.76,86.803 162.193,86.803 C163.334,86.8 164.473,86.436 165.562,85.928 C168.811,84.397 171.71,81.484 171.745,81.456 L171.181,80.889 L170.485,80.495 C170.484,80.496 170.392,80.658 170.217,80.956 C169.605,81.997 168.001,84.645 166.079,87.221 C165.12,88.508 164.08,89.778 163.058,90.812 C162.04,91.848 161.027,92.641 160.208,92.99 C159.931,93.109 159.67,93.16 159.4,93.16 C158.942,93.161 158.438,93.004 157.895,92.685 C157.083,92.211 156.219,91.38 155.415,90.413 C154.608,89.447 153.854,88.351 153.204,87.353 C150.546,83.274 145.735,77.677 140.007,72.588 C134.276,67.504 127.65,62.933 121.288,60.994 C120.865,60.866 120.419,61.104 120.29,61.527 C120.162,61.95 120.4,62.397 120.823,62.525 C126.813,64.339 133.325,68.788 138.944,73.784 C144.567,78.775 149.319,84.316 151.864,88.227 C152.754,89.59 153.847,91.169 155.089,92.444 C155.712,93.081 156.372,93.646 157.085,94.065 C157.797,94.482 158.574,94.76 159.4,94.76 C159.881,94.761 160.372,94.663 160.843,94.459 C162.146,93.888 163.414,92.78 164.666,91.447 C168.391,87.453 171.859,81.309 171.877,81.284 C172.074,80.935 171.984,80.496 171.666,80.253 C171.347,80.01 170.9,80.04 170.616,80.323 L170.565,80.373 C170.295,80.636 168.989,81.876 167.337,83.03 C166.512,83.607 165.6,84.161 164.704,84.562 C163.808,84.964 162.929,85.205 162.193,85.203 C161.894,85.203 161.618,85.165 161.365,85.089 C161.183,85.04 160.897,84.832 160.578,84.332 C160.017,83.468 159.454,81.859 158.89,79.777 C157.176,73.506 155.29,62.94 150.225,52.806 C148.257,48.862 145.639,46.337 142.831,44.832 C140.024,43.324 137.053,42.829 134.361,42.829 C128.975,42.835 124.66,44.785 124.602,44.807 C124.199,44.989 124.02,45.462 124.201,45.865 C124.382,46.268 124.856,46.448 125.259,46.266" fill="#343534"/>
    <path d="M97.657,93.917 C100.28,93.416 102.972,93.125 105.682,93.125 C108.187,93.125 110.708,93.374 113.205,93.937 L113.381,93.156 L112.639,92.858 C112.631,92.878 112.095,94.21 111.558,96.158 C111.022,98.108 110.48,100.67 110.479,103.185 C110.479,103.57 110.491,103.955 110.52,104.336 C110.552,104.777 110.936,105.108 111.376,105.075 C111.817,105.043 112.148,104.659 112.115,104.218 C112.09,103.88 112.079,103.535 112.079,103.185 C112.077,100.901 112.586,98.448 113.101,96.583 C113.358,95.65 113.615,94.863 113.808,94.312 C113.904,94.036 113.984,93.819 114.039,93.673 L114.103,93.507 L114.123,93.454 C114.211,93.237 114.198,92.992 114.089,92.784 C113.98,92.577 113.785,92.427 113.557,92.376 C110.933,91.784 108.293,91.525 105.682,91.525 C102.857,91.525 100.065,91.828 97.357,92.345 C96.923,92.428 96.638,92.847 96.721,93.281 C96.804,93.715 97.223,93.999 97.657,93.917" fill="#343534"/>
    <path d="M82.118,97.46 C73.622,101.418 66.81,106.75 66.782,106.77 C66.521,106.974 66.413,107.314 66.508,107.631 C66.604,107.948 66.882,108.172 67.211,108.198 L67.238,107.857 L67.206,108.197 L67.211,108.198 L67.238,107.857 L67.206,108.197 C67.229,108.202 69.397,108.404 71.677,110.733 C73.955,113.063 76.419,117.582 76.846,126.433 C76.868,126.874 77.243,127.215 77.684,127.194 C78.125,127.172 78.466,126.797 78.445,126.356 C78.005,117.103 75.354,112.127 72.696,109.488 C70.04,106.849 67.457,106.61 67.337,106.603 L67.274,107.4 L67.767,108.03 C67.768,108.03 67.867,107.953 68.065,107.803 C69.451,106.753 75.531,102.29 82.794,98.911 C83.194,98.724 83.368,98.248 83.181,97.848 C82.995,97.447 82.519,97.274 82.118,97.46" fill="#343534"/>
    <path d="M94.132,100.983 L94.148,100.991 C94.345,101.099 96.287,102.202 98.138,104.001 C99.064,104.899 99.965,105.97 100.624,107.16 C101.285,108.351 101.703,109.652 101.703,111.051 C101.703,111.936 101.537,112.865 101.143,113.852 C100.395,115.736 98.513,118.588 96.129,121.709 C92.553,126.402 87.843,131.77 84.034,135.956 C82.129,138.05 80.448,139.849 79.244,141.124 C78.642,141.762 78.159,142.268 77.827,142.615 C77.495,142.962 77.315,143.148 77.315,143.149 C77.007,143.466 77.016,143.972 77.333,144.28 C77.651,144.587 78.157,144.579 78.465,144.261 C78.47,144.256 83.663,138.891 89.271,132.5 C92.075,129.304 94.982,125.853 97.402,122.678 C99.823,119.496 101.752,116.623 102.629,114.446 C103.096,113.279 103.303,112.138 103.303,111.051 C103.303,109.272 102.75,107.653 101.949,106.252 C100.745,104.147 98.988,102.499 97.534,101.358 C96.079,100.219 94.921,99.591 94.894,99.576 C94.505,99.365 94.019,99.51 93.809,99.898 C93.599,100.287 93.743,100.772 94.132,100.983" fill="#343534"/>
    <path d="M79.365,111.207 L79.376,111.255 C79.492,111.776 80.482,116.453 80.482,123.36 C80.482,128.682 79.894,135.326 77.875,142.418 C77.754,142.842 78.001,143.285 78.425,143.406 C78.85,143.527 79.293,143.281 79.414,142.856 C81.482,135.589 82.081,128.799 82.082,123.36 C82.081,115.83 80.934,110.888 80.924,110.844 C80.824,110.414 80.394,110.146 79.963,110.246 C79.533,110.346 79.265,110.776 79.365,111.207" fill="#343534"/>
    <path d="M94.676,100.607 C94.678,100.606 95.211,100.374 96.056,100.017 C97.323,99.481 99.284,98.665 101.156,97.943 C102.092,97.582 103.006,97.244 103.796,96.977 C104.582,96.711 105.255,96.515 105.654,96.443 C106.088,96.362 106.375,95.945 106.294,95.51 C106.214,95.076 105.796,94.789 105.362,94.87 C104.632,95.007 103.613,95.336 102.429,95.76 C98.896,97.027 94.047,99.136 94.038,99.139 C93.633,99.315 93.448,99.787 93.624,100.192 C93.8,100.597 94.271,100.783 94.676,100.607" fill="#343534"/>
    <path d="M111.047,103.76 C111.05,103.761 112.39,103.901 114.437,104.132 C117.508,104.478 122.159,105.029 126.208,105.615 C128.231,105.907 130.106,106.209 131.545,106.495 C132.264,106.638 132.875,106.778 133.331,106.906 C133.559,106.969 133.747,107.03 133.884,107.083 L134.045,107.152 L134.101,107.182 L134.1,107.181 C134.951,107.776 135.862,108.68 136.664,109.552 C137.471,110.428 138.161,111.259 138.678,111.778 L138.679,111.779 C138.773,111.871 138.837,111.917 138.939,111.996 C139.315,112.28 140.088,112.816 141.207,113.597 C145.114,116.322 153.135,121.941 161.06,128.574 C168.983,135.195 176.806,142.868 180.269,149.506 L180.344,149.623 L180.713,149.339 L180.336,149.612 L180.344,149.623 L180.713,149.339 L180.336,149.612 L180.348,149.631 C180.416,149.741 180.722,150.267 180.723,151.248 C180.722,152.408 180.293,154.255 178.339,156.835 C177.972,157.322 177.148,158.208 176.025,159.325 C172.082,163.255 164.384,170.2 157.522,176.289 C150.658,182.382 144.623,187.627 143.965,188.202 L143.964,188.203 C143.748,188.397 143.614,188.596 143.465,188.823 C143.212,189.217 142.953,189.699 142.642,190.216 C142.179,190.99 141.606,191.826 140.908,192.438 C140.203,193.051 139.418,193.444 138.39,193.448 C138.032,193.448 137.638,193.398 137.202,193.281 C136.838,193.183 136.455,193.353 136.282,193.688 C135.874,194.485 135.548,195.021 135.293,195.366 C135.102,195.625 134.954,195.774 134.847,195.86 C134.683,195.984 134.624,196 134.425,196.05 C134.233,196.096 133.895,196.143 133.49,196.319 L133.489,196.32 C133.212,196.443 132.769,196.522 132.221,196.52 C130.567,196.528 128.086,195.834 126.083,195.12 C125.078,194.765 124.184,194.409 123.542,194.142 C123.222,194.008 122.964,193.897 122.788,193.82 C122.612,193.743 122.52,193.701 122.52,193.701 L122.26,193.632 L122.231,193.629 C122.057,193.612 121.134,193.488 120.341,193.151 C119.945,192.986 119.589,192.767 119.369,192.535 C119.149,192.297 119.049,192.091 119.044,191.774 L119.048,191.678 L119.048,191.679 C119.145,190.423 119.239,187.565 119.584,185.008 C119.754,183.735 119.993,182.539 120.295,181.719 C120.443,181.31 120.611,180.999 120.746,180.835 C120.89,180.664 120.941,180.671 120.942,180.67 C121.21,180.647 121.774,180.634 122.497,180.635 C124.679,180.635 128.397,180.738 131.56,180.841 C133.142,180.892 134.587,180.944 135.636,180.983 C136.685,181.022 137.336,181.047 137.338,181.047 C137.577,181.057 137.808,180.959 137.967,180.779 C137.973,180.772 142.791,175.345 147.991,168.805 C150.592,165.534 153.288,161.986 155.532,158.69 C157.775,155.387 159.566,152.361 160.369,150.018 C160.489,149.665 160.348,149.275 160.032,149.079 C160.019,149.071 156.161,146.688 150.713,143.908 C145.262,141.129 138.232,137.953 131.816,136.362 C131.387,136.256 130.954,136.517 130.847,136.946 C130.741,137.375 131.003,137.809 131.432,137.915 C137.634,139.449 144.598,142.583 149.986,145.334 C152.681,146.709 154.986,147.987 156.615,148.921 C157.429,149.388 158.075,149.769 158.516,150.032 C158.957,150.296 159.19,150.44 159.191,150.44 L159.611,149.76 L158.854,149.502 C158.157,151.562 156.417,154.55 154.209,157.79 C150.896,162.659 146.531,168.149 143,172.414 C141.233,174.546 139.675,176.373 138.559,177.666 C138.001,178.313 137.553,178.826 137.246,179.178 C136.938,179.529 136.771,179.716 136.771,179.717 L137.369,180.248 L137.401,179.449 C137.394,179.448 126.94,179.035 122.497,179.035 C121.751,179.035 121.182,179.045 120.809,179.076 C120.245,179.122 119.801,179.454 119.503,179.828 C118.977,180.492 118.681,181.377 118.426,182.412 C118.056,183.959 117.849,185.84 117.712,187.547 C117.576,189.25 117.513,190.785 117.452,191.555 L117.452,191.556 L117.444,191.774 C117.438,192.586 117.819,193.275 118.305,193.733 C119.039,194.429 119.976,194.76 120.734,194.967 C121.494,195.169 122.086,195.222 122.115,195.225 L122.188,194.429 L121.855,195.156 C121.869,195.162 123.469,195.893 125.55,196.629 C127.64,197.361 130.176,198.113 132.221,198.12 C132.906,198.119 133.549,198.037 134.13,197.786 L134.129,197.786 C134.308,197.708 134.454,197.68 134.692,197.63 C134.868,197.592 135.096,197.539 135.346,197.423 C135.725,197.247 136.094,196.942 136.457,196.477 C136.825,196.01 137.218,195.368 137.706,194.419 L136.994,194.054 L136.786,194.826 C137.346,194.977 137.882,195.048 138.39,195.048 C139.509,195.051 140.483,194.695 141.271,194.172 C142.457,193.384 143.262,192.253 143.867,191.28 C144.168,190.793 144.418,190.341 144.623,189.995 C144.819,189.652 145.009,189.401 145.019,189.406 L145.018,189.407 C145.766,188.753 153.55,181.988 161.567,174.832 C165.576,171.253 169.644,167.576 172.925,164.511 C174.566,162.979 176.01,161.6 177.155,160.459 C178.302,159.314 179.14,158.425 179.614,157.802 C181.723,155.025 182.325,152.82 182.323,151.248 C182.324,149.629 181.688,148.742 181.611,148.646 L180.978,149.135 L181.686,148.764 C179.512,144.614 175.862,140.248 171.596,135.976 C165.197,129.573 157.402,123.399 151.114,118.73 C147.97,116.396 145.203,114.44 143.18,113.023 C142.168,112.315 141.342,111.742 140.751,111.327 C140.455,111.119 140.218,110.951 140.05,110.827 L139.853,110.68 L139.804,110.641 L139.798,110.635 L139.599,110.857 L139.809,110.646 L139.798,110.635 L139.599,110.857 L139.809,110.646 L139.81,110.647 C139.389,110.229 138.673,109.373 137.841,108.468 C137.003,107.56 136.04,106.589 135.019,105.871 L135.018,105.871 C134.778,105.708 134.542,105.616 134.245,105.513 C133.694,105.326 132.951,105.148 132.041,104.963 C128.866,104.319 123.677,103.625 119.26,103.086 C114.845,102.548 111.216,102.169 111.213,102.169 C110.773,102.123 110.38,102.442 110.334,102.882 C110.288,103.321 110.607,103.715 111.047,103.76" fill="#343534"/>
    <path d="M73.669,112.871 C73.665,112.874 70.897,115.408 68.051,118.183 C66.627,119.571 65.185,121.019 64.052,122.25 C63.485,122.866 62.996,123.427 62.618,123.911 C62.429,124.153 62.268,124.376 62.135,124.586 C62.002,124.799 61.896,124.988 61.822,125.227 C61.729,125.543 61.643,125.995 61.538,126.622 C60.817,130.953 59.476,143.025 59.474,143.035 C59.426,143.474 59.742,143.869 60.181,143.918 C60.62,143.967 61.016,143.65 61.065,143.211 C61.065,143.209 61.174,142.226 61.347,140.717 C61.607,138.455 62.01,135.016 62.401,131.971 C62.596,130.45 62.788,129.026 62.956,127.901 C63.04,127.339 63.119,126.852 63.188,126.468 C63.256,126.087 63.32,125.798 63.354,125.687 L63.385,125.618 C63.473,125.438 63.74,125.054 64.117,124.599 C65.447,122.981 68.123,120.32 70.445,118.094 C71.607,116.979 72.684,115.967 73.47,115.235 C74.256,114.503 74.748,114.052 74.749,114.051 C75.075,113.753 75.097,113.247 74.799,112.921 C74.501,112.595 73.995,112.572 73.669,112.871" fill="#343534"/>
    <path d="M131.341,134.843 C131.34,134.848 130.12,140.414 128.898,146.948 C128.288,150.215 127.677,153.724 127.217,156.905 C126.758,160.089 126.449,162.934 126.448,164.932 C126.45,165.81 126.501,166.518 126.666,167.1 C127.03,168.337 127.733,169.753 128.585,171.225 C131.136,175.627 135.046,180.482 135.058,180.498 C135.335,180.843 135.839,180.897 136.183,180.62 C136.527,180.343 136.582,179.84 136.305,179.496 C136.305,179.495 136.2,179.365 136.01,179.123 C135.345,178.277 133.655,176.087 131.997,173.633 C130.34,171.19 128.715,168.438 128.203,166.653 C128.111,166.35 128.045,165.73 128.048,164.932 C128.046,163.092 128.346,160.278 128.801,157.134 C129.483,152.411 130.509,146.919 131.364,142.613 C131.792,140.459 132.177,138.602 132.455,137.283 C132.733,135.964 132.903,135.188 132.904,135.186 C132.998,134.754 132.725,134.328 132.293,134.233 C131.862,134.138 131.435,134.412 131.341,134.843" fill="#343534"/>
    <path d="M58.055,152.292 L55.056,167.661 C54.971,168.095 55.254,168.515 55.688,168.6 C56.121,168.684 56.541,168.401 56.626,167.968 L59.625,152.598 C59.71,152.165 59.427,151.745 58.993,151.66 C58.559,151.575 58.139,151.858 58.055,152.292" fill="#343534"/>
    <path d="M68.361,171.416 C68.361,171.417 68.309,171.697 68.212,172.197 C67.873,173.949 66.987,178.382 65.904,182.686 C65.362,184.838 64.771,186.959 64.18,188.684 C63.885,189.546 63.59,190.31 63.307,190.921 C63.027,191.53 62.749,191.991 62.548,192.215 C62.313,192.482 62.039,192.661 61.697,192.787 C61.357,192.911 60.949,192.973 60.492,192.973 C59.12,192.98 57.363,192.391 55.994,191.776 C55.307,191.471 54.713,191.164 54.293,190.935 C54.083,190.821 53.916,190.726 53.804,190.66 L53.676,190.585 L53.637,190.561 L53.218,191.242 L53.82,190.716 C53.82,190.715 53.759,190.646 53.636,190.501 C51.792,188.342 36.642,170.037 30.56,148.108 L29.789,148.322 L30.588,148.283 C30.588,148.281 30.561,147.726 30.519,146.769 C30.395,143.899 30.146,137.434 30.146,131.715 C30.146,129.435 30.185,127.273 30.287,125.515 C30.338,124.637 30.404,123.859 30.487,123.225 C30.568,122.592 30.672,122.096 30.767,121.827 C31.008,121.127 31.538,120.432 32.272,119.798 C33.37,118.845 34.905,118.05 36.361,117.515 C37.809,116.976 39.214,116.696 39.92,116.702 C40.112,116.7 40.247,116.726 40.259,116.733 C40.31,116.748 40.437,116.816 40.588,116.944 C40.855,117.166 41.189,117.556 41.509,118.007 C41.992,118.684 42.457,119.496 42.795,120.132 C42.964,120.451 43.102,120.726 43.197,120.92 C43.244,121.016 43.281,121.093 43.305,121.145 L43.341,121.222 L44.068,120.887 L43.293,121.087 C43.293,121.087 43.306,121.137 43.332,121.241 C43.509,121.969 44.231,125.169 44.229,128.11 C44.229,128.74 44.196,129.355 44.121,129.928 C43.889,131.71 43.154,133.064 42.473,133.978 C42.134,134.434 41.809,134.778 41.574,135.003 C41.456,135.116 41.362,135.199 41.299,135.252 L41.23,135.308 L41.216,135.319 L41.251,135.365 L41.216,135.319 L41.251,135.365 L41.216,135.319 C40.946,135.522 40.832,135.87 40.932,136.194 C40.932,136.194 40.945,136.239 40.973,136.333 C41.165,136.986 41.945,139.88 41.94,142.275 C41.942,143.087 41.849,143.835 41.653,144.385 C41.134,145.856 40.702,146.947 40.402,147.667 C40.252,148.027 40.135,148.294 40.055,148.47 L39.966,148.665 L39.939,148.723 C39.806,148.999 39.842,149.329 40.033,149.569 C40.035,149.572 40.981,150.763 42.442,152.613 C44.633,155.388 47.977,159.639 50.999,163.545 C52.511,165.498 53.942,167.365 55.107,168.916 C56.271,170.464 57.175,171.708 57.607,172.373 C57.847,172.744 58.343,172.849 58.713,172.608 C59.084,172.367 59.189,171.872 58.948,171.501 C58.308,170.518 56.905,168.627 55.133,166.299 C49.826,159.329 41.287,148.576 41.286,148.574 L40.659,149.071 L41.379,149.419 C41.392,149.393 42.104,147.917 43.162,144.917 C43.446,144.106 43.539,143.201 43.54,142.275 C43.534,139.181 42.468,135.762 42.461,135.724 L41.696,135.959 L42.176,136.599 C42.22,136.565 42.953,136.011 43.757,134.934 C44.558,133.858 45.432,132.248 45.708,130.135 C45.794,129.477 45.829,128.795 45.829,128.11 C45.825,124.471 44.849,120.721 44.842,120.687 L44.794,120.551 C44.787,120.536 44.271,119.417 43.547,118.209 C43.184,117.605 42.771,116.978 42.324,116.443 C42.1,116.175 41.868,115.93 41.616,115.718 C41.364,115.508 41.094,115.327 40.765,115.215 C40.485,115.125 40.218,115.104 39.92,115.102 C39.22,115.104 38.344,115.252 37.352,115.519 C35.868,115.922 34.152,116.601 32.645,117.547 C31.146,118.496 29.82,119.708 29.256,121.302 C29.097,121.761 28.991,122.326 28.9,123.018 C28.633,125.082 28.547,128.263 28.546,131.715 C28.546,139.398 28.99,148.355 28.99,148.362 L29.018,148.536 C35.65,172.375 52.582,191.72 52.615,191.768 L52.798,191.923 C52.819,191.935 53.871,192.583 55.344,193.238 C56.822,193.89 58.702,194.566 60.492,194.573 C61.09,194.573 61.683,194.494 62.244,194.29 C62.804,194.088 63.332,193.752 63.753,193.269 C64.178,192.776 64.531,192.115 64.894,191.292 C66.143,188.43 67.382,183.575 68.336,179.385 C69.286,175.202 69.933,171.715 69.934,171.708 C70.015,171.274 69.728,170.856 69.293,170.776 C68.859,170.695 68.441,170.982 68.361,171.416" fill="#343534"/>
    <path d="M78.98,214.325 C78.981,214.333 79.583,223.104 80.75,233.083 C81.334,238.073 82.059,243.365 82.922,248.023 C83.79,252.686 84.778,256.695 85.963,259.222 C86.151,259.622 86.627,259.794 87.027,259.606 C87.427,259.417 87.599,258.941 87.41,258.541 C86.345,256.288 85.344,252.329 84.495,247.731 C83.215,240.826 82.233,232.438 81.574,225.785 C81.244,222.459 80.995,219.565 80.828,217.503 C80.661,215.442 80.577,214.219 80.576,214.216 C80.546,213.775 80.164,213.442 79.724,213.472 C79.283,213.503 78.95,213.884 78.98,214.325" fill="#343534"/>
    <path d="M143.635,190.656 C143.648,190.668 149.256,196.119 156.506,201.702 C160.131,204.494 164.167,207.32 168.136,209.519 C172.108,211.715 176.003,213.3 179.44,213.556 L179.498,212.758 L178.727,212.545 C178.727,212.545 178.678,212.72 178.579,213.059 C177.838,215.6 174.296,227.136 168.3,237.983 C165.304,243.407 161.693,248.653 157.554,252.51 C153.408,256.372 148.781,258.822 143.684,258.832 L143.686,258.832 L143.651,258.832 C138.231,258.846 131.958,256.086 124.901,253.251 C117.841,250.427 109.971,247.558 101.206,247.556 C98.395,247.556 95.494,247.852 92.507,248.54 C92.076,248.639 91.808,249.068 91.907,249.499 C92.006,249.929 92.435,250.198 92.866,250.099 C95.731,249.44 98.507,249.156 101.206,249.156 C109.614,249.154 117.28,251.922 124.307,254.736 C131.337,257.54 137.699,260.418 143.651,260.432 L143.687,260.432 C149.697,260.418 154.988,257.337 159.501,252.856 C166.277,246.123 171.435,236.171 174.939,227.888 C178.438,219.606 180.263,212.993 180.269,212.971 C180.333,212.739 180.29,212.493 180.152,212.296 C180.013,212.1 179.795,211.977 179.556,211.96 C176.525,211.746 172.771,210.263 168.911,208.119 C163.114,204.909 157.057,200.249 152.466,196.397 C150.17,194.47 148.238,192.746 146.882,191.504 C146.204,190.883 145.67,190.383 145.306,190.039 C144.942,189.694 144.751,189.509 144.75,189.508 C144.433,189.2 143.927,189.208 143.619,189.524 C143.311,189.841 143.318,190.348 143.635,190.656" fill="#343534"/>
    <path d="M107.363,219.681 C107.361,219.684 100.341,232.282 92.796,246.486 C89.024,253.588 85.12,261.092 81.895,267.627 C78.669,274.169 76.127,279.717 75.051,283.009 C72.2,291.757 72.2,298.954 72.199,299.007 L72.999,299.007 L72.207,298.894 C72.206,298.898 72.003,300.322 71.622,302.881 C70.288,311.837 66.78,334.622 62.24,358.245 C59.971,370.057 57.443,382.079 54.803,392.68 C52.165,403.28 49.406,412.469 46.707,418.566 C46.528,418.97 46.711,419.442 47.115,419.621 C47.519,419.8 47.991,419.617 48.17,419.213 C51.334,412.057 54.495,401.012 57.484,388.424 C66.444,350.677 73.789,299.132 73.791,299.12 L73.799,299.007 L73.8,298.935 C73.808,298.172 73.972,291.475 76.572,283.505 C77.585,280.394 80.118,274.842 83.33,268.335 C88.15,258.566 94.51,246.593 99.662,237.067 C102.239,232.303 104.513,228.151 106.144,225.19 C106.959,223.709 107.614,222.526 108.064,221.714 C108.514,220.901 108.76,220.461 108.76,220.46 C108.975,220.074 108.837,219.586 108.451,219.371 C108.065,219.156 107.578,219.295 107.363,219.681" fill="#343534"/>
    <path d="M137.437,258.402 C137.435,258.404 129.666,266.213 121.449,274.728 C117.34,278.986 113.12,283.42 109.699,287.147 C107.988,289.011 106.477,290.697 105.277,292.101 C104.075,293.508 103.191,294.615 102.698,295.391 L102.662,295.454 C102.641,295.507 100.283,300.066 100.014,305.28 C99.957,306.437 99.54,309.513 98.463,314.641 C95.23,330.047 86.055,364.185 62.817,423.779 C62.657,424.19 62.86,424.654 63.272,424.815 C63.683,424.975 64.147,424.771 64.308,424.36 C79.815,384.59 89.073,356.13 94.488,336.975 C97.195,327.398 98.942,320.147 100.028,314.969 C101.115,309.784 101.542,306.704 101.611,305.36 C101.73,302.972 102.35,300.661 102.943,298.958 C103.239,298.107 103.528,297.407 103.741,296.924 C103.848,296.682 103.935,296.494 103.996,296.368 L104.065,296.227 L104.086,296.184 L103.374,295.819 L104.05,296.247 C104.447,295.617 105.314,294.517 106.493,293.141 C110.63,288.302 118.661,279.885 125.643,272.697 C129.135,269.101 132.368,265.809 134.727,263.416 C135.906,262.22 136.868,261.248 137.534,260.576 C138.2,259.904 138.57,259.532 138.571,259.531 C138.883,259.218 138.881,258.711 138.568,258.4 C138.255,258.088 137.748,258.089 137.437,258.402" fill="#343534"/>
    <path d="M189.659,359.604 C176.192,345.097 160.687,334.281 148.013,326.801 C141.676,323.062 136.047,320.156 131.735,318.044 C129.58,316.988 127.753,316.13 126.335,315.466 C124.92,314.804 123.902,314.33 123.41,314.067 L123.411,314.068 C123.005,313.856 122.373,313.316 121.671,312.545 C120.433,311.194 118.933,309.15 117.403,306.861 C115.104,303.427 112.725,299.434 110.923,296.305 C110.022,294.741 109.265,293.391 108.734,292.434 C108.203,291.476 107.899,290.914 107.898,290.913 C107.688,290.524 107.203,290.379 106.814,290.589 C106.425,290.799 106.28,291.284 106.491,291.673 C106.494,291.68 109.351,296.967 112.77,302.563 C114.48,305.362 116.33,308.237 118.044,310.579 C118.902,311.75 119.725,312.789 120.491,313.625 C121.262,314.462 121.955,315.099 122.657,315.479 L122.658,315.479 C123.232,315.784 124.238,316.251 125.657,316.916 C135.553,321.544 165.177,335.575 188.486,360.693 C188.786,361.016 189.293,361.035 189.616,360.735 C189.94,360.434 189.959,359.928 189.659,359.604" fill="#343534"/>
    <path d="M132.516,263.998 C132.517,264 134.861,272.285 137.334,280.614 C138.571,284.779 139.84,288.954 140.867,292.117 C141.381,293.699 141.833,295.026 142.196,295.985 C142.378,296.465 142.536,296.851 142.679,297.148 C142.751,297.298 142.818,297.424 142.899,297.548 L143.057,297.747 C143.131,297.817 143.222,297.917 143.452,297.994 C147.098,299.103 156.388,302.684 163.058,309.366 C168.615,314.919 176.35,324.591 182.962,333.695 C186.269,338.249 189.3,342.664 191.644,346.354 C192.816,348.199 193.817,349.862 194.593,351.266 C195.369,352.668 195.921,353.819 196.187,354.589 C196.332,355.006 196.788,355.227 197.205,355.082 C197.622,354.937 197.843,354.481 197.698,354.063 C197.374,353.134 196.792,351.94 195.994,350.492 C190.411,340.41 174.111,318.164 164.19,308.235 C157.188,301.246 147.729,297.635 143.92,296.463 L143.725,297.099 L144.206,296.633 C144.172,296.604 144.117,296.53 143.919,296.463 L143.725,297.099 L144.206,296.633 L143.945,296.885 L144.232,296.663 L144.206,296.633 L143.945,296.885 L144.232,296.663 L144.232,296.662 C144.201,296.621 144.08,296.386 143.946,296.06 C143.424,294.812 142.527,292.116 141.499,288.827 C139.953,283.886 138.092,277.567 136.617,272.487 C135.88,269.946 135.24,267.715 134.784,266.119 C134.328,264.523 134.057,263.565 134.056,263.562 C133.936,263.137 133.493,262.89 133.068,263.01 C132.643,263.131 132.396,263.573 132.516,263.998" fill="#343534"/>
    <path d="M81.595,128.771 C81.68,128.766 88.053,128.435 96.072,123.856 C96.455,123.636 96.589,123.148 96.369,122.764 C96.15,122.381 95.662,122.247 95.278,122.466 C91.414,124.674 87.954,125.851 85.467,126.477 C84.225,126.79 83.226,126.964 82.543,127.06 C82.201,127.108 81.939,127.137 81.764,127.153 L81.57,127.169 L81.515,127.173 C81.073,127.195 80.733,127.57 80.756,128.012 C80.778,128.453 81.154,128.793 81.595,128.771" fill="#343534"/>
    <path d="M164.489,131.207 L164.487,131.225 C164.463,131.479 164.153,134.153 162.452,137.096 C160.744,140.042 157.699,143.264 152.044,144.788 C151.617,144.902 151.364,145.341 151.478,145.768 C151.593,146.194 152.031,146.448 152.458,146.333 C158.74,144.656 162.199,140.895 164.014,137.584 C165.837,134.271 166.076,131.409 166.083,131.339 C166.12,130.899 165.793,130.513 165.352,130.476 C164.912,130.44 164.525,130.767 164.489,131.207" fill="#343534"/>
    <path d="M57.634,162.311 L57.423,161.994 L57.586,162.34 L57.634,162.311 L57.423,161.994 L57.586,162.34 C57.588,162.34 57.746,162.261 58.149,162.261 C59.004,162.256 61.003,162.648 64.617,165.06 C64.984,165.305 65.481,165.206 65.726,164.838 C65.971,164.471 65.872,163.974 65.504,163.729 C61.737,161.22 59.477,160.665 58.149,160.661 C57.323,160.658 56.872,160.893 56.747,160.98 C56.379,161.225 56.28,161.722 56.525,162.089 C56.77,162.457 57.267,162.556 57.634,162.311" fill="#343534"/>
    <path d="M63.476,58.449 L59.359,62.929 C59.062,63.253 59.081,63.756 59.403,64.056 L63.036,67.445 C63.359,67.747 63.866,67.729 64.167,67.406 C64.468,67.083 64.451,66.577 64.128,66.275 L61.075,63.427 L64.654,59.531 C64.953,59.206 64.932,58.7 64.607,58.401 C64.281,58.102 63.775,58.124 63.476,58.449" fill="#343534"/>
    <path d="M73.259,37.165 L73.263,37.16 C73.322,37.083 74.015,36.203 75.086,35.367 C76.16,34.525 77.591,33.757 79.104,33.763 C79.601,33.763 80.113,33.842 80.645,34.029 C81.036,34.166 81.464,33.961 81.601,33.57 C81.739,33.179 81.533,32.751 81.142,32.614 C80.449,32.37 79.762,32.263 79.104,32.263 C77.018,32.269 75.273,33.299 74.046,34.277 C72.817,35.263 72.087,36.229 72.063,36.261 C71.813,36.591 71.879,37.061 72.209,37.311 C72.539,37.561 73.01,37.495 73.259,37.165" fill="#343534"/>
    <path d="M51.426,43.75 L51.257,43.599 L51.425,43.752 L51.426,43.75 L51.257,43.599 L51.425,43.752 C51.436,43.738 51.779,43.37 52.351,43.02 C52.926,42.668 53.716,42.339 54.652,42.339 C55.483,42.342 56.451,42.586 57.578,43.379 C57.916,43.618 58.384,43.537 58.623,43.199 C58.862,42.861 58.782,42.393 58.443,42.154 C57.101,41.203 55.795,40.837 54.652,40.839 C53.317,40.84 52.236,41.319 51.497,41.785 C50.755,42.253 50.34,42.715 50.308,42.75 C50.032,43.059 50.059,43.533 50.368,43.809 C50.676,44.085 51.151,44.058 51.426,43.75" fill="#343534"/>
    <path d="M71.132,315.057 L71.219,315.041 C71.649,314.962 73.66,314.627 76.558,314.627 C81.844,314.626 90.042,315.743 97.095,321.458 C97.439,321.736 97.942,321.683 98.22,321.339 C98.498,320.996 98.445,320.492 98.102,320.214 C90.639,314.177 82.054,313.028 76.558,313.027 C73.105,313.028 70.854,313.482 70.815,313.489 C70.382,313.577 70.102,313.999 70.189,314.432 C70.277,314.865 70.699,315.145 71.132,315.057" fill="#343534"/>
    <path d="M150.024,300.607 L150.042,300.692 C150.128,301.117 150.492,303.075 150.492,305.589 C150.496,308.567 149.971,312.302 147.984,315.208 C146.989,316.665 145.64,317.928 143.769,318.845 C141.897,319.761 139.49,320.33 136.381,320.33 C136.225,320.33 136.067,320.329 135.907,320.326 C135.465,320.318 135.101,320.67 135.093,321.112 C135.085,321.553 135.437,321.918 135.878,321.926 C136.047,321.929 136.215,321.93 136.381,321.93 C139.683,321.931 142.346,321.323 144.472,320.283 C147.667,318.724 149.602,316.191 150.695,313.503 C151.794,310.811 152.09,307.955 152.092,305.589 C152.091,302.541 151.593,300.298 151.586,300.26 C151.49,299.829 151.063,299.557 150.631,299.652 C150.2,299.748 149.928,300.175 150.024,300.607" fill="#343534"/>
    <path d="M64.481,130.753 C64.479,130.758 62.789,134.56 61.072,138.84 C60.214,140.98 59.349,143.24 58.682,145.213 C58.349,146.2 58.065,147.116 57.855,147.916 C57.646,148.72 57.509,149.398 57.478,149.969 L57.475,150.106 C57.481,150.776 57.679,151.518 57.987,152.409 C59.075,155.491 61.682,160.246 64.034,164.289 C66.383,168.324 68.469,171.611 68.472,171.616 L69.147,171.187 L68.378,171.406 C68.378,171.407 68.492,171.807 68.691,172.518 C69.391,175.005 71.14,181.273 72.712,187.279 C73.498,190.282 74.241,193.22 74.784,195.581 C75.056,196.761 75.278,197.797 75.431,198.619 C75.584,199.434 75.663,200.062 75.66,200.313 L75.659,200.375 C75.592,201.377 75.53,202.293 75.53,203.157 C75.528,204.709 75.737,206.14 76.546,207.46 C77.429,208.906 77.66,210.329 77.661,211.443 C77.661,212.062 77.588,212.581 77.517,212.939 C77.481,213.118 77.446,213.256 77.421,213.346 L77.392,213.444 L77.386,213.463 L77.418,213.474 L77.386,213.463 L77.418,213.474 L77.386,213.463 C77.306,213.692 77.336,213.949 77.466,214.154 C77.596,214.359 77.815,214.495 78.057,214.521 C78.081,214.523 79.994,214.726 83.222,214.726 C92.968,214.721 114.757,212.894 132.643,197.983 C132.983,197.7 133.028,197.196 132.745,196.857 C132.462,196.517 131.958,196.472 131.618,196.755 C114.202,211.296 92.781,213.131 83.222,213.126 C81.641,213.126 80.386,213.076 79.53,213.027 C79.101,213.002 78.772,212.978 78.552,212.96 C78.442,212.95 78.359,212.943 78.304,212.938 L78.226,212.93 L78.142,213.725 L78.897,213.988 C78.916,213.93 79.26,212.931 79.261,211.443 C79.262,210.11 78.978,208.371 77.911,206.626 C77.314,205.645 77.132,204.586 77.13,203.157 C77.13,202.37 77.188,201.483 77.255,200.481 L77.26,200.313 C77.257,199.766 77.134,198.998 76.931,197.947 C76.221,194.308 74.471,187.585 72.894,181.744 C71.318,175.908 69.918,170.971 69.917,170.969 L69.823,170.759 C69.823,170.758 69.655,170.494 69.359,170.02 C68.323,168.36 65.726,164.146 63.397,159.931 C62.233,157.825 61.136,155.717 60.338,153.942 C59.939,153.056 59.615,152.252 59.397,151.585 C59.177,150.922 59.071,150.381 59.075,150.106 L59.076,150.049 C59.093,149.682 59.207,149.066 59.403,148.321 C60.088,145.696 61.729,141.436 63.192,137.87 C63.924,136.085 64.612,134.467 65.117,133.296 C65.622,132.125 65.942,131.405 65.943,131.403 C66.122,130.999 65.941,130.526 65.537,130.347 C65.133,130.168 64.66,130.349 64.481,130.753" fill="#343534"/>
  </g>
</svg>
