<?xml version="1.0" encoding="UTF-8"?>
<!DOCTYPE svg PUBLIC "-//W3C//DTD SVG 1.1//EN" "http://www.w3.org/Graphics/SVG/1.1/DTD/svg11.dtd">
<svg version="1.1" xmlns="http://www.w3.org/2000/svg" xmlns:xlink="http://www.w3.org/1999/xlink" x="0" y="0" width="320" height="708" viewBox="0, 0, 320, 708">
  <defs>
    <linearGradient id="Gradient_1" gradientUnits="userSpaceOnUse" x1="185.29" y1="158.69" x2="185.29" y2="231.903">
      <stop offset="0" stop-color="#EA8A6A"/>
      <stop offset="0.218" stop-color="#F5C4AD"/>
      <stop offset="1" stop-color="#F5C4AD"/>
    </linearGradient>
    <linearGradient id="Gradient_2" gradientUnits="userSpaceOnUse" x1="159.914" y1="482.508" x2="176.641" y2="635.846">
      <stop offset="0" stop-color="#EA8A6A"/>
      <stop offset="0.218" stop-color="#F5C4AD"/>
      <stop offset="1" stop-color="#F5C4AD"/>
    </linearGradient>
    <linearGradient id="Gradient_3" gradientUnits="userSpaceOnUse" x1="221.852" y1="469.394" x2="221.852" y2="578.209">
      <stop offset="0" stop-color="#EA8A6A"/>
      <stop offset="0.218" stop-color="#F5C4AD"/>
      <stop offset="1" stop-color="#F5C4AD"/>
    </linearGradient>
    <radialGradient id="Gradient_4" gradientUnits="userSpaceOnUse" cx="165.737" cy="681.142" r="28.681">
      <stop offset="0" stop-color="#94B5D5"/>
      <stop offset="0.837" stop-color="#3D6176"/>
      <stop offset="1" stop-color="#3D6176"/>
    </radialGradient>
    <linearGradient id="Gradient_5" gradientUnits="userSpaceOnUse" x1="285.342" y1="385.84" x2="290.946" y2="426.195">
      <stop offset="0" stop-color="#EA8A6A"/>
      <stop offset="0.218" stop-color="#F5C4AD"/>
      <stop offset="1" stop-color="#F5C4AD"/>
    </linearGradient>
    <clipPath id="Clip_1">
      <path d="M274.214,350.926 C274.214,350.926 277.554,377.058 278.124,382.458 C278.698,387.862 293,402.448 298.154,407.314 C303.306,412.17 320.376,419.55 319.618,422.438 C319.044,424.59 312.748,422.972 312.748,422.972 C312.748,422.972 312.176,424.862 309.886,425.408 C307.534,425.958 295.582,424.056 286.706,420 C277.836,415.952 271.254,407.58 270.114,406.772 C268.966,405.958 268.108,408.924 269.252,412.71 C270.398,416.494 270.684,414.062 270.398,419.466 C270.114,424.866 265.246,425.95 265.246,423.514 C265.246,421.084 258.952,409.472 258.952,406.228 C258.952,402.986 260.384,394.348 260.384,394.348 L255.046,357.952 L274.214,350.926 z"/>
    </clipPath>
    <radialGradient id="Gradient_6" gradientUnits="userSpaceOnUse" cx="3.757" cy="240.766" r="117.202">
      <stop offset="0" stop-color="#FFFFFE"/>
      <stop offset="0.59" stop-color="#F4C0A8"/>
      <stop offset="1" stop-color="#ED9A7D"/>
    </radialGradient>
    <radialGradient id="Gradient_7" gradientUnits="userSpaceOnUse" cx="24.46" cy="213.108" r="27.321">
      <stop offset="0" stop-color="#F4C0A8"/>
      <stop offset="0.775" stop-color="#F4C0A8"/>
      <stop offset="1" stop-color="#ED9A7D"/>
    </radialGradient>
    <radialGradient id="Gradient_8" gradientUnits="userSpaceOnUse" cx="48.509" cy="230.298" r="10.997">
      <stop offset="0" stop-color="#F4C0A8"/>
      <stop offset="1" stop-color="#ED9A7D"/>
    </radialGradient>
    <radialGradient id="Gradient_9" gradientUnits="userSpaceOnUse" cx="-5.767" cy="258.434" r="202.282">
      <stop offset="0" stop-color="#94B5D5"/>
      <stop offset="0.837" stop-color="#54839E"/>
      <stop offset="1" stop-color="#54829D"/>
    </radialGradient>
    <radialGradient id="Gradient_10" gradientUnits="userSpaceOnUse" cx="80.054" cy="418.112" r="238.716">
      <stop offset="0" stop-color="#94B5D5"/>
      <stop offset="0.837" stop-color="#54839E"/>
      <stop offset="1" stop-color="#54829D"/>
    </radialGradient>
    <radialGradient id="Gradient_11" gradientUnits="userSpaceOnUse" cx="203.994" cy="229.238" r="153.849">
      <stop offset="0" stop-color="#94B5D5"/>
      <stop offset="0.837" stop-color="#54829D"/>
      <stop offset="1" stop-color="#54829D"/>
    </radialGradient>
    <radialGradient id="Gradient_12" gradientUnits="userSpaceOnUse" cx="257.844" cy="217.808" r="162.043">
      <stop offset="0" stop-color="#94B5D5"/>
      <stop offset="0.837" stop-color="#54839E"/>
      <stop offset="1" stop-color="#54829D"/>
    </radialGradient>
    <linearGradient id="Gradient_13" gradientUnits="userSpaceOnUse" x1="24.966" y1="143.924" x2="19.959" y2="145.484">
      <stop offset="0" stop-color="#758990"/>
      <stop offset="0.309" stop-color="#FFFFFE"/>
      <stop offset="1" stop-color="#385560"/>
    </linearGradient>
    <radialGradient id="Gradient_14" gradientUnits="userSpaceOnUse" cx="229.748" cy="678.552" r="31.894">
      <stop offset="0" stop-color="#94B5D5"/>
      <stop offset="0.837" stop-color="#3D6176"/>
      <stop offset="1" stop-color="#3D6176"/>
    </radialGradient>
    <clipPath id="Clip_2">
      <path d="M257.524,649.108 C257.524,649.108 263.914,654.514 263.914,663.86 C263.914,673.2 259.49,674.674 258.508,679.588 C257.524,684.498 256.542,694.74 256.542,694.74 L252.116,696.924 L252.61,680.08 C252.61,680.08 247.198,681.552 242.778,688.928 C238.352,696.302 239.334,701.216 225.574,705.638 C217.384,707.744 222.128,706.809 211.243,707.88 L208.308,707.88 C205.351,707.612 196.625,707.728 195.58,703.678 C195.58,699.744 197.056,697.774 200.006,696.302 C202.954,694.83 211.316,688.928 211.316,688.928 C211.316,688.928 223.602,695.81 232.448,687.942 C256.404,666.654 256.048,658.442 257.032,655.006 C258.146,651.108 257.524,649.108 257.524,649.108 z"/>
    </clipPath>
    <linearGradient id="Gradient_15" gradientUnits="userSpaceOnUse" x1="162.763" y1="95.666" x2="152.527" y2="95.171">
      <stop offset="0" stop-color="#76522C"/>
      <stop offset="1" stop-color="#AC7F49"/>
    </linearGradient>
    <linearGradient id="Gradient_16" gradientUnits="userSpaceOnUse" x1="253.654" y1="91.337" x2="223.447" y2="89.876">
      <stop offset="0" stop-color="#76522C"/>
      <stop offset="1" stop-color="#AC7F49"/>
    </linearGradient>
    <radialGradient id="Gradient_17" gradientUnits="userSpaceOnUse" cx="131.507" cy="123.55" r="18.123">
      <stop offset="0" stop-color="#E67E78"/>
      <stop offset="1" stop-color="#F5C4AD"/>
    </radialGradient>
    <radialGradient id="Gradient_18" gradientUnits="userSpaceOnUse" cx="215.538" cy="117.313" r="18.123">
      <stop offset="0" stop-color="#E67E78"/>
      <stop offset="1" stop-color="#F5C4AD"/>
    </radialGradient>
    <linearGradient id="Gradient_19" gradientUnits="userSpaceOnUse" x1="162.095" y1="101.185" x2="228.816" y2="95.338">
      <stop offset="0" stop-color="#76522C"/>
      <stop offset="1" stop-color="#AC7F49"/>
    </linearGradient>
    <linearGradient id="Gradient_20" gradientUnits="userSpaceOnUse" x1="153.821" y1="99.42" x2="105.75" y2="97.095">
      <stop offset="0" stop-color="#76522C"/>
      <stop offset="1" stop-color="#AC7F49"/>
    </linearGradient>
    <radialGradient id="Gradient_21" gradientUnits="userSpaceOnUse" cx="166.217" cy="145.989" r="14.939">
      <stop offset="0" stop-color="#F2BAB3"/>
      <stop offset="1" stop-color="#DE4C61"/>
    </radialGradient>
  </defs>
  <g id="Layer_1">
    <path d="M228.656,13.856 C228.656,13.856 241.87,10.652 254.188,22.73 C271.244,39.442 290.296,74.2 282.342,108.742 C274.68,142.012 254.23,153.598 254.23,153.598 C254.23,153.598 258.976,148.324 261.376,144.97 C265.07,139.796 265.318,132.154 265.318,132.154 C265.318,132.154 259.166,147.604 252.01,151.87 C240.424,158.772 209.926,155.074 209.926,155.074 C209.926,155.074 217.996,151.378 222.894,145.462 C227.794,139.548 230.09,131.168 230.09,131.168 C230.09,131.168 226.342,141.028 218.7,147.928 C211.872,154.098 206.872,154.334 206.872,154.334 C206.872,154.334 216.732,149.652 222.402,137.084 C226.51,127.97 231.25,107.756 230.962,95.68 C230.67,83.604 226.064,69.802 226.064,69.802" fill="#6F5428"/>
    <path d="M242.5,101.42 C242.5,101.42 250.226,91.654 258.508,95.452 C266.792,99.252 260.718,120.418 250.226,125.3 C239.736,130.186 240.29,120.418 240.29,120.418 L242.5,101.42" fill="#F3B9A0"/>
    <path d="M107.826,51.318 C107.826,51.318 97.476,81.384 98.708,104.798 C99.94,128.212 119.412,151.378 119.412,151.378 C119.412,151.378 115.22,142.998 113.25,136.59 C111.28,130.184 109.552,125.254 109.552,125.254 C109.552,125.254 112.02,139.796 120.644,145.71 C129.266,151.624 141.838,154.09 141.838,154.09" fill="#6F5428"/>
    <path d="M173.106,157.248 L199.27,157.248 C199.27,157.248 199.992,179.62 200.714,182.502 C201.434,185.382 214.15,192.052 214.15,192.052 C214.15,192.052 227.112,222.298 219.674,234.06 C212.232,245.82 177.186,265.986 159.904,255.904 C142.62,245.82 150.3,194.214 150.3,194.214 C150.3,194.214 166.384,188.212 169.746,184.852 C173.106,181.49 173.106,157.248 173.106,157.248 z" fill="url(#Gradient_1)"/>
    <path d="M105.15,94.124 C105.15,134.164 136.698,166.62 175.618,166.62 C214.542,166.62 246.088,134.164 246.088,94.124 C246.088,54.084 214.542,21.626 175.618,21.626 C136.698,21.626 105.15,54.084 105.15,94.124" fill="#F5C4AD"/>
    <path d="M150.264,477.978 C150.264,477.978 154.51,508.904 158.146,522.25 C161.788,535.592 164.934,595.72 167.242,621.092 C169.062,641.108 170.88,655.048 165.422,669.002 C162.592,676.232 142.986,692.044 149.052,693.256 C159.316,695.306 178.766,681.126 190.89,674.454 C203.018,667.786 193.92,656.868 193.316,652.022 C192.714,647.174 191.496,640.498 193.92,624.728 C197.43,601.942 197.564,547.11 195.74,524.068 C193.92,501.024 193.316,468.882 193.316,468.882 L150.264,475.552 z" fill="url(#Gradient_2)"/>
    <path d="M234.192,483.028 C234.192,483.028 221.672,504.598 227.232,521.99 C232.8,539.38 243.926,574.86 248.802,613.822 C253.67,652.774 264.392,655.99 254.508,670.818 C237.53,696.286 209.116,704.028 208.422,695.682 C207.722,687.334 227.232,669.474 226.538,651.388 C225.84,633.306 199.624,555.462 191.752,530.338 C182.954,502.24 185.49,471.896 185.49,471.896 z" fill="url(#Gradient_3)"/>
    <path d="M195.804,658.986 C195.804,658.986 196.346,658.26 198.532,666.204 C201.422,676.744 198.196,676.33 196.928,683.626 C196.098,688.376 195.768,697.522 195.768,697.522 L191.512,697.522 L190.786,682.118 C190.786,682.118 184.47,685.864 177.8,693.076 C172.13,699.212 169.484,701.74 159.506,702.802 C146.434,704.186 131.776,702.744 131.776,698.97 C131.776,695.186 133.2,693.294 136.034,691.876 C138.87,690.454 151.51,685.686 151.51,685.686 C151.51,685.686 160.434,691.45 172.54,684.7 C182.284,679.274 187.674,670.528 191.52,665.724 C193.37,663.408 195.804,658.986 195.804,658.986 z" fill="url(#Gradient_4)"/>
    <g clip-path="url(#Clip_1)">
      <path d="M274.214,350.926 C274.214,350.926 277.554,377.058 278.124,382.458 C278.698,387.862 293,402.448 298.154,407.314 C303.306,412.17 320.376,419.55 319.618,422.438 C319.044,424.59 312.748,422.972 312.748,422.972 C312.748,422.972 312.176,424.862 309.886,425.408 C307.534,425.958 295.582,424.056 286.706,420 C277.836,415.952 271.254,407.58 270.114,406.772 C268.966,405.958 268.108,408.924 269.252,412.71 C270.398,416.494 270.684,414.062 270.398,419.466 C270.114,424.866 265.246,425.95 265.246,423.514 C265.246,421.084 258.952,409.472 258.952,406.228 C258.952,402.986 260.384,394.348 260.384,394.348 L255.046,357.952 L274.214,350.926 z" fill="url(#Gradient_5)"/>
    </g>
    <path d="M84.066,262.366 L72.198,281.39 L48.53,254.46 C48.53,254.46 40.346,243.11 34.634,240.344 C29.342,237.78 30.124,222.86 30.77,219.812 C31.412,216.766 32.968,213.386 33.236,212.24 C33.85,209.626 31.224,207.146 33.694,205.546 C37.056,203.362 42.864,206.688 42.864,206.688 C42.864,206.688 38.544,200.71 43.566,198.988 C45.26,198.404 52.538,207.296 56.408,209.732 C60.28,212.16 60.886,224.204 63.012,228.686 C67.802,238.73 65.644,243.678 65.644,243.678 L84.066,262.366 z" fill="url(#Gradient_6)"/>
    <path d="M43.876,207.142 C43.876,207.142 50.82,210.924 49.432,213.252 C48.052,215.584 40.638,215.148 40.638,215.148 L34.164,211.95 C34.164,211.95 35.548,215.298 35.704,216.174 C35.864,217.044 40.642,215.584 43.418,216.17 C46.198,216.75 49.744,217.912 51.286,219.224 C52.83,220.536 55.134,214.996 52.83,213.398 C50.512,211.796 45.882,207.572 44.802,206.846 C43.724,206.126 43.876,207.142 43.876,207.142 z" fill="url(#Gradient_7)"/>
    <path d="M51.286,218.784 C51.286,220.24 56.686,226.646 52.216,226.506 C47.746,226.36 45.428,224.176 43.732,224.176 C42.038,224.176 35.864,224.184 35.864,224.184 C35.864,224.184 42.808,224.764 45.12,225.632 C47.438,226.506 52.834,228.54 52.37,230.872 C51.908,233.202 49.132,232.766 47.13,232.766 C45.124,232.766 41.576,231.168 40.65,231.462 C39.724,231.75 36.33,232.042 36.33,232.042 C36.33,232.042 46.356,232.766 48.204,233.352 C50.062,233.928 52.834,236.55 50.214,237.718 C47.592,238.884 42.348,238.156 42.348,238.156 L38.648,239.762 C38.648,239.762 42.808,239.464 43.582,239.464 C44.354,239.464 52.838,238.586 54.534,239.314 C56.236,240.042 58.238,240.478 58.242,241.644 C58.242,242.81 53.758,235.678 53.452,233.488 C53.144,231.308 53.296,225.482 54.066,224.608 C54.84,223.734 53.908,215.872 53.908,215.872 L51.286,218.784 z" fill="url(#Gradient_8)"/>
    <path d="M151.93,191.988 L134.104,199.978 L116.824,278.954 L112.18,277.864 L110.892,283.11 L108.092,279.81 L75.898,248.17 L48.412,276.564 C48.412,276.564 97.492,320.834 118.374,323.03 C139.246,325.216 158.042,280.174 158.042,280.174 L151.93,191.988 z" fill="url(#Gradient_9)"/>
    <path d="M235.452,340.698 C235.452,340.698 246.418,360.498 249.426,380.61 C252.434,400.728 246.428,489.118 246.428,489.118 C246.428,489.118 208.902,492.66 191.876,493.314 C168.628,494.212 148.116,490.912 141.52,488.518 C141.52,488.518 136.026,411.086 136.35,385.334 C136.562,369.022 139.612,342.956 139.612,342.956 L235.452,340.698 z" fill="url(#Gradient_10)"/>
    <g>
      <path d="M183.058,72.186 C183.058,72.186 190.652,69.29 196.412,69.162 C197.036,69.146 197.686,69.166 198.348,69.226 C205.2,69.82 211.702,74.334 211.702,74.334 C211.702,74.334 199.972,70.37 194.074,71.568 C187.812,72.854 187.872,72.83 182.324,75.068 L183.058,72.186" fill="#6C5138"/>
      <path d="M132.086,39.32 C145.988,54.168 146.638,57.27 161.02,66.576 C185.37,82.326 198.866,86.99 203.23,89.176 C191.758,83.428 178.558,74.234 167.412,64.644 C155.392,54.29 148.528,41.396 148.528,41.396 C148.528,41.396 194.754,73.862 210.574,80.264 C234.586,89.98 237.924,99.094 240.592,103.346 C243.264,107.598 240.592,119.742 240.592,119.742 C240.592,119.742 248.806,105.658 254.326,89.414 C260.438,71.396 262.36,49.062 247.784,28.226 C228.498,0.664 187.038,-3.526 163.482,2.82 C135.958,10.234 106.976,35.836 105.54,61.784 C104.642,77.974 105.794,85.266 105.794,85.266 C105.794,85.266 106.306,75.056 112.942,62.55 C119.48,50.23 132.086,39.32 132.086,39.32" fill="#6F5428"/>
    </g>
    <path d="M145.82,23.604 C145.82,23.604 176.532,55.226 202.556,68.16 C221.002,77.33 247.302,84.836 247.302,84.836 C247.302,84.836 211.006,67.45 198.464,60.398 C182.088,51.198 145.82,23.604 145.82,23.604" fill="#4D3E1C"/>
    <path d="M238.24,83.978 C238.24,83.978 241.43,97.336 241.646,103.78 C241.856,110.226 240.582,120.488 240.582,120.488 C240.582,120.488 245.196,107.836 244.414,101.156 C243.344,92.086 238.24,83.978 238.24,83.978" fill="#4D3E1C"/>
    <path d="M136.45,32.174 C136.45,32.174 145.83,48.864 162.08,60.034 C181.202,73.17 192.102,75.878 201.85,80.916 C180.57,69.924 166.244,60.372 152.108,47.478 C146.384,42.256 136.45,32.174 136.45,32.174" fill="#4D3E1C"/>
    <path d="M211.478,220.854 C211.478,220.854 195.158,218.648 181.16,217.916 C167.168,217.188 146.958,220.854 146.958,220.854 L153.956,292.022 L205.264,294.96 L211.478,220.854" fill="#FFFFFE"/>
    <path d="M208.258,185.658 C208.258,185.658 206.038,215.716 201.372,225.254 C196.714,234.792 174.94,270.01 174.94,270.01 C174.94,270.01 154.732,223.784 154.732,216.446 C154.732,209.11 161.728,188.568 161.728,188.568 L140.738,196.642 C140.738,196.642 134.524,212.78 129.08,242.132 C125.054,263.824 139.962,285.426 139.962,285.426 C139.962,285.426 140.738,322.842 139.962,328.712 C139.186,334.582 134.356,361.584 134.356,361.584 C134.356,361.584 145.476,367.034 173.466,367.034 C215.962,367.034 249.44,353.25 249.44,353.25 C249.44,353.25 239.46,339.228 237.132,308.412 C236.47,299.628 247.238,265.612 249.572,258.274 C251.9,250.934 246.348,198.13 246.348,198.13 L208.258,185.658 z" fill="url(#Gradient_11)"/>
    <path d="M201.978,184.778 L205.324,182.998 L224.146,190.496 L230,229.384 L174.94,270.01 C174.94,270.01 196.714,226.722 202.154,208.376 C207.592,190.034 201.978,184.778 201.978,184.778" fill="#557B94"/>
    <path d="M170.078,185.688 L168.146,183.67 L149.746,189.782 L137.578,226.616 L174.94,270.01 C174.94,270.01 163.04,229.934 162.25,216.746 C160.502,187.666 170.078,185.688 170.078,185.688" fill="#557B94"/>
    <path d="M246.012,198.71 L238.946,252.732 C238.946,252.732 245.682,327.246 245.682,329.446 C245.682,331.644 254.36,391.164 254.36,391.164 L288.7,388.572 C288.7,388.572 282.998,337.518 280.664,325.044 C278.332,312.568 265.238,223.686 260.974,207.438 C259.718,202.676 246.012,198.71 246.012,198.71 z" fill="url(#Gradient_12)"/>
    <path d="M2.266,80.708 L44.94,208.028 L41.28,206.178 L0.12,81.739 L0.12,81.34 L2.266,80.708 z" fill="url(#Gradient_13)"/>
    <path d="M141.874,72.994 C141.874,72.994 136.088,70.622 131.882,70.748 C131.428,70.758 130.966,70.802 130.488,70.884 C125.574,71.73 121.27,76.196 121.27,76.196 C121.27,76.196 129.41,72.02 133.818,72.892 C138.494,73.824 142.684,75.64 142.684,75.64 L141.874,72.994" fill="#6C5138"/>
    <g clip-path="url(#Clip_2)">
      <path d="M257.524,649.108 C257.524,649.108 263.914,654.514 263.914,663.86 C263.914,673.2 259.49,674.674 258.508,679.588 C257.524,684.498 256.542,694.74 256.542,694.74 L252.116,696.924 L252.61,680.08 C252.61,680.08 247.198,681.552 242.778,688.928 C238.352,696.302 239.334,701.216 225.574,705.638 C217.384,707.744 222.128,706.809 211.243,707.88 L208.308,707.88 C205.351,707.612 196.625,707.728 195.58,703.678 C195.58,699.744 197.056,697.774 200.006,696.302 C202.954,694.83 211.316,688.928 211.316,688.928 C211.316,688.928 223.602,695.81 232.448,687.942 C256.404,666.654 256.048,658.442 257.032,655.006 C258.146,651.108 257.524,649.108 257.524,649.108 z" fill="url(#Gradient_14)"/>
    </g>
    <path d="M162.816,94.58 C162.816,94.58 158.166,93.18 156.534,93.18 C154.906,93.18 152.578,94.112 152.578,94.112 L153.042,97.368 C153.042,97.368 154.206,96.198 156.766,96.674 C159.328,97.14 162.354,97.834 162.354,97.834 L162.816,94.58 z" fill="url(#Gradient_15)"/>
    <path d="M253.814,88.058 L223.56,87.592 L223.794,93.18 L252.186,90.85 L253.814,88.058 z" fill="url(#Gradient_16)"/>
    <path d="M196.148,88.948 C196.148,88.948 196.84,91.236 202.018,90.044 C207.186,88.84 207.482,86.902 207.482,86.902 C207.482,86.902 205.908,90.448 202.784,91.74 C199.662,93.032 197.662,91.496 197.662,91.496 L196.148,88.948" fill="#414241"/>
    <path d="M199.046,92.246 C199.046,92.246 199.532,93.79 202.44,93.2 C205.348,92.61 205.44,91.328 205.44,91.328 C205.44,91.328 204.678,93.618 202.942,94.352 C201.212,95.09 200.006,93.992 200.006,93.992 L199.046,92.246" fill="#414241"/>
    <path d="M189.366,97.652 C189.366,102.752 192.088,106.884 195.444,106.884 C198.804,106.884 201.522,102.752 201.522,97.652 C201.522,92.554 198.804,88.422 195.444,88.422 C192.088,88.422 189.366,92.554 189.366,97.652" fill="#414241"/>
    <path d="M193.686,93.69 C193.686,94.958 194.716,95.986 195.984,95.986 C197.252,95.986 198.28,94.958 198.28,93.69 C198.28,92.422 197.252,91.394 195.984,91.394 C194.716,91.394 193.686,92.422 193.686,93.69" fill="#FFFFFE"/>
    <path d="M139.492,88.948 C139.492,88.948 138.798,91.236 133.626,90.044 C128.46,88.84 128.166,86.902 128.166,86.902 C128.166,86.902 129.738,90.448 132.86,91.74 C135.982,93.032 137.982,91.496 137.982,91.496 L139.492,88.948" fill="#414241"/>
    <path d="M136.596,92.246 C136.596,92.246 136.11,93.79 133.204,93.2 C130.296,92.61 130.204,91.328 130.204,91.328 C130.204,91.328 130.966,93.618 132.7,94.352 C134.432,95.09 135.636,93.992 135.636,93.992 L136.596,92.246" fill="#414241"/>
    <path d="M134.316,97.652 C134.316,102.752 137.04,106.884 140.394,106.884 C143.752,106.884 146.474,102.752 146.474,97.652 C146.474,92.554 143.752,88.422 140.394,88.422 C137.04,88.422 134.316,92.554 134.316,97.652" fill="#414241"/>
    <path d="M138.634,93.69 C138.634,94.958 139.664,95.986 140.932,95.986 C142.2,95.986 143.23,94.958 143.23,93.69 C143.23,92.422 142.2,91.394 140.932,91.394 C139.664,91.394 138.634,92.422 138.634,93.69" fill="#FFFFFE"/>
    <path d="M158.578,106.462 C158.578,106.462 159.088,110.376 158.066,112.418 C157.044,114.46 155.004,116.842 155.004,116.842 L163.854,120.756 L158.408,120.926 L150.408,117.012 C150.408,117.012 154.664,114.97 156.366,111.906 C158.066,108.844 158.578,106.462 158.578,106.462" fill="#EB9073"/>
    <path d="M113.382,123.55 C113.382,133.56 121.496,141.674 131.506,141.674 C141.512,141.674 149.628,133.56 149.628,123.55 C149.628,113.542 141.512,105.428 131.506,105.428 C121.496,105.428 113.382,113.542 113.382,123.55 z" fill="url(#Gradient_17)"/>
    <path d="M197.414,117.312 C197.414,127.322 205.528,135.436 215.538,135.436 C225.55,135.436 233.662,127.322 233.662,117.312 C233.662,107.304 225.55,99.19 215.538,99.19 C205.528,99.19 197.414,107.304 197.414,117.312 z" fill="url(#Gradient_18)"/>
    <path d="M215.61,111.498 C210.326,113.808 179.074,117.202 171.814,112.782 C162.768,107.266 165.142,90.052 165.142,90.052 C165.674,88.45 177.55,84.412 197.59,83.838 C214.428,83.352 223.682,86.966 223.488,88.536 C223.296,90.104 220.896,109.18 215.61,111.498 z M213.34,81.482 C205,80.424 172.26,79.492 162.31,87.866 C162.31,87.866 158.102,111.21 172.484,114.562 C186.862,117.91 214.504,115.43 218.936,110.904 C223.364,106.376 227.228,90.2 228.074,88.058 C228.926,85.92 221.684,82.534 213.34,81.482" fill="url(#Gradient_19)"/>
    <path d="M109.468,90.392 C109.308,88.9 115.91,84.964 128.03,84.572 C142.458,84.106 151.06,87.36 151.466,88.864 C151.466,88.864 153.424,105.2 146.996,110.936 C141.84,115.538 119.308,113.888 115.47,111.944 C111.63,109.99 109.628,91.876 109.468,90.392 z M106.158,90.168 C106.804,92.17 109.82,107.45 113.07,111.55 C116.32,115.654 136.242,116.61 146.542,112.674 C156.84,108.73 153.47,86.626 153.47,86.626 C146.188,79.132 122.646,81.688 116.664,83.124 C110.68,84.562 105.516,88.166 106.158,90.168" fill="url(#Gradient_20)"/>
    <path d="M186.246,128.26 C186.288,128.198 178.224,129.886 169.282,129.758 C158.872,129.604 156.192,128.1 156.588,128.27 C160.336,129.82 163.534,148.098 171.522,147.518 C183.464,146.662 184.876,130.672 186.246,128.26 z" fill="url(#Gradient_21)"/>
    <path d="M171.034,283.954 C171.034,285.992 172.138,287.646 173.496,287.646 C174.854,287.646 175.958,285.992 175.958,283.954 C175.958,281.914 174.854,280.26 173.496,280.26 C172.138,280.26 171.034,281.914 171.034,283.954" fill="#4C6E86"/>
    <path d="M171.004,308.692 C171.004,310.73 172.106,312.384 173.466,312.384 C174.824,312.384 175.926,310.73 175.926,308.692 C175.926,306.652 174.824,304.998 173.466,304.998 C172.106,304.998 171.004,306.652 171.004,308.692" fill="#4C6E86"/>
    <path d="M171.856,331.264 C171.856,333.302 172.958,334.954 174.32,334.954 C175.676,334.954 176.78,333.302 176.78,331.264 C176.78,329.224 175.676,327.57 174.32,327.57 C172.958,327.57 171.856,329.224 171.856,331.264" fill="#4C6E86"/>
    <path d="M117.984,279.714 C117.984,279.714 120.448,287.918 123.726,287.918 C127.004,287.918 125.636,282.996 123.452,281.902 C121.266,280.808 117.984,279.714 117.984,279.714" fill="#4C6E86"/>
    <path d="M110.892,283.11 C110.892,283.11 111.968,290.65 110.6,291.198 C109.234,291.746 110.892,283.11 110.892,283.11" fill="#4C6E86"/>
    <path d="M203.918,324.078 L228.282,327.284 L228.604,330.168 L203.598,326.002 L203.918,324.078" fill="#557B94"/>
    <path d="M152.628,325.04 L152.308,327.284 L139.806,331.13 L139.962,328.712 L152.628,325.04" fill="#557B94"/>
  </g>
</svg>
