<?xml version="1.0" encoding="UTF-8" standalone="no"?>
<svg
   xmlns:dc="http://purl.org/dc/elements/1.1/"
   xmlns:cc="http://creativecommons.org/ns#"
   xmlns:rdf="http://www.w3.org/1999/02/22-rdf-syntax-ns#"
   xmlns:svg="http://www.w3.org/2000/svg"
   xmlns="http://www.w3.org/2000/svg"
   xmlns:sodipodi="http://sodipodi.sourceforge.net/DTD/sodipodi-0.dtd"
   xmlns:inkscape="http://www.inkscape.org/namespaces/inkscape"
   version="1.1"
   x="0"
   y="0"
   width="898"
   height="1094"
   viewBox="0, 0, 898, 1094"
   id="svg2"
   inkscape:version="0.91 r13725"
   sodipodi:docname="basicshoplady-remix.svg">
  <metadata
     id="metadata195">
    <rdf:RDF>
      <cc:Work
         rdf:about="">
        <dc:format>image/svg+xml</dc:format>
        <dc:type
           rdf:resource="http://purl.org/dc/dcmitype/StillImage" />
        <dc:title></dc:title>
      </cc:Work>
    </rdf:RDF>
  </metadata>
  <sodipodi:namedview
     pagecolor="#ffffff"
     bordercolor="#666666"
     borderopacity="1"
     objecttolerance="10"
     gridtolerance="10"
     guidetolerance="10"
     inkscape:pageopacity="0"
     inkscape:pageshadow="2"
     inkscape:window-width="1916"
     inkscape:window-height="1035"
     id="namedview193"
     showgrid="false"
     inkscape:zoom="0.50542728"
     inkscape:cx="449"
     inkscape:cy="547"
     inkscape:window-x="4"
     inkscape:window-y="1"
     inkscape:window-maximized="1"
     inkscape:current-layer="Layer_1" />
  <defs
     id="defs4">
    <clipPath
       id="Clip_1">
      <path
         d="M0.06,0.31 L897.153,0.31 L897.153,1094 L0.06,1094 z"
         id="path7" />
    </clipPath>
    <clipPath
       id="Clip_2">
      <path
         d="M67.24,806.16 L847.692,806.16 L847.692,1086.9 L67.24,1086.9 z"
         id="path10" />
    </clipPath>
  </defs>
  <g
     id="Layer_1"
     transform="translate(-104.86177,-9.89262)">
    <g
       id="g4323"
       transform="translate(102.88325,-9.89262)">
      <g
         id="g37">
        <path
           style="fill:#865b37"
           inkscape:connector-curvature="0"
           id="path41"
           d="m 406.587,1021.58 c -20.255,21.33 -56.744,36.97 -70.781,23.64 -14.037,-13.33 -0.307,-50.581 19.948,-71.911 20.255,-21.33 48.056,-27.816 62.093,-14.487 14.038,13.331 8.996,41.428 -11.26,62.758" />
        <path
           style="fill-opacity:0;stroke:#1a1919;stroke-width:7.09399986;stroke-linecap:round;stroke-linejoin:round"
           inkscape:connector-curvature="0"
           id="path43"
           d="m 406.587,1021.58 c -20.255,21.33 -56.744,36.97 -70.781,23.64 -14.037,-13.33 -0.307,-50.581 19.948,-71.911 20.255,-21.33 48.056,-27.816 62.093,-14.487 14.038,13.331 8.996,41.428 -11.26,62.758 z" />
      </g>
      <path
         style="fill:#865b37"
         inkscape:connector-curvature="0"
         id="path45"
         d="m 508.859,1021.58 c 20.257,21.33 56.745,36.97 70.783,23.64 14.038,-13.33 0.306,-50.581 -19.948,-71.911 -20.256,-21.33 -48.056,-27.816 -62.093,-14.487 -14.038,13.331 -8.997,41.428 11.258,62.758" />
      <path
         style="fill-opacity:0;stroke:#1a1919;stroke-width:7.09399986;stroke-linecap:round;stroke-linejoin:round"
         inkscape:connector-curvature="0"
         id="path47"
         d="m 508.859,1021.58 c 20.257,21.33 56.745,36.97 70.783,23.64 14.038,-13.33 0.306,-50.581 -19.948,-71.911 -20.256,-21.33 -48.056,-27.816 -62.093,-14.487 -14.038,13.331 -8.997,41.428 11.258,62.758 z" />
      <path
         style="fill:#283278"
         inkscape:connector-curvature="0"
         id="path49"
         d="m 522.562,592.614 c 0,0 21.073,238.366 66.1,381.495 -45.994,17.438 -72.563,16.774 -123.486,7.315 13.35,-266.164 -3.557,-337.827 -3.557,-337.827 l -8.306,0 c 0,0 -16.908,71.663 -3.556,337.827 -50.924,9.459 -77.492,10.123 -123.487,-7.315 45.027,-143.129 66.099,-381.495 66.099,-381.495 l 130.193,0" />
      <path
         style="fill-opacity:0;stroke:#1a1919;stroke-width:7.09399986;stroke-linecap:round;stroke-linejoin:round"
         inkscape:connector-curvature="0"
         id="path51"
         d="m 522.562,592.614 c 0,0 21.073,238.366 66.1,381.495 -45.994,17.438 -72.563,16.774 -123.486,7.315 13.35,-266.164 -3.557,-337.827 -3.557,-337.827 l -8.306,0 c 0,0 -16.908,71.663 -3.556,337.827 -50.924,9.459 -77.492,10.123 -123.487,-7.315 45.027,-143.129 66.099,-381.495 66.099,-381.495 l 130.193,0 z" />
      <path
         style="fill:#f7ceb9"
         inkscape:connector-curvature="0"
         id="path53"
         d="m 702.423,600.808 c 13.903,3.337 8.322,17.009 2.78,15.572 -5.54,-1.436 -4.322,-2.457 -18.041,-5.572 13.063,3.607 23.148,7.986 26.895,9.272 8.25,2.833 3.571,14.161 -3.079,12.56 -4.447,-1.07 -31.112,-11.161 -34.807,-11.245 11.576,3.693 30.886,11.499 36.531,14.2 5.664,2.708 0.616,17.362 -10.713,11.699 -6.05,-3.026 -36.402,-15.704 -36.402,-15.704 0,0 22.734,10.777 27.413,12.87 3.688,1.651 0.492,13.053 -5.171,11.454 -5.212,-1.473 -9.594,-3.985 -23.397,-9.483 -12.335,-4.911 -27.459,-10.323 -26.76,-6.403 0.698,3.922 22.252,13.902 11.932,22.66 -8.321,7.059 -11.628,-5.572 -25.192,-8.381 -16.033,-3.316 -28.308,-11.989 -31.547,-28.472 -3.239,-16.483 10.778,-45.326 42.303,-43.406 18.379,0.275 62.375,17.209 67.255,18.379" />
      <path
         style="fill-opacity:0;stroke:#1a1919;stroke-width:7.09399986;stroke-linecap:round;stroke-linejoin:round"
         inkscape:connector-curvature="0"
         id="path55"
         d="m 702.423,600.808 c 13.903,3.337 8.322,17.009 2.78,15.572 -5.54,-1.436 -4.322,-2.457 -18.041,-5.572 13.063,3.607 23.148,7.986 26.895,9.272 8.25,2.833 3.571,14.161 -3.079,12.56 -4.447,-1.07 -31.112,-11.161 -34.807,-11.245 11.576,3.693 30.886,11.499 36.531,14.2 5.664,2.708 0.616,17.362 -10.713,11.699 -6.05,-3.026 -36.402,-15.704 -36.402,-15.704 0,0 22.734,10.777 27.413,12.87 3.688,1.651 0.492,13.053 -5.171,11.454 -5.212,-1.473 -9.594,-3.985 -23.397,-9.483 -12.335,-4.911 -27.459,-10.323 -26.76,-6.403 0.698,3.922 22.252,13.902 11.932,22.66 -8.321,7.059 -11.628,-5.572 -25.192,-8.381 -16.033,-3.316 -28.308,-11.989 -31.547,-28.472 -3.239,-16.483 10.778,-45.326 42.303,-43.406 18.379,0.275 62.375,17.209 67.255,18.379 z" />
      <path
         style="fill:#f7ceb9"
         inkscape:connector-curvature="0"
         id="path57"
         d="m 523.213,365.401 110.006,232.922 -28.232,17 -106.886,-224.533 25.112,-25.389" />
      <path
         style="fill-opacity:0;stroke:#1a1919;stroke-width:7.09399986;stroke-linecap:round;stroke-linejoin:round"
         inkscape:connector-curvature="0"
         id="path59"
         d="m 523.213,365.401 110.006,232.922 -28.232,17 -106.886,-224.533 25.112,-25.389 z" />
      <path
         style="fill:#fff47a"
         inkscape:connector-curvature="0"
         id="path61"
         d="m 523.127,364.93 119.499,219.395 c 0,0 5.005,10.844 -17.102,23.149 -22.106,12.305 -38.373,8.55 -38.373,8.55 L 498.935,397.463 523.127,364.93" />
      <path
         style="fill-opacity:0;stroke:#1a1919;stroke-width:7.09399986;stroke-linecap:round;stroke-linejoin:round"
         inkscape:connector-curvature="0"
         id="path63"
         d="m 523.127,364.93 119.499,219.395 c 0,0 5.005,10.844 -17.102,23.149 -22.106,12.305 -38.373,8.55 -38.373,8.55 L 498.935,397.463 523.127,364.93 Z" />
      <path
         style="fill:#f7ceb9"
         inkscape:connector-curvature="0"
         id="path65"
         d="m 392.203,364.782 c -6.118,3.892 -85.644,93.986 -85.644,93.986 l -62.288,-62.842 -24.469,23.913 c 0,0 57.838,76.745 86.757,76.19 29.468,-0.568 84.531,-74.243 84.531,-74.243 l 1.113,-57.004" />
      <path
         style="fill-opacity:0;stroke:#1a1919;stroke-width:7.09399986;stroke-linecap:round;stroke-linejoin:round"
         inkscape:connector-curvature="0"
         id="path67"
         d="m 392.203,364.782 c -6.118,3.892 -85.644,93.986 -85.644,93.986 l -62.288,-62.842 -24.469,23.913 c 0,0 57.838,76.745 86.757,76.19 29.468,-0.568 84.531,-74.243 84.531,-74.243 l 1.113,-57.004 z" />
      <path
         style="fill:#fff47a"
         inkscape:connector-curvature="0"
         id="path69"
         d="m 388.866,365.06 c 0,0 -74.936,87.868 -81.752,87.868 -6.814,0 -58.372,-71.939 -58.372,-71.939 l -46.737,44.828 c 0,0 67.57,80.501 109.281,74.661 40.939,-5.731 95.654,-98.992 95.654,-98.992 L 388.866,365.06" />
      <path
         style="fill-opacity:0;stroke:#1a1919;stroke-width:7.09399986;stroke-linecap:round;stroke-linejoin:round"
         inkscape:connector-curvature="0"
         id="path71"
         d="m 388.866,365.06 c 0,0 -74.936,87.868 -81.752,87.868 -6.814,0 -58.372,-71.939 -58.372,-71.939 l -46.737,44.828 c 0,0 67.57,80.501 109.281,74.661 40.939,-5.731 95.654,-98.992 95.654,-98.992 L 388.866,365.06 Z" />
      <path
         style="fill:#f7ceb9"
         inkscape:connector-curvature="0"
         id="path73"
         d="m 145.558,410.941 c -13.904,-3.337 -8.322,-17.008 -2.781,-15.572 5.541,1.436 4.323,2.458 18.041,5.572 -13.062,-3.608 -23.146,-7.985 -26.894,-9.272 -8.25,-2.832 -3.57,-14.16 3.078,-12.559 4.447,1.07 31.113,11.16 34.808,11.244 -11.577,-3.692 -30.885,-11.499 -36.532,-14.2 -5.664,-2.709 -0.615,-17.363 10.712,-11.698 6.051,3.025 36.404,15.703 36.404,15.703 0,0 -22.734,-10.778 -27.414,-12.87 -3.687,-1.65 -0.493,-13.053 5.172,-11.453 5.211,1.474 9.592,3.985 23.396,9.483 12.337,4.91 27.46,10.324 26.762,6.403 -0.7,-3.922 -22.253,-13.903 -11.932,-22.66 8.319,-7.06 11.628,5.572 25.191,8.381 16.034,3.316 28.309,11.989 31.547,28.472 3.238,16.482 -10.778,45.325 -42.303,43.405 -18.379,-0.274 -62.375,-17.208 -67.255,-18.379" />
      <path
         style="fill-opacity:0;stroke:#1a1919;stroke-width:7.09399986;stroke-linecap:round;stroke-linejoin:round"
         inkscape:connector-curvature="0"
         id="path75"
         d="m 145.558,410.941 c -13.904,-3.337 -8.322,-17.008 -2.781,-15.572 5.541,1.436 4.323,2.458 18.041,5.572 -13.062,-3.608 -23.146,-7.985 -26.894,-9.272 -8.25,-2.832 -3.57,-14.16 3.078,-12.559 4.447,1.07 31.113,11.16 34.808,11.244 -11.577,-3.692 -30.885,-11.499 -36.532,-14.2 -5.664,-2.709 -0.615,-17.363 10.712,-11.698 6.051,3.025 36.404,15.703 36.404,15.703 0,0 -22.734,-10.778 -27.414,-12.87 -3.687,-1.65 -0.493,-13.053 5.172,-11.453 5.211,1.474 9.592,3.985 23.396,9.483 12.337,4.91 27.46,10.324 26.762,6.403 -0.7,-3.922 -22.253,-13.903 -11.932,-22.66 8.319,-7.06 11.628,5.572 25.191,8.381 16.034,3.316 28.309,11.989 31.547,28.472 3.238,16.482 -10.778,45.325 -42.303,43.405 -18.379,-0.274 -62.375,-17.208 -67.255,-18.379 z m 61.755,-7.573 c -3.694,-1.848 -24.134,-4.926 -32.384,-0.986" />
      <path
         style="fill:#f7d0ba"
         inkscape:connector-curvature="0"
         id="path77"
         d="m 457.475,335.945 13.768,0 1.243,17.476 33.712,11.553 0,27.982 -97.467,0 0,-27.982 33.713,-11.553 1.244,-17.476 13.787,0" />
      <path
         style="fill-opacity:0;stroke:#1a1919;stroke-width:7.09399986;stroke-linecap:round;stroke-linejoin:round"
         inkscape:connector-curvature="0"
         id="path79"
         d="m 457.475,335.945 13.768,0 1.243,17.476 33.712,11.553 0,27.982 -97.467,0 0,-27.982 33.713,-11.553 1.244,-17.476 13.787,0 z" />
      <path
         style="fill:#fff47a"
         inkscape:connector-curvature="0"
         id="path81"
         d="m 416.183,359.982 c 0,19.25 18.323,30.738 41.287,30.738 22.964,0 41.872,-11.488 41.872,-30.738 l 23.166,7.5 13.067,234.57 c 0,0 -26.996,22.947 -78.194,22.947 -51.198,0 -78.026,-22.947 -78.026,-22.947 l 13.664,-233.278 23.164,-8.792" />
      <path
         style="fill-opacity:0;stroke:#1a1919;stroke-width:7.09399986;stroke-linecap:round;stroke-linejoin:round"
         inkscape:connector-curvature="0"
         id="path83"
         d="m 416.183,359.982 c 0,19.25 18.323,30.738 41.287,30.738 22.964,0 41.872,-11.488 41.872,-30.738 l 23.166,7.5 13.067,234.57 c 0,0 -26.996,22.947 -78.194,22.947 -51.198,0 -78.026,-22.947 -78.026,-22.947 l 13.664,-233.278 23.164,-8.792 z" />
      <path
         style="fill:#e05541"
         inkscape:connector-curvature="0"
         id="path85"
         d="m 575.73,739.239 c -0.115,-0.575 -2.982,-15.184 -7.302,-37.438 -13.544,-69.773 -41.358,-276.558 -43.231,-299.262 -2.482,-30.089 0.679,-39.949 0.679,-39.949 l -25.781,-6.261 -1.34,37.068 c 0,0 -2.085,12.749 -41.317,12.749 -39.232,0 -41.261,-12.749 -41.261,-12.749 l -1.339,-37.068 -25.78,6.261 c 0,0 3.161,9.86 0.677,39.949 -1.875,22.704 -29.687,229.489 -43.231,299.262 -4.32,22.254 -7.19,36.863 -7.302,37.438 -0.002,0.01 -0.005,0.029 -0.005,0.029 l 0.101,0 c 30.725,8.866 72.345,14.313 118.169,14.313 45.823,0 87.441,-5.447 118.169,-14.313 l 0.099,0 c 0,0 -0.004,-0.019 -0.005,-0.029" />
      <path
         style="fill-opacity:0;stroke:#1a1919;stroke-width:7.09399986;stroke-linecap:round;stroke-linejoin:round"
         inkscape:connector-curvature="0"
         id="path87"
         d="m 575.73,739.239 c -0.115,-0.575 -2.982,-15.184 -7.302,-37.438 -13.544,-69.773 -41.358,-276.558 -43.231,-299.262 -2.482,-30.089 0.679,-39.949 0.679,-39.949 l -25.781,-6.261 -1.34,37.068 c 0,0 -2.085,12.749 -41.317,12.749 -39.232,0 -41.261,-12.749 -41.261,-12.749 l -1.339,-37.068 -25.78,6.261 c 0,0 3.161,9.86 0.677,39.949 -1.875,22.704 -29.687,229.489 -43.231,299.262 -4.32,22.254 -7.19,36.863 -7.302,37.438 -0.002,0.01 -0.005,0.029 -0.005,0.029 l 0.101,0 c 30.725,8.866 72.345,14.313 118.169,14.313 45.823,0 87.441,-5.447 118.169,-14.313 l 0.099,0 c 0,0 -0.004,-0.019 -0.005,-0.029 z" />
      <path
         style="fill:#fffffe"
         inkscape:connector-curvature="0"
         id="path129"
         d="m 690.172,642.651 c 11.571,4.498 22.492,31.495 19.931,46.282 2.561,-14.787 -8.36,-41.784 -19.931,-46.282 -11.568,-4.503 -24.103,12.211 -24.103,12.211 0,0 12.535,-16.714 24.103,-12.211" />
      <path
         style="fill:#fffffe"
         inkscape:connector-curvature="0"
         id="path133"
         d="m 663.529,654.862 c 0,0 -12.534,-16.714 -24.102,-12.211 -11.571,4.498 -22.491,31.495 -19.931,46.282 -2.56,-14.787 8.36,-41.784 19.931,-46.282 11.568,-4.503 24.102,12.211 24.102,12.211" />
      <path
         style="fill:#fffffe"
         inkscape:connector-curvature="0"
         id="path143"
         d="M 629.179,542.088 741.3,643.475" />
      <path
         style="fill:#865b37"
         inkscape:connector-curvature="0"
         id="path151"
         d="m 605.639,279.706 c 25.157,43.575 -11.293,88.219 21.129,125.882 -35.715,3.348 -90.583,-44.789 -98.453,-81.239 -5.204,-24.1 -5.011,-48.655 16.34,-60.983 21.355,-12.327 48.656,-5.012 60.984,16.34" />
      <path
         style="fill-opacity:0;stroke:#1a1919;stroke-width:7.09399986;stroke-linecap:round;stroke-linejoin:round"
         inkscape:connector-curvature="0"
         id="path153"
         d="m 605.639,279.706 c 25.157,43.575 -11.293,88.219 21.129,125.882 -35.715,3.348 -90.583,-44.789 -98.453,-81.239 -5.204,-24.1 -5.011,-48.655 16.34,-60.983 21.355,-12.327 48.656,-5.012 60.984,16.34 z" />
      <path
         style="fill:#865b37"
         inkscape:connector-curvature="0"
         id="path155"
         d="m 585.957,211.591 c 0,69.81 -64.237,120.252 -129.463,120.252 -65.227,0 -129.463,-50.442 -129.463,-120.252 0,-69.808 57.963,-126.401 129.463,-126.401 71.5,0 129.463,56.593 129.463,126.401" />
      <path
         style="fill-opacity:0;stroke:#1a1919;stroke-width:7.09399986;stroke-linecap:round;stroke-linejoin:round"
         inkscape:connector-curvature="0"
         id="path157"
         d="m 585.957,211.591 c 0,69.81 -64.237,120.252 -129.463,120.252 -65.227,0 -129.463,-50.442 -129.463,-120.252 0,-69.808 57.963,-126.401 129.463,-126.401 71.5,0 129.463,56.593 129.463,126.401 z" />
      <path
         style="fill:#f7ceb9"
         inkscape:connector-curvature="0"
         id="path159"
         d="m 553.136,246.936 c 7.446,-6.132 21.606,-14.015 30.657,0.584 9.051,14.599 -17.081,48.467 -32.993,31.532 -12.18,-12.96 2.336,-32.116 2.336,-32.116" />
      <path
         style="fill-opacity:0;stroke:#1a1919;stroke-width:7.09399986;stroke-linecap:round;stroke-linejoin:round"
         inkscape:connector-curvature="0"
         id="path161"
         d="m 553.136,246.936 c 7.446,-6.132 21.606,-14.015 30.657,0.584 9.051,14.599 -17.081,48.467 -32.993,31.532 -12.18,-12.96 2.336,-32.116 2.336,-32.116 z" />
      <path
         style="fill:#f7ceb9"
         inkscape:connector-curvature="0"
         id="path163"
         d="m 359.853,246.936 c -7.446,-6.132 -21.607,-14.015 -30.659,0.584 -9.049,14.599 17.081,48.467 32.994,31.532 12.178,-12.96 -2.335,-32.116 -2.335,-32.116" />
      <path
         style="fill-opacity:0;stroke:#1a1919;stroke-width:7.09399986;stroke-linecap:round;stroke-linejoin:round"
         inkscape:connector-curvature="0"
         id="path165"
         d="m 359.853,246.936 c -7.446,-6.132 -21.607,-14.015 -30.659,0.584 -9.049,14.599 17.081,48.467 32.994,31.532 12.178,-12.96 -2.335,-32.116 -2.335,-32.116 z" />
      <path
         style="fill:#f7ceb9"
         inkscape:connector-curvature="0"
         id="path167"
         d="m 563.702,226.055 c 0,64.816 -46.95,117.359 -107.208,117.359 -60.258,0 -107.209,-52.543 -107.209,-117.359 0,-64.814 47.999,-117.358 107.209,-117.358 59.208,0 107.208,52.544 107.208,117.358" />
      <path
         style="fill-opacity:0;stroke:#1a1919;stroke-width:7.09399986;stroke-linecap:round;stroke-linejoin:round"
         inkscape:connector-curvature="0"
         id="path169"
         d="m 563.702,226.055 c 0,64.816 -46.95,117.359 -107.208,117.359 -60.258,0 -107.209,-52.543 -107.209,-117.359 0,-64.814 47.999,-117.358 107.209,-117.358 59.208,0 107.208,52.544 107.208,117.358 z m -107.208,42.918 c 0,0 -1.095,5.913 -4.599,11.422 l 4.793,1.662" />
      <path
         style="fill:#f1af9c"
         inkscape:connector-curvature="0"
         id="path171"
         d="m 533.138,291.105 c 0,10.316 -8.359,18.682 -18.682,18.682 -10.309,0 -18.682,-8.366 -18.682,-18.682 0,-10.316 8.373,-18.682 18.682,-18.682 10.323,0 18.682,8.366 18.682,18.682" />
      <path
         style="fill:#f1af9c"
         inkscape:connector-curvature="0"
         id="path173"
         d="m 379.849,291.105 c 0,10.316 8.358,18.682 18.681,18.682 10.309,0 18.682,-8.366 18.682,-18.682 0,-10.316 -8.373,-18.682 -18.682,-18.682 -10.323,0 -18.681,8.366 -18.681,18.682" />
      <path
         style="fill:#1a1919"
         inkscape:connector-curvature="0"
         id="path175"
         d="m 426.97,253.101 c 0,9.33 -6.346,16.902 -14.189,16.902 -7.826,0 -14.185,-7.572 -14.185,-16.902 0,-9.338 6.359,-16.903 14.185,-16.903 7.843,0 14.189,7.565 14.189,16.903" />
      <path
         style="fill:#1a1919"
         inkscape:connector-curvature="0"
         id="path177"
         d="m 514.392,253.101 c 0,9.33 -6.345,16.902 -14.187,16.902 -7.827,0 -14.186,-7.572 -14.186,-16.902 0,-9.338 6.359,-16.903 14.186,-16.903 7.842,0 14.187,7.565 14.187,16.903" />
      <path
         style="fill:#1a1919"
         inkscape:connector-curvature="0"
         id="path179"
         d="m 517.557,225.069 c 0,0 -6.451,-7.484 -14.518,-7.484 -8.068,0 -11.005,4.614 -11.005,4.614 0,0 5.493,-2.937 11.076,-2.937 5.584,0 14.447,5.807 14.447,5.807" />
      <path
         style="fill-opacity:0;stroke:#1a1919;stroke-width:2.36500001;stroke-linecap:round;stroke-linejoin:round"
         inkscape:connector-curvature="0"
         id="path181"
         d="m 517.557,225.069 c 0,0 -6.451,-7.484 -14.518,-7.484 -8.068,0 -11.005,4.614 -11.005,4.614 0,0 5.493,-2.937 11.076,-2.937 5.584,0 14.447,5.807 14.447,5.807 z" />
      <path
         style="fill:#e0564c"
         inkscape:connector-curvature="0"
         id="path183"
         d="m 479.131,299.17 c 0,12.503 -11.346,22.638 -22.637,22.638 -11.293,0 -22.639,-10.135 -22.639,-22.638 l 45.276,0" />
      <path
         style="fill-opacity:0;stroke:#1a1919;stroke-width:7.09399986;stroke-linecap:round;stroke-linejoin:round"
         inkscape:connector-curvature="0"
         id="path185"
         d="m 479.131,299.17 c 0,12.503 -11.346,22.638 -22.637,22.638 -11.293,0 -22.639,-10.135 -22.639,-22.638 l 45.276,0 z" />
      <path
         style="fill:#865b37"
         inkscape:connector-curvature="0"
         id="path187"
         d="m 553.43,162.994 c 21.897,40.293 21.897,82.773 -5.696,154.16 -3.262,-3.672 -7.288,-78.796 -7.822,-89.051 -0.039,-0.751 -0.059,-1.168 -0.059,-1.168 l 0.009,-0.048 c -21.2,-7.193 -28.225,-27.458 -33.441,-51.338 -25.475,30.894 -96.216,44.682 -133.33,51.172 l 0.046,0.214 -0.062,1.168 c -0.535,10.255 -4.557,85.379 -7.823,89.051 -27.591,-71.387 -27.591,-113.867 -5.693,-154.16 0,0 14.571,-67.01 96.482,-67.01 81.911,0 77.795,51.499 97.389,67.01" />
      <path
         style="fill-opacity:0;stroke:#1a1919;stroke-width:7.09399986;stroke-linecap:round;stroke-linejoin:round"
         inkscape:connector-curvature="0"
         id="path189"
         d="m 553.43,162.994 c 21.897,40.293 21.897,82.773 -5.696,154.16 -3.262,-3.672 -7.288,-78.796 -7.822,-89.051 -0.039,-0.751 -0.059,-1.168 -0.059,-1.168 l 0.009,-0.048 c -21.2,-7.193 -28.225,-27.458 -33.441,-51.338 -25.475,30.894 -96.216,44.682 -133.33,51.172 l 0.046,0.214 -0.062,1.168 c -0.535,10.255 -4.557,85.379 -7.823,89.051 -27.591,-71.387 -27.591,-113.867 -5.693,-154.16" />
      <path
         style="fill:#956949"
         inkscape:connector-curvature="0"
         id="path191"
         d="m 530.374,124.835 c 0.476,1.838 0.399,3.862 0.002,5.813 -0.418,1.952 -1.145,3.849 -2.071,5.624 -1.846,3.573 -4.391,6.702 -7.171,9.516 -5.622,5.602 -12.299,9.904 -19.304,13.346 -14.101,6.794 -29.687,10.074 -45.366,10.1 -15.551,-0.003 -31.235,-3.285 -45.31,-10.08 -7.008,-3.439 -13.687,-7.743 -19.308,-13.35 -2.779,-2.817 -5.325,-5.948 -7.169,-9.524 -0.925,-1.778 -1.652,-3.676 -2.068,-5.629 -0.395,-1.953 -0.47,-3.978 0.009,-5.816 0.968,3.667 3.25,6.375 5.757,8.685 2.554,2.289 5.427,4.186 8.434,5.839 6.021,3.304 12.502,5.753 19.098,7.679 13.23,3.842 26.906,5.613 40.621,5.648 13.587,-0.013 27.361,-1.785 40.565,-5.627 6.599,-1.924 13.082,-4.375 19.103,-7.684 3.007,-1.656 5.879,-3.555 8.432,-5.847 2.506,-2.313 4.785,-5.026 5.746,-8.693" />
    </g>
  </g>
</svg>
