<?xml version="1.0"?>
<svg xmlns:rdf="http://www.w3.org/1999/02/22-rdf-syntax-ns#" xmlns="http://www.w3.org/2000/svg" xmlns:cc="http://creativecommons.org/ns#" xmlns:xlink="http://www.w3.org/1999/xlink" xmlns:dc="http://purl.org/dc/elements/1.1/" xmlns:svg="http://www.w3.org/2000/svg" id="svg2" viewBox="0 0 744.09 1052.4" version="1.1">
  <defs id="defs4">
    <filter id="filter3842" y="-.39674" width="1.7324" x="-.36622" height="1.7935">
      <feGaussianBlur id="feGaussianBlur3844" stdDeviation="2.1253882"/>
    </filter>
  </defs>
  <g id="layer2">
    <g id="g3898" transform="translate(24.286 150)">
      <path id="path3856" stroke="#000" stroke-width="1px" fill="#e6e6e6" d="m275.77 568.5-42.426 67.175 12.122 14.142c-5.1144 19.926-8.5982 40.784-22.728 55.558l-16.162 4.5457-0.50508 48.487c59.861-27.22 106.39-17.65 127.28 62.629l-6.0609-96.47c3.7039 3.0304 4.8824-3.3672 8.5863-7.0711-5.3348-11.822-4.1879-24.724-1.5152-37.881l-6.0609-6.0609-2.0203-13.132 12.122 23.234c-6.4539 9.4093-1.4653 25.495-0.50507 37.376-8.0083 1.8771-7.3627 16.735-7.5762 30.305l7.5762 68.69c4.2181-5.7994 26.582 3.3896 25.937-2.8852-7.7542-75.476 77.168-63.476 112.96-51.158-6.0054-7.0018-6.8446-15.991-29.294-16.668l0.50508-19.193c-30.658 2.7234-32.641-46.525-43.437-79.802l-0.50508-15.657 15.657-2.0203-33.335-61.619z"/>
      <path id="path3786" stroke="#000" stroke-width="1px" fill="#311f1b" d="m289.91 37.159c-71 85.561-166.65 150.31-122.22 333.35 66.76 62.17 74.68 140.46 301.02 169.7-11.1-57.6 10.64-119.75 39.94-174.66 21.98-68.42 41.37-137.11 36.83-208.18-55.44-99.576-155.41-110.06-255.57-120.21z"/>
      <path id="path3806" stroke="#000" stroke-width="1px" fill="#ebcfba" d="m410.36 477.01c31.212 75.874 4.707 69.239-6.7857 70.714l-42.857-13.571 23.214-61.786z"/>
      <path id="path3804" stroke="#000" stroke-width="1px" fill="#ebcfba" d="m241.07 479.77c-4.3667 13.872-18.066 47.942 18.214 64.018l34.643-10.357-12.143-53.929z"/>
      <path id="path3798" stroke="#000" stroke-width="1px" fill="#4491bf" d="m324.66 405.2c-10.662-1.51-41.11-2.2246-57.978 4.7041-19.822 8.1424-29.571 33.119-43.437 51.518 11.136 18.408 28.576 32.613 53.069 26.978l6.5301-30.009c-5.3144 35.668-13.055 72.144-34.345 113.14 24.772 3.0444 100.71 67.157 160.61-11.112l-41.416-93.944 13.662 28.999c22.827-2.2682 25.713-12.731 33.815-19.907-8.9162-26.594-11.575-46.861-25.958-57.629-25.979-19.45-36.829-8.8076-64.557-12.735z"/>
      <path id="path3788" stroke="#000" stroke-width="1px" fill="#ebcfba" d="m312.14 353.34-1.0714 60.649 28.519 0.29587 0.83684-61.955z"/>
      <g id="g3786" transform="matrix(1.1645 0 0 1.1548 -95.935 -240.13)">
        <g id="layer2-8">
          <path id="path2997" stroke="#000" stroke-width="1px" fill="#ebcfba" d="m277.43 284.38c-32.718 40.287-30.214 92.874-11.429 141.43-6.2348-18.689-29.178-24.93-28.918-1.4286-0.88642 12.233-0.44607 25.431 7.7346 26.306l21.183 2.2654c-3.784 21.66-27.762 48.77 54.949 68.153 31.229 7.3185 65.685 8.9128 92.194-2.4387 31.467-13.475 67.558-25.395 57.143-65.714l21.429-4.2857c3.2424-0.64849 18.435-33.236-5.744-40.169-11.954-3.4277-13.069 14.874-17.113 20.169 19.836-49.662 39.093-111.09 1.4286-152.86-47.54-52.73-129.36-69.6-192.85 8.57z"/>
        </g>
      </g>
      <g id="g3942-8-8" stroke="#b3b3b3" stroke-width="2" fill="#fff" transform="matrix(.87352 0 0 .87352 .63568 -132.18)">
        <path id="path3850-2-2" transform="matrix(.93795 0 0 .97183 -28.494 7.6672)" d="m426.43 386.29c0 34.123-22.865 61.786-51.071 61.786s-51.071-27.662-51.071-61.786c0-34.123 22.865-61.786 51.071-61.786 27.698 0 50.347 26.71 51.055 60.208"/>
        <path id="path3850-1-4-4" transform="matrix(.78598 0 0 .92262 122.12 21.385)" d="m426.43 386.29c0 34.123-22.865 61.786-51.071 61.786s-51.071-27.662-51.071-61.786c0-34.123 22.865-61.786 51.071-61.786 27.698 0 50.347 26.71 51.055 60.208"/>
      </g>
      <path id="path3871-5-5" d="m340.71 413.79c0 9.8622-4.9568 17.857-11.071 17.857-6.1146 0-11.071-7.9949-11.071-17.857 0-9.8622 4.9568-17.857 11.071-17.857 4.7973 0 9.0487 4.9831 10.53 12.342l-10.53 5.5147z" stroke="#b3b3b3" stroke-width="2" transform="matrix(.87352 0 0 .87352 5.4 -139.05)"/>
      <path id="path3871-7-1-1" d="m340.71 413.79c0 9.8622-4.9568 17.857-11.071 17.857-6.1146 0-11.071-7.9949-11.071-17.857 0-9.8622 4.9568-17.857 11.071-17.857 4.7973 0 9.0487 4.9831 10.53 12.342l-10.53 5.5147z" stroke="#b3b3b3" stroke-width="2" transform="matrix(.87352 0 0 .87352 66.485 -135.01)"/>
      <path id="path3853" stroke="#af7e0a" stroke-width="4" fill="none" d="m238.57 263.79c37.225 101.37 134.55 88.359 167.14 7.1429"/>
      <path id="path3855" stroke="#af7e0a" stroke-width="4" fill="none" d="m391.43 265.22c11.983 1.3508 20.132 6.535 20.714 19.286"/>
      <path id="path3857" stroke="#af7e0a" stroke-width="4" fill="none" d="m253.55 259.03c-16.495-0.24226-21.859 9.1139-24.26 21.025"/>
      <path id="path3859" stroke="#af7e0a" stroke-width="4" fill="none" d="m303.57 271.65c8.2555-6.1531 12.919-25.954 30 1.4286"/>
      <path id="path3861" stroke="#000" stroke-width="1px" fill="#93664f" d="m365.71 113.08-11.429 21.429c21.522-3.4369 31.728 12.928 46.429 21.429-1.8658-17.961-3.4188-36.039-35-42.857z"/>
      <path id="path3863" stroke="#000" stroke-width="1px" fill="#93664f" d="m294.29 95.219 0.71 24.291c-24.373-1.2342-33.044 5.3827-38.571 13.571 3.2266-19.122 10.156-35.679 37.857-37.857z"/>
      <path id="path3784" stroke="#000" stroke-width="1px" fill="#93664f" d="m318.2 66.453c-26.675 29.886-6.596 40.724-97.985 96.975-17.504 25.602-35.567 50.084-50.508 80.812-13.435 51.371-6.6747 90.119 1.0102 128.29-24.812-15.664-36.861-77.278-48.487-140.41l8.0812-69.701c1.2-165.01 77.89-181.24 169.71-167.69-0.7809-32.148 23.783-53.032 46.467-74.751-5.9076 22.456-22.232 42.829-16.162 67.68 98.096-10.376 203.8-46.486 234.36 171.73-2.0338 83.831-15.933 157.49-55.558 209.1l-18.183-119.2c-13.76-51.93-93.34-120.31-145.47-181.83-7.56 29.798 4.44 53.07 12.12 77.79-24.61-21.17-39.01-46.867-39.39-78.797z"/>
      <path id="path3790" stroke="#000" stroke-width="1px" fill="#e6e6e6" d="m311.13 392.73c-8.5383 9.2947-19.156 18.4 1.0102 30.305 9.7648 7.79 19.53 6.6548 29.294 1.0102 16.364-12.142 8.0711-21.818-2.0203-31.315 2.0773 16.298-22.444 26.597-28.284 0z"/>
      <path id="path3800" stroke="#000" stroke-width="1px" fill="#e6e6e6" d="m230.54 450.49c11.512 19.792 29.936 25.206 49.018 26.071l-2.06 11.87c-26.146 5.0825-43.411-8.3257-55.357-27.857z"/>
      <path id="path3802" stroke="#000" stroke-width="1px" fill="#e6e6e6" d="m411.16 464.59c-8.2576 8.5426-18.102 18.111-34.732 21.071l4.6429 10.625c19.053-1.7998 28.238-11.828 34.107-21.161z"/>
      <path id="path3808" stroke="#000" stroke-width="1px" fill="#e6e6e6" d="m331.79 477.72c2.87-21.81-53.52-22.24-36.79 23.57-27.838-3.2251-23.388 46.532-0.71428 45.714-4.811 33.453 40.725 46.446 47.143 7.8571 39.268 14.717 53.33-35.229 18.214-43.571 10.66-18.304 5.6118-39.976-27.857-33.571z"/>
      <path id="path3812" d="m161.79 430.93c0 3.5504-3.118 6.4286-6.9643 6.4286s-6.9643-2.8782-6.9643-6.4286 3.118-6.4286 6.9643-6.4286 6.9643 2.8782 6.9643 6.4286z" transform="matrix(2.2812 0 0 2.2812 -28.362 -461.38)" filter="url(#filter3842)" stroke-width="0" fill="#fc0"/>
      <path id="path3858" stroke="#000" stroke-width="1px" fill="#4491bf" d="m179.81 828.61c-6.86-22.735-9.535-46.741 24.244-69.701 24.717-16.801 106.1-46.801 128.29 60.609l1.0102 12.122z"/>
      <path id="path3858-1" stroke="#000" stroke-width=".92765px" fill="#4491bf" d="m497.35 829.3c6.3637-21.091 5.5228-39.147-22.49-64.658-16.188-14.742-101.89-42.648-136.69 55.214l16.741 12.255z"/>
      <path id="path3878" stroke="#000" stroke-width="1px" d="m176.78 817.5 0.50507 13.132 156.07 0.50507-0.50508-12.627z"/>
      <path id="path3878-7" stroke="#000" stroke-width="1px" d="m337.9 819.27 0.50507 13.132 161.62-0.00001 0.50507-11.617z"/>
    </g>
  </g>
  <metadata>
    <rdf:RDF>
      <cc:Work>
        <dc:format>image/svg+xml</dc:format>
        <dc:type rdf:resource="http://purl.org/dc/dcmitype/StillImage"/>
        <cc:license rdf:resource="http://creativecommons.org/licenses/publicdomain/"/>
        <dc:publisher>
          <cc:Agent rdf:about="http://openclipart.org/">
            <dc:title>Openclipart</dc:title>
          </cc:Agent>
        </dc:publisher>
        <dc:title>cristal</dc:title>
        <dc:date>2012-08-18T07:49:30</dc:date>
        <dc:description>school days</dc:description>
        <dc:source>http://openclipart.org/detail/171800/cristal-by-sammo241-171800</dc:source>
        <dc:creator>
          <cc:Agent>
            <dc:title>sammo241</dc:title>
          </cc:Agent>
        </dc:creator>
        <dc:subject>
          <rdf:Bag>
            <rdf:li>cartoon</rdf:li>
            <rdf:li>clip art</rdf:li>
            <rdf:li>clipart</rdf:li>
            <rdf:li>girl</rdf:li>
            <rdf:li>school</rdf:li>
          </rdf:Bag>
        </dc:subject>
      </cc:Work>
      <cc:License rdf:about="http://creativecommons.org/licenses/publicdomain/">
        <cc:permits rdf:resource="http://creativecommons.org/ns#Reproduction"/>
        <cc:permits rdf:resource="http://creativecommons.org/ns#Distribution"/>
        <cc:permits rdf:resource="http://creativecommons.org/ns#DerivativeWorks"/>
      </cc:License>
    </rdf:RDF>
  </metadata>
</svg>
